<svg width="100" height="52" viewBox="0 0 100 52" fill="none" xmlns="http://www.w3.org/2000/svg">
<path d="M36.9925 38.5544H11.3832C10.1782 38.5544 9.68529 41.0858 10.7406 41.6674C16.5551 44.8722 21.6667 49.2645 23.525 50.9372C23.9424 51.3129 24.5857 51.3022 24.9914 50.9139C26.7764 49.2055 31.6861 44.7588 37.6012 41.5257C38.6526 40.951 38.1907 38.5544 36.9925 38.5544Z" fill="#4573E7"/>
<rect width="99.0954" height="45.4013" rx="22.7007" fill="url(#paint0_linear_674_33982)"/>
<rect x="4.86823" y="4.86819" width="89.359" height="35.6649" rx="17.8325" fill="#D6DFF5"/>
<path opacity="0.9" fill-rule="evenodd" clip-rule="evenodd" d="M25.2044 10.2959C27.6176 9.25732 30.2823 8.9491 32.8688 9.40933C40.211 10.704 45.1123 17.7045 43.8177 25.0457C42.523 32.3869 35.5226 37.2892 28.1813 35.9946C20.8401 34.6999 15.9378 27.6994 17.2324 20.3582C17.8085 17.0633 19.5919 14.1012 22.2343 12.0504C22.166 13.0111 22.1465 14.1798 22.1738 15.5614C20.8964 17.0526 20.0442 18.8603 19.7065 20.7946C19.5529 21.6654 19.5063 22.5303 19.5575 23.3758C19.7496 23.4186 19.9431 23.4571 20.1379 23.4912C22.4439 23.898 24.7145 23.6627 26.7663 22.9136C25.3804 20.2155 24.6679 17.0931 24.5693 13.5615C24.5442 13.597 24.5239 13.6096 24.52 13.5589C24.4663 12.8559 24.4497 11.1541 24.52 10.6874L25.2044 10.2959ZM27.0002 12.2937C26.9487 15.9946 27.5727 19.1778 28.9711 21.8619C32.0555 20.0134 34.3511 16.8877 35.0244 13.0686C35.046 12.9468 35.0659 12.8248 35.084 12.7028C34.257 12.3266 33.3695 12.0475 32.4334 11.8824C30.603 11.557 28.7348 11.7052 27.0002 12.2937ZM28.057 25.0336C25.5897 26.0247 22.8349 26.3842 20.0271 25.9479C21.207 29.7539 24.4234 32.782 28.6178 33.5215C28.6968 33.5354 28.7759 33.5485 28.8549 33.5607C29.7502 31.9409 30.858 30.45 32.1475 29.1272C30.5083 27.9302 29.1496 26.5645 28.057 25.0336ZM33.9965 27.4465C32.5062 26.4187 31.271 25.2464 30.2748 23.9268C33.7658 21.8167 36.3997 18.3284 37.3174 14.0636C40.1478 16.2928 41.7949 19.8518 41.4738 23.6203C38.7482 24.3705 36.2029 25.6719 33.9965 27.4465ZM34.2466 30.4804C33.2679 31.4311 32.3989 32.4885 31.6559 33.6328C33.5194 33.441 35.2748 32.7747 36.7736 31.7382C35.8791 31.3497 35.0371 30.9303 34.2466 30.4804ZM38.8003 29.9307C37.8955 29.5812 37.0472 29.202 36.2541 28.7929C37.6755 27.7627 39.2358 26.9447 40.8856 26.3618C40.4149 27.6995 39.6993 28.9035 38.8003 29.9307Z" fill="#4573E7"/>
<path d="M58.4041 14.0886C58.7642 14.9513 59.2293 15.7503 59.7995 16.4856C60.3697 17.2133 61.0074 17.896 61.7126 18.5337L60.9474 19.5803C60.3397 18.9876 59.7733 18.3274 59.2481 17.5997C58.7304 16.8719 58.2953 16.1105 57.9427 15.3152V18.5112H59.687V19.5465H57.9427V21.3809H56.8398V19.5465H55.1856V18.5112H56.8398V15.3715C56.5247 16.1292 56.1421 16.8494 55.692 17.5322C55.2418 18.2149 54.6904 18.8976 54.0377 19.5803L53.6438 19.0514V21.3021H52.5635V15.9116C52.4209 16.1292 52.2746 16.3468 52.1246 16.5643C51.9821 16.7744 51.832 16.9845 51.6745 17.1945L50.9767 16.193C51.1793 15.9004 51.3894 15.5665 51.6069 15.1914C51.832 14.8088 52.0496 14.3999 52.2596 13.9648C52.4772 13.5296 52.676 13.0795 52.8561 12.6143C53.0436 12.1492 53.2049 11.6878 53.34 11.2302L54.5104 11.4327C54.2628 12.288 53.9739 13.0907 53.6438 13.841V18.2636C54.8592 17.0708 55.7895 15.6791 56.4347 14.0886H54.1502V12.952H56.8398V11.1851L57.9427 11.2302V12.952H61.0037V14.0886H58.4041ZM72.329 13.042H69.7181C70.0783 13.2896 70.4459 13.5596 70.821 13.8522C71.2036 14.1448 71.5412 14.4187 71.8338 14.6737L71.2711 15.6753C71.1661 15.5703 71.0423 15.4577 70.8998 15.3377C70.7647 15.2177 70.6222 15.0939 70.4721 14.9663C70.2321 14.9663 69.8869 14.9738 69.4368 14.9888C68.9942 14.9964 68.5028 15.0076 67.9626 15.0226C67.4224 15.0376 66.8635 15.0564 66.2858 15.0789C65.7081 15.0939 65.1717 15.1126 64.6765 15.1351C64.414 15.1501 64.1701 15.1652 63.9451 15.1802C63.7275 15.1877 63.5324 15.1989 63.3599 15.2139L63.1798 14.1223C63.3224 14.1073 63.4424 14.0773 63.5399 14.0323C63.6375 13.9798 63.7162 13.9385 63.7763 13.9085C64.0013 13.8035 64.2377 13.6759 64.4852 13.5259C64.7403 13.3758 64.9879 13.2145 65.228 13.042H62.4708V12.0742H66.8597C66.8222 11.9241 66.781 11.7816 66.7359 11.6465C66.6984 11.5115 66.6534 11.369 66.6009 11.2189L67.7713 11.0276C67.8238 11.1701 67.8763 11.3352 67.9288 11.5227C67.9813 11.7028 68.0339 11.8866 68.0864 12.0742H72.329V13.042ZM69.3468 14.0661C69.1667 13.931 68.9979 13.8035 68.8404 13.6834C68.6828 13.5559 68.5403 13.4509 68.4127 13.3683L68.6941 13.042H66.826C66.5409 13.2821 66.2595 13.5034 65.982 13.7059C65.7119 13.901 65.4793 14.0511 65.2842 14.1561L69.3468 14.0661ZM63.7988 15.619H70.9898V19.9854C70.9898 20.2105 70.9673 20.4018 70.9223 20.5594C70.8848 20.7244 70.8135 20.8557 70.7085 20.9532C70.6109 21.0583 70.4721 21.137 70.2921 21.1896C70.112 21.2496 69.8869 21.2871 69.6169 21.3021L68.6378 21.3584L68.334 20.3906L69.3918 20.323C69.5868 20.308 69.7219 20.2705 69.7969 20.2105C69.8794 20.143 69.9207 20.0079 69.9207 19.8054V19.7041H64.8679V21.2571H63.7988V15.619ZM64.8679 16.5081V17.2058H69.9207V16.5081H64.8679ZM69.9207 18.8151V18.1061H64.8679V18.8151H69.9207ZM83.1816 12.3105V14.1786H82.1013V13.3008H78.1963V14.1786H77.1385V12.3105H79.558C79.513 12.1605 79.4642 12.0104 79.4117 11.8604C79.3667 11.7103 79.3179 11.5603 79.2654 11.4102L80.3232 11.2189C80.3832 11.369 80.4433 11.5415 80.5033 11.7366C80.5633 11.9241 80.6233 12.1154 80.6833 12.3105H83.1816ZM75.6305 19.3102C75.698 19.2502 75.7805 19.1827 75.8781 19.1077C75.9756 19.0326 76.0694 18.9576 76.1594 18.8826C76.2569 18.8001 76.347 18.725 76.4295 18.6575C76.5195 18.5825 76.5945 18.5187 76.6546 18.4662L76.9697 19.5803C76.9246 19.6103 76.8421 19.6703 76.7221 19.7604C76.6095 19.8429 76.4783 19.9367 76.3282 20.0417C76.1857 20.1467 76.0394 20.2555 75.8893 20.3681C75.7468 20.4806 75.623 20.5744 75.5179 20.6494C75.4354 20.7244 75.3341 20.8069 75.2141 20.897C75.0941 20.987 74.9853 21.0733 74.8877 21.1558L74.3138 20.3005C74.4639 20.173 74.5539 20.0567 74.5839 19.9517C74.6214 19.8466 74.6402 19.7191 74.6402 19.569V15.0226L75.608 15.0676L76.0806 13.8297H75.034C74.914 14.1898 74.7827 14.55 74.6402 14.9101C74.4976 15.2702 74.3288 15.6753 74.1338 16.1255L73.2447 15.5178C73.4023 15.1501 73.5486 14.8013 73.6836 14.4712C73.8262 14.1336 73.9575 13.7997 74.0775 13.4696C74.1975 13.132 74.3063 12.7869 74.4038 12.4343C74.5089 12.0742 74.6064 11.6878 74.6964 11.2752L75.6642 11.4215C75.6042 11.669 75.548 11.9054 75.4954 12.1304C75.4504 12.348 75.3979 12.5581 75.3379 12.7606H76.8909V13.841L76.3282 15.5853L75.6305 15.3377V19.3102ZM78.6464 17.8585H82.7315V21.3696H81.6962V20.9195H78.6464V21.4259H77.5999V14.2011H82.4952V17.127H78.6464V17.8585ZM78.6464 15.1577V16.1592H81.4486V15.1577H78.6464ZM78.6464 18.8263V19.9854H81.6962V18.8263H78.6464Z" fill="#123871"/>
<path d="M56.9629 29.1641C57.255 29.8639 57.6323 30.512 58.0947 31.1083C58.5572 31.6986 59.0745 32.2524 59.6465 32.7696L59.0258 33.6185C58.5329 33.1378 58.0734 32.6023 57.6475 32.012C57.2276 31.4217 56.8746 30.8041 56.5886 30.159V32.7513H58.0035V33.5911H56.5886V35.079H55.6941V33.5911H54.3523V32.7513H55.6941V30.2047C55.4385 30.8193 55.1282 31.4035 54.7631 31.9572C54.3979 32.511 53.9507 33.0647 53.4213 33.6185L53.1018 33.1895V35.0151H52.2255V30.6428C52.1099 30.8193 51.9912 30.9958 51.8695 31.1722C51.7539 31.3426 51.6322 31.513 51.5044 31.6834L50.9385 30.871C51.1028 30.6337 51.2732 30.3629 51.4496 30.0586C51.6322 29.7483 51.8087 29.4166 51.9791 29.0637C52.1555 28.7107 52.3168 28.3456 52.4628 27.9683C52.615 27.591 52.7458 27.2168 52.8553 26.8456L53.8046 27.0099C53.6038 27.7036 53.3695 28.3547 53.1018 28.9633V32.5505C54.0876 31.583 54.8422 30.4542 55.3655 29.1641H53.5125V28.2422H55.6941V26.8091L56.5886 26.8456V28.2422H59.0714V29.1641H56.9629ZM68.2575 28.3152H66.1398C66.4319 28.516 66.7301 28.7351 67.0344 28.9724C67.3447 29.2097 67.6186 29.4318 67.8559 29.6387L67.3995 30.4511C67.3143 30.3659 67.2139 30.2746 67.0983 30.1773C66.9887 30.0799 66.8731 29.9795 66.7514 29.8761C66.5567 29.8761 66.2768 29.8821 65.9116 29.8943C65.5526 29.9004 65.154 29.9095 64.7159 29.9217C64.2777 29.9339 63.8244 29.9491 63.3558 29.9673C62.8873 29.9795 62.4522 29.9947 62.0505 30.013C61.8376 30.0252 61.6398 30.0373 61.4572 30.0495C61.2808 30.0556 61.1225 30.0647 60.9826 30.0769L60.8365 29.1915C60.9521 29.1793 61.0495 29.155 61.1286 29.1184C61.2077 29.0759 61.2716 29.0424 61.3203 29.018C61.5029 28.9328 61.6946 28.8294 61.8954 28.7077C62.1023 28.586 62.3031 28.4552 62.4978 28.3152H60.2615V27.5302H63.8213C63.7909 27.4085 63.7575 27.2929 63.7209 27.1833C63.6905 27.0738 63.654 26.9582 63.6114 26.8365L64.5607 26.6813C64.6033 26.7969 64.6459 26.9308 64.6885 27.0829C64.7311 27.229 64.7737 27.3781 64.8163 27.5302H68.2575V28.3152ZM65.8386 29.1458C65.6926 29.0363 65.5556 28.9328 65.4279 28.8355C65.3001 28.732 65.1844 28.6468 65.081 28.5799L65.3092 28.3152H63.794C63.5627 28.5099 63.3345 28.6894 63.1094 28.8537C62.8903 29.012 62.7017 29.1337 62.5434 29.2189L65.8386 29.1458ZM61.3386 30.4055H67.1713V33.9471C67.1713 34.1297 67.153 34.2848 67.1165 34.4126C67.0861 34.5465 67.0283 34.653 66.9431 34.7321C66.864 34.8173 66.7514 34.8812 66.6054 34.9238C66.4593 34.9725 66.2768 35.0029 66.0577 35.0151L65.2636 35.0607L65.0171 34.2757L65.8751 34.2209C66.0333 34.2088 66.1429 34.1783 66.2037 34.1297C66.2707 34.0749 66.3041 33.9654 66.3041 33.8011V33.7189H62.2057V34.9786H61.3386V30.4055ZM62.2057 31.1266V31.6925H66.3041V31.1266H62.2057ZM66.3041 32.9978V32.4227H62.2057V32.9978H66.3041ZM76.8777 29.7757C76.8716 29.8365 76.8624 29.9613 76.8503 30.1499C76.8442 30.3385 76.8351 30.5607 76.8229 30.8162C76.8107 31.0657 76.7955 31.3365 76.7772 31.6286C76.759 31.9207 76.7438 32.2006 76.7316 32.4684C76.7194 32.7361 76.7042 32.9765 76.686 33.1895C76.6738 33.4025 76.6647 33.5576 76.6586 33.655C76.6403 33.8923 76.6069 34.084 76.5582 34.2301C76.5095 34.3761 76.4304 34.4917 76.3209 34.5769C76.2174 34.6682 76.0774 34.7321 75.901 34.7686C75.7306 34.8112 75.5115 34.8416 75.2438 34.8599L74.7417 34.8964L74.4588 34.011L75.0247 33.9654C75.1829 33.9532 75.3077 33.938 75.3989 33.9197C75.4963 33.8954 75.5724 33.8619 75.6271 33.8193C75.6819 33.7767 75.7215 33.7189 75.7458 33.6459C75.7701 33.5668 75.7914 33.4633 75.8097 33.3355C75.8219 33.2382 75.8371 33.0647 75.8553 32.8152C75.8736 32.5657 75.8918 32.298 75.9101 32.012C75.9284 31.7199 75.9466 31.443 75.9649 31.1814C75.9831 30.9197 75.9953 30.728 76.0014 30.6063H75.262C75.1951 31.1235 75.1008 31.5921 74.9791 32.012C74.8634 32.4319 74.7143 32.8213 74.5318 33.1804C74.3492 33.5394 74.1241 33.8771 73.8563 34.1936C73.5947 34.51 73.2843 34.8234 72.9253 35.1337L72.2133 34.5769C72.548 34.2909 72.837 34.011 73.0805 33.7372C73.3239 33.4633 73.5308 33.1712 73.7012 32.8609C73.8776 32.5505 74.0237 32.2128 74.1393 31.8477C74.261 31.4826 74.3675 31.0688 74.4588 30.6063H73.7103C73.5399 31.3244 73.2752 31.9785 72.9162 32.5688C72.5632 33.1591 72.0764 33.7067 71.4557 34.2118L70.7894 33.655C70.9293 33.5455 71.0571 33.439 71.1727 33.3355C71.2944 33.226 71.407 33.1165 71.5105 33.0069C71.3462 33.0678 71.1666 33.1317 70.9719 33.1986C70.7833 33.2656 70.5885 33.3325 70.3877 33.3994C70.193 33.4664 69.9983 33.5333 69.8035 33.6002C69.6149 33.6672 69.4354 33.7311 69.265 33.7919L69.0733 32.9065C69.2498 32.8578 69.4384 32.8031 69.6392 32.7422C69.8401 32.6753 70.0439 32.6083 70.2508 32.5414V29.7483H69.338V28.8811H70.2508V26.7817L71.1362 26.8182V28.8811H71.9851V29.7483H71.1362V32.2493C71.2762 32.2006 71.4009 32.158 71.5105 32.1215C71.6261 32.0789 71.7265 32.0424 71.8117 32.012L71.8664 32.6144C72.1281 32.298 72.3381 31.9785 72.4963 31.656C72.6606 31.3274 72.7944 30.9775 72.8979 30.6063H72.0125V29.8487L74.8056 28.1144H72.2681V27.229H76.3391V28.1326L73.5642 29.7757H76.8777Z" fill="#3A5A8A"/>
<defs>
<linearGradient id="paint0_linear_674_33982" x1="86.9675" y1="-0.181216" x2="9.10392" y2="37.9581" gradientUnits="userSpaceOnUse">
<stop offset="0.5" stop-color="#809AF5"/>
<stop offset="0.5" stop-color="#3867E2"/>
</linearGradient>
</defs>
</svg>
