<svg width="122" height="52" viewBox="0 0 122 52" fill="none" xmlns="http://www.w3.org/2000/svg">
<path d="M38.9925 38.5544H13.3832C12.1782 38.5544 11.6853 41.0858 12.7406 41.6674C18.5551 44.8722 23.6667 49.2645 25.525 50.9372C25.9424 51.3129 26.5857 51.3022 26.9914 50.9139C28.7764 49.2055 33.6861 44.7588 39.6012 41.5257C40.6526 40.951 40.1907 38.5544 38.9925 38.5544Z" fill="#4573E7"/>
<rect width="121.095" height="45.4013" rx="22.7007" fill="url(#paint0_linear_674_33984)"/>
<rect x="4.86823" y="4.86823" width="111.359" height="35.6649" rx="17.8325" fill="#D6DFF5"/>
<path opacity="0.9" fill-rule="evenodd" clip-rule="evenodd" d="M25.2044 10.2959C27.6176 9.25735 30.2823 8.94913 32.8688 9.40936C40.211 10.704 45.1123 17.7045 43.8177 25.0457C42.523 32.387 35.5226 37.2893 28.1813 35.9946C20.8401 34.7 15.9378 27.6995 17.2324 20.3582C17.8085 17.0633 19.5919 14.1013 22.2343 12.0504C22.166 13.0111 22.1465 14.1798 22.1738 15.5614C20.8964 17.0527 20.0442 18.8604 19.7065 20.7947C19.5529 21.6655 19.5063 22.5303 19.5575 23.3758C19.7496 23.4186 19.9431 23.4571 20.1379 23.4912C22.4439 23.898 24.7145 23.6627 26.7663 22.9136C25.3804 20.2155 24.6679 17.0932 24.5693 13.5616C24.5442 13.597 24.5239 13.6096 24.52 13.5589C24.4663 12.8559 24.4497 11.1541 24.52 10.6874L25.2044 10.2959ZM27.0002 12.2937C26.9487 15.9946 27.5727 19.1778 28.9711 21.8619C32.0555 20.0134 34.3511 16.8877 35.0244 13.0686C35.046 12.9468 35.0659 12.8249 35.084 12.7029C34.257 12.3266 33.3695 12.0475 32.4334 11.8825C30.603 11.557 28.7348 11.7053 27.0002 12.2937ZM28.057 25.0336C25.5897 26.0247 22.8349 26.3842 20.0271 25.9479C21.207 29.7539 24.4234 32.782 28.6178 33.5215C28.6968 33.5354 28.7759 33.5485 28.8549 33.5607C29.7502 31.9409 30.858 30.4501 32.1475 29.1272C30.5083 27.9303 29.1496 26.5645 28.057 25.0336ZM33.9965 27.4465C32.5062 26.4187 31.271 25.2465 30.2748 23.9268C33.7658 21.8168 36.3997 18.3284 37.3174 14.0636C40.1478 16.2929 41.7949 19.8518 41.4738 23.6203C38.7482 24.3705 36.2029 25.672 33.9965 27.4465ZM34.2466 30.4805C33.2679 31.4311 32.3989 32.4886 31.6559 33.6328C33.5194 33.441 35.2748 32.7748 36.7736 31.7383C35.8791 31.3497 35.0371 30.9304 34.2466 30.4805ZM38.8003 29.9307C37.8955 29.5812 37.0472 29.2021 36.2541 28.7929C37.6755 27.7628 39.2358 26.9447 40.8856 26.3619C40.4149 27.6995 39.6993 28.9035 38.8003 29.9307Z" fill="#4573E7"/>
<path d="M60.3059 12.6257V21.3022H59.2594V20.7732H53.3625V21.3247H52.2934V12.6257H55.0505C55.103 12.4831 55.1593 12.3331 55.2193 12.1755C55.2793 12.018 55.3356 11.8642 55.3881 11.7141C55.4482 11.5641 55.5007 11.429 55.5457 11.309C55.5907 11.1815 55.6245 11.0764 55.647 10.9939L56.8061 11.2865C56.7236 11.5041 56.6373 11.7329 56.5472 11.973C56.4572 12.2055 56.3709 12.4231 56.2884 12.6257H60.3059ZM53.3625 13.7285V16.1255H59.2594V13.7285H53.3625ZM59.2594 19.6816V17.1834H53.3625V19.6816H59.2594ZM66.6572 18.4888C66.6572 18.6388 66.6384 18.7626 66.6009 18.8601C66.5709 18.9577 66.5221 19.0364 66.4546 19.0965C66.3871 19.1565 66.3008 19.2052 66.1958 19.2428C66.0982 19.2728 65.982 19.299 65.8469 19.3215L65.4755 19.3778L65.183 18.455L65.1942 21.3472H64.2714V14.0774H63.6187V19.344H62.7072V13.0195H64.2489V11.2415L65.2055 11.2865L65.183 13.0195H66.6572V18.4888ZM72.5203 18.545C72.5203 18.6501 72.5165 18.7739 72.509 18.9164C72.5015 19.0514 72.4903 19.1902 72.4753 19.3328C72.4678 19.4678 72.4565 19.5991 72.4415 19.7267C72.4265 19.8542 72.4152 19.963 72.4077 20.053C72.3852 20.2556 72.3515 20.4206 72.3065 20.5482C72.2689 20.6757 72.2127 20.777 72.1377 20.852C72.0626 20.9345 71.9651 20.9946 71.8451 21.0321C71.725 21.0696 71.575 21.0958 71.3949 21.1108C71.3199 21.1184 71.2261 21.1221 71.1136 21.1221C71.001 21.1221 70.9073 21.1184 70.8322 21.1108C70.5246 21.0883 70.2771 20.9946 70.0895 20.8295C69.9019 20.672 69.8082 20.3831 69.8082 19.963V17.3972L69.2905 17.7235C69.223 17.5735 69.1405 17.3972 69.0429 17.1946C68.9529 16.9845 68.8554 16.767 68.7503 16.5419C68.6528 16.3093 68.5515 16.0805 68.4465 15.8554C68.349 15.6304 68.2589 15.4203 68.1764 15.2252V15.6754C68.1764 16.2531 68.1689 16.7632 68.1539 17.2059C68.1389 17.6485 68.1126 18.0461 68.0751 18.3987C68.0376 18.7438 67.9851 19.0552 67.9176 19.3328C67.85 19.6029 67.7638 19.858 67.6587 20.098C67.5537 20.3306 67.4262 20.5557 67.2761 20.7732C67.1336 20.9983 66.9648 21.2309 66.7697 21.471L65.9144 20.6832C66.1845 20.3756 66.4021 20.0943 66.5671 19.8392C66.7397 19.5766 66.871 19.2728 66.961 18.9277C67.0585 18.5825 67.1223 18.1549 67.1523 17.6448C67.1823 17.1346 67.1973 16.4744 67.1973 15.6641V11.7591H70.8097V19.6816C70.8097 19.8242 70.821 19.918 70.8435 19.963C70.8735 20.008 70.941 20.038 71.0461 20.053C71.1211 20.068 71.1999 20.068 71.2824 20.053C71.3649 20.038 71.4212 20.008 71.4512 19.963C71.4812 19.9105 71.5112 19.7904 71.5412 19.6029C71.5487 19.5429 71.5562 19.4603 71.5637 19.3553C71.5712 19.2428 71.5787 19.1227 71.5862 18.9952C71.6012 18.8676 71.6125 18.7401 71.62 18.6126C71.6275 18.485 71.6312 18.3725 71.6312 18.2749L72.5203 18.545ZM68.7953 14.4487C68.8554 14.5538 68.9266 14.6888 69.0092 14.8539C69.0917 15.0114 69.178 15.184 69.268 15.3715C69.358 15.5591 69.4481 15.7542 69.5381 15.9567C69.6356 16.1518 69.7256 16.3431 69.8082 16.5306V12.862H68.1764V14.7526L68.7953 14.4487ZM65.7681 14.0774H65.1717L65.183 18.3425L65.453 18.3087C65.5581 18.2937 65.6368 18.2674 65.6894 18.2299C65.7419 18.1849 65.7681 18.1099 65.7681 18.0049V14.0774ZM75.6305 14.1561C75.5555 14.0136 75.4542 13.8448 75.3266 13.6497C75.1991 13.4547 75.0603 13.2559 74.9103 13.0533C74.7602 12.8432 74.6102 12.6444 74.4601 12.4569C74.3101 12.2618 74.1788 12.1005 74.0662 11.973L74.9103 11.2977C75.0228 11.4178 75.1503 11.5641 75.2929 11.7366C75.4354 11.9092 75.578 12.093 75.7205 12.2881C75.8706 12.4756 76.0131 12.6632 76.1481 12.8507C76.2832 13.0383 76.4032 13.2108 76.5083 13.3684L75.6305 14.1561ZM82.664 12.7945H77.0372V11.7704H82.664V12.7945ZM79.7943 15.3378C79.6893 15.5628 79.573 15.7917 79.4454 16.0242C79.3254 16.2568 79.2016 16.4819 79.0741 16.6995C78.9465 16.9095 78.8227 17.1083 78.7027 17.2959C78.5827 17.4759 78.4701 17.6297 78.3651 17.7573L81.2685 17.5772C81.1185 17.3146 80.9759 17.0671 80.8409 16.8345C80.7058 16.6019 80.5821 16.4031 80.4695 16.2381L81.4036 15.7091C81.5236 15.8817 81.6624 16.103 81.8199 16.3731C81.985 16.6357 82.1463 16.9133 82.3038 17.2059C82.4689 17.491 82.6264 17.7723 82.7765 18.0499C82.9265 18.3275 83.0466 18.5675 83.1366 18.7701L82.2138 19.4791C82.1613 19.359 82.1013 19.2315 82.0338 19.0965C81.9737 18.9539 81.9025 18.8039 81.8199 18.6463C81.6549 18.6613 81.4486 18.6763 81.201 18.6913C80.9534 18.7063 80.6833 18.7251 80.3907 18.7476C80.0981 18.7626 79.7943 18.7851 79.4792 18.8151C79.1641 18.8376 78.8565 18.8601 78.5564 18.8826C78.2563 18.9051 77.975 18.9277 77.7124 18.9502C77.4498 18.9727 77.2247 18.9914 77.0372 19.0064L76.7558 17.9824C76.9209 17.8998 77.0409 17.8098 77.116 17.7123C77.1985 17.6147 77.266 17.536 77.3185 17.4759C77.4911 17.2434 77.6861 16.9358 77.9037 16.5532C78.1288 16.1705 78.3388 15.7654 78.5339 15.3378H76.4858V14.3137H83.2491V15.3378H79.7943ZM78.8377 19.9742C79.5955 19.9892 80.3607 19.993 81.1335 19.9855C81.9137 19.9705 82.6902 19.9442 83.463 19.9067L83.2942 20.9983C82.5214 21.0358 81.7449 21.0583 80.9647 21.0658C80.1844 21.0808 79.4154 21.0808 78.6577 21.0658C78.2751 21.0583 77.9337 21.0358 77.6336 20.9983C77.341 20.9683 77.0709 20.9083 76.8234 20.8183C76.5833 20.7282 76.3582 20.5969 76.1481 20.4244C75.9381 20.2593 75.7243 20.0343 75.5067 19.7492C75.2741 19.9892 75.0378 20.2256 74.7977 20.4581C74.5651 20.6907 74.3288 20.9158 74.0887 21.1334L73.3685 20.2331C73.6386 20.0005 73.9049 19.7679 74.1675 19.5353C74.4376 19.2953 74.6927 19.0402 74.9328 18.7701V15.9567H73.6273V14.8764H75.9906V18.7589C76.1707 19.0064 76.3507 19.209 76.5308 19.3665C76.7183 19.5166 76.9209 19.6366 77.1385 19.7267C77.356 19.8167 77.6036 19.8805 77.8812 19.918C78.1588 19.948 78.4776 19.9667 78.8377 19.9742ZM94.1468 13.1771C94.1468 13.3121 94.1393 13.5447 94.1243 13.8748C94.1168 14.2049 94.1056 14.5838 94.0905 15.0114C94.0755 15.4391 94.0568 15.8929 94.0343 16.3731C94.0193 16.8532 94.0043 17.3109 93.9893 17.746C93.9743 18.1812 93.9593 18.575 93.9443 18.9277C93.9368 19.2728 93.9292 19.5241 93.9217 19.6816C93.9142 19.9592 93.8805 20.1806 93.8205 20.3456C93.7679 20.5182 93.6779 20.6532 93.5504 20.7507C93.4228 20.8483 93.254 20.9195 93.044 20.9646C92.8414 21.0171 92.5863 21.0583 92.2787 21.0883L91.581 21.1559L91.1984 20.0643L91.8511 19.9967C92.0612 19.9742 92.23 19.9517 92.3575 19.9292C92.4925 19.8992 92.5976 19.858 92.6726 19.8054C92.7476 19.7454 92.8001 19.6629 92.8302 19.5579C92.8602 19.4528 92.8789 19.3103 92.8864 19.1302C92.8939 19.0177 92.9014 18.8376 92.9089 18.59C92.9164 18.3425 92.9239 18.0611 92.9314 17.746C92.9464 17.4234 92.9577 17.0858 92.9652 16.7332C92.9802 16.3731 92.9915 16.0317 92.999 15.7091C93.014 15.3865 93.0252 15.0977 93.0327 14.8426C93.0402 14.5875 93.0477 14.4 93.0552 14.2799H91.4572C91.4272 14.9251 91.3972 15.5028 91.3672 16.013C91.3372 16.5231 91.2959 16.992 91.2434 17.4197C91.1909 17.8398 91.1234 18.2262 91.0408 18.5788C90.9583 18.9314 90.8458 19.2728 90.7032 19.6029C90.5682 19.933 90.3994 20.2593 90.1968 20.5819C89.9943 20.912 89.7504 21.2609 89.4653 21.6285L88.4638 20.942C88.6138 20.762 88.7489 20.5894 88.8689 20.4244C88.9964 20.2593 89.1127 20.098 89.2178 19.9405L88.7451 20.2556L88.6438 19.9742C88.4488 19.9892 88.1937 20.0118 87.8786 20.0418C87.571 20.0643 87.2484 20.0943 86.9108 20.1318C86.5732 20.1618 86.2393 20.1956 85.9092 20.2331C85.5791 20.2706 85.3015 20.3118 85.0764 20.3569L84.6601 19.1977C84.8101 19.1302 84.9114 19.0589 84.9639 18.9839C85.0164 18.9014 85.0727 18.7964 85.1327 18.6688C85.1927 18.5563 85.2678 18.3987 85.3578 18.1962C85.4478 17.9861 85.5416 17.7535 85.6391 17.4985C85.7367 17.2434 85.8342 16.9733 85.9317 16.6882C86.0292 16.4031 86.1193 16.1255 86.2018 15.8554H84.615V14.7301H89.5216V15.8554H87.3834C87.3009 16.1255 87.2071 16.4181 87.1021 16.7332C86.9971 17.0483 86.892 17.3522 86.787 17.6448C86.682 17.9373 86.5769 18.2037 86.4719 18.4438C86.3744 18.6838 86.2881 18.8639 86.2131 18.9839L88.2274 18.8489C88.0999 18.4963 87.9686 18.1549 87.8336 17.8248C87.6985 17.4872 87.5747 17.1909 87.4622 16.9358L88.4638 16.5532C88.5463 16.7332 88.6326 16.9395 88.7226 17.1721C88.8201 17.3972 88.9177 17.6335 89.0152 17.8811C89.1127 18.1212 89.2065 18.365 89.2965 18.6126C89.3941 18.8601 89.4841 19.0965 89.5666 19.3215C89.7167 19.0289 89.8367 18.7213 89.9267 18.3987C90.0243 18.0761 90.103 17.716 90.1631 17.3184C90.2231 16.9208 90.2681 16.4781 90.2981 15.9905C90.3356 15.4953 90.3656 14.9251 90.3881 14.2799H89.139V13.1771H90.4219C90.4369 12.847 90.4481 12.4981 90.4556 12.1305C90.4631 11.7554 90.4707 11.4365 90.4782 11.1739L91.5247 11.219C91.5247 11.4365 91.521 11.7216 91.5135 12.0742C91.5135 12.4193 91.5097 12.787 91.5022 13.1771H94.1468ZM89.1727 13.0195H85.189V11.9279H89.1727V13.0195ZM105.112 14.8426C105.105 14.9176 105.093 15.0714 105.078 15.304C105.071 15.5366 105.059 15.8104 105.044 16.1255C105.029 16.4331 105.011 16.767 104.988 17.1271C104.966 17.4872 104.947 17.8323 104.932 18.1624C104.917 18.4925 104.898 18.7889 104.876 19.0514C104.861 19.314 104.849 19.5053 104.842 19.6254C104.819 19.918 104.778 20.1543 104.718 20.3344C104.658 20.5144 104.561 20.657 104.426 20.762C104.298 20.8745 104.125 20.9533 103.908 20.9983C103.698 21.0508 103.428 21.0883 103.098 21.1108L102.479 21.1559L102.13 20.0643L102.828 20.008C103.023 19.993 103.176 19.9742 103.289 19.9517C103.409 19.9217 103.503 19.8805 103.57 19.8279C103.638 19.7754 103.687 19.7042 103.717 19.6141C103.747 19.5166 103.773 19.3891 103.795 19.2315C103.81 19.1115 103.829 18.8976 103.852 18.59C103.874 18.2825 103.897 17.9523 103.919 17.5997C103.942 17.2396 103.964 16.8983 103.987 16.5757C104.009 16.2531 104.024 16.0167 104.032 15.8667H103.12C103.038 16.5044 102.921 17.0821 102.771 17.5997C102.629 18.1174 102.445 18.5976 102.22 19.0402C101.995 19.4828 101.717 19.8992 101.387 20.2893C101.064 20.6795 100.682 21.0658 100.239 21.4485L99.3614 20.762C99.7741 20.4094 100.13 20.0643 100.431 19.7267C100.731 19.3891 100.986 19.0289 101.196 18.6463C101.413 18.2637 101.593 17.8473 101.736 17.3972C101.886 16.947 102.017 16.4369 102.13 15.8667H101.207C100.997 16.752 100.671 17.5585 100.228 18.2862C99.7928 19.0139 99.1926 19.6891 98.4274 20.3118L97.6059 19.6254C97.7784 19.4903 97.936 19.359 98.0785 19.2315C98.2286 19.0965 98.3674 18.9614 98.4949 18.8264C98.2923 18.9014 98.071 18.9802 97.831 19.0627C97.5984 19.1452 97.3583 19.2278 97.1107 19.3103C96.8706 19.3928 96.6306 19.4753 96.3905 19.5579C96.1579 19.6404 95.9366 19.7192 95.7265 19.7942L95.4902 18.7026C95.7078 18.6426 95.9404 18.575 96.1879 18.5C96.4355 18.4175 96.6868 18.335 96.9419 18.2524V14.8089H95.8166V13.7398H96.9419V11.1514L98.0335 11.1965V13.7398H99.0801V14.8089H98.0335V17.8923C98.2061 17.8323 98.3599 17.7798 98.4949 17.7348C98.6375 17.6823 98.7612 17.6372 98.8663 17.5997L98.9338 18.3425C99.2564 17.9523 99.5152 17.5585 99.7103 17.1608C99.9129 16.7557 100.078 16.3243 100.205 15.8667H99.1139V14.9326L102.557 12.7945H99.429V11.7029H104.448V12.817L101.027 14.8426H105.112Z" fill="#123871"/>
<path d="M56.9629 29.1641C57.255 29.864 57.6323 30.512 58.0947 31.1084C58.5572 31.6987 59.0745 32.2524 59.6465 32.7697L59.0258 33.6186C58.5329 33.1378 58.0734 32.6023 57.6475 32.0121C57.2276 31.4218 56.8746 30.8041 56.5886 30.1591V32.7514H58.0035V33.5912H56.5886V35.079H55.6941V33.5912H54.3523V32.7514H55.6941V30.2047C55.4385 30.8193 55.1282 31.4035 54.7631 31.9573C54.3979 32.511 53.9507 33.0648 53.4213 33.6186L53.1018 33.1895V35.0151H52.2255V30.6429C52.1099 30.8193 51.9912 30.9958 51.8695 31.1723C51.7539 31.3427 51.6322 31.5131 51.5044 31.6834L50.9385 30.8711C51.1028 30.6337 51.2732 30.3629 51.4496 30.0587C51.6322 29.7483 51.8087 29.4167 51.9791 29.0637C52.1555 28.7108 52.3168 28.3457 52.4628 27.9684C52.615 27.5911 52.7458 27.2169 52.8553 26.8457L53.8046 27.01C53.6038 27.7037 53.3695 28.3548 53.1018 28.9633V32.5506C54.0876 31.583 54.8422 30.4542 55.3655 29.1641H53.5125V28.2422H55.6941V26.8092L56.5886 26.8457V28.2422H59.0714V29.1641H56.9629ZM68.2575 28.3153H66.1398C66.4319 28.5161 66.7301 28.7351 67.0344 28.9725C67.3447 29.2098 67.6186 29.4319 67.8559 29.6388L67.3995 30.4512C67.3143 30.366 67.2139 30.2747 67.0983 30.1773C66.9887 30.08 66.8731 29.9796 66.7514 29.8761C66.5567 29.8761 66.2768 29.8822 65.9116 29.8944C65.5526 29.9005 65.154 29.9096 64.7159 29.9218C64.2777 29.9339 63.8244 29.9491 63.3558 29.9674C62.8873 29.9796 62.4522 29.9948 62.0505 30.013C61.8376 30.0252 61.6398 30.0374 61.4572 30.0496C61.2808 30.0556 61.1225 30.0648 60.9826 30.0769L60.8365 29.1915C60.9521 29.1794 61.0495 29.155 61.1286 29.1185C61.2077 29.0759 61.2716 29.0424 61.3203 29.0181C61.5029 28.9329 61.6946 28.8295 61.8954 28.7078C62.1023 28.586 62.3031 28.4552 62.4978 28.3153H60.2615V27.5303H63.8213C63.7909 27.4086 63.7575 27.2929 63.7209 27.1834C63.6905 27.0739 63.654 26.9582 63.6114 26.8365L64.5607 26.6814C64.6033 26.797 64.6459 26.9309 64.6885 27.083C64.7311 27.229 64.7737 27.3781 64.8163 27.5303H68.2575V28.3153ZM65.8386 29.1459C65.6926 29.0364 65.5556 28.9329 65.4279 28.8355C65.3001 28.7321 65.1844 28.6469 65.081 28.58L65.3092 28.3153H63.794C63.5627 28.51 63.3345 28.6895 63.1094 28.8538C62.8903 29.012 62.7017 29.1337 62.5434 29.2189L65.8386 29.1459ZM61.3386 30.4055H67.1713V33.9472C67.1713 34.1297 67.153 34.2849 67.1165 34.4127C67.0861 34.5466 67.0283 34.6531 66.9431 34.7322C66.864 34.8174 66.7514 34.8813 66.6054 34.9238C66.4593 34.9725 66.2768 35.003 66.0577 35.0151L65.2636 35.0608L65.0171 34.2758L65.8751 34.221C66.0333 34.2088 66.1429 34.1784 66.2037 34.1297C66.2707 34.075 66.3041 33.9654 66.3041 33.8011V33.719H62.2057V34.9786H61.3386V30.4055ZM62.2057 31.1266V31.6926H66.3041V31.1266H62.2057ZM66.3041 32.9979V32.4228H62.2057V32.9979H66.3041ZM76.8777 29.7757C76.8716 29.8366 76.8624 29.9613 76.8503 30.15C76.8442 30.3386 76.8351 30.5607 76.8229 30.8163C76.8107 31.0658 76.7955 31.3366 76.7772 31.6287C76.759 31.9208 76.7438 32.2007 76.7316 32.4684C76.7194 32.7362 76.7042 32.9766 76.686 33.1895C76.6738 33.4025 76.6647 33.5577 76.6586 33.6551C76.6403 33.8924 76.6069 34.0841 76.5582 34.2301C76.5095 34.3762 76.4304 34.4918 76.3209 34.577C76.2174 34.6683 76.0774 34.7322 75.901 34.7687C75.7306 34.8113 75.5115 34.8417 75.2438 34.86L74.7417 34.8965L74.4588 34.0111L75.0247 33.9654C75.1829 33.9532 75.3077 33.938 75.3989 33.9198C75.4963 33.8954 75.5724 33.862 75.6271 33.8194C75.6819 33.7768 75.7215 33.719 75.7458 33.6459C75.7701 33.5668 75.7914 33.4634 75.8097 33.3356C75.8219 33.2382 75.8371 33.0648 75.8553 32.8153C75.8736 32.5658 75.8918 32.2981 75.9101 32.0121C75.9284 31.72 75.9466 31.4431 75.9649 31.1814C75.9831 30.9197 75.9953 30.7281 76.0014 30.6064H75.262C75.1951 31.1236 75.1008 31.5922 74.9791 32.0121C74.8634 32.4319 74.7143 32.8214 74.5318 33.1804C74.3492 33.5395 74.1241 33.8772 73.8563 34.1936C73.5947 34.51 73.2843 34.8234 72.9253 35.1338L72.2133 34.577C72.548 34.291 72.837 34.0111 73.0805 33.7372C73.3239 33.4634 73.5308 33.1713 73.7012 32.8609C73.8776 32.5506 74.0237 32.2129 74.1393 31.8477C74.261 31.4826 74.3675 31.0688 74.4588 30.6064H73.7103C73.5399 31.3244 73.2752 31.9786 72.9162 32.5689C72.5632 33.1591 72.0764 33.7068 71.4557 34.2119L70.7894 33.6551C70.9293 33.5455 71.0571 33.439 71.1727 33.3356C71.2944 33.2261 71.407 33.1165 71.5105 33.007C71.3462 33.0678 71.1666 33.1317 70.9719 33.1987C70.7833 33.2656 70.5885 33.3326 70.3877 33.3995C70.193 33.4664 69.9983 33.5334 69.8035 33.6003C69.6149 33.6672 69.4354 33.7311 69.265 33.792L69.0733 32.9066C69.2498 32.8579 69.4384 32.8031 69.6392 32.7423C69.8401 32.6753 70.0439 32.6084 70.2508 32.5415V29.7483H69.338V28.8812H70.2508V26.7818L71.1362 26.8183V28.8812H71.9851V29.7483H71.1362V32.2494C71.2762 32.2007 71.4009 32.1581 71.5105 32.1216C71.6261 32.079 71.7265 32.0425 71.8117 32.0121L71.8664 32.6145C72.1281 32.2981 72.3381 31.9786 72.4963 31.6561C72.6606 31.3275 72.7944 30.9776 72.8979 30.6064H72.0125V29.8487L74.8056 28.1144H72.2681V27.229H76.3391V28.1327L73.5642 29.7757H76.8777Z" fill="#3A5A8A"/>
<defs>
<linearGradient id="paint0_linear_674_33984" x1="106.275" y1="-0.181216" x2="19.4161" y2="51.8097" gradientUnits="userSpaceOnUse">
<stop offset="0.5" stop-color="#809AF5"/>
<stop offset="0.5" stop-color="#3867E2"/>
</linearGradient>
</defs>
</svg>
