<svg width="112" height="51" viewBox="0 0 112 51" fill="none" xmlns="http://www.w3.org/2000/svg">
<path d="M36.7327 37H11.1234C9.91846 37 9.42552 39.5313 10.4808 40.1129C16.2953 43.3178 21.407 47.71 23.2653 49.3828C23.6827 49.7585 24.3259 49.7478 24.7316 49.3595C26.5166 47.651 31.4263 43.2043 37.3415 39.9712C38.3929 39.3966 37.9309 37 36.7327 37Z" fill="#4573E7"/>
<rect width="111.095" height="43.4889" rx="21.7445" fill="url(#paint0_linear_674_33986)"/>
<rect x="4.86819" y="4.86821" width="101.359" height="33.7525" rx="16.8763" fill="#D6DFF5"/>
<path opacity="0.9" fill-rule="evenodd" clip-rule="evenodd" d="M25.2043 9.33967C27.6175 8.30113 30.2822 7.99291 32.8688 8.45314C40.211 9.74779 45.1123 16.7483 43.8176 24.0895C42.523 31.4308 35.5225 36.333 28.1813 35.0384C20.84 33.7437 15.9377 26.7433 17.2324 19.402C17.8085 16.1071 19.5918 13.1451 22.2343 11.0942C22.1659 12.0549 22.1464 13.2236 22.1737 14.6052C20.8964 16.0964 20.0441 17.9042 19.7065 19.8385C19.5528 20.7092 19.5063 21.5741 19.5574 22.4196C19.7495 22.4624 19.943 22.5009 20.1378 22.535C22.4438 22.9418 24.7144 22.7065 26.7663 21.9574C25.3803 19.2593 24.6678 16.137 24.5692 12.6054C24.5441 12.6408 24.5238 12.6534 24.5199 12.6027C24.4662 11.8997 24.4496 10.1979 24.5199 9.73119L25.2043 9.33967ZM27.0001 11.3375C26.9486 15.0384 27.5726 18.2216 28.9711 20.9057C32.0554 19.0572 34.351 15.9315 35.0243 12.1124C35.046 11.9906 35.0658 11.8686 35.0839 11.7467C34.2569 11.3704 33.3695 11.0913 32.4333 10.9263C30.603 10.6008 28.7347 10.749 27.0001 11.3375ZM28.0569 24.0774C25.5897 25.0685 22.8348 25.428 20.027 24.9917C21.207 28.7977 24.4233 31.8258 28.6177 32.5653C28.6968 32.5792 28.7758 32.5923 28.8548 32.6045C29.7501 30.9847 30.8579 29.4939 32.1474 28.171C30.5083 26.974 29.1496 25.6083 28.0569 24.0774ZM33.9964 26.4903C32.5061 25.4625 31.2709 24.2902 30.2748 22.9706C33.7657 20.8605 36.3997 17.3722 37.3173 13.1074C40.1478 15.3366 41.7948 18.8956 41.4738 22.6641C38.7481 23.4143 36.2028 24.7157 33.9964 26.4903ZM34.2465 29.5242C33.2679 30.4749 32.3989 31.5323 31.6559 32.6766C33.5193 32.4848 35.2748 31.8185 36.7736 30.782C35.8791 30.3935 35.0371 29.9742 34.2465 29.5242ZM38.8002 28.9745C37.8954 28.625 37.0472 28.2458 36.254 27.8367C37.6755 26.8065 39.2357 25.9885 40.8856 25.4056C40.4148 26.7433 39.6992 27.9473 38.8002 28.9745Z" fill="#4573E7"/>
<path d="M56.8623 13.5391C57.5151 16.0599 59.0005 17.7817 61.6339 18.4231C61.4313 18.6144 61.1837 18.9745 61.0487 19.2109C58.3141 18.4344 56.8173 16.5775 56.0408 13.7191L56.8623 13.5391ZM51.787 13.2127H61.0487V14.068H51.787V13.2127ZM51.4381 9.71285H61.3413V10.5681H51.4381V9.71285ZM55.872 9.94918H56.7611V12.5713C56.7611 14.9458 56.2547 17.6579 51.742 19.2221C51.6519 19.0083 51.4044 18.6482 51.2243 18.4794C55.4331 17.0502 55.872 14.6307 55.872 12.5713V9.94918ZM69.4326 8.9251H70.2203V17.8604H69.4326V8.9251ZM67.0243 11.3334H72.9212V11.9861H67.0243V11.3334ZM67.2719 15.9248H72.7074V16.5775H67.2719V15.9248ZM67.6095 14.3831H72.3923V15.0358H67.6095V14.3831ZM65.0549 9.76912H66.6867V10.4781H65.0549V9.76912ZM65.4826 12.9314H66.923V13.5841H65.4826V12.9314ZM66.5067 9.76912H66.6079L66.743 9.73536L67.2831 9.88166C66.8218 11.052 66.0565 12.7963 65.4488 14.113L64.7398 13.9442C65.3588 12.6388 66.1353 10.7932 66.5067 9.8704V9.76912ZM66.698 12.9314H66.8443L66.9793 12.9089L67.4294 12.9989C67.1594 16.1161 66.3604 18.063 64.9649 19.1546C64.8636 18.9745 64.6498 18.6932 64.481 18.5356C65.6964 17.6466 66.4729 15.7448 66.698 13.0664V12.9314ZM65.5276 14.4956C66.1353 17.5453 67.5307 18.2205 69.8265 18.2205C70.1866 18.2205 72.471 18.2205 72.9549 18.2093C72.8312 18.4006 72.7074 18.7607 72.6624 18.9858H69.7927C67.1031 18.9858 65.6176 18.1868 64.8749 14.6982L65.5276 14.4956ZM67.7896 9.82539H72.246V13.5278H67.7896V12.8639H71.5145V10.4781H67.7896V9.82539ZM64.4698 8.9026L65.235 9.11641C64.6498 10.9733 63.7158 12.8639 62.6804 14.113C62.6017 13.9217 62.3878 13.4603 62.2528 13.2465C63.1756 12.1774 63.9859 10.5569 64.4698 8.9026ZM63.6708 11.7497L64.4135 11.007L64.4247 11.0183V19.1658H63.6708V11.7497ZM73.6864 14.822C74.4854 14.5744 75.6783 14.1355 76.8487 13.7079L76.9837 14.4619C75.9146 14.8782 74.7893 15.3171 73.9115 15.6435L73.6864 14.822ZM73.799 11.1083H76.9162V11.896H73.799V11.1083ZM75.0594 8.84633H75.8584V18.198C75.8584 18.6257 75.7683 18.8507 75.5208 18.9745C75.2732 19.1096 74.9131 19.1321 74.3279 19.1321C74.2941 18.9295 74.1928 18.5919 74.0916 18.3668C74.4742 18.3781 74.8005 18.3781 74.9018 18.3781C75.0256 18.3781 75.0594 18.3331 75.0594 18.2093V8.84633ZM79.2007 9.93793V11.1195H81.8002V9.93793H79.2007ZM78.4579 9.30773H82.5767V11.761H78.4579V9.30773ZM77.9965 12.8864V14.1693H79.482V12.8864H77.9965ZM77.3326 12.2674H80.1685V14.7995H77.3326V12.2674ZM81.4964 12.8864V14.1693H83.0269V12.8864H81.4964ZM80.8099 12.2674H83.7359V14.7995H80.8099V12.2674ZM77.13 15.6547H83.9834V16.375H77.13V15.6547ZM80.0897 14.8107H80.9V19.2109H80.0897V14.8107ZM79.9096 15.9586L80.5736 16.2287C79.7859 17.399 78.3116 18.4344 76.9275 18.9408C76.8037 18.7382 76.5673 18.4344 76.3873 18.2881C77.749 17.8604 79.1782 16.9601 79.9096 15.9586ZM81.1475 16.0486C81.7777 16.9376 83.0269 17.8042 84.1635 18.198C83.9834 18.3443 83.7359 18.6369 83.6121 18.8395C82.4755 18.3556 81.2263 17.3315 80.5286 16.2962L81.1475 16.0486ZM85.0975 11.5922H88.5074V12.3912H85.0975V11.5922ZM86.4705 8.97012H87.2695V16.51H86.4705V8.97012ZM84.9287 16.8364C85.829 16.555 87.1795 16.0486 88.4849 15.5647L88.6424 16.33C87.4608 16.8139 86.1891 17.3203 85.2101 17.6916L84.9287 16.8364ZM88.755 9.37525H93.4589V10.1743H88.755V9.37525ZM94.2692 12.47H95.1132C95.1132 12.47 95.102 12.7626 95.0795 12.8864C94.8544 16.8476 94.6181 18.2318 94.2242 18.7045C93.9991 18.9745 93.7853 19.0646 93.4589 19.0871C93.1776 19.1208 92.7275 19.1208 92.2436 19.0983C92.2323 18.862 92.1423 18.5131 92.0185 18.2881C92.4799 18.3331 92.9075 18.3443 93.0988 18.3443C93.2789 18.3443 93.3802 18.3218 93.4927 18.1755C93.8078 17.8379 94.0554 16.42 94.2692 12.65V12.47ZM89.1488 13.404C89.0926 13.224 88.9125 12.8188 88.7887 12.6163C89.0813 12.5713 89.4977 12.3349 89.9253 12.0536C90.3867 11.7723 91.951 10.6807 93.0426 9.52154V9.46528L93.4477 9.29647L94.0891 9.76912C92.5699 11.1308 91.0957 12.2337 89.7453 12.9764V12.9989C89.7453 12.9989 89.1488 13.2352 89.1488 13.404ZM89.1488 13.404V12.7063L89.6327 12.47H94.5618V13.269H90.1279C89.6102 13.269 89.2501 13.314 89.1488 13.404ZM92.7837 12.9201L93.5265 13.0664C92.7612 15.8235 91.3883 17.8717 89.4414 19.1771C89.3064 19.0421 88.9913 18.8057 88.8 18.6932C90.7918 17.5003 92.0973 15.4972 92.7837 12.9201ZM91.0507 12.9314L91.7934 13.0889C91.2983 14.6307 90.353 15.8911 89.2276 16.7013C89.0926 16.5775 88.7775 16.33 88.5974 16.2174C89.7228 15.4972 90.6118 14.3268 91.0507 12.9314Z" fill="#123871"/>
<path d="M53.0561 23.5699L53.7042 23.7616C53.1748 25.3042 52.3442 26.856 51.4496 27.8874C51.3766 27.7323 51.1758 27.3763 51.048 27.212C51.8604 26.3174 52.6089 24.9483 53.0561 23.5699ZM52.2346 25.9249L52.8736 25.2769L52.8827 25.286V31.922H52.2346V25.9249ZM56.0683 23.5699H56.7347V31.8855H56.0683V23.5699ZM53.4943 25.3773H59.4731V26.0345H53.4943V25.3773ZM54.5622 29.6126H58.2134V30.2333H54.5622V29.6126ZM57.0633 25.715C57.5836 27.3489 58.5876 29.0467 59.6556 29.9047C59.4913 30.0234 59.2631 30.2607 59.1353 30.4433C58.0674 29.4666 57.0907 27.6501 56.5521 25.8702L57.0633 25.715ZM55.7854 25.6785L56.2874 25.8337C55.7215 27.6592 54.7265 29.4666 53.6221 30.4706C53.5217 30.2972 53.2935 30.0599 53.1383 29.9503C54.2063 29.0832 55.2468 27.3489 55.7854 25.6785ZM61.755 27.4037H66.7662V27.9878H62.4396V31.9402H61.755V27.4037ZM66.538 27.4037H67.2226V31.2009C67.2226 31.5751 67.1314 31.7485 66.8393 31.8398C66.5563 31.9311 66.0816 31.9311 65.3423 31.9311C65.3058 31.7668 65.2054 31.5295 65.1232 31.3652C65.6526 31.3834 66.1912 31.3834 66.3372 31.3743C66.4924 31.3652 66.538 31.3287 66.538 31.2009V27.4037ZM62.1658 28.6816H66.821V29.1927H62.1658V28.6816ZM60.4497 24.428H68.4823V25.0395H60.4497V24.428ZM62.9873 24.8022L63.7358 25.0213C63.3341 25.5781 62.823 26.2079 62.4305 26.6187L61.8828 26.4087C62.2571 25.9797 62.7226 25.286 62.9873 24.8022ZM65.534 25.3773L66.0725 25.0304C66.8849 25.5507 67.8981 26.3174 68.4001 26.8651L67.8251 27.2759C67.3504 26.7282 66.3646 25.9249 65.534 25.3773ZM60.8148 26.2079C62.4396 26.1988 65.0411 26.144 67.4782 26.0892L67.4417 26.6552C65.0593 26.7373 62.5035 26.8104 60.8422 26.8469L60.8148 26.2079ZM62.1658 29.9047H66.7936V30.4067H62.1658V29.9047ZM64.0918 23.5334H64.7946V24.7292H64.0918V23.5334ZM69.4863 25.7698H72.2521V26.4179H69.4863V25.7698ZM70.5999 23.643H71.248V29.7587H70.5999V23.643ZM69.3494 30.0234C70.0797 29.7952 71.175 29.3844 72.2338 28.9919L72.3616 29.6126C71.4032 30.0051 70.3718 30.4159 69.5776 30.7171L69.3494 30.0234ZM72.4529 23.9716H76.2684V24.6197H72.4529V23.9716ZM76.9256 26.4817H77.6102C77.6102 26.4817 77.601 26.7191 77.5828 26.8195C77.4002 30.0325 77.2085 31.1552 76.8891 31.5386C76.7065 31.7577 76.5331 31.8307 76.2684 31.8489C76.0402 31.8763 75.6751 31.8763 75.2826 31.8581C75.2734 31.6664 75.2004 31.3834 75.1 31.2009C75.4742 31.2374 75.8211 31.2465 75.9763 31.2465C76.1223 31.2465 76.2045 31.2283 76.2958 31.1096C76.5513 30.8358 76.7521 29.6856 76.9256 26.6278V26.4817ZM72.7724 27.2394C72.7267 27.0933 72.5807 26.7647 72.4803 26.6004C72.7176 26.5639 73.0554 26.3722 73.4022 26.144C73.7765 25.9158 75.0452 25.0304 75.9306 24.0902V24.0446L76.2592 23.9077L76.7795 24.2911C75.5473 25.3955 74.3515 26.2901 73.2562 26.8925V26.9108C73.2562 26.9108 72.7724 27.1024 72.7724 27.2394ZM72.7724 27.2394V26.6734L73.1649 26.4817H77.1629V27.1298H73.5665C73.1466 27.1298 72.8545 27.1663 72.7724 27.2394ZM75.7207 26.8469L76.3231 26.9655C75.7024 29.2019 74.5888 30.8631 73.0097 31.922C72.9002 31.8124 72.6446 31.6207 72.4894 31.5295C74.1051 30.5619 75.1639 28.9371 75.7207 26.8469ZM74.315 26.856L74.9174 26.9838C74.5158 28.2343 73.7491 29.2566 72.8363 29.9138C72.7267 29.8134 72.4712 29.6126 72.3251 29.5213C73.2379 28.9371 73.959 27.9878 74.315 26.856Z" fill="#3A5A8A"/>
<defs>
<linearGradient id="paint0_linear_674_33986" x1="97.4989" y1="-0.173582" x2="16.036" y2="46.528" gradientUnits="userSpaceOnUse">
<stop offset="0.5" stop-color="#809AF5"/>
<stop offset="0.5" stop-color="#3867E2"/>
</linearGradient>
</defs>
</svg>
