<svg width="122" height="52" viewBox="0 0 122 52" fill="none" xmlns="http://www.w3.org/2000/svg">
<path d="M38.9925 38.5544H13.3832C12.1782 38.5544 11.6853 41.0858 12.7406 41.6674C18.5551 44.8722 23.6667 49.2645 25.525 50.9372C25.9424 51.3129 26.5857 51.3022 26.9914 50.9139C28.7764 49.2055 33.6861 44.7588 39.6012 41.5257C40.6526 40.951 40.1907 38.5544 38.9925 38.5544Z" fill="#4573E7"/>
<rect width="121.095" height="45.4013" rx="22.7007" fill="url(#paint0_linear_674_33985)"/>
<rect x="4.86823" y="4.86816" width="111.359" height="35.6649" rx="17.8325" fill="#D6DFF5"/>
<path opacity="0.9" fill-rule="evenodd" clip-rule="evenodd" d="M25.2044 10.2958C27.6176 9.25729 30.2823 8.94907 32.8688 9.4093C40.211 10.704 45.1123 17.7044 43.8177 25.0457C42.523 32.3869 35.5226 37.2892 28.1813 35.9946C20.8401 34.6999 15.9378 27.6994 17.2324 20.3582C17.8085 17.0632 19.5919 14.1012 22.2343 12.0504C22.166 13.0111 22.1465 14.1798 22.1738 15.5613C20.8964 17.0526 20.0442 18.8603 19.7065 20.7946C19.5529 21.6654 19.5063 22.5303 19.5575 23.3758C19.7496 23.4186 19.9431 23.4571 20.1379 23.4912C22.4439 23.898 24.7145 23.6626 26.7663 22.9136C25.3804 20.2154 24.6679 17.0931 24.5693 13.5615C24.5442 13.597 24.5239 13.6096 24.52 13.5588C24.4663 12.8558 24.4497 11.1541 24.52 10.6874L25.2044 10.2958ZM27.0002 12.2937C26.9487 15.9945 27.5727 19.1778 28.9711 21.8619C32.0555 20.0134 34.3511 16.8876 35.0244 13.0685C35.046 12.9467 35.0659 12.8248 35.084 12.7028C34.257 12.3265 33.3695 12.0475 32.4334 11.8824C30.603 11.5569 28.7348 11.7052 27.0002 12.2937ZM28.057 25.0336C25.5897 26.0246 22.8349 26.3842 20.0271 25.9478C21.207 29.7539 24.4234 32.7819 28.6178 33.5214C28.6968 33.5354 28.7759 33.5484 28.8549 33.5606C29.7502 31.9409 30.858 30.45 32.1475 29.1272C30.5083 27.9302 29.1496 26.5645 28.057 25.0336ZM33.9965 27.4465C32.5062 26.4186 31.271 25.2464 30.2748 23.9267C33.7658 21.8167 36.3997 18.3284 37.3174 14.0635C40.1478 16.2928 41.7949 19.8518 41.4738 23.6203C38.7482 24.3705 36.2029 25.6719 33.9965 27.4465ZM34.2466 30.4804C33.2679 31.4311 32.3989 32.4885 31.6559 33.6328C33.5194 33.4409 35.2748 32.7747 36.7736 31.7382C35.8791 31.3497 35.0371 30.9303 34.2466 30.4804ZM38.8003 29.9306C37.8955 29.5812 37.0472 29.202 36.2541 28.7929C37.6755 27.7627 39.2358 26.9447 40.8856 26.3618C40.4149 27.6995 39.6993 28.9034 38.8003 29.9306Z" fill="#4573E7"/>
<path d="M59.1131 14.6287C59.4507 14.7938 59.8183 14.9476 60.216 15.0901C60.6211 15.2252 61.06 15.349 61.5326 15.4615L61.1838 16.4631C60.7561 16.3355 60.3585 16.208 59.9909 16.0804C59.6233 15.9529 59.2782 15.8141 58.9556 15.6641L59.3832 16.4293C58.8505 16.7894 58.2804 17.1195 57.6727 17.4196C57.065 17.7122 56.4498 17.9673 55.8271 18.1849L55.4107 17.2621C56.0184 17.067 56.6223 16.8269 57.2225 16.5418C57.8302 16.2567 58.3816 15.9529 58.8768 15.6303C58.7568 15.5703 58.6405 15.5103 58.5279 15.4502C58.4154 15.3902 58.3066 15.3302 58.2016 15.2702C57.804 15.5103 57.3576 15.7391 56.8624 15.9567C56.3748 16.1667 55.8233 16.3693 55.2081 16.5643L54.9831 16.0467V19.479H54.0715V12.7381L54.9831 12.7831V13.751C55.3882 13.3683 55.7633 12.9369 56.1084 12.4568C56.4535 11.9766 56.7311 11.5077 56.9412 11.0501L57.8865 11.4327C57.849 11.5227 57.8077 11.6128 57.7627 11.7028C57.7177 11.7853 57.6727 11.8679 57.6277 11.9504H60.6661V12.8394C60.4711 13.1695 60.246 13.4846 59.9909 13.7847C59.7433 14.0773 59.4507 14.3586 59.1131 14.6287ZM54.1953 11.4327C54.0753 11.8754 53.944 12.3067 53.8014 12.7269C53.6664 13.147 53.5126 13.5596 53.34 13.9648V21.3696H52.361V15.9904C52.256 16.1705 52.1509 16.3543 52.0459 16.5418C51.9409 16.7219 51.8283 16.902 51.7083 17.082L50.9318 16.3055C51.1268 16.0054 51.3332 15.6528 51.5507 15.2477C51.7758 14.835 51.9896 14.3999 52.1922 13.9423C52.4022 13.4846 52.5973 13.0195 52.7774 12.5468C52.9574 12.0667 53.1 11.6128 53.205 11.1851L54.1953 11.4327ZM57.0762 12.8619C57.0612 12.8769 57.05 12.8919 57.0425 12.9069C57.0425 12.9219 57.035 12.9369 57.02 12.952C57.1775 13.1695 57.3538 13.3721 57.5489 13.5596C57.7439 13.7397 57.9653 13.916 58.2128 14.0886C58.4679 13.9085 58.693 13.7172 58.8881 13.5146C59.0906 13.3121 59.2707 13.0945 59.4282 12.8619H57.0762ZM54.9831 15.5403C55.4557 15.3902 55.8796 15.2439 56.2547 15.1014C56.6373 14.9513 56.9862 14.7975 57.3013 14.64C57.1362 14.5049 56.9824 14.3624 56.8399 14.2124C56.6974 14.0623 56.5586 13.901 56.4235 13.7284C56.1309 14.0736 55.7933 14.4149 55.4107 14.7525L54.9831 14.1673V15.5403ZM60.261 17.5434C59.6458 18.0161 58.9331 18.4437 58.1228 18.8263C57.3201 19.2089 56.4835 19.5353 55.6133 19.8054L55.2194 18.9388C56.0747 18.6763 56.8849 18.3649 57.6502 18.0048C58.4154 17.6372 59.1169 17.2358 59.7546 16.8007L60.261 17.5434ZM54.7355 20.5931C55.8833 20.308 56.9562 19.9442 57.954 19.5015C58.9593 19.0589 59.8596 18.545 60.6549 17.9598L61.1725 18.7138C60.3998 19.344 59.507 19.8766 58.4942 20.3118C57.4889 20.7544 56.3748 21.1333 55.1519 21.4484L54.7355 20.5931ZM66.2296 15.7316H65.1267V11.2639L66.2296 11.3089V15.7316ZM69.9545 14.4262C70.5547 14.7113 71.335 14.9326 72.2953 15.0901L71.9689 16.0917C71.3162 15.9492 70.7498 15.7954 70.2696 15.6303C69.7895 15.4652 69.3543 15.2627 68.9642 15.0226C68.6416 15.1877 68.2927 15.3452 67.9176 15.4953C67.5425 15.6453 67.1374 15.7841 66.7022 15.9116L66.2521 14.9101C66.9423 14.73 67.55 14.535 68.0752 14.3249C67.8801 14.1448 67.6888 13.946 67.5012 13.7284C67.3212 13.5034 67.1374 13.2558 66.9498 12.9857L67.5125 12.6031H66.601V11.6465H71.6763V12.5806C71.2712 13.2783 70.6973 13.8935 69.9545 14.4262ZM64.1589 15.5853H63.1011V11.6803L64.1589 11.7253V15.5853ZM67.8501 12.6031C68.0377 12.8507 68.2252 13.0795 68.4128 13.2896C68.6078 13.4921 68.8142 13.6797 69.0317 13.8522C69.3168 13.6797 69.5719 13.4921 69.797 13.2896C70.0296 13.087 70.2434 12.8582 70.4384 12.6031H67.8501ZM69.8195 19.4115V17.172H64.9805V19.434H63.8101V16.1142H71.0124V19.4115H69.8195ZM68.0302 17.4759C68.0152 17.6259 67.9889 17.7947 67.9514 17.9823C67.9214 18.1699 67.8839 18.3387 67.8389 18.4887C67.7413 18.8638 67.5838 19.2014 67.3662 19.5015C67.1486 19.8016 66.8523 20.0717 66.4772 20.3118C66.1021 20.5594 65.6407 20.7807 65.093 20.9757C64.5453 21.1783 63.8926 21.3659 63.1349 21.5384L62.7748 20.4243C63.4125 20.3043 63.9639 20.1767 64.429 20.0417C64.9017 19.9067 65.2993 19.7566 65.6219 19.5916C65.9445 19.419 66.1958 19.2277 66.3759 19.0176C66.5559 18.8076 66.6797 18.5675 66.7473 18.2974C66.7848 18.1699 66.8148 18.0198 66.8373 17.8473C66.8673 17.6747 66.8898 17.5247 66.9048 17.3971L68.0302 17.4759ZM68.2777 19.0401C68.8629 19.2352 69.4706 19.4603 70.1008 19.7153C70.731 19.9704 71.3537 20.233 71.9689 20.5031L71.6313 21.6285C71.3537 21.4784 71.0574 21.3246 70.7423 21.1671C70.4272 21.0095 70.1046 20.8557 69.7745 20.7057C69.4519 20.5631 69.1255 20.4281 68.7954 20.3005C68.4653 20.173 68.1465 20.0567 67.8389 19.9517L68.2777 19.0401ZM75.6305 14.1561C75.5555 14.0135 75.4542 13.8447 75.3267 13.6497C75.1992 13.4546 75.0604 13.2558 74.9103 13.0532C74.7603 12.8432 74.6102 12.6444 74.4602 12.4568C74.3101 12.2617 74.1788 12.1004 74.0663 11.9729L74.9103 11.2977C75.0229 11.4177 75.1504 11.564 75.2929 11.7366C75.4355 11.9091 75.578 12.0929 75.7206 12.288C75.8706 12.4756 76.0132 12.6631 76.1482 12.8507C76.2833 13.0382 76.4033 13.2108 76.5083 13.3683L75.6305 14.1561ZM82.664 12.7944H77.0372V11.7703H82.664V12.7944ZM79.7944 15.3377C79.6893 15.5628 79.573 15.7916 79.4455 16.0242C79.3255 16.2567 79.2017 16.4818 79.0741 16.6994C78.9466 16.9095 78.8228 17.1083 78.7028 17.2958C78.5827 17.4759 78.4702 17.6297 78.3652 17.7572L81.2686 17.5772C81.1185 17.3146 80.976 17.067 80.8409 16.8344C80.7059 16.6019 80.5821 16.403 80.4696 16.238L81.4036 15.7091C81.5237 15.8816 81.6625 16.103 81.82 16.373C81.9851 16.6356 82.1464 16.9132 82.3039 17.2058C82.469 17.4909 82.6265 17.7722 82.7766 18.0498C82.9266 18.3274 83.0466 18.5675 83.1367 18.77L82.2139 19.479C82.1614 19.359 82.1013 19.2314 82.0338 19.0964C81.9738 18.9539 81.9025 18.8038 81.82 18.6463C81.655 18.6613 81.4486 18.6763 81.2011 18.6913C80.9535 18.7063 80.6834 18.725 80.3908 18.7475C80.0982 18.7625 79.7944 18.7851 79.4793 18.8151C79.1642 18.8376 78.8566 18.8601 78.5565 18.8826C78.2564 18.9051 77.975 18.9276 77.7125 18.9501C77.4499 18.9726 77.2248 18.9914 77.0372 19.0064L76.7559 17.9823C76.921 17.8998 77.041 17.8097 77.116 17.7122C77.1985 17.6147 77.2661 17.5359 77.3186 17.4759C77.4911 17.2433 77.6862 16.9357 77.9038 16.5531C78.1288 16.1705 78.3389 15.7653 78.534 15.3377H76.4858V14.3136H83.2492V15.3377H79.7944ZM78.8378 19.9742C79.5955 19.9892 80.3608 19.9929 81.1335 19.9854C81.9138 19.9704 82.6903 19.9442 83.463 19.9067L83.2942 20.9983C82.5215 21.0358 81.745 21.0583 80.9647 21.0658C80.1845 21.0808 79.4155 21.0808 78.6578 21.0658C78.2751 21.0583 77.9338 21.0358 77.6337 20.9983C77.3411 20.9682 77.071 20.9082 76.8234 20.8182C76.5833 20.7282 76.3583 20.5969 76.1482 20.4243C75.9381 20.2593 75.7243 20.0342 75.5068 19.7491C75.2742 19.9892 75.0379 20.2255 74.7978 20.4581C74.5652 20.6907 74.3289 20.9157 74.0888 21.1333L73.3686 20.233C73.6387 20.0004 73.905 19.7679 74.1676 19.5353C74.4377 19.2952 74.6927 19.0401 74.9328 18.77V15.9567H73.6274V14.8763H75.9907V18.7588C76.1707 19.0064 76.3508 19.2089 76.5308 19.3665C76.7184 19.5165 76.921 19.6366 77.1385 19.7266C77.3561 19.8166 77.6037 19.8804 77.8813 19.9179C78.1588 19.9479 78.4777 19.9667 78.8378 19.9742ZM94.1469 13.177C94.1469 13.3121 94.1394 13.5446 94.1244 13.8747C94.1169 14.2048 94.1056 14.5837 94.0906 15.0114C94.0756 15.439 94.0568 15.8929 94.0343 16.373C94.0193 16.8532 94.0043 17.3108 93.9893 17.746C93.9743 18.1811 93.9593 18.575 93.9443 18.9276C93.9368 19.2727 93.9293 19.524 93.9218 19.6816C93.9143 19.9592 93.8805 20.1805 93.8205 20.3455C93.768 20.5181 93.678 20.6531 93.5504 20.7507C93.4229 20.8482 93.2541 20.9195 93.044 20.9645C92.8415 21.017 92.5864 21.0583 92.2788 21.0883L91.5811 21.1558L91.1984 20.0642L91.8512 19.9967C92.0612 19.9742 92.23 19.9517 92.3576 19.9292C92.4926 19.8992 92.5976 19.8579 92.6727 19.8054C92.7477 19.7454 92.8002 19.6628 92.8302 19.5578C92.8602 19.4528 92.879 19.3102 92.8865 19.1302C92.894 19.0176 92.9015 18.8376 92.909 18.59C92.9165 18.3424 92.924 18.0611 92.9315 17.746C92.9465 17.4234 92.9578 17.0858 92.9653 16.7332C92.9803 16.373 92.9915 16.0317 92.999 15.7091C93.014 15.3865 93.0253 15.0976 93.0328 14.8426C93.0403 14.5875 93.0478 14.3999 93.0553 14.2799H91.4573C91.4273 14.9251 91.3973 15.5028 91.3672 16.0129C91.3372 16.5231 91.296 16.992 91.2435 17.4196C91.1909 17.8398 91.1234 18.2261 91.0409 18.5787C90.9584 18.9313 90.8458 19.2727 90.7033 19.6028C90.5682 19.9329 90.3994 20.2593 90.1969 20.5819C89.9943 20.912 89.7505 21.2608 89.4654 21.6285L88.4638 20.942C88.6139 20.7619 88.7489 20.5894 88.869 20.4243C88.9965 20.2593 89.1128 20.098 89.2178 19.9404L88.7452 20.2555L88.6439 19.9742C88.4488 19.9892 88.1937 20.0117 87.8786 20.0417C87.571 20.0642 87.2484 20.0942 86.9108 20.1317C86.5732 20.1617 86.2394 20.1955 85.9093 20.233C85.5792 20.2705 85.3016 20.3118 85.0765 20.3568L84.6601 19.1977C84.8102 19.1302 84.9115 19.0589 84.964 18.9839C85.0165 18.9013 85.0728 18.7963 85.1328 18.6688C85.1928 18.5562 85.2678 18.3987 85.3578 18.1961C85.4479 17.986 85.5417 17.7535 85.6392 17.4984C85.7367 17.2433 85.8342 16.9732 85.9318 16.6881C86.0293 16.403 86.1193 16.1255 86.2019 15.8554H84.6151V14.73H89.5217V15.8554H87.3835C87.301 16.1255 87.2072 16.4181 87.1021 16.7332C86.9971 17.0483 86.8921 17.3521 86.787 17.6447C86.682 17.9373 86.577 18.2036 86.4719 18.4437C86.3744 18.6838 86.2881 18.8638 86.2131 18.9839L88.2275 18.8488C88.1 18.4962 87.9687 18.1549 87.8336 17.8247C87.6986 17.4871 87.5748 17.1908 87.4623 16.9357L88.4638 16.5531C88.5464 16.7332 88.6326 16.9395 88.7227 17.172C88.8202 17.3971 88.9177 17.6334 89.0153 17.881C89.1128 18.1211 89.2066 18.3649 89.2966 18.6125C89.3941 18.8601 89.4842 19.0964 89.5667 19.3215C89.7167 19.0289 89.8368 18.7213 89.9268 18.3987C90.0243 18.0761 90.1031 17.716 90.1631 17.3183C90.2231 16.9207 90.2681 16.4781 90.2982 15.9904C90.3357 15.4953 90.3657 14.9251 90.3882 14.2799H89.139V13.177H90.4219C90.437 12.8469 90.4482 12.4981 90.4557 12.1304C90.4632 11.7553 90.4707 11.4365 90.4782 11.1739L91.5248 11.2189C91.5248 11.4365 91.521 11.7216 91.5135 12.0742C91.5135 12.4193 91.5098 12.7869 91.5023 13.177H94.1469ZM89.1728 13.0195H85.189V11.9279H89.1728V13.0195ZM105.112 14.8426C105.105 14.9176 105.093 15.0714 105.078 15.3039C105.071 15.5365 105.06 15.8104 105.045 16.1255C105.03 16.4331 105.011 16.7669 104.988 17.127C104.966 17.4871 104.947 17.8322 104.932 18.1624C104.917 18.4925 104.898 18.7888 104.876 19.0514C104.861 19.314 104.849 19.5053 104.842 19.6253C104.819 19.9179 104.778 20.1542 104.718 20.3343C104.658 20.5143 104.561 20.6569 104.426 20.7619C104.298 20.8745 104.126 20.9532 103.908 20.9983C103.698 21.0508 103.428 21.0883 103.098 21.1108L102.479 21.1558L102.13 20.0642L102.828 20.0079C103.023 19.9929 103.176 19.9742 103.289 19.9517C103.409 19.9217 103.503 19.8804 103.57 19.8279C103.638 19.7754 103.687 19.7041 103.717 19.6141C103.747 19.5165 103.773 19.389 103.795 19.2314C103.81 19.1114 103.829 18.8976 103.852 18.59C103.874 18.2824 103.897 17.9523 103.919 17.5997C103.942 17.2396 103.964 16.8982 103.987 16.5756C104.009 16.253 104.024 16.0167 104.032 15.8666H103.12C103.038 16.5043 102.921 17.082 102.771 17.5997C102.629 18.1173 102.445 18.5975 102.22 19.0401C101.995 19.4828 101.717 19.8992 101.387 20.2893C101.065 20.6794 100.682 21.0658 100.239 21.4484L99.3615 20.7619C99.7741 20.4093 100.13 20.0642 100.431 19.7266C100.731 19.389 100.986 19.0289 101.196 18.6463C101.413 18.2636 101.593 17.8473 101.736 17.3971C101.886 16.947 102.017 16.4368 102.13 15.8666H101.207C100.997 16.7519 100.671 17.5584 100.228 18.2861C99.7929 19.0139 99.1927 19.6891 98.4275 20.3118L97.6059 19.6253C97.7785 19.4903 97.936 19.359 98.0786 19.2314C98.2286 19.0964 98.3674 18.9614 98.495 18.8263C98.2924 18.9013 98.0711 18.9801 97.831 19.0626C97.5984 19.1452 97.3584 19.2277 97.1108 19.3102C96.8707 19.3927 96.6306 19.4753 96.3906 19.5578C96.158 19.6403 95.9367 19.7191 95.7266 19.7941L95.4903 18.7025C95.7078 18.6425 95.9404 18.575 96.188 18.5C96.4356 18.4174 96.6869 18.3349 96.942 18.2524V14.8088H95.8166V13.7397H96.942V11.1514L98.0336 11.1964V13.7397H99.0802V14.8088H98.0336V17.8923C98.2061 17.8322 98.3599 17.7797 98.495 17.7347C98.6375 17.6822 98.7613 17.6372 98.8663 17.5997L98.9339 18.3424C99.2565 17.9523 99.5153 17.5584 99.7104 17.1608C99.9129 16.7557 100.078 16.3243 100.206 15.8666H99.1139V14.9326L102.558 12.7944H99.429V11.7028H104.448V12.8169L101.027 14.8426H105.112Z" fill="#123871"/>
<path d="M56.9629 29.1641C57.255 29.864 57.6323 30.512 58.0948 31.1084C58.5573 31.6987 59.0745 32.2524 59.6465 32.7697L59.0258 33.6186C58.5329 33.1378 58.0735 32.6023 57.6475 32.0121C57.2276 31.4218 56.8747 30.8041 56.5887 30.1591V32.7514H58.0035V33.5912H56.5887V35.079H55.6942V33.5912H54.3524V32.7514H55.6942V30.2047C55.4386 30.8193 55.1282 31.4035 54.7631 31.9573C54.398 32.511 53.9507 33.0648 53.4213 33.6186L53.1018 33.1895V35.0151H52.2256V30.6429C52.1099 30.8193 51.9913 30.9958 51.8696 31.1723C51.754 31.3427 51.6323 31.5131 51.5045 31.6834L50.9385 30.8711C51.1028 30.6337 51.2732 30.3629 51.4497 30.0587C51.6323 29.7483 51.8087 29.4167 51.9791 29.0637C52.1556 28.7108 52.3168 28.3457 52.4629 27.9684C52.615 27.5911 52.7459 27.2169 52.8554 26.8457L53.8047 27.01C53.6039 27.7037 53.3696 28.3548 53.1018 28.9633V32.5506C54.0877 31.583 54.8422 30.4542 55.3656 29.1641H53.5126V28.2422H55.6942V26.8092L56.5887 26.8457V28.2422H59.0715V29.1641H56.9629ZM68.2576 28.3153H66.1399C66.432 28.5161 66.7302 28.7351 67.0344 28.9725C67.3448 29.2098 67.6186 29.4319 67.8559 29.6388L67.3995 30.4512C67.3143 30.366 67.2139 30.2747 67.0983 30.1773C66.9888 30.08 66.8732 29.9796 66.7515 29.8761C66.5567 29.8761 66.2768 29.8822 65.9117 29.8944C65.5527 29.9005 65.1541 29.9096 64.7159 29.9218C64.2778 29.9339 63.8245 29.9491 63.3559 29.9674C62.8873 29.9796 62.4522 29.9948 62.0506 30.013C61.8376 30.0252 61.6398 30.0374 61.4573 30.0496C61.2808 30.0556 61.1226 30.0648 60.9826 30.0769L60.8366 29.1915C60.9522 29.1794 61.0496 29.155 61.1287 29.1185C61.2078 29.0759 61.2717 29.0424 61.3204 29.0181C61.5029 28.9329 61.6946 28.8295 61.8954 28.7078C62.1023 28.586 62.3031 28.4552 62.4979 28.3153H60.2615V27.5303H63.8214C63.791 27.4086 63.7575 27.2929 63.721 27.1834C63.6906 27.0739 63.6541 26.9582 63.6115 26.8365L64.5608 26.6814C64.6034 26.797 64.646 26.9309 64.6886 27.083C64.7312 27.229 64.7738 27.3781 64.8164 27.5303H68.2576V28.3153ZM65.8387 29.1459C65.6926 29.0364 65.5557 28.9329 65.4279 28.8355C65.3001 28.7321 65.1845 28.6469 65.0811 28.58L65.3093 28.3153H63.794C63.5628 28.51 63.3346 28.6895 63.1094 28.8538C62.8904 29.012 62.7017 29.1337 62.5435 29.2189L65.8387 29.1459ZM61.3386 30.4055H67.1713V33.9472C67.1713 34.1297 67.1531 34.2849 67.1166 34.4127C67.0862 34.5466 67.0283 34.6531 66.9431 34.7322C66.864 34.8174 66.7515 34.8813 66.6054 34.9238C66.4594 34.9725 66.2768 35.003 66.0577 35.0151L65.2636 35.0608L65.0172 34.2758L65.8752 34.221C66.0334 34.2088 66.1429 34.1784 66.2038 34.1297C66.2707 34.075 66.3042 33.9654 66.3042 33.8011V33.719H62.2058V34.9786H61.3386V30.4055ZM62.2058 31.1266V31.6926H66.3042V31.1266H62.2058ZM66.3042 32.9979V32.4228H62.2058V32.9979H66.3042ZM76.8777 29.7757C76.8716 29.8366 76.8625 29.9613 76.8503 30.15C76.8442 30.3386 76.8351 30.5607 76.8229 30.8163C76.8108 31.0658 76.7956 31.3366 76.7773 31.6287C76.7591 31.9208 76.7438 32.2007 76.7317 32.4684C76.7195 32.7362 76.7043 32.9766 76.686 33.1895C76.6739 33.4025 76.6647 33.5577 76.6586 33.6551C76.6404 33.8924 76.6069 34.0841 76.5582 34.2301C76.5096 34.3762 76.4305 34.4918 76.3209 34.577C76.2175 34.6683 76.0775 34.7322 75.901 34.7687C75.7306 34.8113 75.5116 34.8417 75.2438 34.86L74.7418 34.8965L74.4588 34.0111L75.0248 33.9654C75.183 33.9532 75.3077 33.938 75.399 33.9198C75.4964 33.8954 75.5724 33.862 75.6272 33.8194C75.682 33.7768 75.7215 33.719 75.7459 33.6459C75.7702 33.5668 75.7915 33.4634 75.8098 33.3356C75.8219 33.2382 75.8371 33.0648 75.8554 32.8153C75.8736 32.5658 75.8919 32.2981 75.9102 32.0121C75.9284 31.72 75.9467 31.4431 75.9649 31.1814C75.9832 30.9197 75.9954 30.7281 76.0014 30.6064H75.2621C75.1951 31.1236 75.1008 31.5922 74.9791 32.0121C74.8635 32.4319 74.7144 32.8214 74.5318 33.1804C74.3493 33.5395 74.1241 33.8772 73.8564 34.1936C73.5947 34.51 73.2844 34.8234 72.9253 35.1338L72.2134 34.577C72.5481 34.291 72.8371 34.0111 73.0805 33.7372C73.3239 33.4634 73.5308 33.1713 73.7012 32.8609C73.8777 32.5506 74.0237 32.2129 74.1393 31.8477C74.2611 31.4826 74.3675 31.0688 74.4588 30.6064H73.7103C73.54 31.3244 73.2752 31.9786 72.9162 32.5689C72.5633 33.1591 72.0764 33.7068 71.4557 34.2119L70.7894 33.6551C70.9294 33.5455 71.0572 33.439 71.1728 33.3356C71.2945 33.2261 71.4071 33.1165 71.5105 33.007C71.3462 33.0678 71.1667 33.1317 70.972 33.1987C70.7833 33.2656 70.5886 33.3326 70.3878 33.3995C70.1931 33.4664 69.9983 33.5334 69.8036 33.6003C69.615 33.6672 69.4354 33.7311 69.2651 33.792L69.0734 32.9066C69.2498 32.8579 69.4385 32.8031 69.6393 32.7423C69.8401 32.6753 70.044 32.6084 70.2509 32.5415V29.7483H69.3381V28.8812H70.2509V26.7818L71.1363 26.8183V28.8812H71.9852V29.7483H71.1363V32.2494C71.2762 32.2007 71.401 32.1581 71.5105 32.1216C71.6261 32.079 71.7265 32.0425 71.8117 32.0121L71.8665 32.6145C72.1282 32.2981 72.3381 31.9786 72.4963 31.6561C72.6606 31.3275 72.7945 30.9776 72.898 30.6064H72.0126V29.8487L74.8057 28.1144H72.2681V27.229H76.3392V28.1327L73.5643 29.7757H76.8777Z" fill="#3A5A8A"/>
<defs>
<linearGradient id="paint0_linear_674_33985" x1="106.275" y1="-0.181216" x2="19.4161" y2="51.8097" gradientUnits="userSpaceOnUse">
<stop offset="0.5" stop-color="#809AF5"/>
<stop offset="0.5" stop-color="#3867E2"/>
</linearGradient>
</defs>
</svg>
