<svg width="100" height="52" viewBox="0 0 100 52" fill="none" xmlns="http://www.w3.org/2000/svg">
<path d="M38.9925 38.5544H13.3832C12.1782 38.5544 11.6853 41.0858 12.7406 41.6674C18.5551 44.8722 23.6667 49.2645 25.525 50.9372C25.9424 51.3129 26.5857 51.3022 26.9914 50.9139C28.7764 49.2055 33.6861 44.7588 39.6012 41.5257C40.6526 40.951 40.1907 38.5544 38.9925 38.5544Z" fill="#4573E7"/>
<rect width="99.0954" height="45.4013" rx="22.7007" fill="url(#paint0_linear_674_33983)"/>
<rect x="4.86823" y="4.86823" width="89.359" height="35.6649" rx="17.8325" fill="#D6DFF5"/>
<path opacity="0.9" fill-rule="evenodd" clip-rule="evenodd" d="M25.2044 10.2959C27.6176 9.25735 30.2823 8.94913 32.8688 9.40936C40.211 10.704 45.1123 17.7045 43.8177 25.0457C42.523 32.387 35.5226 37.2893 28.1813 35.9946C20.8401 34.7 15.9378 27.6995 17.2324 20.3582C17.8085 17.0633 19.5919 14.1013 22.2343 12.0504C22.166 13.0111 22.1465 14.1798 22.1738 15.5614C20.8964 17.0527 20.0442 18.8604 19.7065 20.7947C19.5529 21.6655 19.5063 22.5303 19.5575 23.3758C19.7496 23.4186 19.9431 23.4571 20.1379 23.4912C22.4439 23.898 24.7145 23.6627 26.7663 22.9136C25.3804 20.2155 24.6679 17.0932 24.5693 13.5616C24.5442 13.597 24.5239 13.6096 24.52 13.5589C24.4663 12.8559 24.4497 11.1541 24.52 10.6874L25.2044 10.2959ZM27.0002 12.2937C26.9487 15.9946 27.5727 19.1778 28.9711 21.8619C32.0555 20.0134 34.3511 16.8877 35.0244 13.0686C35.046 12.9468 35.0659 12.8249 35.084 12.7029C34.257 12.3266 33.3695 12.0475 32.4334 11.8825C30.603 11.557 28.7348 11.7053 27.0002 12.2937ZM28.057 25.0336C25.5897 26.0247 22.8349 26.3842 20.0271 25.9479C21.207 29.7539 24.4234 32.782 28.6178 33.5215C28.6968 33.5354 28.7759 33.5485 28.8549 33.5607C29.7502 31.9409 30.858 30.4501 32.1475 29.1272C30.5083 27.9303 29.1496 26.5645 28.057 25.0336ZM33.9965 27.4465C32.5062 26.4187 31.271 25.2465 30.2748 23.9268C33.7658 21.8168 36.3997 18.3284 37.3174 14.0636C40.1478 16.2929 41.7949 19.8518 41.4738 23.6203C38.7482 24.3705 36.2029 25.672 33.9965 27.4465ZM34.2466 30.4805C33.2679 31.4311 32.3989 32.4886 31.6559 33.6328C33.5194 33.441 35.2748 32.7748 36.7736 31.7383C35.8791 31.3497 35.0371 30.9304 34.2466 30.4805ZM38.8003 29.9307C37.8955 29.5812 37.0472 29.2021 36.2541 28.7929C37.6755 27.7628 39.2358 26.9447 40.8856 26.3619C40.4149 27.6995 39.6993 28.9035 38.8003 29.9307Z" fill="#4573E7"/>
<path d="M61.3188 18.1174H59.642V20.0643C59.642 20.3193 59.6233 20.5219 59.5858 20.672C59.5483 20.8295 59.4845 20.9533 59.3945 21.0433C59.3044 21.1334 59.1806 21.1971 59.0231 21.2346C58.873 21.2721 58.6817 21.3022 58.4492 21.3247L57.7965 21.3809L57.4363 20.2781L57.9428 20.2218C58.0853 20.2068 58.1978 20.1918 58.2804 20.1768C58.3704 20.1618 58.4417 20.1355 58.4942 20.098C58.5467 20.0605 58.5805 20.008 58.5955 19.9405C58.618 19.873 58.6292 19.7792 58.6292 19.6591V18.1174H57.155V17.0258H58.6292V16.3618L59.6308 15.4391H57.5376V15.0902L57.5264 15.1014L56.6486 14.5275C56.7161 14.4225 56.7836 14.3174 56.8512 14.2124C56.9187 14.1074 56.9862 14.0023 57.0537 13.8973H55.3207C55.3207 14.1149 55.3169 14.34 55.3094 14.5725C55.3094 14.7976 55.3094 15.0002 55.3094 15.1802H57.0425C57.0425 15.2177 57.0387 15.3565 57.0312 15.5966C57.0237 15.8292 57.0125 16.1143 56.9975 16.4519C56.99 16.7895 56.9787 17.1533 56.9637 17.5435C56.9562 17.9261 56.9449 18.29 56.9299 18.6351C56.9224 18.9802 56.9112 19.2765 56.8962 19.5241C56.8887 19.7717 56.8849 19.9217 56.8849 19.9742C56.8699 20.2068 56.8399 20.3944 56.7949 20.5369C56.7499 20.687 56.6824 20.807 56.5923 20.897C56.5023 20.9871 56.3823 21.0546 56.2322 21.0996C56.0897 21.1446 55.9096 21.1784 55.692 21.2009L55.1744 21.2571L54.8143 20.1318L55.4445 20.0755C55.617 20.0605 55.7296 20.0118 55.7821 19.9292C55.8346 19.8467 55.8721 19.6967 55.8946 19.4791C55.9021 19.4266 55.9096 19.3215 55.9171 19.164C55.9246 18.9989 55.9321 18.8114 55.9396 18.6013C55.9471 18.3837 55.9546 18.1549 55.9621 17.9148C55.9771 17.6673 55.9884 17.4347 55.9959 17.2171C56.0034 16.9995 56.0109 16.8045 56.0184 16.6319C56.0259 16.4594 56.0296 16.3356 56.0296 16.2606H55.2757C55.2456 16.8983 55.1969 17.4609 55.1294 17.9486C55.0618 18.4287 54.9681 18.8676 54.848 19.2653C54.728 19.6629 54.5742 20.0343 54.3866 20.3794C54.2066 20.7245 53.989 21.0808 53.7339 21.4485L52.7999 20.9195C53.0925 20.4994 53.3288 20.1055 53.5088 19.7379C53.6889 19.3628 53.8277 18.9727 53.9252 18.5675C54.0303 18.1624 54.1015 17.716 54.139 17.2284C54.1841 16.7407 54.2141 16.1705 54.2291 15.5178C54.2366 15.4053 54.2403 15.2778 54.2403 15.1352C54.2478 14.9927 54.2553 14.8501 54.2628 14.7076C54.2703 14.5575 54.2741 14.415 54.2741 14.2799C54.2816 14.1374 54.2853 14.0098 54.2853 13.8973H53.7677V12.8507H55.0956C55.0656 12.7307 55.0281 12.6032 54.9831 12.4681C54.9456 12.3256 54.908 12.1868 54.8705 12.0517C54.833 11.9167 54.7955 11.7891 54.758 11.6691C54.7205 11.5491 54.6867 11.444 54.6567 11.354L55.692 11.2077C55.722 11.2977 55.7558 11.4103 55.7933 11.5453C55.8383 11.6804 55.8833 11.8229 55.9284 11.973C55.9734 12.123 56.0184 12.2768 56.0634 12.4343C56.1084 12.5844 56.1497 12.7232 56.1872 12.8507H57.2V13.6385C57.4176 13.2334 57.6164 12.8245 57.7965 12.4118C57.9765 11.9917 58.1266 11.5753 58.2466 11.1627L59.2369 11.2977C59.1844 11.4928 59.1281 11.6879 59.0681 11.8829C59.0081 12.0705 58.9443 12.2618 58.8768 12.4569H61.195V13.5372H58.4154C58.3479 13.6872 58.2766 13.8335 58.2016 13.9761C58.1266 14.1111 58.0478 14.2499 57.9653 14.3925H60.9137V15.4616L59.642 16.6319V17.0258H61.3188V18.1174ZM53.1712 13.661C53.0737 13.556 52.9537 13.4359 52.8111 13.3009C52.6686 13.1658 52.5185 13.0308 52.361 12.8957C52.2109 12.7607 52.0609 12.6369 51.9108 12.5244C51.7683 12.4043 51.6483 12.3106 51.5507 12.243L52.1922 11.4103C52.3047 11.4928 52.4323 11.5903 52.5748 11.7029C52.7248 11.8079 52.8711 11.9204 53.0137 12.0405C53.1637 12.153 53.3025 12.2693 53.4301 12.3893C53.5651 12.5094 53.6777 12.6144 53.7677 12.7044L53.1712 13.661ZM53.0137 16.3056C52.9012 16.1855 52.7624 16.0542 52.5973 15.9117C52.4398 15.7692 52.2747 15.6266 52.1022 15.4841C51.9371 15.3415 51.772 15.2065 51.607 15.0789C51.4494 14.9514 51.3107 14.8464 51.1906 14.7638L51.7983 13.8973C51.9333 13.9798 52.0834 14.0811 52.2484 14.2012C52.4135 14.3137 52.5786 14.4337 52.7436 14.5613C52.9087 14.6888 53.0662 14.8201 53.2163 14.9551C53.3738 15.0827 53.5088 15.2027 53.6214 15.3153L53.0137 16.3056ZM53.5651 17.2509C53.5426 17.3634 53.5013 17.5285 53.4413 17.746C53.3813 17.9636 53.31 18.2074 53.2275 18.4775C53.1525 18.7476 53.0662 19.0289 52.9687 19.3215C52.8786 19.6141 52.7886 19.8955 52.6986 20.1655C52.6086 20.4356 52.526 20.6757 52.451 20.8858C52.376 21.1033 52.3197 21.2646 52.2822 21.3697L51.1906 21.0208C51.2356 20.9158 51.2956 20.7545 51.3707 20.5369C51.4457 20.3193 51.5282 20.0793 51.6182 19.8167C51.7083 19.5466 51.7983 19.2653 51.8883 18.9727C51.9859 18.6726 52.0721 18.3875 52.1472 18.1174C52.2297 17.8473 52.301 17.6035 52.361 17.3859C52.4285 17.1683 52.4735 17.0033 52.496 16.8908L53.5651 17.2509ZM69.6507 13.3459C69.5231 13.2559 69.3431 13.1433 69.1105 13.0083C68.8779 12.8732 68.6266 12.7344 68.3565 12.5919C68.0939 12.4419 67.8314 12.3031 67.5688 12.1755C67.3137 12.0405 67.0961 11.9317 66.9161 11.8492L67.4225 10.8926C67.5725 10.9601 67.7751 11.0577 68.0302 11.1852C68.2852 11.3052 68.5478 11.4365 68.8179 11.5791C69.088 11.7216 69.3431 11.8642 69.5832 12.0067C69.8307 12.1418 70.022 12.2505 70.1571 12.3331L69.6507 13.3459ZM64.8229 13.8636C64.7104 13.751 64.5641 13.6235 64.384 13.4809C64.204 13.3309 64.0164 13.1846 63.8213 13.042C63.6338 12.892 63.4462 12.7532 63.2587 12.6257C63.0786 12.4981 62.9248 12.3968 62.7973 12.3218L63.45 11.444C63.5775 11.5266 63.7276 11.6278 63.9001 11.7479C64.0802 11.8679 64.264 11.9955 64.4515 12.1305C64.6391 12.2655 64.8191 12.4006 64.9917 12.5356C65.1643 12.6632 65.3106 12.7795 65.4306 12.8845L64.8229 13.8636ZM70.1346 16.5644C70.4722 17.1796 70.8548 17.7573 71.2824 18.2975C71.7101 18.8301 72.1677 19.299 72.6554 19.7042L71.7664 20.6269C71.2637 20.1318 70.791 19.5766 70.3484 18.9614C69.9133 18.3462 69.5269 17.6785 69.1893 16.9583V20.0193C69.1893 20.3043 69.1593 20.5332 69.0993 20.7057C69.0467 20.8783 68.9567 21.0133 68.8292 21.1108C68.7091 21.2084 68.5516 21.2759 68.3565 21.3134C68.1615 21.3584 67.9214 21.3959 67.6363 21.4259L66.9723 21.4935L66.6347 20.3569L67.2537 20.2893C67.4487 20.2668 67.6025 20.2481 67.7151 20.2331C67.8276 20.2106 67.9101 20.1768 67.9626 20.1318C68.0152 20.0868 68.0452 20.0305 68.0527 19.963C68.0677 19.888 68.0752 19.7867 68.0752 19.6591V14.2912H65.6894V13.2108H69.1893V14.3137C69.2493 14.5163 69.3131 14.7188 69.3806 14.9214C69.4556 15.1164 69.5344 15.3115 69.6169 15.5066C69.902 15.2215 70.1909 14.9176 70.4834 14.595C70.7835 14.2724 71.0611 13.9611 71.3162 13.661L72.0702 14.5613C71.7701 14.8989 71.4513 15.2402 71.1136 15.5853C70.776 15.9305 70.4497 16.2568 70.1346 16.5644ZM64.1589 16.3618C64.0464 16.2493 63.9076 16.1255 63.7426 15.9905C63.585 15.8479 63.42 15.7091 63.2474 15.5741C63.0748 15.4391 62.906 15.3115 62.741 15.1915C62.5759 15.0714 62.4296 14.9702 62.3021 14.8876L62.8873 13.9986C63.0298 14.0886 63.1836 14.1937 63.3487 14.3137C63.5212 14.4262 63.6938 14.5463 63.8663 14.6738C64.0389 14.8013 64.204 14.9289 64.3615 15.0564C64.5191 15.184 64.6578 15.3003 64.7779 15.4053L64.1589 16.3618ZM67.6813 16.3956C67.5088 17.1233 67.2199 17.8661 66.8148 18.6238C66.4097 19.3816 65.862 20.1318 65.1718 20.8745L64.2827 20.1881C64.8979 19.5504 65.4006 18.9164 65.7907 18.2862C66.1883 17.6485 66.4772 17.0333 66.6572 16.4406H64.9805V15.3153H67.6813V16.3956ZM64.8792 17.5097C64.8492 17.6222 64.7966 17.7835 64.7216 17.9936C64.6466 18.1962 64.5603 18.425 64.4628 18.6801C64.3728 18.9352 64.2752 19.2015 64.1702 19.4791C64.0652 19.7492 63.9639 20.0042 63.8663 20.2443C63.7688 20.4919 63.6825 20.7095 63.6075 20.897C63.5325 21.0921 63.4762 21.2271 63.4387 21.3022L62.4034 20.852C62.4334 20.7845 62.4859 20.6607 62.5609 20.4806C62.6435 20.3006 62.7335 20.0905 62.831 19.8504C62.9286 19.6029 63.0298 19.3403 63.1349 19.0627C63.2399 18.7851 63.3412 18.5225 63.4387 18.2749C63.5362 18.0199 63.6188 17.791 63.6863 17.5885C63.7613 17.3859 63.8101 17.2396 63.8326 17.1496L64.8792 17.5097ZM83.1817 12.3106V14.1787H82.1013V13.3009H78.1964V14.1787H77.1385V12.3106H79.558C79.513 12.1605 79.4643 12.0105 79.4117 11.8604C79.3667 11.7104 79.318 11.5603 79.2654 11.4103L80.3233 11.219C80.3833 11.369 80.4433 11.5416 80.5033 11.7366C80.5634 11.9242 80.6234 12.1155 80.6834 12.3106H83.1817ZM75.6305 19.3103C75.6981 19.2503 75.7806 19.1827 75.8781 19.1077C75.9757 19.0327 76.0694 18.9577 76.1595 18.8826C76.257 18.8001 76.347 18.7251 76.4295 18.6576C76.5196 18.5825 76.5946 18.5188 76.6546 18.4663L76.9697 19.5804C76.9247 19.6104 76.8422 19.6704 76.7221 19.7604C76.6096 19.8429 76.4783 19.9367 76.3283 20.0418C76.1857 20.1468 76.0394 20.2556 75.8894 20.3681C75.7468 20.4806 75.623 20.5744 75.518 20.6495C75.4355 20.7245 75.3342 20.807 75.2142 20.897C75.0941 20.9871 74.9853 21.0733 74.8878 21.1559L74.3139 20.3006C74.4639 20.1731 74.554 20.0568 74.584 19.9517C74.6215 19.8467 74.6402 19.7192 74.6402 19.5691V15.0227L75.608 15.0677L76.0807 13.8298H75.0341C74.9141 14.1899 74.7828 14.55 74.6402 14.9101C74.4977 15.2702 74.3289 15.6754 74.1338 16.1255L73.2448 15.5178C73.4023 15.1502 73.5486 14.8013 73.6837 14.4712C73.8262 14.1336 73.9575 13.7998 74.0776 13.4697C74.1976 13.1321 74.3064 12.787 74.4039 12.4343C74.5089 12.0742 74.6065 11.6879 74.6965 11.2752L75.6643 11.4215C75.6043 11.6691 75.548 11.9054 75.4955 12.1305C75.4505 12.3481 75.398 12.5581 75.338 12.7607H76.8909V13.841L76.3283 15.5853L75.6305 15.3378V19.3103ZM78.6465 17.8586H82.7315V21.3697H81.6962V20.9195H78.6465V21.4259H77.5999V14.2012H82.4952V17.1271H78.6465V17.8586ZM78.6465 15.1577V16.1593H81.4486V15.1577H78.6465ZM78.6465 18.8264V19.9855H81.6962V18.8264H78.6465Z" fill="#123871"/>
<path d="M56.9629 29.1641C57.255 29.864 57.6323 30.512 58.0948 31.1084C58.5573 31.6987 59.0745 32.2524 59.6465 32.7697L59.0258 33.6186C58.5329 33.1378 58.0735 32.6023 57.6475 32.0121C57.2276 31.4218 56.8747 30.8041 56.5887 30.1591V32.7514H58.0035V33.5912H56.5887V35.079H55.6942V33.5912H54.3524V32.7514H55.6942V30.2047C55.4386 30.8193 55.1282 31.4035 54.7631 31.9573C54.398 32.511 53.9507 33.0648 53.4213 33.6186L53.1018 33.1895V35.0151H52.2256V30.6429C52.1099 30.8193 51.9913 30.9958 51.8696 31.1723C51.754 31.3427 51.6323 31.5131 51.5045 31.6834L50.9385 30.8711C51.1028 30.6337 51.2732 30.3629 51.4497 30.0587C51.6323 29.7483 51.8087 29.4167 51.9791 29.0637C52.1556 28.7108 52.3168 28.3457 52.4629 27.9684C52.615 27.5911 52.7459 27.2169 52.8554 26.8457L53.8047 27.01C53.6039 27.7037 53.3696 28.3548 53.1018 28.9633V32.5506C54.0877 31.583 54.8422 30.4542 55.3656 29.1641H53.5126V28.2422H55.6942V26.8092L56.5887 26.8457V28.2422H59.0715V29.1641H56.9629ZM68.2576 28.3153H66.1399C66.432 28.5161 66.7302 28.7351 67.0344 28.9725C67.3448 29.2098 67.6186 29.4319 67.8559 29.6388L67.3995 30.4512C67.3143 30.366 67.2139 30.2747 67.0983 30.1773C66.9888 30.08 66.8732 29.9796 66.7515 29.8761C66.5567 29.8761 66.2768 29.8822 65.9117 29.8944C65.5527 29.9005 65.1541 29.9096 64.7159 29.9218C64.2778 29.9339 63.8245 29.9491 63.3559 29.9674C62.8873 29.9796 62.4522 29.9948 62.0506 30.013C61.8376 30.0252 61.6398 30.0374 61.4573 30.0496C61.2808 30.0556 61.1226 30.0648 60.9826 30.0769L60.8366 29.1915C60.9522 29.1794 61.0496 29.155 61.1287 29.1185C61.2078 29.0759 61.2717 29.0424 61.3204 29.0181C61.5029 28.9329 61.6946 28.8295 61.8954 28.7078C62.1023 28.586 62.3031 28.4552 62.4979 28.3153H60.2615V27.5303H63.8214C63.791 27.4086 63.7575 27.2929 63.721 27.1834C63.6906 27.0739 63.6541 26.9582 63.6115 26.8365L64.5608 26.6814C64.6034 26.797 64.646 26.9309 64.6886 27.083C64.7312 27.229 64.7738 27.3781 64.8164 27.5303H68.2576V28.3153ZM65.8387 29.1459C65.6926 29.0364 65.5557 28.9329 65.4279 28.8355C65.3001 28.7321 65.1845 28.6469 65.0811 28.58L65.3093 28.3153H63.794C63.5628 28.51 63.3346 28.6895 63.1094 28.8538C62.8904 29.012 62.7017 29.1337 62.5435 29.2189L65.8387 29.1459ZM61.3386 30.4055H67.1713V33.9472C67.1713 34.1297 67.1531 34.2849 67.1166 34.4127C67.0862 34.5466 67.0283 34.6531 66.9431 34.7322C66.864 34.8174 66.7515 34.8813 66.6054 34.9238C66.4594 34.9725 66.2768 35.003 66.0577 35.0151L65.2636 35.0608L65.0172 34.2758L65.8752 34.221C66.0334 34.2088 66.1429 34.1784 66.2038 34.1297C66.2707 34.075 66.3042 33.9654 66.3042 33.8011V33.719H62.2058V34.9786H61.3386V30.4055ZM62.2058 31.1266V31.6926H66.3042V31.1266H62.2058ZM66.3042 32.9979V32.4228H62.2058V32.9979H66.3042ZM76.8777 29.7757C76.8716 29.8366 76.8625 29.9613 76.8503 30.15C76.8442 30.3386 76.8351 30.5607 76.8229 30.8163C76.8108 31.0658 76.7956 31.3366 76.7773 31.6287C76.7591 31.9208 76.7438 32.2007 76.7317 32.4684C76.7195 32.7362 76.7043 32.9766 76.686 33.1895C76.6739 33.4025 76.6647 33.5577 76.6586 33.6551C76.6404 33.8924 76.6069 34.0841 76.5582 34.2301C76.5096 34.3762 76.4305 34.4918 76.3209 34.577C76.2175 34.6683 76.0775 34.7322 75.901 34.7687C75.7306 34.8113 75.5116 34.8417 75.2438 34.86L74.7418 34.8965L74.4588 34.0111L75.0248 33.9654C75.183 33.9532 75.3077 33.938 75.399 33.9198C75.4964 33.8954 75.5724 33.862 75.6272 33.8194C75.682 33.7768 75.7215 33.719 75.7459 33.6459C75.7702 33.5668 75.7915 33.4634 75.8098 33.3356C75.8219 33.2382 75.8371 33.0648 75.8554 32.8153C75.8736 32.5658 75.8919 32.2981 75.9102 32.0121C75.9284 31.72 75.9467 31.4431 75.9649 31.1814C75.9832 30.9197 75.9954 30.7281 76.0014 30.6064H75.2621C75.1951 31.1236 75.1008 31.5922 74.9791 32.0121C74.8635 32.4319 74.7144 32.8214 74.5318 33.1804C74.3493 33.5395 74.1241 33.8772 73.8564 34.1936C73.5947 34.51 73.2844 34.8234 72.9253 35.1338L72.2134 34.577C72.5481 34.291 72.8371 34.0111 73.0805 33.7372C73.3239 33.4634 73.5308 33.1713 73.7012 32.8609C73.8777 32.5506 74.0237 32.2129 74.1393 31.8477C74.2611 31.4826 74.3675 31.0688 74.4588 30.6064H73.7103C73.54 31.3244 73.2752 31.9786 72.9162 32.5689C72.5633 33.1591 72.0764 33.7068 71.4557 34.2119L70.7894 33.6551C70.9294 33.5455 71.0572 33.439 71.1728 33.3356C71.2945 33.2261 71.4071 33.1165 71.5105 33.007C71.3462 33.0678 71.1667 33.1317 70.972 33.1987C70.7833 33.2656 70.5886 33.3326 70.3878 33.3995C70.1931 33.4664 69.9983 33.5334 69.8036 33.6003C69.615 33.6672 69.4354 33.7311 69.2651 33.792L69.0734 32.9066C69.2498 32.8579 69.4385 32.8031 69.6393 32.7423C69.8401 32.6753 70.044 32.6084 70.2509 32.5415V29.7483H69.3381V28.8812H70.2509V26.7818L71.1363 26.8183V28.8812H71.9852V29.7483H71.1363V32.2494C71.2762 32.2007 71.401 32.1581 71.5105 32.1216C71.6261 32.079 71.7265 32.0425 71.8117 32.0121L71.8665 32.6145C72.1282 32.2981 72.3381 31.9786 72.4963 31.6561C72.6606 31.3275 72.7945 30.9776 72.898 30.6064H72.0126V29.8487L74.8057 28.1144H72.2681V27.229H76.3392V28.1327L73.5643 29.7757H76.8777Z" fill="#3A5A8A"/>
<defs>
<linearGradient id="paint0_linear_674_33983" x1="86.9675" y1="-0.181216" x2="9.10392" y2="37.9581" gradientUnits="userSpaceOnUse">
<stop offset="0.5" stop-color="#809AF5"/>
<stop offset="0.5" stop-color="#3867E2"/>
</linearGradient>
</defs>
</svg>
