<svg width="18" height="15" viewBox="0 0 18 15" fill="none" xmlns="http://www.w3.org/2000/svg">
<path fill-rule="evenodd" clip-rule="evenodd" d="M2.59182 14.5281H15.4083C16.1523 14.5281 16.8655 14.2011 17.3615 13.6261C17.7741 13.1499 18.0001 12.5508 18.0001 11.9363V3.0635C18.0001 2.44902 17.7741 1.8477 17.3615 1.37366L17.2408 1.23101C16.7514 0.741616 16.0996 0.47168 15.4083 0.47168H2.59182C1.9093 0.47168 1.24214 0.7482 0.759332 1.23101C0.269936 1.72041 0 2.37001 0 3.0635V11.9363C0 13.365 1.16314 14.5281 2.59182 14.5281ZM1.63498 2.10885C1.88736 1.85867 2.2341 1.71382 2.59182 1.71382V1.71163H15.4083C15.7704 1.71163 16.1084 1.85208 16.3256 2.06496L16.4244 2.18566C16.578 2.36123 16.7602 2.6575 16.7602 3.0635V11.9385C16.7602 12.3445 16.578 12.6407 16.4244 12.8185C16.161 13.1236 15.7989 13.2903 15.4083 13.2903H2.59182C1.84566 13.2903 1.23995 12.6846 1.23995 11.9385V3.0657C1.23995 2.70359 1.3804 2.36343 1.63498 2.10885ZM3.90663 7.30786H6.65428C7.26438 7.30786 7.76035 6.81188 7.76035 6.20178V4.69409C7.76035 4.08399 7.26218 3.58801 6.65428 3.58801H3.90663C3.29654 3.58801 2.80056 4.08399 2.80056 4.69409V6.20178C2.80056 6.81188 3.29873 7.30786 3.90663 7.30786ZM6.5226 6.06791H4.0427V4.82796H6.5226V6.06791ZM9.86278 6.87992H13.4246C13.767 6.87992 14.0435 6.6034 14.0435 6.26104C14.0435 5.91868 13.767 5.64216 13.4246 5.64216H9.86278C9.52042 5.64216 9.24391 5.91868 9.24391 6.26104C9.24391 6.6034 9.52042 6.87992 9.86278 6.87992ZM3.76399 10.512H14.2366C14.579 10.512 14.8555 10.2355 14.8555 9.8931C14.8555 9.55075 14.579 9.27423 14.2366 9.27423H3.76399C3.42163 9.27423 3.14511 9.55075 3.14511 9.8931C3.14511 10.2355 3.42163 10.512 3.76399 10.512Z" fill="#3D6CE4"/>
</svg>
