<svg width="18" height="19" viewBox="0 0 18 19" fill="none" xmlns="http://www.w3.org/2000/svg">
<path fill-rule="evenodd" clip-rule="evenodd" d="M7.34922 0.532471C6.68675 0.532471 6.06887 0.824405 5.62605 1.31451C5.1855 1.80209 4.94928 2.44851 4.94928 3.10856V4.18481H2.39994C1.00473 4.18481 0 5.41155 0 6.7609V15.8913C0 17.2407 1.00473 18.4674 2.39994 18.4674H15.5995C16.9947 18.4674 17.9994 17.2407 17.9994 15.8913V6.7609C17.9994 5.41155 16.9947 4.18481 15.5995 4.18481H13.049V3.10856C13.049 2.44851 12.8128 1.80209 12.3723 1.31451C11.9294 0.824405 11.3116 0.532471 10.6491 0.532471H7.34922ZM11.549 4.18481V3.10856C11.549 2.79999 11.4376 2.51746 11.2593 2.32013C11.0833 2.12532 10.8618 2.03247 10.6491 2.03247H7.34922C7.13651 2.03247 6.91505 2.12532 6.73903 2.32013C6.56073 2.51746 6.44928 2.79999 6.44928 3.10856V4.18481H11.549ZM6.44928 5.68481H11.549V16.9674H6.44928V5.68481ZM4.94928 5.68481H2.39994C1.97268 5.68481 1.5 6.09321 1.5 6.7609V15.8913C1.5 16.559 1.97268 16.9674 2.39994 16.9674H4.94928V5.68481ZM13.049 16.9674V5.68481H15.5995C16.0267 5.68481 16.4994 6.09321 16.4994 6.7609V15.8913C16.4994 16.559 16.0267 16.9674 15.5995 16.9674H13.049Z" fill="#3D6CE4"/>
</svg>
