<svg width="22" height="23" viewBox="0 0 22 23" fill="none" xmlns="http://www.w3.org/2000/svg">
<path fill-rule="evenodd" clip-rule="evenodd" d="M20.4959 11.0445H21.2667C21.4612 11.0445 21.6477 11.1218 21.7852 11.2593C21.9227 11.3968 22 11.5833 22 11.7778C22 11.9723 21.9227 12.1589 21.7852 12.2964C21.6477 12.4339 21.4612 12.5112 21.2667 12.5112H20.4959C20.1381 17.1825 16.4047 20.9159 11.7333 21.2738V22.0445C11.7333 22.239 11.6561 22.4255 11.5185 22.563C11.381 22.7006 11.1945 22.7778 11 22.7778C10.8055 22.7778 10.619 22.7006 10.4815 22.563C10.3439 22.4255 10.2667 22.239 10.2667 22.0445V21.2738C5.59533 20.9159 1.86193 17.1825 1.50407 12.5112H0.733333C0.538841 12.5112 0.352315 12.4339 0.214788 12.2964C0.0772617 12.1589 0 11.9723 0 11.7778C0 11.5833 0.0772617 11.3968 0.214788 11.2593C0.352315 11.1218 0.538841 11.0445 0.733333 11.0445H1.50407C1.86193 6.37317 5.59533 2.63977 10.2667 2.2819V1.51117C10.2667 1.31667 10.3439 1.13015 10.4815 0.99262C10.619 0.855094 10.8055 0.777832 11 0.777832C11.1945 0.777832 11.381 0.855094 11.5185 0.99262C11.6561 1.13015 11.7333 1.31667 11.7333 1.51117V2.2819C16.4047 2.63977 20.1381 6.37317 20.4959 11.0445ZM11.7333 18.3778V19.8071C15.5965 19.4573 18.6795 16.3744 19.0293 12.5112H17.6C17.4055 12.5112 17.219 12.4339 17.0815 12.2964C16.9439 12.1589 16.8667 11.9723 16.8667 11.7778C16.8667 11.5833 16.9439 11.3968 17.0815 11.2593C17.219 11.1218 17.4055 11.0445 17.6 11.0445H19.0293C18.6795 7.1813 15.5965 4.0991 11.7333 3.74857V5.17783C11.7333 5.37232 11.6561 5.55885 11.5185 5.69638C11.381 5.8339 11.1945 5.91117 11 5.91117C10.8055 5.91117 10.619 5.8339 10.4815 5.69638C10.3439 5.55885 10.2667 5.37232 10.2667 5.17783V3.74857C6.40347 4.09837 3.32053 7.1813 2.97073 11.0445H4.4C4.59449 11.0445 4.78102 11.1218 4.91854 11.2593C5.05607 11.3968 5.13333 11.5833 5.13333 11.7778C5.13333 11.9723 5.05607 12.1589 4.91854 12.2964C4.78102 12.4339 4.59449 12.5112 4.4 12.5112H2.97073C3.32053 16.3744 6.40347 19.4573 10.2667 19.8071V18.3778C10.2667 18.1833 10.3439 17.9968 10.4815 17.8593C10.619 17.7218 10.8055 17.6445 11 17.6445C11.1945 17.6445 11.381 17.7218 11.5185 17.8593C11.6561 17.9968 11.7333 18.1833 11.7333 18.3778ZM9.70354 13.0741C9.35972 12.7303 9.16657 12.264 9.16657 11.7777C9.16657 11.2915 9.35972 10.8252 9.70354 10.4814C10.0474 10.1376 10.5137 9.9444 10.9999 9.9444C11.4861 9.9444 11.9524 10.1376 12.2963 10.4814C12.6401 10.8252 12.8332 11.2915 12.8332 11.7777C12.8332 12.264 12.6401 12.7303 12.2963 13.0741C11.9524 13.4179 11.4861 13.6111 10.9999 13.6111C10.5137 13.6111 10.0474 13.4179 9.70354 13.0741Z" fill="#3868E3"/>
</svg>
