<svg width="24" height="24" viewBox="0 0 24 24" fill="none" xmlns="http://www.w3.org/2000/svg">
<path d="M19 0C20.6569 0 22 1.34315 22 3V18.5439L19.25 21.2715L16.5 23.998H5C3.34315 23.998 2 22.6549 2 20.998V3C2 1.34315 3.34315 1.28851e-07 5 0H19ZM5 1.7998C4.33726 1.7998 3.7998 2.33726 3.7998 3V20.998C3.79981 21.6608 4.33726 22.1982 5 22.1982H15.5996V19.5449C15.5996 18.4951 16.4521 17.6445 17.501 17.6445H20.2002V3C20.2002 2.33726 19.6627 1.7998 19 1.7998H5Z" fill="#3868E3"/>
<line x1="8" y1="7" x2="16" y2="7" stroke="#3868E3" stroke-width="2" stroke-linecap="round"/>
<line x1="8" y1="12.5652" x2="16" y2="12.5652" stroke="#3868E3" stroke-width="2" stroke-linecap="round"/>
</svg>
