<svg width="22" height="21" viewBox="0 0 22 21" fill="none" xmlns="http://www.w3.org/2000/svg">
<path d="M21.9995 7.15144C21.9995 3.51785 19.5806 0.777832 16.3731 0.777832H0V17.5774H3.69368C3.91479 19.0108 4.99986 20.038 6.39686 20.038C7.79386 20.038 8.87895 19.0114 9.10006 17.5774H13.9745C14.1956 19.0108 15.2807 20.038 16.6777 20.038C18.0747 20.038 19.1598 19.0114 19.3809 17.5774H22V7.15142H21.9995V7.15144ZM20.3495 7.15144V8.57756H15.3996V2.57771H16.3732C18.677 2.57771 20.3495 4.50129 20.3495 7.15144ZM8.24977 8.57756V2.57771H13.7496V8.57756H8.24977ZM6.59989 2.57771V8.57756H1.65V2.57771H6.59989ZM6.39637 18.238C5.73639 18.238 5.29637 17.758 5.29637 17.038C5.29637 16.3179 5.73637 15.838 6.39637 15.838C7.05636 15.838 7.49637 16.318 7.49637 17.038C7.49637 17.758 7.05639 18.238 6.39637 18.238ZM16.6772 18.238C16.0172 18.238 15.5772 17.758 15.5772 17.038C15.5772 16.3179 16.0172 15.838 16.6772 15.838C17.3372 15.838 17.7772 16.318 17.7772 17.038C17.7772 17.758 17.3372 18.238 16.6772 18.238ZM19.1835 15.7774C18.7622 14.7341 17.8256 14.0381 16.6767 14.0381C15.5278 14.0381 14.5911 14.7346 14.17 15.7774H8.90268C8.48136 14.7341 7.54478 14.0381 6.3959 14.0381C5.24702 14.0381 4.31028 14.7346 3.88912 15.7774H1.6489V10.3776H20.3484V15.7775H19.1835L19.1835 15.7774Z" fill="#3868E3"/>
</svg>
