<svg width="24" height="25" viewBox="0 0 24 25" fill="none" xmlns="http://www.w3.org/2000/svg">
<g clip-path="url(#clip0_63_61885)">
<path d="M10.9366 8.21673C10.6504 7.74525 10.6774 7.69364 10.6503 7.59105C10.0417 5.66513 11.6249 4.65899 12.4926 4.39667C11.9276 5.17342 12.6197 5.84011 13.0364 6.07636C14.5039 6.8037 15.0871 7.80633 15.1952 8.21673C15.4986 9.29134 15.0472 9.21454 14.7004 9.5" stroke="#4573E7" stroke-width="1.3"/>
<path d="M5.5 8C1.5 9 0.323905 11.5638 -0.5 13.2116L0 26.4529L11.3875 30.1605L21 19.5C21.2825 16.8164 20.5 14.4998 19 12.5C16.2343 8.81267 11.3875 6.99967 5.5 8Z" stroke="#4573E7" stroke-width="1.3"/>
<path d="M5.11998 10.6812C1.58896 11.8817 0.588504 14.8301 0.529653 16.1542L0 21.8922L15.3599 25.1584L18.0965 21.5391C19.3677 18.9967 18.3907 16.3014 17.7434 15.2715C14.5655 9.33938 8.00365 9.73956 5.11998 10.6812Z" stroke="#4573E7" stroke-width="1.3"/>
<path d="M7.54157 12.3721C7.68873 12.4087 7.87464 12.56 7.99302 12.9321C8.10843 13.2952 8.12877 13.7945 7.99459 14.3343L7.98799 14.3608C7.87541 14.9487 7.66759 15.3332 7.51748 15.545C7.03566 15.3719 6.49584 15.2452 6.11412 15.1709C6.11356 15.1656 6.11273 15.1598 6.11221 15.1543C6.10031 15.0304 6.10046 14.8824 6.10976 14.723C6.11909 14.5632 6.13704 14.402 6.15842 14.2561L6.22639 13.8816C6.36141 13.3474 6.61139 12.9204 6.88136 12.6557C7.16005 12.3825 7.39439 12.3356 7.54157 12.3721Z" fill="#4573E7" stroke="#4573E7"/>
<path d="M14.8367 14.9786C14.9788 15.0316 15.1464 15.203 15.2219 15.5862C15.2955 15.9599 15.2592 16.4583 15.0648 16.9795L15.0553 17.0051C14.8769 17.5765 14.6269 17.935 14.4538 18.1284C13.9946 17.902 13.4726 17.715 13.1018 17.598C13.1018 17.5927 13.1016 17.5868 13.1017 17.5813C13.1039 17.4568 13.1208 17.3098 13.1481 17.1525C13.1755 16.9948 13.2115 16.8366 13.2493 16.6941L13.3592 16.3296C13.5538 15.8142 13.8505 15.4182 14.1487 15.1858C14.4565 14.9459 14.6946 14.9258 14.8367 14.9786Z" fill="#4573E7" stroke="#4573E7"/>
<ellipse cx="4.27688" cy="16.2502" rx="1.9497" ry="1.02808" transform="rotate(16.0578 4.27688 16.2502)" fill="#4573E7"/>
<ellipse cx="14.9153" cy="20.2265" rx="1.9497" ry="1.02808" transform="rotate(26.7611 14.9153 20.2265)" fill="#4573E7"/>
<circle cx="12" cy="12.7778" r="11.25" stroke="#4573E7" stroke-width="1.5"/>
</g>
<rect x="0.5" y="1.27783" width="23" height="23" rx="11.5" stroke="#4573E7"/>
<defs>
<clipPath id="clip0_63_61885">
<rect y="0.777832" width="24" height="24" rx="12" fill="white"/>
</clipPath>
</defs>
</svg>
