<svg width="34" height="44" viewBox="0 0 34 44" fill="none" xmlns="http://www.w3.org/2000/svg">
<path d="M34 17.4792C34 25.0846 22.7831 37.4861 18.5721 41.8738C17.7087 42.7734 16.2913 42.7734 15.4279 41.8738C11.2169 37.4861 0 25.0846 0 17.4792C0 8.11643 7.61116 0.526367 17 0.526367C26.3888 0.526367 34 8.11643 34 17.4792Z" fill="white"/>
<path d="M17.3377 4.14478C24.9363 4.14488 31.0965 10.305 31.0965 17.9036C31.0965 23.9067 22.5083 33.5923 18.9022 37.3948C18.0425 38.3009 16.6319 38.3011 15.7723 37.3948C12.1662 33.5923 3.57896 23.9067 3.57895 17.9036C3.57895 10.3049 9.73911 4.14478 17.3377 4.14478ZM17.3368 11.0237C14.1709 11.0239 11.6043 13.5911 11.6043 16.7571C11.6046 19.9228 14.171 22.4893 17.3368 22.4895C20.5027 22.4895 23.0699 19.923 23.0702 16.7571C23.0702 13.591 20.5029 11.0237 17.3368 11.0237Z" fill="url(#paint0_linear_65_61912)"/>
<defs>
<linearGradient id="paint0_linear_65_61912" x1="8.12129" y1="20.431" x2="28.8577" y2="20.431" gradientUnits="userSpaceOnUse">
<stop offset="0.466246" stop-color="#3767E2"/>
<stop offset="0.466346" stop-color="#8099F5"/>
</linearGradient>
</defs>
</svg>
