<svg width="131" height="52" viewBox="0 0 131 52" fill="none" xmlns="http://www.w3.org/2000/svg">
<path d="M35.7327 38H10.1234C8.91846 38 8.42552 40.5313 9.48079 41.1129C15.2953 44.3178 20.407 48.71 22.2653 50.3828C22.6827 50.7585 23.3259 50.7478 23.7316 50.3595C25.5166 48.651 30.4263 44.2043 36.3415 40.9712C37.3929 40.3966 36.9309 38 35.7327 38Z" fill="#4573E7"/>
<rect width="130.557" height="45.4013" rx="22.7007" fill="url(#paint0_linear_674_33979)"/>
<rect x="4.86821" y="4.86819" width="120.821" height="35.6649" rx="17.8325" fill="#D6DFF5"/>
<path d="M36.6312 32.9316H17.8745C17.6484 32.9315 17.4316 32.8417 17.2717 32.6818C17.1119 32.5219 17.0221 32.3051 17.0221 32.079C17.0221 31.8529 17.1119 31.6361 17.2717 31.4762C17.4316 31.3163 17.6484 31.2264 17.8745 31.2264H18.7271V15.0275C18.7271 14.3491 18.9966 13.6986 19.4762 13.2189C19.9559 12.7392 20.6065 12.4698 21.2848 12.4698H27.3296C28.0079 12.4698 28.6585 12.7392 29.1382 13.2189C29.6178 13.6986 29.8873 14.3491 29.8873 15.0275V19.5035L33.9285 20.6715C34.4614 20.8249 34.9299 21.1474 35.2636 21.5902C35.5973 22.0331 35.778 22.5724 35.7786 23.1269V31.2264H36.6312C36.8573 31.2264 37.0741 31.3163 37.2339 31.4762C37.3938 31.6361 37.4836 31.8529 37.4836 32.079C37.4836 32.3051 37.3938 32.5219 37.2339 32.6818C37.0741 32.8417 36.8573 32.9315 36.6312 32.9316ZM29.8873 31.2264H34.0734V23.1269C34.081 22.9367 34.0247 22.7494 33.9134 22.5949C33.8022 22.4404 33.6424 22.3275 33.4596 22.2744L29.8873 21.2428V24.2182H31.5924C31.8185 24.2183 32.0354 24.3081 32.1952 24.468C32.3551 24.6279 32.4449 24.8447 32.4449 25.0708C32.4449 25.2969 32.3551 25.5137 32.1952 25.6736C32.0354 25.8335 31.8185 25.9234 31.5924 25.9234H29.8873V27.3642H31.5924C31.8185 27.3643 32.0354 27.4541 32.1952 27.614C32.3551 27.7739 32.4449 27.9907 32.4449 28.2168C32.4449 28.4429 32.3551 28.6597 32.1952 28.8196C32.0354 28.9795 31.8185 29.0694 31.5924 29.0694H29.8873V31.2264ZM26.8692 31.2264H28.1821V15.0275C28.1821 14.8014 28.0923 14.5845 27.9324 14.4246C27.7725 14.2647 27.5557 14.1749 27.3296 14.1749H21.2848C21.0587 14.1749 20.8418 14.2647 20.6819 14.4246C20.5221 14.5845 20.4322 14.8014 20.4322 15.0275V31.2264H21.7537V27.8161C21.7537 27.59 21.8435 27.3731 22.0034 27.2132C22.1633 27.0534 22.3802 26.9635 22.6063 26.9635H26.0166C26.1286 26.9635 26.2394 26.9856 26.3429 27.0284C26.4463 27.0713 26.5403 27.1341 26.6195 27.2132C26.6986 27.2924 26.7614 27.3864 26.8043 27.4898C26.8471 27.5933 26.8692 27.7041 26.8692 27.8161V31.2264ZM23.4589 31.2264H25.164V28.6687H23.4589V31.2264ZM26.0166 24.8321H22.6063C22.3802 24.8321 22.1633 24.7423 22.0034 24.5824C21.8435 24.4225 21.7537 24.2056 21.7537 23.9795C21.7537 23.7534 21.8435 23.5365 22.0034 23.3767C22.1633 23.2168 22.3802 23.1269 22.6063 23.1269H26.0166C26.2427 23.1269 26.4596 23.2168 26.6195 23.3767C26.7794 23.5365 26.8692 23.7534 26.8692 23.9795C26.8692 24.2056 26.7794 24.4225 26.6195 24.5824C26.4596 24.7423 26.2427 24.8321 26.0166 24.8321ZM26.0166 21.4218H22.6063C22.3802 21.4218 22.1634 21.3319 22.0035 21.172C21.8437 21.0121 21.7539 20.7953 21.7539 20.5692C21.7539 20.3431 21.8437 20.1263 22.0035 19.9664C22.1634 19.8065 22.3802 19.7167 22.6063 19.7166H26.0166C26.2427 19.7167 26.4595 19.8065 26.6194 19.9664C26.7792 20.1263 26.869 20.3431 26.869 20.5692C26.869 20.7953 26.7792 21.0121 26.6194 21.172C26.4595 21.3319 26.2427 21.4218 26.0166 21.4218ZM26.0166 18.0115H22.6063C22.3802 18.0115 22.1634 17.9216 22.0035 17.7617C21.8437 17.6019 21.7539 17.385 21.7539 17.1589C21.7539 16.9328 21.8437 16.716 22.0035 16.5561C22.1634 16.3962 22.3802 16.3064 22.6063 16.3063H26.0166C26.2427 16.3064 26.4595 16.3962 26.6194 16.5561C26.7792 16.716 26.869 16.9328 26.869 17.1589C26.869 17.385 26.7792 17.6019 26.6194 17.7617C26.4595 17.9216 26.2427 18.0115 26.0166 18.0115Z" fill="#2566E5"/>
<path d="M54.1501 18.9051C54.0301 18.7175 53.88 18.5037 53.7 18.2636C53.5199 18.0236 53.3286 17.776 53.126 17.5209C52.9235 17.2658 52.7134 17.0107 52.4958 16.7557C52.2783 16.5006 52.0757 16.268 51.8882 16.0579V21.3134H50.7628V16.3505C50.5002 16.7632 50.2189 17.1645 49.9188 17.5547C49.6187 17.9448 49.2961 18.3312 48.951 18.7138L48.8384 18.6012L48.9622 19.7153C48.8572 19.7303 48.6959 19.7566 48.4783 19.7941C48.2683 19.8241 48.0319 19.8616 47.7694 19.9067C47.5068 19.9517 47.2292 20.0004 46.9366 20.053C46.6515 20.098 46.3739 20.143 46.1038 20.188C45.8412 20.233 45.6012 20.2743 45.3836 20.3118C45.1735 20.3568 45.0122 20.3906 44.8997 20.4131L44.7759 19.3552C44.9034 19.3327 45.1098 19.2952 45.3949 19.2427C45.6799 19.1902 45.995 19.1302 46.3401 19.0626V16.4406H45.1698V15.3602H46.3401V13.0982H45.0685V12.0179H48.6809V13.0982H47.4317V15.3602H48.6246V16.4406H47.4317V18.8601C47.7318 18.8001 48.0057 18.7475 48.2533 18.7025C48.5083 18.6575 48.6996 18.6162 48.8272 18.5787L48.1182 17.836C48.8009 17.1758 49.3899 16.4368 49.885 15.619C50.3877 14.7938 50.8191 13.931 51.1792 13.0307H48.9735V11.8829H54.5327V13.0307H52.3721C52.2445 13.3758 52.1095 13.7097 51.9669 14.0323C51.8319 14.3549 51.6893 14.6737 51.5393 14.9888L51.8882 15.0001V15.4052L52.3608 14.9663C52.5484 15.1614 52.7622 15.3902 53.0023 15.6528C53.2423 15.9154 53.4787 16.1892 53.7112 16.4743C53.9513 16.7519 54.1764 17.0257 54.3864 17.2958C54.604 17.5659 54.7841 17.8022 54.9266 18.0048L54.1501 18.9051ZM65.7343 14.6625H59.1622V13.8072H60.5576L60.3776 12.8507H59.2184V12.0179H61.6267C61.5892 11.8829 61.5479 11.7516 61.5029 11.624C61.4654 11.489 61.4241 11.3577 61.3791 11.2302L62.482 11.0614C62.5345 11.2114 62.587 11.3652 62.6395 11.5227C62.692 11.6803 62.7446 11.8454 62.7971 12.0179H65.3854V12.8507H64.1588C64.1288 12.9857 64.0912 13.1395 64.0462 13.3121C64.0012 13.4771 63.9562 13.6422 63.9112 13.8072H65.7343V14.6625ZM59.1847 19.0851C59.1247 19.1002 59.0121 19.1339 58.8471 19.1864C58.682 19.2389 58.487 19.3027 58.2619 19.3777C58.0443 19.4453 57.8118 19.5203 57.5642 19.6028C57.3166 19.6778 57.0803 19.7529 56.8552 19.8279C56.6376 19.8954 56.4463 19.9592 56.2813 20.0192C56.1162 20.0717 56.0074 20.1092 55.9549 20.1317L55.7636 19.0176C55.8236 19.0026 55.9737 18.9576 56.2137 18.8826C56.4613 18.8076 56.7427 18.7175 57.0578 18.6125V14.9888H56.0562V13.9198H57.0578V11.1401L58.0593 11.1851V13.9198H58.9371V14.9888H58.0593V18.2974C58.3069 18.2149 58.5207 18.1436 58.7008 18.0836C58.8883 18.0161 59.0121 17.971 59.0722 17.9485L59.1847 19.0851ZM61.3791 12.8507C61.4166 13.0082 61.4467 13.1695 61.4692 13.3346C61.4992 13.4996 61.5254 13.6572 61.5479 13.8072H62.8871L63.1459 12.8507H61.3791ZM65.9481 19.2877C65.9331 19.4228 65.9181 19.554 65.9031 19.6816C65.8956 19.8016 65.8806 19.9442 65.8581 20.1092C65.828 20.3118 65.7905 20.4768 65.7455 20.6044C65.7005 20.7319 65.633 20.8294 65.543 20.897C65.4604 20.972 65.3441 21.0245 65.1941 21.0545C65.0515 21.092 64.8677 21.1183 64.6427 21.1333C64.2525 21.1558 63.8774 21.1558 63.5173 21.1333C63.1497 21.1108 62.8834 21.032 62.7183 20.897C62.5608 20.7619 62.482 20.5068 62.482 20.1317V18.6688H61.5704V18.7363C61.5554 19.1339 61.4804 19.4715 61.3454 19.7491C61.2103 20.0192 61.019 20.2555 60.7714 20.4581C60.5239 20.6681 60.2163 20.852 59.8486 21.0095C59.4885 21.1671 59.0722 21.3284 58.5995 21.4934L58.1156 20.5706C58.5732 20.4431 58.9521 20.3155 59.2522 20.188C59.5523 20.053 59.7924 19.9142 59.9724 19.7716C60.16 19.6216 60.295 19.464 60.3776 19.299C60.4601 19.1339 60.5126 18.9501 60.5351 18.7475C60.5351 18.7175 60.5389 18.6913 60.5464 18.6688H59.3873V15.2027H64.924V18.6688H63.4498V19.7941C63.4498 19.9892 63.4798 20.113 63.5398 20.1655C63.5998 20.218 63.7161 20.2518 63.8887 20.2668C64.0687 20.2818 64.2525 20.2818 64.4401 20.2668C64.5376 20.2593 64.6164 20.2518 64.6764 20.2443C64.7439 20.2293 64.7927 20.2068 64.8227 20.1767C64.8602 20.1392 64.8865 20.0942 64.9015 20.0417C64.924 19.9817 64.9428 19.9067 64.9578 19.8166C64.9878 19.6366 65.0065 19.479 65.014 19.344C65.029 19.2014 65.0365 19.0776 65.0365 18.9726L65.9481 19.2877ZM60.3551 16.0129V16.5531H63.9562V16.0129H60.3551ZM60.3551 17.8698H63.9562V17.3408H60.3551V17.8698ZM67.1564 16.2155H70.5663V17.3633H67.1564V16.2155ZM75.7815 17.3971C75.669 17.2171 75.5189 17.0107 75.3314 16.7782C75.1513 16.5381 74.9675 16.3093 74.7799 16.0917V21.3134H73.6658V16.4068C73.4483 16.8494 73.2157 17.2808 72.9681 17.701C72.728 18.1136 72.4917 18.4812 72.2591 18.8038L71.6064 17.8698C71.764 17.6447 71.929 17.3934 72.1016 17.1158C72.2816 16.8382 72.4579 16.5456 72.6305 16.238C72.8031 15.9229 72.9719 15.6003 73.1369 15.2702C73.302 14.9326 73.452 14.5987 73.5871 14.2686H72.1691V13.177H73.6658V11.1739L74.7799 11.2189V13.177H76.1979V14.2686H74.7799V15.2477L75.1063 14.9326C75.2038 15.0301 75.3164 15.1539 75.4439 15.3039C75.5789 15.4465 75.7102 15.5965 75.8378 15.7541C75.9728 15.9116 76.1003 16.0692 76.2204 16.2267C76.3479 16.3768 76.453 16.5118 76.5355 16.6319L75.7815 17.3971ZM81.8472 14.3586H80.5305V19.7716C80.5305 20.0417 80.5042 20.263 80.4517 20.4356C80.4067 20.6156 80.3242 20.7582 80.2041 20.8632C80.0916 20.9682 79.9378 21.047 79.7428 21.0995C79.5477 21.1521 79.3039 21.1896 79.0113 21.2121L78.1785 21.2796L77.8409 20.1542L78.6512 20.0867C78.8087 20.0717 78.9362 20.053 79.0338 20.0304C79.1313 20.0079 79.2063 19.9742 79.2588 19.9292C79.3189 19.8766 79.3564 19.8091 79.3714 19.7266C79.3939 19.6441 79.4051 19.5315 79.4051 19.389V15.6866C78.9775 16.4818 78.4711 17.2433 77.8859 17.971C77.3082 18.6988 76.663 19.3627 75.9503 19.9629L75.14 19.1077C75.9803 18.4174 76.7193 17.6822 77.357 16.902C78.0022 16.1142 78.5461 15.2664 78.9888 14.3586H76.558V13.2445H79.4051V11.1851L80.5305 11.2302V13.2445H81.8472V14.3586ZM91.4507 18.4887V21.3696H90.3928V18.6237L87.5682 18.9726L87.5007 17.836L90.3928 17.4646V11.2302L91.4507 11.2752V17.3296L92.9362 17.1383L93.0037 18.2974L91.4507 18.4887ZM86.094 16.7894C86.199 16.8945 86.3153 17.0145 86.4428 17.1495C86.5704 17.2771 86.6979 17.4159 86.8255 17.5659C86.9605 17.7085 87.0881 17.8548 87.2081 18.0048C87.3356 18.1473 87.4444 18.2824 87.5344 18.4099L86.803 19.2089C86.6754 19.0289 86.5216 18.8301 86.3416 18.6125C86.169 18.3949 85.9965 18.1886 85.8239 17.9935V21.4371H84.7661V17.9035C84.571 18.2711 84.3534 18.6313 84.1134 18.9839C83.8733 19.329 83.6107 19.6816 83.3256 20.0417L82.7179 19.0401C82.883 18.8376 83.0518 18.6237 83.2243 18.3987C83.4044 18.1661 83.5732 17.9298 83.7307 17.6897C83.8958 17.4421 84.0458 17.1945 84.1809 16.947C84.3234 16.6919 84.4472 16.4443 84.5522 16.2042H83.0443V15.1577H84.7661V11.3089L85.8239 11.3539V14.3586C85.8989 14.1936 85.9777 14.0135 86.0602 13.8185C86.1428 13.6159 86.2215 13.4096 86.2965 13.1995C86.3791 12.9895 86.4541 12.7869 86.5216 12.5918C86.5891 12.3893 86.6454 12.2092 86.6904 12.0517L87.6132 12.378C87.5607 12.5281 87.4932 12.7119 87.4107 12.9294C87.3356 13.147 87.2531 13.3683 87.1631 13.5934C87.073 13.8185 86.983 14.0398 86.893 14.2574C86.803 14.4674 86.7204 14.6437 86.6454 14.7863L85.8239 14.4374V15.1577H87.3319V16.2042H85.8239V17.0595L86.094 16.7894ZM89.6164 14.5049C89.5038 14.3774 89.365 14.2349 89.2 14.0773C89.0424 13.9123 88.8774 13.751 88.7048 13.5934C88.5398 13.4359 88.3785 13.2896 88.2209 13.1545C88.0634 13.012 87.9283 12.8994 87.8158 12.8169L88.4685 11.9954C88.6035 12.0929 88.7498 12.2092 88.9074 12.3443C89.0724 12.4793 89.2375 12.6218 89.4025 12.7719C89.5676 12.9144 89.7289 13.0645 89.8864 13.222C90.044 13.3721 90.1865 13.5109 90.3141 13.6384L89.6164 14.5049ZM83.8433 14.7188C83.8058 14.5687 83.7495 14.3887 83.6745 14.1786C83.6069 13.9685 83.5319 13.7585 83.4494 13.5484C83.3744 13.3308 83.2956 13.1245 83.2131 12.9294C83.138 12.7269 83.0705 12.5581 83.0105 12.423L83.922 12.0742C83.9821 12.2167 84.0496 12.3855 84.1246 12.5806C84.2071 12.7756 84.2859 12.9782 84.3609 13.1883C84.436 13.3908 84.5072 13.5972 84.5748 13.8072C84.6423 14.0173 84.6985 14.2048 84.7436 14.3699L83.8433 14.7188ZM88.1084 14.64C88.2284 14.73 88.371 14.8426 88.536 14.9776C88.7086 15.1051 88.8811 15.2439 89.0537 15.394C89.2262 15.544 89.3988 15.6978 89.5713 15.8554C89.7439 16.0054 89.8977 16.148 90.0327 16.283L89.3575 17.1833C89.23 17.0558 89.0799 16.9132 88.9074 16.7557C88.7423 16.5981 88.5735 16.4406 88.401 16.283C88.2284 16.1255 88.0559 15.9792 87.8833 15.8441C87.7183 15.7016 87.5757 15.5853 87.4557 15.4953L88.1084 14.64ZM99.6137 15.0676C99.7488 15.6453 99.9401 16.1817 100.188 16.6769C100.435 17.1645 100.743 17.6222 101.11 18.0498C101.478 18.4775 101.909 18.8826 102.405 19.2652C102.907 19.6403 103.477 20.0004 104.115 20.3455L103.395 21.4822C102.345 20.837 101.463 20.1355 100.75 19.3777C100.038 18.62 99.4899 17.8135 99.1073 16.9582C98.9048 17.4309 98.6497 17.881 98.3421 18.3086C98.0345 18.7288 97.6931 19.1264 97.318 19.5015C96.9429 19.8766 96.5378 20.2293 96.1026 20.5594C95.675 20.897 95.2323 21.2158 94.7747 21.5159L94.0432 20.3455C94.5984 20.0304 95.1236 19.6853 95.6187 19.3102C96.1214 18.9276 96.564 18.5112 96.9466 18.0611C97.3368 17.6109 97.6556 17.127 97.9032 16.6094C98.1583 16.0842 98.3158 15.5215 98.3758 14.9213H94.4258V13.7735H98.4096V11.1964L99.6475 11.2414V13.7735H103.665V14.9213H99.625C99.625 14.9438 99.6212 14.9663 99.6137 14.9888C99.6137 15.0114 99.6137 15.0376 99.6137 15.0676ZM108.092 16.9695C108.009 16.8644 107.908 16.7519 107.788 16.6319C107.676 16.5043 107.563 16.3805 107.45 16.2605V21.4034H106.471V16.6431C106.314 17.0558 106.141 17.4534 105.954 17.836C105.774 18.2186 105.594 18.5637 105.414 18.8713L104.738 18.0161C104.873 17.7985 105.016 17.5434 105.166 17.2508C105.316 16.9507 105.466 16.6356 105.616 16.3055C105.766 15.9754 105.909 15.6341 106.044 15.2814C106.186 14.9288 106.31 14.5875 106.415 14.2574H105.29V13.2108H106.471V11.2527L107.45 11.2977V13.2108H108.384V14.2574H107.45V15.3152L107.597 15.1239C107.717 15.2289 107.841 15.3415 107.968 15.4615C108.103 15.5815 108.234 15.7053 108.362 15.8329C109.225 15.4577 109.967 14.9926 110.59 14.4374H108.587V13.4921H109.859C109.791 13.3871 109.709 13.2671 109.611 13.132C109.514 12.9895 109.412 12.8507 109.307 12.7156C109.202 12.5731 109.097 12.438 108.992 12.3105C108.895 12.183 108.805 12.0742 108.722 11.9841L109.409 11.399C109.491 11.489 109.585 11.5978 109.69 11.7253C109.795 11.8454 109.9 11.9766 110.005 12.1192C110.118 12.2542 110.223 12.393 110.32 12.5356C110.425 12.6706 110.515 12.7944 110.59 12.9069L109.915 13.4921H111.029V11.2414L112.053 11.2864V13.4921H113.043L112.425 12.9407C112.515 12.8507 112.616 12.7419 112.728 12.6143C112.841 12.4868 112.953 12.3555 113.066 12.2205C113.179 12.0779 113.287 11.9391 113.392 11.8041C113.497 11.669 113.587 11.549 113.662 11.444L114.394 11.9841C114.319 12.0967 114.229 12.2205 114.124 12.3555C114.026 12.4906 113.921 12.6256 113.809 12.7606C113.704 12.8957 113.595 13.027 113.482 13.1545C113.377 13.2821 113.28 13.3946 113.19 13.4921H114.709V14.4374H112.515C113.182 15.0151 114.075 15.5103 115.193 15.9229L114.844 16.9245C114.259 16.6844 113.741 16.4293 113.291 16.1592C112.841 15.8891 112.428 15.5815 112.053 15.2364V16.4406H111.029V15.2927C110.729 15.5853 110.395 15.8629 110.028 16.1255C109.667 16.388 109.244 16.6394 108.756 16.8794L108.553 16.4293L108.092 16.9695ZM111.378 16.5531C111.34 16.6506 111.303 16.7482 111.265 16.8457C111.228 16.9357 111.19 17.0295 111.153 17.127H114.945V18.1286H113.707C113.58 18.4287 113.441 18.7025 113.291 18.9501C113.148 19.1902 112.976 19.4153 112.773 19.6253L114.855 20.4918L114.394 21.4034C113.974 21.2083 113.557 21.017 113.145 20.8294C112.74 20.6494 112.331 20.4693 111.918 20.2893C111.505 20.5369 110.995 20.7582 110.388 20.9532C109.787 21.1483 109.048 21.3396 108.171 21.5272L107.833 20.5256C108.493 20.4056 109.056 20.2893 109.521 20.1767C109.994 20.0567 110.399 19.9329 110.736 19.8054C110.421 19.6703 110.106 19.539 109.791 19.4115C109.476 19.284 109.161 19.1564 108.846 19.0289C108.943 18.8863 109.041 18.74 109.138 18.59C109.236 18.4399 109.33 18.2861 109.42 18.1286H108.193V17.127H109.994C110.069 16.977 110.136 16.8344 110.196 16.6994C110.264 16.5568 110.324 16.4218 110.376 16.2943L111.378 16.5531ZM110.646 18.1286C110.594 18.2186 110.541 18.3086 110.489 18.3987C110.444 18.4887 110.395 18.575 110.343 18.6575C110.538 18.7325 110.755 18.8188 110.995 18.9163C111.243 19.0064 111.505 19.1077 111.783 19.2202C111.956 19.0701 112.102 18.9051 112.222 18.725C112.349 18.545 112.466 18.3462 112.571 18.1286H110.646Z" fill="#123871"/>
<path d="M51.0725 32.5597C51.3098 32.87 51.5806 33.1682 51.8849 33.4542C52.1953 33.7402 52.5512 34.0293 52.9529 34.3213L52.3687 35.1976C51.6141 34.6195 50.9934 34.011 50.5066 33.372C50.251 33.6824 49.962 33.9867 49.6394 34.2848C49.323 34.583 48.9579 34.8873 48.5441 35.1976L47.9508 34.4126C48.4072 34.1023 48.8027 33.8041 49.1374 33.5181C49.4721 33.226 49.7611 32.9217 50.0046 32.6053C49.676 32.0211 49.4356 31.3913 49.2835 30.7158C49.2409 30.7828 49.1983 30.8467 49.1557 30.9075C49.1192 30.9684 49.0766 31.0323 49.0279 31.0992L48.4619 30.442C48.4924 30.3994 48.5198 30.3568 48.5441 30.3142C48.5684 30.2716 48.5958 30.226 48.6262 30.1773H47.4853C47.327 30.3538 47.1627 30.5272 46.9924 30.6976H48.681V31.4552L47.4122 32.368V32.3862C47.7591 32.3436 48.0694 32.3041 48.3433 32.2676C48.6232 32.2311 48.8179 32.2067 48.9275 32.1945L48.9549 33.0343C48.8331 33.0465 48.6323 33.0708 48.3524 33.1073C48.0725 33.1438 47.7591 33.1834 47.4122 33.226V34.1479C47.4122 34.3305 47.397 34.4765 47.3666 34.5861C47.3423 34.7017 47.2936 34.793 47.2206 34.8599C47.1475 34.9329 47.0471 34.9846 46.9193 35.0151C46.7915 35.0455 46.6272 35.0698 46.4264 35.0881L45.8057 35.1429L45.541 34.294L46.0887 34.2392C46.1921 34.227 46.2743 34.2149 46.3351 34.2027C46.4021 34.1905 46.4538 34.1723 46.4903 34.1479C46.5268 34.1175 46.5512 34.0749 46.5633 34.0201C46.5755 33.9654 46.5816 33.8893 46.5816 33.7919V33.3264L44.8564 33.5546L44.7743 32.7057C44.8351 32.6996 44.9264 32.6905 45.0481 32.6783C45.1698 32.6662 45.3098 32.6509 45.468 32.6327C45.6323 32.6144 45.8088 32.5931 45.9974 32.5688C46.1861 32.5444 46.3808 32.5201 46.5816 32.4958V32.1398L47.467 31.4643H46.1435C45.7601 31.7868 45.3493 32.1063 44.9112 32.4227L44.4457 31.729C45.1637 31.2726 45.8179 30.7554 46.4082 30.1773H44.7925V29.3649H46.1891V28.5525H45.1303V27.804H46.1891V26.8L46.9924 26.8365V27.804H47.8686V28.37C47.9843 28.1874 48.0938 28.0018 48.1972 27.8132C48.3007 27.6184 48.3981 27.4207 48.4893 27.2198L49.1831 27.585C49.0309 27.9136 48.8697 28.2239 48.6993 28.516C48.5289 28.8081 48.3463 29.0911 48.1516 29.3649H48.8727V29.7026C48.9822 29.4775 49.0887 29.2371 49.1922 28.9815C49.2956 28.7259 49.3899 28.4704 49.4751 28.2148C49.5603 27.9592 49.6364 27.7097 49.7033 27.4663C49.7764 27.2229 49.8311 27.0008 49.8676 26.8L50.7348 26.8912C50.6253 27.3416 50.5066 27.7797 50.3788 28.2057H52.6973V29.0546H52.1131C52.0279 29.7787 51.9032 30.4237 51.7389 30.9897C51.5806 31.5495 51.3585 32.0728 51.0725 32.5597ZM46.9924 29.3649H47.1567C47.2601 29.231 47.3605 29.0971 47.4579 28.9633C47.5613 28.8294 47.6587 28.6925 47.75 28.5525H46.9924V29.3649ZM49.8676 29.5748C49.9346 29.9947 50.0228 30.3842 50.1324 30.7432C50.2419 31.0962 50.3818 31.4308 50.5522 31.7473C50.7348 31.3761 50.8808 30.9745 50.9904 30.5424C51.106 30.1043 51.1973 29.6083 51.2642 29.0546H50.0867C50.0502 29.1397 50.0137 29.228 49.9772 29.3193C49.9468 29.4045 49.9102 29.4896 49.8676 29.5748ZM54.9279 30.1955H54.0334V28.3243H55.3569C55.2535 28.1357 55.1409 27.947 55.0192 27.7584C54.8975 27.5637 54.7697 27.3628 54.6358 27.156L55.4391 26.7452C55.5851 26.9582 55.7373 27.1925 55.8955 27.448C56.0598 27.6975 56.2028 27.9288 56.3245 28.1418L56.0415 28.3243H57.4929C57.3894 28.1113 57.2829 27.8923 57.1734 27.6671C57.0638 27.4359 56.9543 27.2229 56.8448 27.0282L57.6298 26.663C57.7454 26.8578 57.8732 27.0921 58.0131 27.3659C58.1592 27.6397 58.2961 27.9044 58.4239 28.16L58.1501 28.3243H58.9442C59.1389 28.0322 59.3215 27.7523 59.4919 27.4846C59.6622 27.2168 59.8113 26.9704 59.9391 26.7452L60.788 27.1833C60.6785 27.3598 60.5568 27.5454 60.4229 27.7401C60.2951 27.9349 60.1643 28.1296 60.0304 28.3243H61.3905V30.1955H60.5142V29.1823H54.9279V30.1955ZM61.646 32.8244H58.3235V33.8923C58.3235 34.1236 58.3022 34.3061 58.2596 34.44C58.217 34.58 58.144 34.6895 58.0405 34.7686C57.9432 34.8538 57.8123 34.9147 57.648 34.9512C57.4837 34.9877 57.2768 35.0181 57.0273 35.0424L56.3793 35.1063L56.0963 34.1753L56.8265 34.1205C56.9421 34.1144 57.0334 34.1053 57.1004 34.0931C57.1734 34.0749 57.2281 34.0506 57.2647 34.0201C57.3012 33.9836 57.3255 33.9349 57.3377 33.8741C57.3499 33.8071 57.3559 33.7189 57.3559 33.6094V32.8244H53.7778V31.939H57.3559V31.5556C57.4168 31.5191 57.5202 31.4582 57.6663 31.373C57.8184 31.2878 57.9736 31.2026 58.1318 31.1175C58.2961 31.0262 58.4482 30.9471 58.5882 30.8801C58.7282 30.8071 58.8255 30.7706 58.8803 30.7706H55.2474V29.9126H60.3864V30.7706C60.3073 30.7889 60.1765 30.8467 59.9939 30.944C59.8174 31.0414 59.6227 31.1509 59.4097 31.2726C59.2028 31.3943 58.999 31.516 58.7981 31.6377C58.5973 31.7595 58.4391 31.8538 58.3235 31.9207V31.939H61.646V32.8244ZM65.0542 31.5008C64.9872 31.4156 64.9051 31.3244 64.8077 31.227C64.7164 31.1235 64.6252 31.0231 64.5339 30.9258V35.0972H63.7398V31.2361C63.612 31.5708 63.472 31.8933 63.3199 32.2037C63.1738 32.514 63.0278 32.7939 62.8817 33.0434L62.3341 32.3497C62.4436 32.1732 62.5592 31.9663 62.6809 31.729C62.8026 31.4856 62.9243 31.23 63.046 30.9623C63.1677 30.6945 63.2834 30.4177 63.3929 30.1316C63.5085 29.8456 63.6089 29.5688 63.6941 29.301H62.7813V28.4521H63.7398V26.8639L64.5339 26.9004V28.4521H65.2915V29.301H64.5339V30.159L64.6525 30.0039C64.7499 30.089 64.8503 30.1803 64.9538 30.2777C65.0633 30.3751 65.1698 30.4755 65.2732 30.5789C65.973 30.2746 66.5755 29.8974 67.0806 29.4471H65.4558V28.6803H66.4872C66.4325 28.5951 66.3655 28.4978 66.2864 28.3882C66.2073 28.2726 66.1252 28.16 66.04 28.0505C65.9548 27.9349 65.8696 27.8253 65.7844 27.7219C65.7053 27.6184 65.6323 27.5302 65.5653 27.4572L66.1221 26.9825C66.1891 27.0555 66.2651 27.1438 66.3503 27.2472C66.4355 27.3446 66.5207 27.4511 66.6059 27.5667C66.6972 27.6762 66.7824 27.7888 66.8615 27.9044C66.9467 28.014 67.0197 28.1144 67.0806 28.2057L66.5329 28.6803H67.4365V26.8547L68.2672 26.8912V28.6803H69.0704L68.5684 28.233C68.6414 28.16 68.7236 28.0718 68.8149 27.9683C68.9061 27.8649 68.9974 27.7584 69.0887 27.6489C69.18 27.5332 69.2682 27.4207 69.3534 27.3111C69.4386 27.2016 69.5116 27.1042 69.5725 27.019L70.1658 27.4572C70.1049 27.5485 70.0319 27.6489 69.9467 27.7584C69.8676 27.8679 69.7824 27.9775 69.6911 28.087C69.6059 28.1965 69.5177 28.303 69.4264 28.4065C69.3412 28.5099 69.2621 28.6012 69.1891 28.6803H70.4214V29.4471H68.6414C69.183 29.9156 69.9072 30.3172 70.8139 30.6519L70.5309 31.4643C70.0563 31.2696 69.6364 31.0627 69.2713 30.8436C68.9061 30.6245 68.5715 30.3751 68.2672 30.0951V31.0718H67.4365V30.1408C67.1931 30.3781 66.9223 30.6033 66.6242 30.8162C66.3321 31.0292 65.9883 31.2331 65.5927 31.4278L65.4284 31.0627L65.0542 31.5008ZM67.7195 31.1631C67.6891 31.2422 67.6587 31.3213 67.6282 31.4004C67.5978 31.4734 67.5674 31.5495 67.537 31.6286H70.6131V32.441H69.609C69.5055 32.6844 69.393 32.9065 69.2713 33.1073C69.1556 33.3021 69.0157 33.4846 68.8514 33.655L70.54 34.3579L70.1658 35.0972C69.825 34.939 69.4873 34.7838 69.1526 34.6317C68.824 34.4856 68.4923 34.3396 68.1577 34.1936C67.823 34.3944 67.4092 34.5739 66.9163 34.7321C66.4294 34.8903 65.83 35.0455 65.1181 35.1976L64.8442 34.3852C65.3797 34.2879 65.8361 34.1936 66.2134 34.1023C66.5968 34.0049 66.9254 33.9045 67.1992 33.8011C66.9436 33.6915 66.6881 33.585 66.4325 33.4816C66.1769 33.3781 65.9213 33.2747 65.6657 33.1712C65.7448 33.0556 65.824 32.9369 65.9031 32.8152C65.9822 32.6935 66.0582 32.5688 66.1313 32.441H65.1363V31.6286H66.5968C66.6576 31.5069 66.7124 31.3913 66.7611 31.2818C66.8159 31.1661 66.8645 31.0566 66.9071 30.9532L67.7195 31.1631ZM67.1262 32.441C67.0836 32.514 67.041 32.587 66.9984 32.6601C66.9619 32.7331 66.9223 32.8031 66.8797 32.87C67.038 32.9309 67.2144 33.0008 67.4092 33.08C67.61 33.153 67.823 33.2351 68.0481 33.3264C68.1881 33.2047 68.3067 33.0708 68.4041 32.9248C68.5076 32.7787 68.6019 32.6175 68.6871 32.441H67.1262Z" fill="#3A5A8A"/>
<defs>
<linearGradient id="paint0_linear_674_33979" x1="114.579" y1="-0.181216" x2="24.7792" y2="57.7695" gradientUnits="userSpaceOnUse">
<stop offset="0.5" stop-color="#809AF5"/>
<stop offset="0.5" stop-color="#3867E2"/>
</linearGradient>
</defs>
</svg>
