<svg width="131" height="53" viewBox="0 0 131 53" fill="none" xmlns="http://www.w3.org/2000/svg">
<path d="M37.9925 39.5544H12.3832C11.1782 39.5544 10.6853 42.0858 11.7406 42.6674C17.5551 45.8722 22.6667 50.2645 24.525 51.9372C24.9424 52.3129 25.5857 52.3022 25.9914 51.9139C27.7764 50.2055 32.6861 45.7588 38.6012 42.5257C39.6526 41.951 39.1907 39.5544 37.9925 39.5544Z" fill="#4573E7"/>
<rect width="130.557" height="45.4013" rx="22.7007" fill="url(#paint0_linear_674_33975)"/>
<rect x="4.86821" y="4.86819" width="120.821" height="35.6649" rx="17.8325" fill="#D6DFF5"/>
<path d="M36.6312 32.9316H17.8745C17.6484 32.9315 17.4316 32.8417 17.2717 32.6818C17.1119 32.5219 17.0221 32.3051 17.0221 32.079C17.0221 31.8529 17.1119 31.6361 17.2717 31.4762C17.4316 31.3163 17.6484 31.2264 17.8745 31.2264H18.7271V15.0275C18.7271 14.3491 18.9965 13.6986 19.4762 13.2189C19.9559 12.7392 20.6065 12.4698 21.2848 12.4698H27.3296C28.0079 12.4698 28.6585 12.7392 29.1381 13.2189C29.6178 13.6986 29.8873 14.3491 29.8873 15.0275V19.5035L33.9285 20.6715C34.4614 20.8249 34.9299 21.1474 35.2636 21.5902C35.5973 22.0331 35.778 22.5724 35.7786 23.1269V31.2264H36.6312C36.8572 31.2264 37.0741 31.3163 37.2339 31.4762C37.3938 31.6361 37.4836 31.8529 37.4836 32.079C37.4836 32.3051 37.3938 32.5219 37.2339 32.6818C37.0741 32.8417 36.8572 32.9315 36.6312 32.9316ZM29.8873 31.2264H34.0734V23.1269C34.081 22.9367 34.0247 22.7494 33.9134 22.5949C33.8022 22.4404 33.6424 22.3275 33.4596 22.2744L29.8873 21.2428V24.2182H31.5924C31.8185 24.2183 32.0353 24.3081 32.1952 24.468C32.3551 24.6279 32.4449 24.8447 32.4449 25.0708C32.4449 25.2969 32.3551 25.5137 32.1952 25.6736C32.0353 25.8335 31.8185 25.9234 31.5924 25.9234H29.8873V27.3642H31.5924C31.8185 27.3643 32.0353 27.4541 32.1952 27.614C32.3551 27.7739 32.4449 27.9907 32.4449 28.2168C32.4449 28.4429 32.3551 28.6597 32.1952 28.8196C32.0353 28.9795 31.8185 29.0694 31.5924 29.0694H29.8873V31.2264ZM26.8692 31.2264H28.1821V15.0275C28.1821 14.8014 28.0923 14.5845 27.9324 14.4246C27.7725 14.2647 27.5557 14.1749 27.3296 14.1749H21.2848C21.0587 14.1749 20.8418 14.2647 20.6819 14.4246C20.5221 14.5845 20.4322 14.8014 20.4322 15.0275V31.2264H21.7537V27.8161C21.7537 27.59 21.8435 27.3731 22.0034 27.2132C22.1633 27.0534 22.3802 26.9635 22.6063 26.9635H26.0166C26.1286 26.9635 26.2394 26.9856 26.3429 27.0284C26.4463 27.0713 26.5403 27.1341 26.6195 27.2132C26.6986 27.2924 26.7614 27.3864 26.8043 27.4898C26.8471 27.5933 26.8692 27.7041 26.8692 27.8161V31.2264ZM23.4589 31.2264H25.164V28.6687H23.4589V31.2264ZM26.0166 24.8321H22.6063C22.3802 24.8321 22.1633 24.7423 22.0034 24.5824C21.8435 24.4225 21.7537 24.2056 21.7537 23.9795C21.7537 23.7534 21.8435 23.5365 22.0034 23.3767C22.1633 23.2168 22.3802 23.1269 22.6063 23.1269H26.0166C26.2427 23.1269 26.4596 23.2168 26.6195 23.3767C26.7793 23.5365 26.8692 23.7534 26.8692 23.9795C26.8692 24.2056 26.7793 24.4225 26.6195 24.5824C26.4596 24.7423 26.2427 24.8321 26.0166 24.8321ZM26.0166 21.4218H22.6063C22.3802 21.4218 22.1634 21.3319 22.0035 21.172C21.8437 21.0121 21.7538 20.7953 21.7538 20.5692C21.7538 20.3431 21.8437 20.1263 22.0035 19.9664C22.1634 19.8065 22.3802 19.7167 22.6063 19.7166H26.0166C26.2427 19.7167 26.4595 19.8065 26.6194 19.9664C26.7792 20.1263 26.869 20.3431 26.869 20.5692C26.869 20.7953 26.7792 21.0121 26.6194 21.172C26.4595 21.3319 26.2427 21.4218 26.0166 21.4218ZM26.0166 18.0115H22.6063C22.3802 18.0115 22.1634 17.9216 22.0035 17.7617C21.8437 17.6019 21.7538 17.385 21.7538 17.1589C21.7538 16.9328 21.8437 16.716 22.0035 16.5561C22.1634 16.3962 22.3802 16.3064 22.6063 16.3063H26.0166C26.2427 16.3064 26.4595 16.3962 26.6194 16.5561C26.7792 16.716 26.869 16.9328 26.869 17.1589C26.869 17.385 26.7792 17.6019 26.6194 17.7617C26.4595 17.9216 26.2427 18.0115 26.0166 18.0115Z" fill="#2566E5"/>
<path d="M54.777 19.9968V21.0205H47.9145V19.9968H50.862V19.0293H48.5557V17.9943H50.862V17.0268H48.6457V11.7168H54.1132V17.0268H51.897V17.9943H54.2482V19.0293H51.897V19.9968H54.777ZM48.4657 19.8168C48.3532 19.8318 48.1995 19.8618 48.0045 19.9068C47.8095 19.9443 47.5957 19.9893 47.3632 20.0418C47.1307 20.0943 46.887 20.1505 46.632 20.2105C46.377 20.263 46.1332 20.3155 45.9007 20.368C45.6757 20.428 45.4695 20.4805 45.282 20.5255C45.102 20.5705 44.967 20.6043 44.877 20.6268L44.7307 19.5693C44.8582 19.5468 45.0532 19.5093 45.3157 19.4568C45.5857 19.3968 45.8782 19.333 46.1932 19.2655V16.4643H45.0682V15.4293H46.1932V13.0893H44.9782V12.0655H48.387V13.0893H47.2282V15.4293H48.3082V16.4643H47.2282V19.0293C47.4757 18.9693 47.7007 18.9168 47.9032 18.8718C48.1057 18.8193 48.2595 18.778 48.3645 18.748L48.4657 19.8168ZM49.692 12.7293V13.888H50.862V12.7293H49.692ZM53.0782 12.7293H51.897V13.888H53.0782V12.7293ZM50.862 16.0143V14.878H49.692V16.0143H50.862ZM53.0782 16.0143V14.878H51.897V16.0143H53.0782ZM64.3325 18.5343V21.3468H63.2412V18.6468L59.6187 19.018L59.54 17.983L59.4387 18.0955C59.3262 17.9455 59.1912 17.773 59.0337 17.578C58.8837 17.383 58.7337 17.1993 58.5837 17.0268V21.3805H57.5825V17.2518C57.3725 17.6793 57.1512 18.088 56.9187 18.478C56.6937 18.8605 56.4725 19.2055 56.255 19.513L55.5237 18.6805C55.8612 18.2155 56.2025 17.6905 56.5475 17.1055C56.8925 16.5205 57.1925 15.928 57.4475 15.328H56.0412V14.2593H57.5825V13.033C57.3275 13.078 57.08 13.1193 56.84 13.1568C56.6 13.1943 56.3787 13.228 56.1762 13.258L56.075 12.223C56.345 12.193 56.645 12.1518 56.975 12.0993C57.305 12.0393 57.6387 11.9755 57.9762 11.908C58.3212 11.8405 58.6587 11.7693 58.9887 11.6943C59.3187 11.6118 59.6187 11.533 59.8887 11.458L60.0912 12.4818C59.8737 12.5418 59.6375 12.6018 59.3825 12.6618C59.1275 12.7218 58.8612 12.7818 58.5837 12.8418V14.2593H59.99V15.328H58.5837V16.1268L58.8537 15.8793C58.9362 15.9618 59.03 16.063 59.135 16.183C59.2475 16.303 59.36 16.4305 59.4725 16.5655C59.5925 16.7005 59.7087 16.8355 59.8212 16.9705C59.9412 17.1055 60.0462 17.233 60.1362 17.353L59.6187 17.9043L63.2412 17.533V11.2218L64.3325 11.2668V17.4093L65.7725 17.263L65.84 18.3768L64.3325 18.5343ZM62.2737 14.5855C62.1462 14.4505 62 14.3043 61.835 14.1468C61.67 13.9818 61.5012 13.8205 61.3287 13.663C61.1562 13.498 60.9875 13.3443 60.8225 13.2018C60.6575 13.0593 60.515 12.943 60.395 12.853L61.07 12.043C61.205 12.148 61.355 12.2718 61.52 12.4143C61.6925 12.5568 61.865 12.7068 62.0375 12.8643C62.21 13.0143 62.375 13.168 62.5325 13.3255C62.6975 13.4755 62.8437 13.6105 62.9712 13.7305L62.2737 14.5855ZM60.7325 14.7093C60.8675 14.8143 61.0175 14.9343 61.1825 15.0693C61.355 15.2043 61.5275 15.3468 61.7 15.4968C61.8725 15.6468 62.045 15.7968 62.2175 15.9468C62.39 16.0968 62.5437 16.2393 62.6787 16.3743L61.97 17.263C61.835 17.1355 61.6812 16.993 61.5087 16.8355C61.3437 16.678 61.1712 16.5205 60.9912 16.363C60.8187 16.2055 60.65 16.0593 60.485 15.9243C60.32 15.7818 60.1775 15.6618 60.0575 15.5643L60.7325 14.7093ZM67.1492 16.2168H70.5579V17.3643H67.1492V16.2168ZM81.8015 19.8393V20.953H72.1715V19.8393H76.514V17.4655H73.2403V16.3743H76.514V14.383H74.1628C73.9978 14.7505 73.8215 15.103 73.634 15.4405C73.4465 15.778 73.2365 16.123 73.004 16.4755L72.0028 15.8568C72.4753 15.1968 72.8653 14.5255 73.1728 13.843C73.4803 13.153 73.7353 12.3993 73.9378 11.5818L75.0515 11.8518C74.9765 12.1143 74.9015 12.3655 74.8265 12.6055C74.759 12.838 74.684 13.063 74.6015 13.2805H76.514V11.188L77.6728 11.233V13.2805H81.2728V14.383H77.6728V16.3743H80.9015V17.4655H77.6728V19.8393H81.8015ZM88.4432 11.0193C88.9607 11.6043 89.6207 12.1668 90.4232 12.7068C91.2332 13.2468 92.137 13.7455 93.1345 14.203L92.6507 15.3168C92.3207 15.1518 91.9982 14.983 91.6832 14.8105C91.3682 14.638 91.057 14.4543 90.7495 14.2593V15.0243H85.1245V14.2593C84.8245 14.4468 84.517 14.6268 84.202 14.7993C83.887 14.9718 83.5645 15.1443 83.2345 15.3168L82.762 14.1805C83.7445 13.7305 84.6407 13.2393 85.4507 12.7068C86.2607 12.1668 86.9207 11.6043 87.4307 11.0193H88.4432ZM90.2545 13.9443C89.782 13.6293 89.3507 13.3143 88.9607 12.9993C88.5707 12.6768 88.2332 12.3543 87.9482 12.0318C87.6632 12.3543 87.322 12.6768 86.9245 12.9993C86.527 13.3143 86.092 13.6293 85.6195 13.9443H90.2545ZM88.0382 15.823H92.0545V18.8493C92.0545 19.1343 92.032 19.363 91.987 19.5355C91.942 19.708 91.8632 19.8468 91.7507 19.9518C91.6457 20.0493 91.5032 20.1243 91.3232 20.1768C91.1432 20.2218 90.9182 20.2593 90.6482 20.2893L90.052 20.3568L89.7032 19.2655L90.2545 19.2093C90.4045 19.1943 90.5245 19.1755 90.6145 19.153C90.712 19.1305 90.787 19.0968 90.8395 19.0518C90.892 19.0068 90.9257 18.9468 90.9407 18.8718C90.9632 18.7968 90.9745 18.6993 90.9745 18.5793V16.8468H89.0957V21.3693H88.0382V15.823ZM83.887 15.868H87.3407V20.3793H83.887V15.868ZM84.9445 19.3218H86.272V16.8918H84.9445V19.3218ZM99.5962 15.0693C99.7312 15.6468 99.9224 16.183 100.17 16.678C100.417 17.1655 100.725 17.623 101.092 18.0505C101.46 18.478 101.891 18.883 102.386 19.2655C102.889 19.6405 103.459 20.0005 104.096 20.3455L103.376 21.4818C102.326 20.8368 101.445 20.1355 100.732 19.378C100.02 18.6205 99.4724 17.8143 99.0899 16.9593C98.8874 17.4318 98.6324 17.8818 98.3249 18.3093C98.0174 18.7293 97.6762 19.1268 97.3012 19.5018C96.9262 19.8768 96.5212 20.2293 96.0862 20.5593C95.6587 20.8968 95.2162 21.2155 94.7587 21.5155L94.0274 20.3455C94.5824 20.0305 95.1074 19.6855 95.6024 19.3105C96.1049 18.928 96.5474 18.5118 96.9299 18.0618C97.3199 17.6118 97.6387 17.128 97.8862 16.6105C98.1412 16.0855 98.2987 15.523 98.3587 14.923H94.4099V13.7755H98.3924V11.1993L99.6299 11.2443V13.7755H103.646V14.923H99.6074C99.6074 14.9455 99.6037 14.968 99.5962 14.9905C99.5962 15.013 99.5962 15.0393 99.5962 15.0693ZM108.072 16.9705C107.989 16.8655 107.888 16.753 107.768 16.633C107.655 16.5055 107.543 16.3818 107.43 16.2618V21.403H106.452V16.6443C106.294 17.0568 106.122 17.4543 105.934 17.8368C105.754 18.2193 105.574 18.5643 105.394 18.8718L104.719 18.0168C104.854 17.7993 104.997 17.5443 105.147 17.2518C105.297 16.9518 105.447 16.6368 105.597 16.3068C105.747 15.9768 105.889 15.6355 106.024 15.283C106.167 14.9305 106.29 14.5893 106.395 14.2593H105.27V13.213H106.452V11.2555L107.43 11.3005V13.213H108.364V14.2593H107.43V15.3168L107.577 15.1255C107.697 15.2305 107.82 15.343 107.948 15.463C108.083 15.583 108.214 15.7068 108.342 15.8343C109.204 15.4593 109.947 14.9943 110.569 14.4393H108.567V13.4943H109.838C109.77 13.3893 109.688 13.2693 109.59 13.1343C109.493 12.9918 109.392 12.853 109.287 12.718C109.182 12.5755 109.077 12.4405 108.972 12.313C108.874 12.1855 108.784 12.0768 108.702 11.9868L109.388 11.4018C109.47 11.4918 109.564 11.6005 109.669 11.728C109.774 11.848 109.879 11.9793 109.984 12.1218C110.097 12.2568 110.202 12.3955 110.299 12.538C110.404 12.673 110.494 12.7968 110.569 12.9093L109.894 13.4943H111.008V11.2443L112.032 11.2893V13.4943H113.022L112.403 12.943C112.493 12.853 112.594 12.7443 112.707 12.6168C112.819 12.4893 112.932 12.358 113.044 12.223C113.157 12.0805 113.265 11.9418 113.37 11.8068C113.475 11.6718 113.565 11.5518 113.64 11.4468L114.372 11.9868C114.297 12.0993 114.207 12.223 114.102 12.358C114.004 12.493 113.899 12.628 113.787 12.763C113.682 12.898 113.573 13.0293 113.46 13.1568C113.355 13.2843 113.258 13.3968 113.168 13.4943H114.687V14.4393H112.493C113.16 15.0168 114.053 15.5118 115.17 15.9243L114.822 16.9255C114.237 16.6855 113.719 16.4305 113.269 16.1605C112.819 15.8905 112.407 15.583 112.032 15.238V16.4418H111.008V15.2943C110.708 15.5868 110.374 15.8643 110.007 16.1268C109.647 16.3893 109.223 16.6405 108.735 16.8805L108.533 16.4305L108.072 16.9705ZM111.357 16.5543C111.319 16.6518 111.282 16.7493 111.244 16.8468C111.207 16.9368 111.169 17.0305 111.132 17.128H114.923V18.1293H113.685C113.558 18.4293 113.419 18.703 113.269 18.9505C113.127 19.1905 112.954 19.4155 112.752 19.6255L114.833 20.4918L114.372 21.403C113.952 21.208 113.535 21.0168 113.123 20.8293C112.718 20.6493 112.309 20.4693 111.897 20.2893C111.484 20.5368 110.974 20.758 110.367 20.953C109.767 21.148 109.028 21.3393 108.15 21.5268L107.813 20.5255C108.473 20.4055 109.035 20.2893 109.5 20.1768C109.973 20.0568 110.378 19.933 110.715 19.8055C110.4 19.6705 110.085 19.5393 109.77 19.4118C109.455 19.2843 109.14 19.1568 108.825 19.0293C108.923 18.8868 109.02 18.7405 109.118 18.5905C109.215 18.4405 109.309 18.2868 109.399 18.1293H108.173V17.128H109.973C110.048 16.978 110.115 16.8355 110.175 16.7005C110.243 16.558 110.303 16.423 110.355 16.2955L111.357 16.5543ZM110.625 18.1293C110.573 18.2193 110.52 18.3093 110.468 18.3993C110.423 18.4893 110.374 18.5755 110.322 18.658C110.517 18.733 110.734 18.8193 110.974 18.9168C111.222 19.0068 111.484 19.108 111.762 19.2205C111.934 19.0705 112.08 18.9055 112.2 18.7255C112.328 18.5455 112.444 18.3468 112.549 18.1293H110.625Z" fill="#123871"/>
<path d="M51.0725 32.5597C51.3098 32.87 51.5806 33.1682 51.8849 33.4542C52.1953 33.7402 52.5512 34.0293 52.9529 34.3213L52.3687 35.1976C51.6141 34.6195 50.9934 34.011 50.5066 33.372C50.251 33.6824 49.962 33.9867 49.6394 34.2848C49.323 34.583 48.9579 34.8873 48.5441 35.1976L47.9508 34.4126C48.4072 34.1023 48.8027 33.8041 49.1374 33.5181C49.4721 33.226 49.7611 32.9217 50.0046 32.6053C49.676 32.0211 49.4356 31.3913 49.2835 30.7158C49.2409 30.7828 49.1983 30.8467 49.1557 30.9075C49.1192 30.9684 49.0766 31.0323 49.0279 31.0992L48.4619 30.442C48.4924 30.3994 48.5198 30.3568 48.5441 30.3142C48.5684 30.2716 48.5958 30.226 48.6262 30.1773H47.4853C47.327 30.3538 47.1627 30.5272 46.9924 30.6976H48.681V31.4552L47.4122 32.368V32.3862C47.7591 32.3436 48.0694 32.3041 48.3433 32.2676C48.6232 32.2311 48.8179 32.2067 48.9275 32.1945L48.9549 33.0343C48.8331 33.0465 48.6323 33.0708 48.3524 33.1073C48.0725 33.1438 47.7591 33.1834 47.4122 33.226V34.1479C47.4122 34.3305 47.397 34.4765 47.3666 34.5861C47.3423 34.7017 47.2936 34.793 47.2206 34.8599C47.1475 34.9329 47.0471 34.9846 46.9193 35.0151C46.7915 35.0455 46.6272 35.0698 46.4264 35.0881L45.8057 35.1429L45.541 34.294L46.0887 34.2392C46.1921 34.227 46.2743 34.2149 46.3351 34.2027C46.4021 34.1905 46.4538 34.1723 46.4903 34.1479C46.5268 34.1175 46.5512 34.0749 46.5633 34.0201C46.5755 33.9654 46.5816 33.8893 46.5816 33.7919V33.3264L44.8564 33.5546L44.7743 32.7057C44.8351 32.6996 44.9264 32.6905 45.0481 32.6783C45.1698 32.6662 45.3098 32.6509 45.468 32.6327C45.6323 32.6144 45.8088 32.5931 45.9974 32.5688C46.1861 32.5444 46.3808 32.5201 46.5816 32.4958V32.1398L47.467 31.4643H46.1435C45.7601 31.7868 45.3493 32.1063 44.9112 32.4227L44.4457 31.729C45.1637 31.2726 45.8179 30.7554 46.4082 30.1773H44.7925V29.3649H46.1891V28.5525H45.1303V27.804H46.1891V26.8L46.9924 26.8365V27.804H47.8686V28.37C47.9843 28.1874 48.0938 28.0018 48.1972 27.8132C48.3007 27.6184 48.3981 27.4207 48.4893 27.2198L49.1831 27.585C49.0309 27.9136 48.8697 28.2239 48.6993 28.516C48.5289 28.8081 48.3463 29.0911 48.1516 29.3649H48.8727V29.7026C48.9822 29.4775 49.0887 29.2371 49.1922 28.9815C49.2956 28.7259 49.3899 28.4704 49.4751 28.2148C49.5603 27.9592 49.6364 27.7097 49.7033 27.4663C49.7764 27.2229 49.8311 27.0008 49.8676 26.8L50.7348 26.8912C50.6253 27.3416 50.5066 27.7797 50.3788 28.2057H52.6973V29.0546H52.1131C52.0279 29.7787 51.9032 30.4237 51.7389 30.9897C51.5806 31.5495 51.3585 32.0728 51.0725 32.5597ZM46.9924 29.3649H47.1567C47.2601 29.231 47.3605 29.0971 47.4579 28.9633C47.5613 28.8294 47.6587 28.6925 47.75 28.5525H46.9924V29.3649ZM49.8676 29.5748C49.9346 29.9947 50.0228 30.3842 50.1324 30.7432C50.2419 31.0962 50.3818 31.4308 50.5522 31.7473C50.7348 31.3761 50.8808 30.9745 50.9904 30.5424C51.106 30.1043 51.1973 29.6083 51.2642 29.0546H50.0867C50.0502 29.1397 50.0137 29.228 49.9772 29.3193C49.9468 29.4045 49.9102 29.4896 49.8676 29.5748ZM54.9279 30.1955H54.0334V28.3243H55.3569C55.2535 28.1357 55.1409 27.947 55.0192 27.7584C54.8975 27.5637 54.7697 27.3628 54.6358 27.156L55.4391 26.7452C55.5851 26.9582 55.7373 27.1925 55.8955 27.448C56.0598 27.6975 56.2028 27.9288 56.3245 28.1418L56.0415 28.3243H57.4929C57.3894 28.1113 57.2829 27.8923 57.1734 27.6671C57.0638 27.4359 56.9543 27.2229 56.8448 27.0282L57.6298 26.663C57.7454 26.8578 57.8732 27.0921 58.0131 27.3659C58.1592 27.6397 58.2961 27.9044 58.4239 28.16L58.1501 28.3243H58.9442C59.1389 28.0322 59.3215 27.7523 59.4919 27.4846C59.6622 27.2168 59.8113 26.9704 59.9391 26.7452L60.788 27.1833C60.6785 27.3598 60.5568 27.5454 60.4229 27.7401C60.2951 27.9349 60.1643 28.1296 60.0304 28.3243H61.3905V30.1955H60.5142V29.1823H54.9279V30.1955ZM61.646 32.8244H58.3235V33.8923C58.3235 34.1236 58.3022 34.3061 58.2596 34.44C58.217 34.58 58.144 34.6895 58.0405 34.7686C57.9432 34.8538 57.8123 34.9147 57.648 34.9512C57.4837 34.9877 57.2768 35.0181 57.0273 35.0424L56.3793 35.1063L56.0963 34.1753L56.8265 34.1205C56.9421 34.1144 57.0334 34.1053 57.1004 34.0931C57.1734 34.0749 57.2281 34.0506 57.2647 34.0201C57.3012 33.9836 57.3255 33.9349 57.3377 33.8741C57.3499 33.8071 57.3559 33.7189 57.3559 33.6094V32.8244H53.7778V31.939H57.3559V31.5556C57.4168 31.5191 57.5202 31.4582 57.6663 31.373C57.8184 31.2878 57.9736 31.2026 58.1318 31.1175C58.2961 31.0262 58.4482 30.9471 58.5882 30.8801C58.7282 30.8071 58.8255 30.7706 58.8803 30.7706H55.2474V29.9126H60.3864V30.7706C60.3073 30.7889 60.1765 30.8467 59.9939 30.944C59.8174 31.0414 59.6227 31.1509 59.4097 31.2726C59.2028 31.3943 58.999 31.516 58.7981 31.6377C58.5973 31.7595 58.4391 31.8538 58.3235 31.9207V31.939H61.646V32.8244ZM65.0542 31.5008C64.9872 31.4156 64.9051 31.3244 64.8077 31.227C64.7164 31.1235 64.6252 31.0231 64.5339 30.9258V35.0972H63.7398V31.2361C63.612 31.5708 63.472 31.8933 63.3199 32.2037C63.1738 32.514 63.0278 32.7939 62.8817 33.0434L62.3341 32.3497C62.4436 32.1732 62.5592 31.9663 62.6809 31.729C62.8026 31.4856 62.9243 31.23 63.046 30.9623C63.1677 30.6945 63.2834 30.4177 63.3929 30.1316C63.5085 29.8456 63.6089 29.5688 63.6941 29.301H62.7813V28.4521H63.7398V26.8639L64.5339 26.9004V28.4521H65.2915V29.301H64.5339V30.159L64.6525 30.0039C64.7499 30.089 64.8503 30.1803 64.9538 30.2777C65.0633 30.3751 65.1698 30.4755 65.2732 30.5789C65.973 30.2746 66.5755 29.8974 67.0806 29.4471H65.4558V28.6803H66.4872C66.4325 28.5951 66.3655 28.4978 66.2864 28.3882C66.2073 28.2726 66.1252 28.16 66.04 28.0505C65.9548 27.9349 65.8696 27.8253 65.7844 27.7219C65.7053 27.6184 65.6323 27.5302 65.5653 27.4572L66.1221 26.9825C66.1891 27.0555 66.2651 27.1438 66.3503 27.2472C66.4355 27.3446 66.5207 27.4511 66.6059 27.5667C66.6972 27.6762 66.7824 27.7888 66.8615 27.9044C66.9467 28.014 67.0197 28.1144 67.0806 28.2057L66.5329 28.6803H67.4365V26.8547L68.2672 26.8912V28.6803H69.0704L68.5684 28.233C68.6414 28.16 68.7236 28.0718 68.8149 27.9683C68.9061 27.8649 68.9974 27.7584 69.0887 27.6489C69.18 27.5332 69.2682 27.4207 69.3534 27.3111C69.4386 27.2016 69.5116 27.1042 69.5725 27.019L70.1658 27.4572C70.1049 27.5485 70.0319 27.6489 69.9467 27.7584C69.8676 27.8679 69.7824 27.9775 69.6911 28.087C69.6059 28.1965 69.5177 28.303 69.4264 28.4065C69.3412 28.5099 69.2621 28.6012 69.1891 28.6803H70.4214V29.4471H68.6414C69.183 29.9156 69.9072 30.3172 70.8139 30.6519L70.5309 31.4643C70.0563 31.2696 69.6364 31.0627 69.2713 30.8436C68.9061 30.6245 68.5715 30.3751 68.2672 30.0951V31.0718H67.4365V30.1408C67.1931 30.3781 66.9223 30.6033 66.6242 30.8162C66.3321 31.0292 65.9883 31.2331 65.5927 31.4278L65.4284 31.0627L65.0542 31.5008ZM67.7195 31.1631C67.6891 31.2422 67.6587 31.3213 67.6282 31.4004C67.5978 31.4734 67.5674 31.5495 67.537 31.6286H70.6131V32.441H69.609C69.5055 32.6844 69.393 32.9065 69.2713 33.1073C69.1556 33.3021 69.0157 33.4846 68.8514 33.655L70.54 34.3579L70.1658 35.0972C69.825 34.939 69.4873 34.7838 69.1526 34.6317C68.824 34.4856 68.4923 34.3396 68.1577 34.1936C67.823 34.3944 67.4092 34.5739 66.9163 34.7321C66.4294 34.8903 65.83 35.0455 65.1181 35.1976L64.8442 34.3852C65.3797 34.2879 65.8361 34.1936 66.2134 34.1023C66.5968 34.0049 66.9254 33.9045 67.1992 33.8011C66.9436 33.6915 66.6881 33.585 66.4325 33.4816C66.1769 33.3781 65.9213 33.2747 65.6657 33.1712C65.7448 33.0556 65.824 32.9369 65.9031 32.8152C65.9822 32.6935 66.0582 32.5688 66.1313 32.441H65.1363V31.6286H66.5968C66.6576 31.5069 66.7124 31.3913 66.7611 31.2818C66.8159 31.1661 66.8645 31.0566 66.9071 30.9532L67.7195 31.1631ZM67.1262 32.441C67.0836 32.514 67.041 32.587 66.9984 32.6601C66.9619 32.7331 66.9223 32.8031 66.8797 32.87C67.038 32.9309 67.2144 33.0008 67.4092 33.08C67.61 33.153 67.823 33.2351 68.0481 33.3264C68.1881 33.2047 68.3067 33.0708 68.4041 32.9248C68.5076 32.7787 68.6019 32.6175 68.6871 32.441H67.1262Z" fill="#3A5A8A"/>
<defs>
<linearGradient id="paint0_linear_674_33975" x1="114.579" y1="-0.181216" x2="24.7792" y2="57.7695" gradientUnits="userSpaceOnUse">
<stop offset="0.5" stop-color="#809AF5"/>
<stop offset="0.5" stop-color="#3867E2"/>
</linearGradient>
</defs>
</svg>
