<svg width="126" height="53" viewBox="0 0 126 53" fill="none" xmlns="http://www.w3.org/2000/svg">
<path d="M37.9925 39.5544H12.3832C11.1782 39.5544 10.6853 42.0858 11.7406 42.6674C17.5551 45.8722 22.6667 50.2645 24.525 51.9372C24.9424 52.3129 25.5857 52.3022 25.9914 51.9139C27.7764 50.2055 32.6861 45.7588 38.6012 42.5257C39.6526 41.951 39.1907 39.5544 37.9925 39.5544Z" fill="#4573E7"/>
<rect width="125.557" height="45.4013" rx="22.7007" fill="url(#paint0_linear_674_33976)"/>
<rect x="4.86821" y="4.86821" width="115.821" height="35.6649" rx="17.8325" fill="#D6DFF5"/>
<path d="M36.6312 32.9316H17.8745C17.6484 32.9315 17.4316 32.8417 17.2717 32.6818C17.1119 32.5219 17.0221 32.3051 17.0221 32.079C17.0221 31.8529 17.1119 31.6361 17.2717 31.4762C17.4316 31.3163 17.6484 31.2265 17.8745 31.2264H18.7271V15.0275C18.7271 14.3491 18.9966 13.6986 19.4762 13.2189C19.9559 12.7392 20.6065 12.4698 21.2848 12.4698H27.3296C28.0079 12.4698 28.6585 12.7392 29.1382 13.2189C29.6178 13.6986 29.8873 14.3491 29.8873 15.0275V19.5035L33.9285 20.6715C34.4614 20.825 34.9299 21.1474 35.2636 21.5903C35.5973 22.0331 35.778 22.5724 35.7786 23.127V31.2264H36.6312C36.8573 31.2265 37.0741 31.3163 37.2339 31.4762C37.3938 31.6361 37.4836 31.8529 37.4836 32.079C37.4836 32.3051 37.3938 32.5219 37.2339 32.6818C37.0741 32.8417 36.8573 32.9315 36.6312 32.9316ZM29.8873 31.2264H34.0734V23.127C34.081 22.9367 34.0247 22.7494 33.9134 22.5949C33.8022 22.4404 33.6424 22.3275 33.4596 22.2744L29.8873 21.2428V24.2183H31.5924C31.8185 24.2183 32.0354 24.3081 32.1952 24.468C32.3551 24.6279 32.4449 24.8447 32.4449 25.0708C32.4449 25.2969 32.3551 25.5138 32.1952 25.6736C32.0354 25.8335 31.8185 25.9234 31.5924 25.9234H29.8873V27.3643H31.5924C31.8185 27.3643 32.0354 27.4541 32.1952 27.614C32.3551 27.7739 32.4449 27.9907 32.4449 28.2168C32.4449 28.4429 32.3551 28.6598 32.1952 28.8196C32.0354 28.9795 31.8185 29.0694 31.5924 29.0694H29.8873V31.2264ZM26.8692 31.2264H28.1821V15.0275C28.1821 14.8014 28.0923 14.5845 27.9324 14.4246C27.7725 14.2647 27.5557 14.1749 27.3296 14.1749H21.2848C21.0587 14.1749 20.8418 14.2647 20.6819 14.4246C20.5221 14.5845 20.4322 14.8014 20.4322 15.0275V31.2264H21.7537V27.8161C21.7537 27.59 21.8435 27.3731 22.0034 27.2133C22.1633 27.0534 22.3802 26.9635 22.6063 26.9635H26.0166C26.1286 26.9635 26.2394 26.9856 26.3429 27.0284C26.4463 27.0713 26.5403 27.1341 26.6195 27.2133C26.6986 27.2924 26.7614 27.3864 26.8043 27.4899C26.8471 27.5933 26.8692 27.7042 26.8692 27.8161V31.2264ZM23.4589 31.2264H25.164V28.6687H23.4589V31.2264ZM26.0166 24.8321H22.6063C22.3802 24.8321 22.1633 24.7423 22.0034 24.5824C21.8435 24.4225 21.7537 24.2057 21.7537 23.9795C21.7537 23.7534 21.8435 23.5366 22.0034 23.3767C22.1633 23.2168 22.3802 23.127 22.6063 23.127H26.0166C26.2427 23.127 26.4596 23.2168 26.6195 23.3767C26.7794 23.5366 26.8692 23.7534 26.8692 23.9795C26.8692 24.2057 26.7794 24.4225 26.6195 24.5824C26.4596 24.7423 26.2427 24.8321 26.0166 24.8321ZM26.0166 21.4218H22.6063C22.3802 21.4218 22.1634 21.3319 22.0035 21.1721C21.8437 21.0122 21.7539 20.7953 21.7539 20.5692C21.7539 20.3431 21.8437 20.1263 22.0035 19.9664C22.1634 19.8065 22.3802 19.7167 22.6063 19.7167H26.0166C26.2427 19.7167 26.4595 19.8065 26.6194 19.9664C26.7792 20.1263 26.869 20.3431 26.869 20.5692C26.869 20.7953 26.7792 21.0122 26.6194 21.1721C26.4595 21.3319 26.2427 21.4218 26.0166 21.4218ZM26.0166 18.0115H22.6063C22.3802 18.0115 22.1634 17.9216 22.0035 17.7618C21.8437 17.6019 21.7539 17.385 21.7539 17.1589C21.7539 16.9328 21.8437 16.716 22.0035 16.5561C22.1634 16.3962 22.3802 16.3064 22.6063 16.3064H26.0166C26.2427 16.3064 26.4595 16.3962 26.6194 16.5561C26.7792 16.716 26.869 16.9328 26.869 17.1589C26.869 17.385 26.7792 17.6019 26.6194 17.7618C26.4595 17.9216 26.2427 18.0115 26.0166 18.0115Z" fill="#2566E5"/>
<path d="M50.322 19.3668V20.3118H54.1582V21.1893H45.3495V20.3118H49.2195V19.3668H47.1945V18.6468C46.5945 19.1343 45.8932 19.573 45.0907 19.963L44.6295 18.9505C45.2145 18.6955 45.7357 18.418 46.1932 18.118C46.6507 17.818 47.037 17.4955 47.352 17.1505H44.922V16.3068H46.767V12.9768H45.282V12.1218H46.767V11.3005L47.847 11.3455V12.1218H51.6945V11.3005L52.7632 11.3455V12.1218H54.2482V12.9768H52.7632V16.3068H54.6195V17.1505H52.167C52.5195 17.5405 52.917 17.8668 53.3595 18.1293C53.802 18.3843 54.312 18.6318 54.8895 18.8718L54.4282 19.873C54.0082 19.678 53.622 19.4793 53.2695 19.2768C52.9245 19.0668 52.5982 18.8418 52.2907 18.6018V19.3668H50.322ZM47.847 12.9768V13.4943H51.6945V12.9768H47.847ZM47.847 14.9005H51.6945V14.3043H47.847V14.9005ZM47.847 16.3068H51.6945V15.6768H47.847V16.3068ZM49.2195 18.4893V17.5668L50.322 17.6118V18.4893H52.1445C51.9195 18.2943 51.7057 18.088 51.5032 17.8705C51.3007 17.653 51.1095 17.413 50.9295 17.1505H48.5895C48.297 17.6155 47.8957 18.0618 47.3857 18.4893H49.2195ZM65.3225 16.9368V21.3243H64.3325V20.9305H60.0687V16.9143L61.0475 16.9593V19.873H62.1612V16.2505H60.2375V12.178L61.1712 12.223V15.193H62.1612V11.1655L63.2075 11.2105V15.193H64.2087V12.178L65.1425 12.223V16.2505H63.2075V19.873H64.3325V16.8918L65.3225 16.9368ZM56.0525 11.9643H59.7987V13.0218H58.4037C58.2312 13.7268 58.0212 14.4018 57.7737 15.0468H59.4387V20.7055H56.6825V17.263C56.6 17.398 56.5137 17.5293 56.4237 17.6568C56.3337 17.7768 56.2437 17.9005 56.1537 18.028L55.5912 17.2068C55.7787 16.9143 55.9625 16.5955 56.1425 16.2505C56.3225 15.9055 56.4912 15.553 56.6487 15.193C56.8062 14.8255 56.945 14.458 57.065 14.0905C57.1925 13.723 57.2975 13.3668 57.38 13.0218H56.0525V11.9643ZM58.5162 16.1155H57.6387V19.6818H58.5162V16.1155ZM68.5554 14.7205H67.4529V12.403H71.5254C71.4654 12.208 71.4054 12.013 71.3454 11.818C71.2854 11.623 71.2292 11.458 71.1767 11.323L72.3129 11.1655C72.3729 11.3155 72.4404 11.503 72.5154 11.728C72.5904 11.9455 72.6654 12.1705 72.7404 12.403H76.4079V14.743H75.2829V13.438H68.5554V14.7205ZM71.6492 15.9918C71.4992 15.8793 71.3117 15.7518 71.0867 15.6093C70.8692 15.4668 70.6404 15.328 70.4004 15.193C70.1679 15.0505 69.9392 14.9193 69.7142 14.7993C69.4892 14.6718 69.2979 14.5705 69.1404 14.4955L69.6354 13.5843C69.8079 13.6668 70.0067 13.768 70.2317 13.888C70.4567 14.0005 70.6817 14.1243 70.9067 14.2593C71.1317 14.3868 71.3454 14.5143 71.5479 14.6418C71.7579 14.7693 71.9342 14.8818 72.0767 14.9793L71.6492 15.9918ZM76.2504 21.3805C75.9879 21.2605 75.6804 21.1218 75.3279 20.9643C74.9754 20.8068 74.6117 20.6455 74.2367 20.4805C73.8692 20.3155 73.5092 20.158 73.1567 20.008C72.8042 19.8505 72.4967 19.7155 72.2342 19.603C71.7692 20.0305 71.1579 20.3868 70.4004 20.6718C69.6429 20.9643 68.6942 21.2305 67.5542 21.4705L67.1717 20.3905C67.7942 20.2705 68.3454 20.1505 68.8254 20.0305C69.3129 19.903 69.7367 19.768 70.0967 19.6255C70.4642 19.4755 70.7754 19.3143 71.0304 19.1418C71.2854 18.9693 71.4992 18.7818 71.6717 18.5793H67.1604V17.5218H70.6929C70.5354 17.4168 70.3479 17.3005 70.1304 17.173C69.9129 17.0455 69.6917 16.918 69.4667 16.7905C69.2417 16.6555 69.0204 16.5318 68.8029 16.4193C68.5854 16.2993 68.3942 16.2018 68.2292 16.1268L68.6904 15.2493C68.8779 15.3393 69.0917 15.448 69.3317 15.5755C69.5717 15.6955 69.8154 15.823 70.0629 15.958C70.3104 16.093 70.5429 16.228 70.7604 16.363C70.9854 16.4905 71.1692 16.603 71.3117 16.7005L70.9179 17.5218H72.2117C72.2792 17.2818 72.3242 17.023 72.3467 16.7455C72.3767 16.4605 72.3992 16.1493 72.4142 15.8118L72.4704 13.8205L73.6067 13.8655C73.6067 13.963 73.6029 14.1093 73.5954 14.3043C73.5954 14.4918 73.5917 14.6943 73.5842 14.9118C73.5842 15.1218 73.5804 15.3243 73.5729 15.5193C73.5654 15.7143 73.5617 15.8605 73.5617 15.958C73.5392 16.558 73.4792 17.0793 73.3817 17.5218H76.6554V18.5793H73.0104L72.9092 18.7705C73.2017 18.8905 73.5242 19.0218 73.8767 19.1643C74.2292 19.2993 74.5779 19.438 74.9229 19.5805C75.2754 19.723 75.6054 19.858 75.9129 19.9855C76.2204 20.1055 76.4792 20.2105 76.6892 20.3005L76.2504 21.3805ZM81.2159 15.9243H81.6884C81.6884 15.9918 81.6846 16.123 81.6771 16.318C81.6696 16.5055 81.6584 16.7268 81.6434 16.9818C81.6359 17.2368 81.6246 17.5105 81.6096 17.803C81.6021 18.088 81.5909 18.3655 81.5759 18.6355C81.5684 18.898 81.5571 19.138 81.5421 19.3555C81.5346 19.5655 81.5309 19.723 81.5309 19.828C81.5159 20.0755 81.4859 20.278 81.4409 20.4355C81.4034 20.6005 81.3321 20.728 81.2271 20.818C81.1296 20.9155 80.9946 20.9868 80.8221 21.0318C80.6496 21.0843 80.4246 21.1255 80.1471 21.1555L79.4721 21.223L79.1571 20.2893L79.7759 20.2443C79.9484 20.2293 80.0871 20.2105 80.1921 20.188C80.2971 20.1655 80.3796 20.128 80.4396 20.0755C80.5071 20.023 80.5521 19.9518 80.5746 19.8618C80.5971 19.7718 80.6121 19.648 80.6196 19.4905C80.6196 19.423 80.6234 19.273 80.6309 19.0405C80.6459 18.8005 80.6571 18.538 80.6646 18.253C80.6796 17.968 80.6909 17.698 80.6984 17.443C80.7134 17.1805 80.7209 16.993 80.7209 16.8805H78.4596L78.7296 13.0555L79.6409 13.1005L79.4496 15.9243H80.2821L80.4846 12.6618H78.2571V11.6718H81.4634L81.2834 14.7768C81.9659 14.2368 82.5471 13.6705 83.0271 13.078C83.5071 12.478 83.9084 11.818 84.2309 11.098H85.0859C85.4234 11.8555 85.8621 12.5418 86.4021 13.1568C86.9421 13.7718 87.5496 14.3455 88.2246 14.878L87.6284 15.7443C87.2909 15.4743 86.9684 15.1968 86.6609 14.9118V15.7105H82.6446V15.0018C82.5246 15.1143 82.4009 15.2268 82.2734 15.3393C82.1459 15.4443 82.0146 15.553 81.8796 15.6655L81.2834 14.833L81.2159 15.9243ZM84.6809 12.3805C84.4784 12.763 84.2421 13.1418 83.9721 13.5168C83.7021 13.8918 83.3834 14.2668 83.0159 14.6418H86.3796C86.0121 14.2743 85.6859 13.903 85.4009 13.528C85.1159 13.1455 84.8759 12.763 84.6809 12.3805ZM84.5121 19.108C84.4821 18.9055 84.4371 18.673 84.3771 18.4105C84.3246 18.148 84.2646 17.8818 84.1971 17.6118C84.1296 17.3418 84.0584 17.083 83.9834 16.8355C83.9084 16.588 83.8371 16.378 83.7696 16.2055L84.6471 15.9243C84.7071 16.0893 84.7709 16.2955 84.8384 16.543C84.9134 16.783 84.9846 17.0343 85.0521 17.2968C85.1271 17.5593 85.1909 17.8218 85.2434 18.0843C85.3034 18.3393 85.3521 18.5643 85.3896 18.7593L84.5121 19.108ZM87.2121 16.3405C87.1521 16.573 87.0771 16.8393 86.9871 17.1393C86.9046 17.4393 86.8109 17.7505 86.7059 18.073C86.6084 18.388 86.5034 18.7068 86.3909 19.0293C86.2859 19.3443 86.1846 19.6368 86.0871 19.9068H87.6509V20.9643H81.7221V19.9068H85.1084C85.2209 19.6143 85.3334 19.2993 85.4459 18.9618C85.5659 18.6243 85.6746 18.2868 85.7721 17.9493C85.8771 17.6118 85.9746 17.278 86.0646 16.948C86.1546 16.618 86.2334 16.3105 86.3009 16.0255L87.2121 16.3405ZM82.8584 19.4793C82.8209 19.2618 82.7684 19.0105 82.7009 18.7255C82.6334 18.433 82.5621 18.1405 82.4871 17.848C82.4121 17.548 82.3334 17.263 82.2509 16.993C82.1759 16.723 82.1046 16.498 82.0371 16.318L82.8696 16.0255C82.9446 16.2205 83.0234 16.453 83.1059 16.723C83.1959 16.993 83.2784 17.2743 83.3534 17.5668C83.4359 17.8518 83.5109 18.133 83.5784 18.4105C83.6459 18.688 83.6984 18.9318 83.7359 19.1418L82.8584 19.4793ZM80.3946 18.7143C79.9821 18.8118 79.5696 18.9018 79.1571 18.9843C78.7521 19.0668 78.3434 19.138 77.9309 19.198L77.8634 18.163C78.2759 18.1105 78.6884 18.0505 79.1009 17.983C79.5134 17.908 79.9259 17.8293 80.3384 17.7468L80.3609 18.2305L80.3946 18.7143ZM94.6414 15.0693C94.7764 15.6468 94.9676 16.183 95.2151 16.678C95.4626 17.1655 95.7701 17.623 96.1376 18.0505C96.5051 18.478 96.9364 18.883 97.4314 19.2655C97.9339 19.6405 98.5039 20.0005 99.1414 20.3455L98.4214 21.4818C97.3714 20.8368 96.4901 20.1355 95.7776 19.378C95.0651 18.6205 94.5176 17.8143 94.1351 16.9593C93.9326 17.4318 93.6776 17.8818 93.3701 18.3093C93.0626 18.7293 92.7214 19.1268 92.3464 19.5018C91.9714 19.8768 91.5664 20.2293 91.1314 20.5593C90.7039 20.8968 90.2614 21.2155 89.8039 21.5155L89.0726 20.3455C89.6276 20.0305 90.1526 19.6855 90.6476 19.3105C91.1501 18.928 91.5926 18.5118 91.9751 18.0618C92.3651 17.6118 92.6839 17.128 92.9314 16.6105C93.1864 16.0855 93.3439 15.523 93.4039 14.923H89.4551V13.7755H93.4376V11.1993L94.6751 11.2443V13.7755H98.6914V14.923H94.6526C94.6526 14.9455 94.6489 14.968 94.6414 14.9905C94.6414 15.013 94.6414 15.0393 94.6414 15.0693ZM103.117 16.9705C103.034 16.8655 102.933 16.753 102.813 16.633C102.701 16.5055 102.588 16.3818 102.476 16.2618V21.403H101.497V16.6443C101.339 17.0568 101.167 17.4543 100.979 17.8368C100.799 18.2193 100.619 18.5643 100.439 18.8718L99.7643 18.0168C99.8993 17.7993 100.042 17.5443 100.192 17.2518C100.342 16.9518 100.492 16.6368 100.642 16.3068C100.792 15.9768 100.934 15.6355 101.069 15.283C101.212 14.9305 101.336 14.5893 101.441 14.2593H100.316V13.213H101.497V11.2555L102.476 11.3005V13.213H103.409V14.2593H102.476V15.3168L102.622 15.1255C102.742 15.2305 102.866 15.343 102.993 15.463C103.128 15.583 103.259 15.7068 103.387 15.8343C104.249 15.4593 104.992 14.9943 105.614 14.4393H103.612V13.4943H104.883C104.816 13.3893 104.733 13.2693 104.636 13.1343C104.538 12.9918 104.437 12.853 104.332 12.718C104.227 12.5755 104.122 12.4405 104.017 12.313C103.919 12.1855 103.829 12.0768 103.747 11.9868L104.433 11.4018C104.516 11.4918 104.609 11.6005 104.714 11.728C104.819 11.848 104.924 11.9793 105.029 12.1218C105.142 12.2568 105.247 12.3955 105.344 12.538C105.449 12.673 105.539 12.7968 105.614 12.9093L104.939 13.4943H106.053V11.2443L107.077 11.2893V13.4943H108.067L107.448 12.943C107.538 12.853 107.639 12.7443 107.752 12.6168C107.864 12.4893 107.977 12.358 108.089 12.223C108.202 12.0805 108.311 11.9418 108.416 11.8068C108.521 11.6718 108.611 11.5518 108.686 11.4468L109.417 11.9868C109.342 12.0993 109.252 12.223 109.147 12.358C109.049 12.493 108.944 12.628 108.832 12.763C108.727 12.898 108.618 13.0293 108.506 13.1568C108.401 13.2843 108.303 13.3968 108.213 13.4943H109.732V14.4393H107.538C108.206 15.0168 109.098 15.5118 110.216 15.9243L109.867 16.9255C109.282 16.6855 108.764 16.4305 108.314 16.1605C107.864 15.8905 107.452 15.583 107.077 15.238V16.4418H106.053V15.2943C105.753 15.5868 105.419 15.8643 105.052 16.1268C104.692 16.3893 104.268 16.6405 103.781 16.8805L103.578 16.4305L103.117 16.9705ZM106.402 16.5543C106.364 16.6518 106.327 16.7493 106.289 16.8468C106.252 16.9368 106.214 17.0305 106.177 17.128H109.968V18.1293H108.731C108.603 18.4293 108.464 18.703 108.314 18.9505C108.172 19.1905 107.999 19.4155 107.797 19.6255L109.878 20.4918L109.417 21.403C108.997 21.208 108.581 21.0168 108.168 20.8293C107.763 20.6493 107.354 20.4693 106.942 20.2893C106.529 20.5368 106.019 20.758 105.412 20.953C104.812 21.148 104.073 21.3393 103.196 21.5268L102.858 20.5255C103.518 20.4055 104.081 20.2893 104.546 20.1768C105.018 20.0568 105.423 19.933 105.761 19.8055C105.446 19.6705 105.131 19.5393 104.816 19.4118C104.501 19.2843 104.186 19.1568 103.871 19.0293C103.968 18.8868 104.066 18.7405 104.163 18.5905C104.261 18.4405 104.354 18.2868 104.444 18.1293H103.218V17.128H105.018C105.093 16.978 105.161 16.8355 105.221 16.7005C105.288 16.558 105.348 16.423 105.401 16.2955L106.402 16.5543ZM105.671 18.1293C105.618 18.2193 105.566 18.3093 105.513 18.3993C105.468 18.4893 105.419 18.5755 105.367 18.658C105.562 18.733 105.779 18.8193 106.019 18.9168C106.267 19.0068 106.529 19.108 106.807 19.2205C106.979 19.0705 107.126 18.9055 107.246 18.7255C107.373 18.5455 107.489 18.3468 107.594 18.1293H105.671Z" fill="#123871"/>
<path d="M51.0725 32.5597C51.3098 32.87 51.5806 33.1682 51.8849 33.4542C52.1953 33.7402 52.5512 34.0293 52.9529 34.3214L52.3687 35.1977C51.6141 34.6196 50.9934 34.011 50.5066 33.3721C50.251 33.6824 49.962 33.9867 49.6394 34.2849C49.323 34.583 48.9579 34.8873 48.5441 35.1977L47.9508 34.4127C48.4072 34.1023 48.8027 33.8041 49.1374 33.5181C49.4721 33.226 49.7611 32.9218 50.0046 32.6053C49.676 32.0211 49.4356 31.3913 49.2835 30.7159C49.2409 30.7828 49.1983 30.8467 49.1557 30.9075C49.1192 30.9684 49.0766 31.0323 49.0279 31.0992L48.4619 30.442C48.4924 30.3994 48.5198 30.3568 48.5441 30.3142C48.5684 30.2716 48.5958 30.226 48.6262 30.1773H47.4853C47.327 30.3538 47.1627 30.5272 46.9924 30.6976H48.681V31.4552L47.4122 32.368V32.3863C47.7591 32.3437 48.0694 32.3041 48.3433 32.2676C48.6232 32.2311 48.8179 32.2067 48.9275 32.1946L48.9549 33.0343C48.8331 33.0465 48.6323 33.0709 48.3524 33.1074C48.0725 33.1439 47.7591 33.1834 47.4122 33.226V34.1479C47.4122 34.3305 47.397 34.4766 47.3666 34.5861C47.3423 34.7017 47.2936 34.793 47.2206 34.8599C47.1475 34.9329 47.0471 34.9847 46.9193 35.0151C46.7915 35.0455 46.6272 35.0699 46.4264 35.0881L45.8057 35.1429L45.541 34.294L46.0887 34.2392C46.1921 34.2271 46.2743 34.2149 46.3351 34.2027C46.4021 34.1905 46.4538 34.1723 46.4903 34.1479C46.5268 34.1175 46.5512 34.0749 46.5633 34.0202C46.5755 33.9654 46.5816 33.8893 46.5816 33.792V33.3264L44.8564 33.5546L44.7743 32.7057C44.8351 32.6997 44.9264 32.6905 45.0481 32.6784C45.1698 32.6662 45.3098 32.651 45.468 32.6327C45.6323 32.6145 45.8088 32.5932 45.9974 32.5688C46.1861 32.5445 46.3808 32.5201 46.5816 32.4958V32.1398L47.467 31.4643H46.1435C45.7601 31.7869 45.3493 32.1063 44.9112 32.4228L44.4457 31.7291C45.1637 31.2727 45.8179 30.7554 46.4082 30.1773H44.7925V29.3649H46.1891V28.5525H45.1303V27.8041H46.1891V26.8L46.9924 26.8365V27.8041H47.8686V28.37C47.9843 28.1874 48.0938 28.0018 48.1972 27.8132C48.3007 27.6185 48.3981 27.4207 48.4893 27.2199L49.1831 27.585C49.0309 27.9136 48.8697 28.2239 48.6993 28.516C48.5289 28.8081 48.3463 29.0911 48.1516 29.3649H48.8727V29.7027C48.9822 29.4775 49.0887 29.2371 49.1922 28.9816C49.2956 28.726 49.3899 28.4704 49.4751 28.2148C49.5603 27.9592 49.6364 27.7097 49.7033 27.4663C49.7764 27.2229 49.8311 27.0008 49.8676 26.8L50.7348 26.8913C50.6253 27.3416 50.5066 27.7797 50.3788 28.2057H52.6973V29.0546H52.1131C52.0279 29.7787 51.9032 30.4238 51.7389 30.9897C51.5806 31.5495 51.3585 32.0729 51.0725 32.5597ZM46.9924 29.3649H47.1567C47.2601 29.2311 47.3605 29.0972 47.4579 28.9633C47.5613 28.8294 47.6587 28.6925 47.75 28.5525H46.9924V29.3649ZM49.8676 29.5749C49.9346 29.9948 50.0228 30.3842 50.1324 30.7432C50.2419 31.0962 50.3818 31.4309 50.5522 31.7473C50.7348 31.3761 50.8808 30.9745 50.9904 30.5424C51.106 30.1043 51.1973 29.6083 51.2642 29.0546H50.0867C50.0502 29.1398 50.0137 29.228 49.9772 29.3193C49.9468 29.4045 49.9102 29.4897 49.8676 29.5749ZM54.9279 30.1956H54.0334V28.3244H55.3569C55.2535 28.1357 55.1409 27.9471 55.0192 27.7584C54.8975 27.5637 54.7697 27.3629 54.6358 27.156L55.4391 26.7452C55.5851 26.9582 55.7373 27.1925 55.8955 27.4481C56.0598 27.6976 56.2028 27.9288 56.3245 28.1418L56.0415 28.3244H57.4929C57.3894 28.1114 57.2829 27.8923 57.1734 27.6671C57.0638 27.4359 56.9543 27.2229 56.8448 27.0282L57.6298 26.6631C57.7454 26.8578 57.8732 27.0921 58.0131 27.3659C58.1592 27.6398 58.2961 27.9045 58.4239 28.16L58.1501 28.3244H58.9442C59.1389 28.0323 59.3215 27.7523 59.4919 27.4846C59.6622 27.2168 59.8113 26.9704 59.9391 26.7452L60.788 27.1834C60.6785 27.3598 60.5568 27.5454 60.4229 27.7402C60.2951 27.9349 60.1643 28.1296 60.0304 28.3244H61.3905V30.1956H60.5142V29.1824H54.9279V30.1956ZM61.646 32.8244H58.3235V33.8924C58.3235 34.1236 58.3022 34.3062 58.2596 34.44C58.217 34.58 58.144 34.6895 58.0405 34.7686C57.9432 34.8538 57.8123 34.9147 57.648 34.9512C57.4837 34.9877 57.2768 35.0181 57.0273 35.0425L56.3793 35.1064L56.0963 34.1753L56.8265 34.1206C56.9421 34.1145 57.0334 34.1053 57.1004 34.0932C57.1734 34.0749 57.2281 34.0506 57.2647 34.0202C57.3012 33.9836 57.3255 33.935 57.3377 33.8741C57.3499 33.8072 57.3559 33.7189 57.3559 33.6094V32.8244H53.7778V31.939H57.3559V31.5556C57.4168 31.5191 57.5202 31.4583 57.6663 31.3731C57.8184 31.2879 57.9736 31.2027 58.1318 31.1175C58.2961 31.0262 58.4482 30.9471 58.5882 30.8802C58.7282 30.8071 58.8255 30.7706 58.8803 30.7706H55.2474V29.9126H60.3864V30.7706C60.3073 30.7889 60.1765 30.8467 59.9939 30.9441C59.8174 31.0414 59.6227 31.151 59.4097 31.2727C59.2028 31.3944 58.999 31.5161 58.7981 31.6378C58.5973 31.7595 58.4391 31.8538 58.3235 31.9207V31.939H61.646V32.8244ZM65.0542 31.5009C64.9872 31.4157 64.9051 31.3244 64.8077 31.227C64.7164 31.1236 64.6252 31.0232 64.5339 30.9258V35.0972H63.7398V31.2361C63.612 31.5708 63.472 31.8934 63.3199 32.2037C63.1738 32.5141 63.0278 32.794 62.8817 33.0435L62.3341 32.3498C62.4436 32.1733 62.5592 31.9664 62.6809 31.7291C62.8026 31.4856 62.9243 31.2301 63.046 30.9623C63.1677 30.6946 63.2834 30.4177 63.3929 30.1317C63.5085 29.8457 63.6089 29.5688 63.6941 29.301H62.7813V28.4521H63.7398V26.8639L64.5339 26.9004V28.4521H65.2915V29.301H64.5339V30.1591L64.6525 30.0039C64.7499 30.0891 64.8503 30.1804 64.9538 30.2777C65.0633 30.3751 65.1698 30.4755 65.2732 30.5789C65.973 30.2747 66.5755 29.8974 67.0806 29.4471H65.4558V28.6803H66.4872C66.4325 28.5951 66.3655 28.4978 66.2864 28.3882C66.2073 28.2726 66.1252 28.16 66.04 28.0505C65.9548 27.9349 65.8696 27.8254 65.7844 27.7219C65.7053 27.6185 65.6323 27.5302 65.5653 27.4572L66.1221 26.9826C66.1891 27.0556 66.2651 27.1438 66.3503 27.2473C66.4355 27.3446 66.5207 27.4511 66.6059 27.5667C66.6972 27.6763 66.7824 27.7888 66.8615 27.9045C66.9467 28.014 67.0197 28.1144 67.0806 28.2057L66.5329 28.6803H67.4365V26.8548L68.2672 26.8913V28.6803H69.0704L68.5684 28.2331C68.6414 28.16 68.7236 28.0718 68.8149 27.9684C68.9061 27.8649 68.9974 27.7584 69.0887 27.6489C69.18 27.5333 69.2682 27.4207 69.3534 27.3112C69.4386 27.2016 69.5116 27.1043 69.5725 27.0191L70.1658 27.4572C70.1049 27.5485 70.0319 27.6489 69.9467 27.7584C69.8676 27.868 69.7824 27.9775 69.6911 28.087C69.6059 28.1966 69.5177 28.3031 69.4264 28.4065C69.3412 28.51 69.2621 28.6012 69.1891 28.6803H70.4214V29.4471H68.6414C69.183 29.9156 69.9072 30.3173 70.8139 30.652L70.5309 31.4643C70.0563 31.2696 69.6364 31.0627 69.2713 30.8436C68.9061 30.6246 68.5715 30.3751 68.2672 30.0952V31.0718H67.4365V30.1408C67.1931 30.3781 66.9223 30.6033 66.6242 30.8163C66.3321 31.0292 65.9883 31.2331 65.5927 31.4278L65.4284 31.0627L65.0542 31.5009ZM67.7195 31.1631C67.6891 31.2422 67.6587 31.3213 67.6282 31.4005C67.5978 31.4735 67.5674 31.5495 67.537 31.6286H70.6131V32.441H69.609C69.5055 32.6844 69.393 32.9066 69.2713 33.1074C69.1556 33.3021 69.0157 33.4847 68.8514 33.655L70.54 34.3579L70.1658 35.0972C69.825 34.939 69.4873 34.7839 69.1526 34.6317C68.824 34.4857 68.4923 34.3396 68.1577 34.1936C67.823 34.3944 67.4092 34.5739 66.9163 34.7321C66.4294 34.8903 65.83 35.0455 65.1181 35.1977L64.8442 34.3853C65.3797 34.2879 65.8361 34.1936 66.2134 34.1023C66.5968 34.0049 66.9254 33.9045 67.1992 33.8011C66.9436 33.6916 66.6881 33.5851 66.4325 33.4816C66.1769 33.3782 65.9213 33.2747 65.6657 33.1713C65.7448 33.0556 65.824 32.937 65.9031 32.8153C65.9822 32.6936 66.0582 32.5688 66.1313 32.441H65.1363V31.6286H66.5968C66.6576 31.5069 66.7124 31.3913 66.7611 31.2818C66.8159 31.1662 66.8645 31.0566 66.9071 30.9532L67.7195 31.1631ZM67.1262 32.441C67.0836 32.5141 67.041 32.5871 66.9984 32.6601C66.9619 32.7331 66.9223 32.8031 66.8797 32.87C67.038 32.9309 67.2144 33.0009 67.4092 33.08C67.61 33.153 67.823 33.2352 68.0481 33.3264C68.1881 33.2047 68.3067 33.0709 68.4041 32.9248C68.5076 32.7788 68.6019 32.6175 68.6871 32.441H67.1262Z" fill="#3A5A8A"/>
<defs>
<linearGradient id="paint0_linear_674_33976" x1="110.19" y1="-0.181216" x2="21.8796" y2="54.6264" gradientUnits="userSpaceOnUse">
<stop offset="0.5" stop-color="#809AF5"/>
<stop offset="0.5" stop-color="#3867E2"/>
</linearGradient>
</defs>
</svg>
