<svg width="93" height="53" viewBox="0 0 93 53" fill="none" xmlns="http://www.w3.org/2000/svg">
<path d="M37.9925 39.5544H12.3832C11.1782 39.5544 10.6853 42.0858 11.7406 42.6674C17.5551 45.8722 22.6667 50.2645 24.525 51.9372C24.9424 52.3129 25.5857 52.3022 25.9914 51.9139C27.7764 50.2055 32.6861 45.7588 38.6012 42.5257C39.6526 41.951 39.1907 39.5544 37.9925 39.5544Z" fill="#4573E7"/>
<rect width="92.5569" height="45.4013" rx="22.7007" fill="url(#paint0_linear_674_33800)"/>
<rect x="4.86819" y="4.86823" width="82.8205" height="35.6649" rx="17.8325" fill="#D6DFF5"/>
<path d="M36.6311 32.9316H17.8745C17.6484 32.9316 17.4316 32.8417 17.2717 32.6818C17.1118 32.5219 17.022 32.3051 17.022 32.079C17.022 31.8529 17.1118 31.6361 17.2717 31.4762C17.4316 31.3163 17.6484 31.2265 17.8745 31.2264H18.7271V15.0275C18.7271 14.3492 18.9965 13.6986 19.4762 13.2189C19.9559 12.7393 20.6064 12.4698 21.2848 12.4698H27.3295C28.0079 12.4698 28.6585 12.7393 29.1381 13.2189C29.6178 13.6986 29.8873 14.3492 29.8873 15.0275V19.5035L33.9285 20.6716C34.4613 20.825 34.9299 21.1474 35.2636 21.5903C35.5973 22.0331 35.778 22.5725 35.7786 23.127V31.2264H36.6311C36.8572 31.2265 37.074 31.3163 37.2339 31.4762C37.3938 31.6361 37.4836 31.8529 37.4836 32.079C37.4836 32.3051 37.3938 32.5219 37.2339 32.6818C37.074 32.8417 36.8572 32.9316 36.6311 32.9316ZM29.8873 31.2264H34.0734V23.127C34.081 22.9367 34.0246 22.7494 33.9134 22.5949C33.8021 22.4404 33.6424 22.3276 33.4595 22.2744L29.8873 21.2428V24.2183H31.5924C31.8185 24.2183 32.0353 24.3081 32.1952 24.468C32.355 24.6279 32.4449 24.8448 32.4449 25.0708C32.4449 25.2969 32.355 25.5138 32.1952 25.6737C32.0353 25.8335 31.8185 25.9234 31.5924 25.9234H29.8873V27.3643H31.5924C31.8185 27.3643 32.0353 27.4541 32.1952 27.614C32.355 27.7739 32.4449 27.9908 32.4449 28.2168C32.4449 28.4429 32.355 28.6598 32.1952 28.8197C32.0353 28.9795 31.8185 29.0694 31.5924 29.0694H29.8873V31.2264ZM26.8691 31.2264H28.1821V15.0275C28.1821 14.8014 28.0923 14.5845 27.9324 14.4247C27.7725 14.2648 27.5557 14.1749 27.3295 14.1749H21.2848C21.0587 14.1749 20.8418 14.2648 20.6819 14.4247C20.522 14.5845 20.4322 14.8014 20.4322 15.0275V31.2264H21.7537V27.8161C21.7537 27.59 21.8435 27.3732 22.0034 27.2133C22.1633 27.0534 22.3802 26.9636 22.6063 26.9636H26.0166C26.1285 26.9636 26.2394 26.9856 26.3428 27.0285C26.4463 27.0713 26.5403 27.1341 26.6194 27.2133C26.6986 27.2924 26.7614 27.3864 26.8042 27.4899C26.8471 27.5933 26.8691 27.7042 26.8691 27.8161V31.2264ZM23.4588 31.2264H25.164V28.6687H23.4588V31.2264ZM26.0166 24.8321H22.6063C22.3802 24.8321 22.1633 24.7423 22.0034 24.5824C21.8435 24.4225 21.7537 24.2057 21.7537 23.9795C21.7537 23.7534 21.8435 23.5366 22.0034 23.3767C22.1633 23.2168 22.3802 23.127 22.6063 23.127H26.0166C26.2427 23.127 26.4595 23.2168 26.6194 23.3767C26.7793 23.5366 26.8691 23.7534 26.8691 23.9795C26.8691 24.2057 26.7793 24.4225 26.6194 24.5824C26.4595 24.7423 26.2427 24.8321 26.0166 24.8321ZM26.0166 21.4218H22.6063C22.3802 21.4218 22.1634 21.332 22.0035 21.1721C21.8436 21.0122 21.7538 20.7953 21.7538 20.5693C21.7538 20.3432 21.8436 20.1263 22.0035 19.9664C22.1634 19.8065 22.3802 19.7167 22.6063 19.7167H26.0166C26.2427 19.7167 26.4595 19.8065 26.6193 19.9664C26.7792 20.1263 26.869 20.3432 26.869 20.5693C26.869 20.7953 26.7792 21.0122 26.6193 21.1721C26.4595 21.332 26.2427 21.4218 26.0166 21.4218ZM26.0166 18.0115H22.6063C22.3802 18.0115 22.1634 17.9217 22.0035 17.7618C21.8436 17.6019 21.7538 17.385 21.7538 17.159C21.7538 16.9329 21.8436 16.716 22.0035 16.5561C22.1634 16.3962 22.3802 16.3064 22.6063 16.3064H26.0166C26.2427 16.3064 26.4595 16.3962 26.6193 16.5561C26.7792 16.716 26.869 16.9329 26.869 17.159C26.869 17.385 26.7792 17.6019 26.6193 17.7618C26.4595 17.9217 26.2427 18.0115 26.0166 18.0115Z" fill="#2566E5"/>
<path d="M51.4605 15.0789H49.885V14.37H51.4605V13.8523H50.0088V13.1771H51.4605V12.6707H49.9188V11.9504H51.4605V11.309L52.4621 11.354V11.9504H54.2514V12.6707H52.4621V13.1771H54.0488V13.8523H52.4621V14.37H54.454V15.0789H52.4621V15.5403H51.4605V15.0789ZM47.1616 15.0789H45.1022V14.37H47.1616V13.8523H45.5524V13.1771H47.1616V12.6707H45.3386V11.9504H47.1616V11.3202L48.1857 11.3653V11.9504H49.6262V12.6707H48.1857V13.1771H49.5361V13.8523H48.1857V14.37H49.6712V15.0789H48.1857V15.5403H47.1616V15.0789ZM53.6324 18.6463H50.1101C50.2451 18.7814 50.3877 18.9352 50.5377 19.1077C50.6953 19.2728 50.8491 19.4378 50.9991 19.6029L50.3239 20.2668C50.1438 20.0418 49.945 19.8092 49.7275 19.5691C49.5099 19.3215 49.3223 19.119 49.1648 18.9614L49.5249 18.6463H45.7324V17.9598H52.5859V17.4985H46.0813V16.857H52.5859V16.3956H45.8562V15.7204H53.6324V18.6463ZM53.0473 18.6463C53.1673 18.7739 53.2986 18.9164 53.4411 19.074C53.5837 19.224 53.7225 19.3778 53.8575 19.5353C54.0001 19.6929 54.1389 19.8504 54.2739 20.008C54.4089 20.1655 54.529 20.3081 54.634 20.4356L53.8913 21.1334C53.6812 20.8483 53.4336 20.5369 53.1485 20.1993C52.8635 19.8542 52.5859 19.5353 52.3158 19.2428L53.0473 18.6463ZM44.8209 20.6382C45.0535 20.3831 45.2936 20.0868 45.5411 19.7492C45.7887 19.4116 45.995 19.1002 46.1601 18.8151L47.0379 19.3328C46.8503 19.6629 46.6215 19.9967 46.3514 20.3344C46.0888 20.6795 45.845 20.9833 45.6199 21.2459L44.8209 20.6382ZM51.393 19.918C51.408 19.8354 51.423 19.7267 51.438 19.5916C51.453 19.4566 51.4643 19.3253 51.4718 19.1977L52.4508 19.5804C52.4358 19.7829 52.4058 20.0005 52.3608 20.2331C52.3158 20.4281 52.2595 20.5894 52.192 20.717C52.132 20.852 52.0457 20.957 51.9332 21.0321C51.8281 21.1146 51.6893 21.1746 51.5168 21.2121C51.3517 21.2571 51.1454 21.2834 50.8978 21.2909C50.1551 21.3284 49.4161 21.3284 48.6809 21.2909C48.4333 21.2834 48.227 21.2609 48.0619 21.2234C47.8969 21.1859 47.7618 21.1221 47.6568 21.0321C47.5593 20.942 47.488 20.8183 47.443 20.6607C47.4055 20.5032 47.3867 20.3006 47.3867 20.053V18.9051L48.4333 18.9502V19.8842C48.4333 20.1018 48.4783 20.2443 48.5683 20.3118C48.6659 20.3869 48.8347 20.4319 49.0748 20.4469C49.5924 20.4844 50.1138 20.4844 50.639 20.4469C50.9091 20.4319 51.0929 20.3869 51.1904 20.3118C51.288 20.2443 51.3555 20.113 51.393 19.918ZM58.0706 13.7735C57.9655 13.661 57.838 13.5334 57.6879 13.3909C57.5379 13.2409 57.3766 13.0946 57.204 12.952C57.039 12.802 56.8739 12.6594 56.7089 12.5244C56.5438 12.3893 56.3975 12.273 56.27 12.1755L56.8777 11.3765C57.0052 11.459 57.1478 11.5603 57.3053 11.6804C57.4704 11.8004 57.6354 11.9279 57.8005 12.063C57.9655 12.1905 58.1231 12.3218 58.2731 12.4569C58.4307 12.5844 58.5657 12.7007 58.6783 12.8057L58.0706 13.7735ZM63.3485 17.9373V20.0305C63.3485 20.2781 63.326 20.4769 63.281 20.6269C63.2435 20.7845 63.1722 20.912 63.0672 21.0096C62.9696 21.1071 62.8383 21.1746 62.6733 21.2121C62.5157 21.2571 62.3207 21.2909 62.0881 21.3134L61.5367 21.3584L61.2103 20.3231L61.728 20.2781C61.8555 20.2706 61.9568 20.2556 62.0318 20.2331C62.1068 20.2106 62.1631 20.1768 62.2006 20.1318C62.2381 20.0868 62.2606 20.023 62.2681 19.9405C62.2832 19.8504 62.2907 19.7379 62.2907 19.6029V17.9373H60.4451V13.706H61.9643C62.0168 13.5409 62.0656 13.3796 62.1106 13.2221C62.1556 13.0645 62.1969 12.9032 62.2344 12.7382H59.8486V15.4503C59.8486 16.148 59.8261 16.767 59.7811 17.3071C59.7436 17.8398 59.6761 18.3387 59.5785 18.8039C59.481 19.269 59.3497 19.7192 59.1847 20.1543C59.0271 20.5819 58.8283 21.0321 58.5882 21.5047L57.5754 21.0321C57.823 20.5594 58.0256 20.1205 58.1831 19.7154C58.3407 19.3103 58.4644 18.8976 58.5545 18.4775C58.6445 18.0499 58.7045 17.5997 58.7345 17.1271C58.772 16.6469 58.7908 16.0993 58.7908 15.4841V11.6916H65.7568V12.7382H62.8421L63.3035 12.817C63.266 12.9445 63.2247 13.0871 63.1797 13.2446C63.1422 13.4022 63.0972 13.556 63.0446 13.706H65.1491V17.9373H63.3485ZM57.7217 16.2943C57.5942 16.1593 57.4479 16.0167 57.2828 15.8667C57.1253 15.7166 56.9602 15.5666 56.7877 15.4165C56.6226 15.2665 56.4576 15.124 56.2925 14.9889C56.1275 14.8539 55.9812 14.7413 55.8536 14.6513L56.405 13.8298C56.5401 13.9198 56.6939 14.0286 56.8664 14.1561C57.039 14.2762 57.2115 14.4075 57.3841 14.55C57.5642 14.6926 57.733 14.8351 57.8905 14.9777C58.0556 15.1127 58.2019 15.2402 58.3294 15.3603L57.7217 16.2943ZM61.4917 14.6063V15.394H64.1025V14.6063H61.4917ZM61.4917 17.0258H64.1025V16.2718H61.4917V17.0258ZM58.0931 17.1383C58.0781 17.2134 58.0443 17.3597 57.9918 17.5772C57.9468 17.7948 57.8868 18.0461 57.8117 18.3312C57.7442 18.6163 57.6692 18.9202 57.5867 19.2428C57.5116 19.5654 57.4366 19.8692 57.3616 20.1543C57.2941 20.4319 57.2303 20.672 57.1703 20.8745C57.1178 21.0846 57.084 21.2196 57.069 21.2797L56.0337 20.9983C56.0637 20.9158 56.1049 20.7695 56.1575 20.5594C56.2175 20.3569 56.285 20.1205 56.36 19.8504C56.4351 19.5729 56.5101 19.2803 56.5851 18.9727C56.6601 18.6651 56.7314 18.3725 56.7989 18.0949C56.8664 17.8173 56.9227 17.5697 56.9677 17.3522C57.0202 17.1346 57.054 16.977 57.069 16.8795L58.0931 17.1383ZM61.6379 18.8039C61.5329 18.9989 61.4129 19.2052 61.2778 19.4228C61.1503 19.6329 61.0153 19.8429 60.8727 20.053C60.7302 20.2631 60.5839 20.4656 60.4338 20.6607C60.2913 20.8633 60.1525 21.0471 60.0174 21.2121L59.2522 20.5819C59.5448 20.2293 59.8299 19.858 60.1075 19.4678C60.3851 19.0777 60.6176 18.6913 60.8052 18.3087L61.6379 18.8039ZM64.6089 18.32C64.7139 18.4475 64.8377 18.6013 64.9803 18.7814C65.1228 18.9614 65.2653 19.1527 65.4079 19.3553C65.5579 19.5579 65.6967 19.7604 65.8243 19.963C65.9593 20.158 66.0719 20.3344 66.1619 20.4919L65.3741 21.1446C65.2841 20.9871 65.1716 20.7995 65.0365 20.5819C64.9015 20.3719 64.7627 20.158 64.6201 19.9405C64.4776 19.7229 64.3351 19.5203 64.1925 19.3328C64.0575 19.1377 63.9374 18.9764 63.8324 18.8489L64.6089 18.32ZM69.9023 16.9695C69.8198 16.8645 69.7185 16.752 69.5984 16.6319C69.4859 16.5044 69.3734 16.3806 69.2608 16.2606V21.4034H68.2818V16.6432C68.1242 17.0558 67.9517 17.4534 67.7641 17.8361C67.5841 18.2187 67.404 18.5638 67.2239 18.8714L66.5487 18.0161C66.6838 17.7985 66.8263 17.5435 66.9764 17.2509C67.1264 16.9508 67.2765 16.6357 67.4265 16.3056C67.5765 15.9755 67.7191 15.6341 67.8541 15.2815C67.9967 14.9289 68.1205 14.5875 68.2255 14.2574H67.1001V13.2108H68.2818V11.2527L69.2608 11.2977V13.2108H70.1949V14.2574H69.2608V15.3153L69.4071 15.124C69.5272 15.229 69.651 15.3415 69.7785 15.4616C69.9135 15.5816 70.0448 15.7054 70.1724 15.8329C71.0351 15.4578 71.7779 14.9927 72.4006 14.4375H70.3974V13.4922H71.6691C71.6016 13.3872 71.519 13.2671 71.4215 13.1321C71.324 12.9895 71.2227 12.8507 71.1177 12.7157C71.0126 12.5731 70.9076 12.4381 70.8026 12.3106C70.705 12.183 70.615 12.0742 70.5325 11.9842L71.219 11.399C71.3015 11.489 71.3953 11.5978 71.5003 11.7254C71.6053 11.8454 71.7104 11.9767 71.8154 12.1192C71.9279 12.2543 72.033 12.3931 72.1305 12.5356C72.2355 12.6707 72.3256 12.7945 72.4006 12.907L71.7254 13.4922H72.8395V11.2415L73.8635 11.2865V13.4922H74.8539L74.2349 12.9408C74.3249 12.8507 74.4262 12.7419 74.5388 12.6144C74.6513 12.4869 74.7638 12.3556 74.8764 12.2205C74.9889 12.078 75.0977 11.9392 75.2027 11.8041C75.3077 11.6691 75.3978 11.5491 75.4728 11.444L76.2043 11.9842C76.1293 12.0967 76.0392 12.2205 75.9342 12.3556C75.8367 12.4906 75.7316 12.6257 75.6191 12.7607C75.5141 12.8957 75.4053 13.027 75.2927 13.1546C75.1877 13.2821 75.0902 13.3947 75.0002 13.4922H76.5194V14.4375H74.3249C74.9926 15.0152 75.8854 15.5103 77.0033 15.923L76.6544 16.9245C76.0692 16.6844 75.5516 16.4294 75.1014 16.1593C74.6513 15.8892 74.2387 15.5816 73.8635 15.2365V16.4406H72.8395V15.2928C72.5394 15.5853 72.2055 15.8629 71.8379 16.1255C71.4778 16.3881 71.0539 16.6394 70.5662 16.8795L70.3637 16.4294L69.9023 16.9695ZM73.1883 16.5532C73.1508 16.6507 73.1133 16.7482 73.0758 16.8457C73.0383 16.9358 73.0008 17.0296 72.9633 17.1271H76.7557V18.1287H75.5178C75.3903 18.4287 75.2515 18.7026 75.1014 18.9502C74.9589 19.1902 74.7863 19.4153 74.5838 19.6254L76.6657 20.4919L76.2043 21.4034C75.7842 21.2084 75.3678 21.0171 74.9551 20.8295C74.55 20.6495 74.1411 20.4694 73.7285 20.2893C73.3159 20.5369 72.8057 20.7582 72.198 20.9533C71.5978 21.1484 70.8588 21.3397 69.9811 21.5272L69.6435 20.5257C70.3037 20.4056 70.8663 20.2893 71.3315 20.1768C71.8041 20.0568 72.2093 19.933 72.5469 19.8054C72.2318 19.6704 71.9167 19.5391 71.6016 19.4116C71.2865 19.284 70.9714 19.1565 70.6563 19.0289C70.7538 18.8864 70.8513 18.7401 70.9489 18.59C71.0464 18.44 71.1402 18.2862 71.2302 18.1287H70.0036V17.1271H71.8041C71.8792 16.977 71.9467 16.8345 72.0067 16.6995C72.0742 16.5569 72.1342 16.4219 72.1868 16.2943L73.1883 16.5532ZM72.4568 18.1287C72.4043 18.2187 72.3518 18.3087 72.2993 18.3987C72.2543 18.4888 72.2055 18.575 72.153 18.6576C72.3481 18.7326 72.5656 18.8189 72.8057 18.9164C73.0533 19.0064 73.3159 19.1077 73.5935 19.2202C73.766 19.0702 73.9123 18.9051 74.0323 18.7251C74.1599 18.545 74.2762 18.3462 74.3812 18.1287H72.4568Z" fill="#123871"/>
<path d="M51.0725 32.5597C51.3098 32.8701 51.5806 33.1682 51.8849 33.4543C52.1952 33.7403 52.5512 34.0293 52.9529 34.3214L52.3687 35.1977C51.6141 34.6196 50.9934 34.0111 50.5066 33.3721C50.251 33.6825 49.9619 33.9867 49.6394 34.2849C49.323 34.5831 48.9579 34.8873 48.5441 35.1977L47.9508 34.4127C48.4072 34.1023 48.8027 33.8042 49.1374 33.5182C49.4721 33.2261 49.7611 32.9218 50.0045 32.6054C49.6759 32.0212 49.4356 31.3914 49.2834 30.7159C49.2408 30.7828 49.1982 30.8467 49.1557 30.9076C49.1191 30.9684 49.0765 31.0323 49.0279 31.0993L48.4619 30.4421C48.4924 30.3995 48.5197 30.3569 48.5441 30.3143C48.5684 30.2717 48.5958 30.226 48.6262 30.1773H47.4852C47.327 30.3538 47.1627 30.5272 46.9923 30.6976H48.681V31.4552L47.4122 32.368V32.3863C47.7591 32.3437 48.0694 32.3041 48.3433 32.2676C48.6232 32.2311 48.8179 32.2068 48.9275 32.1946L48.9548 33.0344C48.8331 33.0465 48.6323 33.0709 48.3524 33.1074C48.0725 33.1439 47.7591 33.1835 47.4122 33.2261V34.148C47.4122 34.3305 47.397 34.4766 47.3666 34.5861C47.3422 34.7017 47.2936 34.793 47.2205 34.86C47.1475 34.933 47.0471 34.9847 46.9193 35.0151C46.7915 35.0456 46.6272 35.0699 46.4264 35.0881L45.8057 35.1429L45.541 34.294L46.0887 34.2393C46.1921 34.2271 46.2743 34.2149 46.3351 34.2027C46.4021 34.1906 46.4538 34.1723 46.4903 34.148C46.5268 34.1176 46.5512 34.075 46.5633 34.0202C46.5755 33.9654 46.5816 33.8894 46.5816 33.792V33.3265L44.8564 33.5547L44.7743 32.7058C44.8351 32.6997 44.9264 32.6906 45.0481 32.6784C45.1698 32.6662 45.3098 32.651 45.468 32.6327C45.6323 32.6145 45.8088 32.5932 45.9974 32.5689C46.186 32.5445 46.3808 32.5202 46.5816 32.4958V32.1398L47.467 31.4644H46.1434C45.7601 31.7869 45.3493 32.1064 44.9112 32.4228L44.4457 31.7291C45.1637 31.2727 45.8179 30.7554 46.4082 30.1773H44.7925V29.365H46.1891V28.5526H45.1303V27.8041H46.1891V26.8L46.9923 26.8365V27.8041H47.8686V28.37C47.9842 28.1875 48.0938 28.0019 48.1972 27.8132C48.3007 27.6185 48.398 27.4207 48.4893 27.2199L49.183 27.585C49.0309 27.9136 48.8696 28.224 48.6993 28.5161C48.5289 28.8082 48.3463 29.0911 48.1516 29.365H48.8727V29.7027C48.9822 29.4775 49.0887 29.2372 49.1922 28.9816C49.2956 28.726 49.3899 28.4704 49.4751 28.2148C49.5603 27.9593 49.6364 27.7098 49.7033 27.4664C49.7763 27.2229 49.8311 27.0008 49.8676 26.8L50.7348 26.8913C50.6252 27.3416 50.5066 27.7798 50.3788 28.2057H52.6973V29.0546H52.1131C52.0279 29.7788 51.9031 30.4238 51.7388 30.9897C51.5806 31.5496 51.3585 32.0729 51.0725 32.5597ZM46.9923 29.365H47.1566C47.2601 29.2311 47.3605 29.0972 47.4579 28.9633C47.5613 28.8295 47.6587 28.6925 47.75 28.5526H46.9923V29.365ZM49.8676 29.5749C49.9346 29.9948 50.0228 30.3842 50.1323 30.7433C50.2419 31.0962 50.3818 31.4309 50.5522 31.7473C50.7348 31.3761 50.8808 30.9745 50.9904 30.5425C51.106 30.1043 51.1973 29.6084 51.2642 29.0546H50.0867C50.0502 29.1398 50.0137 29.228 49.9772 29.3193C49.9467 29.4045 49.9102 29.4897 49.8676 29.5749ZM54.9279 30.1956H54.0334V28.3244H55.3569C55.2535 28.1357 55.1409 27.9471 55.0192 27.7585C54.8975 27.5637 54.7697 27.3629 54.6358 27.156L55.4391 26.7453C55.5851 26.9582 55.7372 27.1925 55.8955 27.4481C56.0598 27.6976 56.2028 27.9288 56.3245 28.1418L56.0415 28.3244H57.4928C57.3894 28.1114 57.2829 27.8923 57.1734 27.6672C57.0638 27.4359 56.9543 27.223 56.8448 27.0282L57.6298 26.6631C57.7454 26.8578 57.8732 27.0921 58.0131 27.366C58.1592 27.6398 58.2961 27.9045 58.4239 28.1601L58.15 28.3244H58.9442C59.1389 28.0323 59.3215 27.7524 59.4918 27.4846C59.6622 27.2169 59.8113 26.9704 59.9391 26.7453L60.788 27.1834C60.6785 27.3599 60.5568 27.5455 60.4229 27.7402C60.2951 27.9349 60.1643 28.1297 60.0304 28.3244H61.3904V30.1956H60.5142V29.1824H54.9279V30.1956ZM61.646 32.8244H58.3235V33.8924C58.3235 34.1236 58.3022 34.3062 58.2596 34.4401C58.217 34.58 58.144 34.6896 58.0405 34.7687C57.9431 34.8539 57.8123 34.9147 57.648 34.9512C57.4837 34.9877 57.2768 35.0182 57.0273 35.0425L56.3792 35.1064L56.0963 34.1754L56.8265 34.1206C56.9421 34.1145 57.0334 34.1054 57.1003 34.0932C57.1734 34.075 57.2281 34.0506 57.2646 34.0202C57.3012 33.9837 57.3255 33.935 57.3377 33.8741C57.3498 33.8072 57.3559 33.719 57.3559 33.6094V32.8244H53.7778V31.939H57.3559V31.5557C57.4168 31.5191 57.5202 31.4583 57.6663 31.3731C57.8184 31.2879 57.9736 31.2027 58.1318 31.1175C58.2961 31.0262 58.4482 30.9471 58.5882 30.8802C58.7281 30.8072 58.8255 30.7707 58.8803 30.7707H55.2474V29.9126H60.3864V30.7707C60.3073 30.7889 60.1764 30.8467 59.9939 30.9441C59.8174 31.0415 59.6227 31.151 59.4097 31.2727C59.2028 31.3944 58.9989 31.5161 58.7981 31.6378C58.5973 31.7595 58.4391 31.8538 58.3235 31.9208V31.939H61.646V32.8244ZM65.0542 31.5009C64.9872 31.4157 64.9051 31.3244 64.8077 31.2271C64.7164 31.1236 64.6251 31.0232 64.5339 30.9258V35.0973H63.7397V31.2362C63.6119 31.5709 63.472 31.8934 63.3199 32.2037C63.1738 32.5141 63.0278 32.794 62.8817 33.0435L62.334 32.3498C62.4436 32.1733 62.5592 31.9664 62.6809 31.7291C62.8026 31.4857 62.9243 31.2301 63.046 30.9623C63.1677 30.6946 63.2833 30.4177 63.3929 30.1317C63.5085 29.8457 63.6089 29.5688 63.6941 29.3011H62.7813V28.4522H63.7397V26.8639L64.5339 26.9004V28.4522H65.2915V29.3011H64.5339V30.1591L64.6525 30.0039C64.7499 30.0891 64.8503 30.1804 64.9537 30.2778C65.0633 30.3751 65.1698 30.4755 65.2732 30.579C65.973 30.2747 66.5755 29.8974 67.0805 29.4471H65.4558V28.6804H66.4872C66.4325 28.5952 66.3655 28.4978 66.2864 28.3883C66.2073 28.2727 66.1252 28.1601 66.04 28.0505C65.9548 27.9349 65.8696 27.8254 65.7844 27.7219C65.7053 27.6185 65.6323 27.5303 65.5653 27.4572L66.1221 26.9826C66.1891 27.0556 66.2651 27.1438 66.3503 27.2473C66.4355 27.3447 66.5207 27.4511 66.6059 27.5668C66.6972 27.6763 66.7824 27.7889 66.8615 27.9045C66.9467 28.014 67.0197 28.1144 67.0805 28.2057L66.5329 28.6804H67.4365V26.8548L68.2672 26.8913V28.6804H69.0704L68.5684 28.2331C68.6414 28.1601 68.7236 28.0718 68.8148 27.9684C68.9061 27.8649 68.9974 27.7585 69.0887 27.6489C69.18 27.5333 69.2682 27.4207 69.3534 27.3112C69.4386 27.2017 69.5116 27.1043 69.5725 27.0191L70.1658 27.4572C70.1049 27.5485 70.0319 27.6489 69.9467 27.7585C69.8676 27.868 69.7824 27.9775 69.6911 28.0871C69.6059 28.1966 69.5177 28.3031 69.4264 28.4065C69.3412 28.51 69.2621 28.6013 69.1891 28.6804H70.4214V29.4471H68.6414C69.183 29.9157 69.9072 30.3173 70.8139 30.652L70.5309 31.4644C70.0562 31.2696 69.6364 31.0627 69.2712 30.8437C68.9061 30.6246 68.5714 30.3751 68.2672 30.0952V31.0719H67.4365V30.1408C67.1931 30.3782 66.9223 30.6033 66.6242 30.8163C66.3321 31.0293 65.9882 31.2331 65.5927 31.4279L65.4284 31.0627L65.0542 31.5009ZM67.7195 31.1632C67.6891 31.2423 67.6586 31.3214 67.6282 31.4005C67.5978 31.4735 67.5674 31.5496 67.5369 31.6287H70.613V32.4411H69.609C69.5055 32.6845 69.3929 32.9066 69.2712 33.1074C69.1556 33.3021 69.0157 33.4847 68.8514 33.6551L70.54 34.3579L70.1658 35.0973C69.825 34.9391 69.4873 34.7839 69.1526 34.6318C68.824 34.4857 68.4923 34.3397 68.1576 34.1936C67.8229 34.3944 67.4092 34.5739 66.9162 34.7322C66.4294 34.8904 65.83 35.0456 65.1181 35.1977L64.8442 34.3853C65.3797 34.2879 65.8361 34.1936 66.2134 34.1023C66.5968 34.005 66.9254 33.9046 67.1992 33.8011C66.9436 33.6916 66.688 33.5851 66.4325 33.4816C66.1769 33.3782 65.9213 33.2747 65.6657 33.1713C65.7448 33.0557 65.8239 32.937 65.903 32.8153C65.9822 32.6936 66.0582 32.5689 66.1312 32.4411H65.1363V31.6287H66.5968C66.6576 31.507 66.7124 31.3914 66.7611 31.2818C66.8158 31.1662 66.8645 31.0567 66.9071 30.9532L67.7195 31.1632ZM67.1262 32.4411C67.0836 32.5141 67.041 32.5871 66.9984 32.6601C66.9619 32.7332 66.9223 32.8031 66.8797 32.8701C67.038 32.9309 67.2144 33.0009 67.4092 33.08C67.61 33.153 67.8229 33.2352 68.0481 33.3265C68.1881 33.2048 68.3067 33.0709 68.4041 32.9248C68.5075 32.7788 68.6019 32.6175 68.6871 32.4411H67.1262Z" fill="#3A5A8A"/>
<defs>
<linearGradient id="paint0_linear_674_33800" x1="81.2292" y1="-0.181216" x2="6.66198" y2="33.9336" gradientUnits="userSpaceOnUse">
<stop offset="0.5" stop-color="#809AF5"/>
<stop offset="0.5" stop-color="#3867E2"/>
</linearGradient>
</defs>
</svg>
