<svg width="115" height="53" viewBox="0 0 115 53" fill="none" xmlns="http://www.w3.org/2000/svg">
<path d="M37.9925 39.5544H12.3832C11.1782 39.5544 10.6853 42.0858 11.7406 42.6674C17.5551 45.8722 22.6667 50.2645 24.525 51.9372C24.9424 52.3129 25.5857 52.3022 25.9914 51.9139C27.7764 50.2055 32.6861 45.7588 38.6012 42.5257C39.6526 41.951 39.1907 39.5544 37.9925 39.5544Z" fill="#4573E7"/>
<rect width="114.557" height="45.4013" rx="22.7007" fill="url(#paint0_linear_674_33974)"/>
<rect x="4.86821" y="4.86823" width="104.821" height="35.6649" rx="17.8325" fill="#D6DFF5"/>
<path d="M36.6312 32.9316H17.8745C17.6484 32.9316 17.4316 32.8417 17.2717 32.6818C17.1119 32.5219 17.0221 32.3051 17.0221 32.079C17.0221 31.8529 17.1119 31.6361 17.2717 31.4762C17.4316 31.3163 17.6484 31.2265 17.8745 31.2264H18.7271V15.0275C18.7271 14.3492 18.9965 13.6986 19.4762 13.2189C19.9559 12.7393 20.6065 12.4698 21.2848 12.4698H27.3296C28.0079 12.4698 28.6585 12.7393 29.1381 13.2189C29.6178 13.6986 29.8873 14.3492 29.8873 15.0275V19.5035L33.9285 20.6716C34.4614 20.825 34.9299 21.1474 35.2636 21.5903C35.5973 22.0331 35.778 22.5725 35.7786 23.127V31.2264H36.6312C36.8572 31.2265 37.0741 31.3163 37.2339 31.4762C37.3938 31.6361 37.4836 31.8529 37.4836 32.079C37.4836 32.3051 37.3938 32.5219 37.2339 32.6818C37.0741 32.8417 36.8572 32.9316 36.6312 32.9316ZM29.8873 31.2264H34.0734V23.127C34.081 22.9367 34.0247 22.7494 33.9134 22.5949C33.8022 22.4404 33.6424 22.3276 33.4596 22.2744L29.8873 21.2428V24.2183H31.5924C31.8185 24.2183 32.0353 24.3081 32.1952 24.468C32.3551 24.6279 32.4449 24.8448 32.4449 25.0708C32.4449 25.2969 32.3551 25.5138 32.1952 25.6737C32.0353 25.8335 31.8185 25.9234 31.5924 25.9234H29.8873V27.3643H31.5924C31.8185 27.3643 32.0353 27.4541 32.1952 27.614C32.3551 27.7739 32.4449 27.9908 32.4449 28.2168C32.4449 28.4429 32.3551 28.6598 32.1952 28.8197C32.0353 28.9795 31.8185 29.0694 31.5924 29.0694H29.8873V31.2264ZM26.8692 31.2264H28.1821V15.0275C28.1821 14.8014 28.0923 14.5845 27.9324 14.4247C27.7725 14.2648 27.5557 14.1749 27.3296 14.1749H21.2848C21.0587 14.1749 20.8418 14.2648 20.6819 14.4247C20.5221 14.5845 20.4322 14.8014 20.4322 15.0275V31.2264H21.7537V27.8161C21.7537 27.59 21.8435 27.3732 22.0034 27.2133C22.1633 27.0534 22.3802 26.9636 22.6063 26.9636H26.0166C26.1286 26.9636 26.2394 26.9856 26.3429 27.0285C26.4463 27.0713 26.5403 27.1341 26.6195 27.2133C26.6986 27.2924 26.7614 27.3864 26.8043 27.4899C26.8471 27.5933 26.8692 27.7042 26.8692 27.8161V31.2264ZM23.4589 31.2264H25.164V28.6687H23.4589V31.2264ZM26.0166 24.8321H22.6063C22.3802 24.8321 22.1633 24.7423 22.0034 24.5824C21.8435 24.4225 21.7537 24.2057 21.7537 23.9795C21.7537 23.7534 21.8435 23.5366 22.0034 23.3767C22.1633 23.2168 22.3802 23.127 22.6063 23.127H26.0166C26.2427 23.127 26.4596 23.2168 26.6195 23.3767C26.7793 23.5366 26.8692 23.7534 26.8692 23.9795C26.8692 24.2057 26.7793 24.4225 26.6195 24.5824C26.4596 24.7423 26.2427 24.8321 26.0166 24.8321ZM26.0166 21.4218H22.6063C22.3802 21.4218 22.1634 21.332 22.0035 21.1721C21.8437 21.0122 21.7538 20.7953 21.7538 20.5693C21.7538 20.3432 21.8437 20.1263 22.0035 19.9664C22.1634 19.8065 22.3802 19.7167 22.6063 19.7167H26.0166C26.2427 19.7167 26.4595 19.8065 26.6194 19.9664C26.7792 20.1263 26.869 20.3432 26.869 20.5693C26.869 20.7953 26.7792 21.0122 26.6194 21.1721C26.4595 21.332 26.2427 21.4218 26.0166 21.4218ZM26.0166 18.0115H22.6063C22.3802 18.0115 22.1634 17.9217 22.0035 17.7618C21.8437 17.6019 21.7538 17.385 21.7538 17.159C21.7538 16.9329 21.8437 16.716 22.0035 16.5561C22.1634 16.3962 22.3802 16.3064 22.6063 16.3064H26.0166C26.2427 16.3064 26.4595 16.3962 26.6194 16.5561C26.7792 16.716 26.869 16.9329 26.869 17.159C26.869 17.385 26.7792 17.6019 26.6194 17.7618C26.4595 17.9217 26.2427 18.0115 26.0166 18.0115Z" fill="#2566E5"/>
<path d="M49.7275 16.6769H53.3061V21.3584H52.147V20.942H47.4205V21.3809H46.2614V16.8907C46.1113 16.9658 45.9538 17.0408 45.7887 17.1158C45.6312 17.1908 45.4624 17.2696 45.2823 17.3521L44.7984 16.3956C45.4136 16.1555 45.9088 15.9079 46.2839 15.6528C46.659 15.3903 46.9328 15.0677 47.1054 14.685H45.0347V13.796H45.8788L45.1698 13.2558C45.4549 12.8957 45.7062 12.5056 45.9238 12.0855C46.1488 11.6653 46.3214 11.2902 46.4414 10.9601L47.3867 11.2977C47.3492 11.4102 47.3042 11.5303 47.2517 11.6578C47.1992 11.7779 47.1429 11.9017 47.0829 12.0292H49.9075V12.9182H48.3433C48.3358 13.0608 48.332 13.1996 48.332 13.3346C48.332 13.4621 48.3283 13.5672 48.3208 13.6497V13.796H50.1326V14.685H48.2082C48.2082 14.7 48.2045 14.7113 48.197 14.7188C48.362 14.8013 48.5383 14.8913 48.7259 14.9889C48.9135 15.0864 49.0935 15.1877 49.2661 15.2927C49.4461 15.3903 49.6112 15.4878 49.7612 15.5853C49.9188 15.6828 50.0501 15.7691 50.1551 15.8441L49.7275 16.6769ZM54.1389 11.9392V16.0805H50.3689V11.9392H54.1389ZM47.308 13.796V13.6947C47.3155 13.5972 47.3192 13.4809 47.3192 13.3459C47.3192 13.2033 47.3192 13.0608 47.3192 12.9182H46.6102C46.5202 13.0683 46.4264 13.2183 46.3289 13.3684C46.2314 13.5109 46.1301 13.6535 46.025 13.796H47.308ZM53.1148 12.9295H51.393V15.0677H53.1148V12.9295ZM47.8369 15.6078C47.7018 15.8179 47.5368 16.0092 47.3417 16.1818C47.1467 16.3468 46.9103 16.5119 46.6327 16.6769H49.4911C49.2511 16.4969 48.981 16.313 48.6809 16.1255C48.3808 15.9304 48.0995 15.7579 47.8369 15.6078ZM52.147 17.5997H47.4205V18.3537H52.147V17.5997ZM52.147 20.0192V19.254H47.4205V20.0192H52.147ZM57.6429 14.4262C57.2603 14.8163 56.8177 15.2252 56.315 15.6528L55.8199 14.6625C56.4126 14.1374 56.9527 13.5709 57.4404 12.9632C57.9355 12.348 58.3669 11.7216 58.7345 11.0839L59.7024 11.5228C59.5448 11.8154 59.3873 12.0892 59.2297 12.3443C59.0797 12.5994 58.9221 12.8432 58.7571 13.0758V17.0933H57.6429V14.4262ZM58.7796 14.5162C59.1622 14.4037 59.526 14.2874 59.8712 14.1674C60.2163 14.0473 60.5501 13.9235 60.8727 13.796V11.2302L61.9981 11.2752V13.3008C62.4857 13.0683 62.9509 12.8207 63.3935 12.5581C63.8362 12.2955 64.2751 12.0142 64.7102 11.7141L65.2504 12.6932C64.7402 13.0533 64.2188 13.3834 63.6861 13.6835C63.1534 13.9761 62.5908 14.2536 61.9981 14.5162V15.2027C61.9981 15.4578 62.0468 15.6228 62.1444 15.6979C62.2419 15.7729 62.3995 15.8254 62.617 15.8554C63.0147 15.9004 63.401 15.9004 63.7761 15.8554C63.9187 15.8404 64.0312 15.8216 64.1137 15.7991C64.2038 15.7691 64.2751 15.7354 64.3276 15.6979C64.3801 15.6603 64.4213 15.6116 64.4514 15.5516C64.4814 15.484 64.5076 15.4015 64.5301 15.304C64.5601 15.1764 64.5789 15.0602 64.5864 14.9551C64.6014 14.8426 64.6164 14.7188 64.6314 14.5837L65.6442 14.9439C65.6292 15.0714 65.6105 15.1952 65.588 15.3152C65.573 15.4353 65.5505 15.5553 65.5204 15.6753C65.4604 15.9154 65.4004 16.1105 65.3404 16.2605C65.2804 16.4106 65.1941 16.5344 65.0816 16.6319C64.9765 16.7219 64.8377 16.7894 64.6652 16.8345C64.4926 16.872 64.2713 16.902 64.0012 16.9245C63.7011 16.947 63.3898 16.9583 63.0672 16.9583C62.7521 16.9583 62.4445 16.947 62.1444 16.9245C61.9268 16.9095 61.7392 16.8795 61.5817 16.8345C61.4241 16.7894 61.2929 16.7182 61.1878 16.6206C61.0828 16.5156 61.004 16.3806 60.9515 16.2155C60.899 16.043 60.8727 15.8254 60.8727 15.5628V14.9776C60.5951 15.0827 60.3138 15.1877 60.0287 15.2927C59.7436 15.3903 59.4435 15.4878 59.1284 15.5853L58.7796 14.5162ZM65.7793 19.0852H61.4467V21.4259H60.2988V19.0852H55.9549V17.9823H60.2988V16.8682L61.4467 16.9132V17.9823H65.7793V19.0852ZM75.4165 18.5338V21.3471H74.325V18.6463L70.7013 19.0177L70.6225 17.9823L70.5212 18.0949C70.4087 17.9448 70.2737 17.7723 70.1161 17.5772C69.9661 17.3821 69.816 17.1983 69.666 17.0258V21.3809H68.6644V17.2508C68.4543 17.6785 68.233 18.0874 68.0004 18.4775C67.7754 18.8601 67.5541 19.2052 67.3365 19.5128L66.605 18.68C66.9426 18.2149 67.284 17.6897 67.6291 17.1045C67.9742 16.5194 68.2743 15.9267 68.5294 15.3265H67.1227V14.2574H68.6644V13.0308C68.4093 13.0758 68.1618 13.117 67.9217 13.1545C67.6816 13.1921 67.4603 13.2258 67.2577 13.2558L67.1564 12.2205C67.4265 12.1905 67.7266 12.1492 68.0567 12.0967C68.3868 12.0367 68.7207 11.9729 69.0583 11.9054C69.4034 11.8379 69.741 11.7666 70.0711 11.6916C70.4012 11.6091 70.7013 11.5303 70.9714 11.4553L71.174 12.4793C70.9564 12.5394 70.7201 12.5994 70.465 12.6594C70.2099 12.7194 69.9436 12.7794 69.666 12.8394V14.2574H71.0727V15.3265H69.666V16.1255L69.9361 15.8779C70.0186 15.9604 70.1124 16.0617 70.2174 16.1818C70.3299 16.3018 70.4425 16.4293 70.555 16.5644C70.675 16.6994 70.7913 16.8345 70.9039 16.9695C71.0239 17.1045 71.1289 17.2321 71.219 17.3521L70.7013 17.9036L74.325 17.5322V11.2189L75.4165 11.2639V17.4084L76.857 17.2621L76.9245 18.3762L75.4165 18.5338ZM73.3571 14.5837C73.2296 14.4487 73.0833 14.3024 72.9183 14.1449C72.7532 13.9798 72.5844 13.8185 72.4118 13.661C72.2393 13.4959 72.0705 13.3421 71.9054 13.1996C71.7404 13.057 71.5978 12.9407 71.4778 12.8507L72.153 12.0404C72.2881 12.1455 72.4381 12.2693 72.6032 12.4118C72.7757 12.5544 72.9483 12.7044 73.1208 12.862C73.2934 13.012 73.4584 13.1658 73.616 13.3234C73.781 13.4734 73.9273 13.6084 74.0549 13.7285L73.3571 14.5837ZM71.8154 14.7075C71.9505 14.8126 72.1005 14.9326 72.2656 15.0677C72.4381 15.2027 72.6107 15.3452 72.7832 15.4953C72.9558 15.6453 73.1283 15.7954 73.3009 15.9454C73.4734 16.0955 73.6272 16.238 73.7623 16.3731L73.0533 17.2621C72.9183 17.1346 72.7645 16.992 72.5919 16.8345C72.4269 16.6769 72.2543 16.5194 72.0742 16.3618C71.9017 16.2043 71.7329 16.058 71.5678 15.9229C71.4028 15.7804 71.2602 15.6603 71.1402 15.5628L71.8154 14.7075ZM87.6084 21.6847C86.9482 21.3772 86.3592 21.0771 85.8416 20.7845C85.3314 20.4919 84.87 20.1693 84.4574 19.8167C84.0523 20.1168 83.5871 20.4056 83.0619 20.6832C82.5443 20.9683 81.9366 21.2684 81.2389 21.5835L80.6762 20.4018C81.2839 20.1618 81.8278 19.9254 82.308 19.6929C82.7881 19.4603 83.2195 19.2165 83.6021 18.9614C83.0769 18.3462 82.6231 17.5734 82.2404 16.6432L83.1857 16.1255H81.779V15.0451H83.951V13.6835H81.7678V12.6144H83.951V11.1402L85.0876 11.1852V12.6144H87.6534V13.6835H85.0876V15.0451H87.102V16.1592C86.8619 16.7669 86.6031 17.3071 86.3255 17.7798C86.0554 18.2524 85.7215 18.6876 85.3239 19.0852C85.669 19.3478 86.0591 19.5916 86.4943 19.8167C86.9294 20.0342 87.4358 20.2405 88.0135 20.4356L87.6084 21.6847ZM81.7115 16.6094C81.5615 16.6694 81.3889 16.7407 81.1938 16.8232C80.9988 16.8982 80.7887 16.977 80.5636 17.0595V20.1205C80.5636 20.3606 80.5411 20.5519 80.4961 20.6944C80.4586 20.837 80.3873 20.9495 80.2823 21.032C80.1848 21.1221 80.0535 21.1858 79.8884 21.2234C79.7309 21.2609 79.5283 21.2946 79.2807 21.3246L78.7856 21.3809L78.4367 20.1993L78.9431 20.1543C79.0407 20.1468 79.1232 20.1355 79.1907 20.1205C79.2582 20.1055 79.307 20.083 79.337 20.053C79.3745 20.0155 79.4008 19.9667 79.4158 19.9067C79.4308 19.8392 79.4383 19.7529 79.4383 19.6479V17.4647C79.1682 17.5622 78.9131 17.6522 78.673 17.7347C78.433 17.8098 78.2342 17.8698 78.0766 17.9148L77.7503 16.6994C77.9453 16.6394 78.1929 16.5644 78.493 16.4743C78.7931 16.3768 79.1082 16.2718 79.4383 16.1592V14.2461H78.2567V13.0758H79.4383V11.2077L80.5636 11.2527V13.0758H81.5315V14.2461H80.5636V15.7541C80.7137 15.6941 80.8562 15.6378 80.9913 15.5853C81.1338 15.5328 81.2614 15.484 81.3739 15.439L81.7115 16.6094ZM83.2082 16.1255C83.3883 16.5531 83.5759 16.947 83.7709 17.3071C83.9735 17.6597 84.2061 17.9861 84.4686 18.2862C84.8062 17.9711 85.0913 17.641 85.3239 17.2959C85.5565 16.9432 85.7478 16.5531 85.8978 16.1255H83.2082ZM92.0578 16.9695C91.9752 16.8645 91.874 16.7519 91.7539 16.6319C91.6414 16.5044 91.5288 16.3806 91.4163 16.2605V21.4034H90.4372V16.6432C90.2797 17.0558 90.1071 17.4534 89.9196 17.836C89.7395 18.2187 89.5595 18.5638 89.3794 18.8714L88.7042 18.0161C88.8392 17.7985 88.9818 17.5434 89.1318 17.2508C89.2819 16.9507 89.4319 16.6356 89.582 16.3055C89.732 15.9754 89.8746 15.6341 90.0096 15.2815C90.1522 14.9289 90.2759 14.5875 90.381 14.2574H89.2556V13.2108H90.4372V11.2527L91.4163 11.2977V13.2108H92.3504V14.2574H91.4163V15.3152L91.5626 15.1239C91.6826 15.229 91.8064 15.3415 91.934 15.4615C92.069 15.5816 92.2003 15.7054 92.3278 15.8329C93.1906 15.4578 93.9334 14.9926 94.5561 14.4375H92.5529V13.4922H93.8246C93.757 13.3871 93.6745 13.2671 93.577 13.132C93.4795 12.9895 93.3782 12.8507 93.2731 12.7157C93.1681 12.5731 93.0631 12.4381 92.958 12.3105C92.8605 12.183 92.7705 12.0742 92.688 11.9842L93.3744 11.399C93.457 11.489 93.5507 11.5978 93.6558 11.7253C93.7608 11.8454 93.8658 11.9767 93.9709 12.1192C94.0834 12.2543 94.1884 12.3931 94.286 12.5356C94.391 12.6706 94.481 12.7944 94.5561 12.907L93.8808 13.4922H94.9949V11.2414L96.019 11.2865V13.4922H97.0093L96.3904 12.9407C96.4804 12.8507 96.5817 12.7419 96.6942 12.6144C96.8068 12.4868 96.9193 12.3555 97.0318 12.2205C97.1444 12.078 97.2532 11.9392 97.3582 11.8041C97.4632 11.6691 97.5532 11.549 97.6283 11.444L98.3598 11.9842C98.2847 12.0967 98.1947 12.2205 98.0897 12.3555C97.9921 12.4906 97.8871 12.6256 97.7746 12.7607C97.6695 12.8957 97.5608 13.027 97.4482 13.1545C97.3432 13.2821 97.2457 13.3946 97.1556 13.4922H98.6749V14.4375H96.4804C97.1481 15.0151 98.0409 15.5103 99.1588 15.9229L98.8099 16.9245C98.2247 16.6844 97.707 16.4293 97.2569 16.1592C96.8068 15.8892 96.3941 15.5816 96.019 15.2365V16.4406H94.9949V15.2927C94.6948 15.5853 94.361 15.8629 93.9934 16.1255C93.6333 16.3881 93.2094 16.6394 92.7217 16.8795L92.5192 16.4293L92.0578 16.9695ZM95.3438 16.5531C95.3063 16.6507 95.2688 16.7482 95.2313 16.8457C95.1938 16.9357 95.1562 17.0295 95.1187 17.1271H98.9112V18.1286H97.6733C97.5457 18.4287 97.407 18.7026 97.2569 18.9501C97.1144 19.1902 96.9418 19.4153 96.7392 19.6253L98.8212 20.4919L98.3598 21.4034C97.9396 21.2083 97.5232 21.017 97.1106 20.8295C96.7055 20.6494 96.2966 20.4694 95.884 20.2893C95.4713 20.5369 94.9612 20.7582 94.3535 20.9533C93.7533 21.1483 93.0143 21.3396 92.1365 21.5272L91.7989 20.5256C92.4591 20.4056 93.0218 20.2893 93.487 20.1768C93.9596 20.0567 94.3647 19.9329 94.7023 19.8054C94.3872 19.6704 94.0721 19.5391 93.757 19.4115C93.4419 19.284 93.1268 19.1564 92.8117 19.0289C92.9093 18.8864 93.0068 18.7401 93.1043 18.59C93.2019 18.44 93.2957 18.2862 93.3857 18.1286H92.159V17.1271H93.9596C94.0346 16.977 94.1022 16.8345 94.1622 16.6994C94.2297 16.5569 94.2897 16.4218 94.3422 16.2943L95.3438 16.5531ZM94.6123 18.1286C94.5598 18.2187 94.5073 18.3087 94.4548 18.3987C94.4098 18.4887 94.361 18.575 94.3085 18.6575C94.5035 18.7326 94.7211 18.8188 94.9612 18.9164C95.2088 19.0064 95.4713 19.1077 95.7489 19.2202C95.9215 19.0702 96.0678 18.9051 96.1878 18.7251C96.3154 18.545 96.4316 18.3462 96.5367 18.1286H94.6123Z" fill="#123871"/>
<path d="M51.0725 32.5597C51.3098 32.87 51.5806 33.1682 51.8849 33.4542C52.1953 33.7402 52.5512 34.0293 52.9529 34.3214L52.3687 35.1977C51.6141 34.6196 50.9934 34.011 50.5066 33.3721C50.251 33.6824 49.962 33.9867 49.6394 34.2849C49.323 34.583 48.9579 34.8873 48.5441 35.1977L47.9508 34.4127C48.4072 34.1023 48.8027 33.8041 49.1374 33.5181C49.4721 33.226 49.7611 32.9218 50.0046 32.6053C49.676 32.0211 49.4356 31.3913 49.2835 30.7159C49.2409 30.7828 49.1983 30.8467 49.1557 30.9075C49.1192 30.9684 49.0766 31.0323 49.0279 31.0992L48.4619 30.442C48.4924 30.3994 48.5198 30.3568 48.5441 30.3142C48.5684 30.2716 48.5958 30.226 48.6262 30.1773H47.4853C47.327 30.3538 47.1627 30.5272 46.9924 30.6976H48.681V31.4552L47.4122 32.368V32.3863C47.7591 32.3437 48.0694 32.3041 48.3433 32.2676C48.6232 32.2311 48.8179 32.2067 48.9275 32.1946L48.9549 33.0343C48.8331 33.0465 48.6323 33.0709 48.3524 33.1074C48.0725 33.1439 47.7591 33.1834 47.4122 33.226V34.1479C47.4122 34.3305 47.397 34.4766 47.3666 34.5861C47.3423 34.7017 47.2936 34.793 47.2206 34.8599C47.1475 34.9329 47.0471 34.9847 46.9193 35.0151C46.7915 35.0455 46.6272 35.0699 46.4264 35.0881L45.8057 35.1429L45.541 34.294L46.0887 34.2392C46.1921 34.2271 46.2743 34.2149 46.3351 34.2027C46.4021 34.1905 46.4538 34.1723 46.4903 34.1479C46.5268 34.1175 46.5512 34.0749 46.5633 34.0202C46.5755 33.9654 46.5816 33.8893 46.5816 33.792V33.3264L44.8564 33.5546L44.7743 32.7057C44.8351 32.6997 44.9264 32.6905 45.0481 32.6784C45.1698 32.6662 45.3098 32.651 45.468 32.6327C45.6323 32.6145 45.8088 32.5932 45.9974 32.5688C46.1861 32.5445 46.3808 32.5201 46.5816 32.4958V32.1398L47.467 31.4643H46.1435C45.7601 31.7869 45.3493 32.1063 44.9112 32.4228L44.4457 31.7291C45.1637 31.2727 45.8179 30.7554 46.4082 30.1773H44.7925V29.3649H46.1891V28.5525H45.1303V27.8041H46.1891V26.8L46.9924 26.8365V27.8041H47.8686V28.37C47.9843 28.1874 48.0938 28.0018 48.1972 27.8132C48.3007 27.6185 48.3981 27.4207 48.4893 27.2199L49.1831 27.585C49.0309 27.9136 48.8697 28.2239 48.6993 28.516C48.5289 28.8081 48.3463 29.0911 48.1516 29.3649H48.8727V29.7027C48.9822 29.4775 49.0887 29.2371 49.1922 28.9816C49.2956 28.726 49.3899 28.4704 49.4751 28.2148C49.5603 27.9592 49.6364 27.7097 49.7033 27.4663C49.7764 27.2229 49.8311 27.0008 49.8676 26.8L50.7348 26.8913C50.6253 27.3416 50.5066 27.7797 50.3788 28.2057H52.6973V29.0546H52.1131C52.0279 29.7787 51.9032 30.4238 51.7389 30.9897C51.5806 31.5495 51.3585 32.0729 51.0725 32.5597ZM46.9924 29.3649H47.1567C47.2601 29.2311 47.3605 29.0972 47.4579 28.9633C47.5613 28.8294 47.6587 28.6925 47.75 28.5525H46.9924V29.3649ZM49.8676 29.5749C49.9346 29.9948 50.0228 30.3842 50.1324 30.7432C50.2419 31.0962 50.3818 31.4309 50.5522 31.7473C50.7348 31.3761 50.8808 30.9745 50.9904 30.5424C51.106 30.1043 51.1973 29.6083 51.2642 29.0546H50.0867C50.0502 29.1398 50.0137 29.228 49.9772 29.3193C49.9468 29.4045 49.9102 29.4897 49.8676 29.5749ZM54.9279 30.1956H54.0334V28.3244H55.3569C55.2535 28.1357 55.1409 27.9471 55.0192 27.7584C54.8975 27.5637 54.7697 27.3629 54.6358 27.156L55.4391 26.7452C55.5851 26.9582 55.7373 27.1925 55.8955 27.4481C56.0598 27.6976 56.2028 27.9288 56.3245 28.1418L56.0415 28.3244H57.4929C57.3894 28.1114 57.2829 27.8923 57.1734 27.6671C57.0638 27.4359 56.9543 27.2229 56.8448 27.0282L57.6298 26.6631C57.7454 26.8578 57.8732 27.0921 58.0131 27.3659C58.1592 27.6398 58.2961 27.9045 58.4239 28.16L58.1501 28.3244H58.9442C59.1389 28.0323 59.3215 27.7523 59.4919 27.4846C59.6622 27.2168 59.8113 26.9704 59.9391 26.7452L60.788 27.1834C60.6785 27.3598 60.5568 27.5454 60.4229 27.7402C60.2951 27.9349 60.1643 28.1296 60.0304 28.3244H61.3905V30.1956H60.5142V29.1824H54.9279V30.1956ZM61.646 32.8244H58.3235V33.8924C58.3235 34.1236 58.3022 34.3062 58.2596 34.44C58.217 34.58 58.144 34.6895 58.0405 34.7686C57.9432 34.8538 57.8123 34.9147 57.648 34.9512C57.4837 34.9877 57.2768 35.0181 57.0273 35.0425L56.3793 35.1064L56.0963 34.1753L56.8265 34.1206C56.9421 34.1145 57.0334 34.1053 57.1004 34.0932C57.1734 34.0749 57.2281 34.0506 57.2647 34.0202C57.3012 33.9836 57.3255 33.935 57.3377 33.8741C57.3499 33.8072 57.3559 33.7189 57.3559 33.6094V32.8244H53.7778V31.939H57.3559V31.5556C57.4168 31.5191 57.5202 31.4583 57.6663 31.3731C57.8184 31.2879 57.9736 31.2027 58.1318 31.1175C58.2961 31.0262 58.4482 30.9471 58.5882 30.8802C58.7282 30.8071 58.8255 30.7706 58.8803 30.7706H55.2474V29.9126H60.3864V30.7706C60.3073 30.7889 60.1765 30.8467 59.9939 30.9441C59.8174 31.0414 59.6227 31.151 59.4097 31.2727C59.2028 31.3944 58.999 31.5161 58.7981 31.6378C58.5973 31.7595 58.4391 31.8538 58.3235 31.9207V31.939H61.646V32.8244ZM65.0542 31.5009C64.9872 31.4157 64.9051 31.3244 64.8077 31.227C64.7164 31.1236 64.6252 31.0232 64.5339 30.9258V35.0972H63.7398V31.2361C63.612 31.5708 63.472 31.8934 63.3199 32.2037C63.1738 32.5141 63.0278 32.794 62.8817 33.0435L62.3341 32.3498C62.4436 32.1733 62.5592 31.9664 62.6809 31.7291C62.8026 31.4856 62.9243 31.2301 63.046 30.9623C63.1677 30.6946 63.2834 30.4177 63.3929 30.1317C63.5085 29.8457 63.6089 29.5688 63.6941 29.301H62.7813V28.4521H63.7398V26.8639L64.5339 26.9004V28.4521H65.2915V29.301H64.5339V30.1591L64.6525 30.0039C64.7499 30.0891 64.8503 30.1804 64.9538 30.2777C65.0633 30.3751 65.1698 30.4755 65.2732 30.5789C65.973 30.2747 66.5755 29.8974 67.0806 29.4471H65.4558V28.6803H66.4872C66.4325 28.5951 66.3655 28.4978 66.2864 28.3882C66.2073 28.2726 66.1252 28.16 66.04 28.0505C65.9548 27.9349 65.8696 27.8254 65.7844 27.7219C65.7053 27.6185 65.6323 27.5302 65.5653 27.4572L66.1221 26.9826C66.1891 27.0556 66.2651 27.1438 66.3503 27.2473C66.4355 27.3446 66.5207 27.4511 66.6059 27.5667C66.6972 27.6763 66.7824 27.7888 66.8615 27.9045C66.9467 28.014 67.0197 28.1144 67.0806 28.2057L66.5329 28.6803H67.4365V26.8548L68.2672 26.8913V28.6803H69.0704L68.5684 28.2331C68.6414 28.16 68.7236 28.0718 68.8149 27.9684C68.9061 27.8649 68.9974 27.7584 69.0887 27.6489C69.18 27.5333 69.2682 27.4207 69.3534 27.3112C69.4386 27.2016 69.5116 27.1043 69.5725 27.0191L70.1658 27.4572C70.1049 27.5485 70.0319 27.6489 69.9467 27.7584C69.8676 27.868 69.7824 27.9775 69.6911 28.087C69.6059 28.1966 69.5177 28.3031 69.4264 28.4065C69.3412 28.51 69.2621 28.6012 69.1891 28.6803H70.4214V29.4471H68.6414C69.183 29.9156 69.9072 30.3173 70.8139 30.652L70.5309 31.4643C70.0563 31.2696 69.6364 31.0627 69.2713 30.8436C68.9061 30.6246 68.5715 30.3751 68.2672 30.0952V31.0718H67.4365V30.1408C67.1931 30.3781 66.9223 30.6033 66.6242 30.8163C66.3321 31.0292 65.9883 31.2331 65.5927 31.4278L65.4284 31.0627L65.0542 31.5009ZM67.7195 31.1631C67.6891 31.2422 67.6587 31.3213 67.6282 31.4005C67.5978 31.4735 67.5674 31.5495 67.537 31.6286H70.6131V32.441H69.609C69.5055 32.6844 69.393 32.9066 69.2713 33.1074C69.1556 33.3021 69.0157 33.4847 68.8514 33.655L70.54 34.3579L70.1658 35.0972C69.825 34.939 69.4873 34.7839 69.1526 34.6317C68.824 34.4857 68.4923 34.3396 68.1577 34.1936C67.823 34.3944 67.4092 34.5739 66.9163 34.7321C66.4294 34.8903 65.83 35.0455 65.1181 35.1977L64.8442 34.3853C65.3797 34.2879 65.8361 34.1936 66.2134 34.1023C66.5968 34.0049 66.9254 33.9045 67.1992 33.8011C66.9436 33.6916 66.6881 33.5851 66.4325 33.4816C66.1769 33.3782 65.9213 33.2747 65.6657 33.1713C65.7448 33.0556 65.824 32.937 65.9031 32.8153C65.9822 32.6936 66.0582 32.5688 66.1313 32.441H65.1363V31.6286H66.5968C66.6576 31.5069 66.7124 31.3913 66.7611 31.2818C66.8159 31.1662 66.8645 31.0566 66.9071 30.9532L67.7195 31.1631ZM67.1262 32.441C67.0836 32.5141 67.041 32.5871 66.9984 32.6601C66.9619 32.7331 66.9223 32.8031 66.8797 32.87C67.038 32.9309 67.2144 33.0009 67.4092 33.08C67.61 33.153 67.823 33.2352 68.0481 33.3264C68.1881 33.2047 68.3067 33.0709 68.4041 32.9248C68.5076 32.7788 68.6019 32.6175 68.6871 32.441H67.1262Z" fill="#3A5A8A"/>
<defs>
<linearGradient id="paint0_linear_674_33974" x1="100.537" y1="-0.181216" x2="16.0255" y2="47.6731" gradientUnits="userSpaceOnUse">
<stop offset="0.5" stop-color="#809AF5"/>
<stop offset="0.5" stop-color="#3867E2"/>
</linearGradient>
</defs>
</svg>
