<svg width="107" height="63" viewBox="0 0 107 63" fill="none" xmlns="http://www.w3.org/2000/svg">
<path d="M43.7327 49H18.1234C16.9185 49 16.4255 51.5313 17.4808 52.1129C23.2953 55.3178 28.407 59.71 30.2653 61.3828C30.6827 61.7585 31.3259 61.7478 31.7316 61.3595C33.5166 59.651 38.4263 55.2043 44.3415 51.9712C45.3929 51.3966 44.9309 49 43.7327 49Z" fill="#4573E7"/>
<rect width="106.489" height="53.6492" rx="26.8246" fill="url(#paint0_linear_674_34006)"/>
<rect x="4.86821" y="4.86819" width="96.7521" height="43.9128" rx="21.9564" fill="#D6DFF5"/>
<path fill-rule="evenodd" clip-rule="evenodd" d="M40.2486 26.7551C40.4134 26.8568 40.6032 26.9106 40.7969 26.9105C41.1487 26.9105 41.4913 26.7336 41.6897 26.4124C42.4609 25.1605 42.868 23.7204 42.868 22.2481C42.868 17.8654 39.3025 14.2999 34.9208 14.2999C32.0294 14.2999 29.365 15.875 27.9658 18.4105C27.6855 18.9168 27.8697 19.554 28.377 19.8332C28.8843 20.113 29.5205 19.9289 29.7997 19.4221C30.8296 17.555 32.7924 16.3946 34.9208 16.3946C38.1478 16.3946 40.7733 19.0206 40.7733 22.2481C40.7733 23.3323 40.4736 24.3924 39.906 25.314C39.6032 25.8064 39.7566 26.4518 40.2486 26.7551ZM41.0088 31.7774C41.2154 32.0321 41.5172 32.164 41.822 32.164H41.822C42.0625 32.1643 42.2957 32.0811 42.4817 31.9287C42.9307 31.5637 42.9982 30.9039 42.6331 30.4559L37.8167 24.5375C37.7196 24.4182 37.5974 24.3218 37.4588 24.2551C37.3202 24.1884 37.1686 24.153 37.0148 24.1514H37.0046C36.8523 24.1514 36.7019 24.1847 36.5637 24.2488C36.4256 24.3129 36.3031 24.4064 36.2048 24.5227L33.5158 27.7025L26.9228 18.7557C26.7173 18.4759 26.3859 18.322 26.0371 18.3307C25.8658 18.3378 25.6988 18.3868 25.5508 18.4733C25.4028 18.5599 25.2783 18.6814 25.1882 18.8273L18.0245 30.4467C17.7207 30.9388 17.8731 31.5841 18.3661 31.8879C18.8591 32.1907 19.5035 32.0382 19.8072 31.5452L26.1578 21.2472L32.6168 30.0121C32.7104 30.1396 32.8318 30.2442 32.9718 30.3179C33.1118 30.3916 33.2667 30.4325 33.4248 30.4375C33.7306 30.4621 34.0528 30.3117 34.2594 30.0673L36.9892 26.8388L41.0088 31.7774ZM39.7948 34.1124C40.3736 34.1124 40.8421 34.5808 40.8421 35.1598L40.8421 35.1598C40.8421 35.7387 40.3736 36.2072 39.7947 36.2072H20.9425C20.3647 36.2072 19.8952 35.7387 19.8952 35.1598C19.8952 34.5808 20.3646 34.1124 20.9425 34.1124H39.7948ZM36.6527 37.2545C37.2316 37.2545 37.7001 37.7229 37.7001 38.3018C37.7001 38.8807 37.2316 39.3492 36.6527 39.3492H24.0846C23.5067 39.3492 23.0372 38.8807 23.0372 38.3018C23.0372 37.7229 23.5067 37.2545 24.0846 37.2545H36.6527Z" fill="#5578F6"/>
<path d="M61.8793 22.1132C61.862 22.2952 61.8447 22.4902 61.8273 22.6982C61.8187 22.9062 61.7927 23.1229 61.7493 23.3482C61.6973 23.6689 61.628 23.9289 61.5413 24.1282C61.4633 24.3362 61.3507 24.5009 61.2033 24.6222C61.0647 24.7435 60.8827 24.8302 60.6573 24.8822C60.432 24.9342 60.146 24.9645 59.7993 24.9732C59.34 24.9905 58.8763 24.9905 58.4083 24.9732C58.105 24.9645 57.8493 24.9342 57.6413 24.8822C57.4333 24.8302 57.2643 24.7435 57.1343 24.6222C57.0043 24.5009 56.909 24.3319 56.8483 24.1152C56.7963 23.9072 56.7703 23.6385 56.7703 23.3092V19.8772H55.1193C55.1193 19.9119 55.1193 19.9465 55.1193 19.9812C55.1193 20.0159 55.115 20.0462 55.1063 20.0722C55.063 20.7655 54.9633 21.3679 54.8073 21.8792C54.6513 22.3819 54.4173 22.8369 54.1053 23.2442C53.802 23.6429 53.412 24.0155 52.9353 24.3622C52.4587 24.7089 51.878 25.0642 51.1933 25.4282L50.3613 24.1152C50.9853 23.8379 51.5053 23.5735 51.9213 23.3222C52.3373 23.0622 52.6753 22.7805 52.9353 22.4772C53.1953 22.1739 53.386 21.8315 53.5073 21.4502C53.6287 21.0602 53.7023 20.5965 53.7283 20.0592C53.7283 20.0332 53.7283 20.0072 53.7283 19.9812C53.737 19.9465 53.7413 19.9119 53.7413 19.8772H50.4133V18.6422H55.5223V16.5752H53.0653C52.736 17.2945 52.372 17.9705 51.9733 18.6032L50.7643 17.9792C51.215 17.3552 51.592 16.6965 51.8953 16.0032C52.1987 15.3012 52.4673 14.5515 52.7013 13.7542L53.9883 14.0532C53.9277 14.2699 53.8627 14.4865 53.7933 14.7032C53.724 14.9112 53.6503 15.1192 53.5723 15.3272H55.5223V13.3772L56.8093 13.4292V15.3272H60.9823V16.5752H56.8093V18.6422H61.5803V19.8772H58.0833V22.8802C58.0833 23.1749 58.1483 23.3742 58.2783 23.4782C58.4083 23.5735 58.612 23.6299 58.8893 23.6472C59.132 23.6559 59.3747 23.6559 59.6173 23.6472C59.7993 23.6385 59.9423 23.6169 60.0463 23.5822C60.159 23.5475 60.2457 23.5042 60.3063 23.4522C60.3757 23.3915 60.4233 23.3179 60.4493 23.2312C60.484 23.1359 60.5143 23.0275 60.5403 22.9062C60.575 22.7155 60.5967 22.5205 60.6053 22.3212C60.6227 22.1219 60.6357 21.9225 60.6443 21.7232L61.8793 22.1132ZM71.1272 19.1622V20.2542L71.9852 19.9422C72.0372 20.0895 72.0979 20.2759 72.1672 20.5012C72.2366 20.7179 72.3059 20.9519 72.3752 21.2032C72.4532 21.4545 72.5269 21.7145 72.5962 21.9832C72.6742 22.2432 72.7392 22.4902 72.7912 22.7242V19.6302L73.8182 19.6822V25.1292H72.7912V23.4522L72.0632 23.6862C72.0286 23.4955 71.9722 23.2442 71.8942 22.9322C71.8162 22.6202 71.7296 22.2995 71.6342 21.9702C71.5476 21.6409 71.4566 21.3245 71.3612 21.0212C71.2659 20.7179 71.1879 20.4752 71.1272 20.2932V25.0122H70.1002V19.1622H67.4872V18.0962H70.1002V17.2512H67.0712V16.2242H70.1002V15.4182H67.6562V14.3132H70.1002V13.4032L71.1272 13.4552V14.3132H73.7532V16.2242H74.6372V17.2512H73.7532V19.1622H71.1272ZM66.7592 23.4132C66.7332 23.7252 66.6856 23.9765 66.6162 24.1672C66.5469 24.3579 66.4429 24.5095 66.3042 24.6222C66.1742 24.7349 66.0009 24.8172 65.7842 24.8692C65.5762 24.9299 65.3249 24.9775 65.0302 25.0122L64.4062 25.0902L64.0552 23.9722L64.7442 23.8942C64.9349 23.8682 65.0909 23.8465 65.2122 23.8292C65.3422 23.8032 65.4419 23.7642 65.5112 23.7122C65.5806 23.6602 65.6326 23.5865 65.6672 23.4912C65.7019 23.3872 65.7279 23.2485 65.7452 23.0752C65.7539 22.8672 65.7669 22.6332 65.7842 22.3732C65.8102 22.1132 65.8319 21.8489 65.8492 21.5802C65.8666 21.3029 65.8839 21.0385 65.9012 20.7872C65.9186 20.5272 65.9359 20.2975 65.9532 20.0982H63.5482L63.8732 15.6002L64.8352 15.6782L64.6012 18.9932H65.4202L65.6932 15.1972H63.3142V14.0662H66.7592L66.4212 18.9932H67.0062C66.9889 19.2532 66.9672 19.5912 66.9412 20.0072C66.9239 20.4232 66.9022 20.8479 66.8762 21.2812C66.8502 21.7145 66.8242 22.1262 66.7982 22.5162C66.7809 22.9062 66.7679 23.2052 66.7592 23.4132ZM71.1272 16.2242H72.7522V15.4182H71.1272V16.2242ZM71.1272 18.0962H72.7522V17.2512H71.1272V18.0962ZM68.6052 20.3582C68.6052 20.9822 68.5792 21.5282 68.5272 21.9962C68.4752 22.4642 68.3929 22.8932 68.2802 23.2832C68.1762 23.6645 68.0332 24.0242 67.8512 24.3622C67.6692 24.7002 67.4482 25.0469 67.1882 25.4022L66.2522 24.7262C66.5469 24.3795 66.7809 24.0589 66.9542 23.7642C67.1276 23.4609 67.2576 23.1445 67.3442 22.8152C67.4396 22.4772 67.5002 22.1045 67.5262 21.6972C67.5609 21.2899 67.5782 20.8089 67.5782 20.2542V19.6172L68.6052 19.6692V20.3582ZM68.2282 23.5042C68.4276 23.0362 68.6139 22.4945 68.7872 21.8792C68.9606 21.2639 69.1079 20.6529 69.2292 20.0462L70.0872 20.2542C69.9572 20.8782 69.8056 21.5065 69.6322 22.1392C69.4676 22.7632 69.2899 23.3352 69.0992 23.8552L68.2282 23.5042ZM65.7712 22.0612L63.0672 22.6072L62.9242 21.4632C63.0629 21.4459 63.2536 21.4155 63.4962 21.3722C63.7476 21.3289 64.0076 21.2812 64.2762 21.2292C64.5536 21.1772 64.8179 21.1295 65.0692 21.0862C65.3292 21.0342 65.5416 20.9865 65.7062 20.9432L65.7322 21.5282L65.7712 22.0612ZM86.7581 13.8062V25.1682H85.5621V24.6352H77.7621V25.1682H76.4621V13.8062H86.7581ZM85.5621 23.4782V15.0672H77.7621V23.4782H85.5621ZM84.4961 17.2122H78.7371V16.1332H84.4961V17.2122ZM85.1071 20.7482C85.0984 20.8955 85.0854 21.0342 85.0681 21.1642C85.0594 21.2855 85.0464 21.4199 85.0291 21.5672C85.0031 21.7752 84.9641 21.9529 84.9121 22.1002C84.8601 22.2475 84.7864 22.3689 84.6911 22.4642C84.5958 22.5509 84.4744 22.6159 84.3271 22.6592C84.1798 22.7025 83.9934 22.7242 83.7681 22.7242H82.8971C82.5071 22.7242 82.2254 22.6375 82.0521 22.4642C81.8874 22.2822 81.8051 21.9572 81.8051 21.4892V19.3962H80.8041C80.7868 19.9249 80.7304 20.3799 80.6351 20.7612C80.5398 21.1425 80.4011 21.4805 80.2191 21.7752C80.0371 22.0699 79.8118 22.3385 79.5431 22.5812C79.2831 22.8152 78.9754 23.0579 78.6201 23.3092L77.8791 22.2302C78.2084 22.0395 78.4814 21.8532 78.6981 21.6712C78.9234 21.4805 79.1054 21.2812 79.2441 21.0732C79.3828 20.8565 79.4824 20.6139 79.5431 20.3452C79.6038 20.0765 79.6428 19.7602 79.6601 19.3962H78.1521V18.3172H85.0811V19.3962H82.8971V21.2682C82.8971 21.4675 82.9231 21.5889 82.9751 21.6322C83.0358 21.6755 83.1528 21.6972 83.3261 21.6972H83.5211C83.6078 21.6972 83.6771 21.6929 83.7291 21.6842C83.7898 21.6755 83.8374 21.6539 83.8721 21.6192C83.9154 21.5845 83.9458 21.5325 83.9631 21.4632C83.9891 21.3852 84.0108 21.2855 84.0281 21.1642C84.0454 21.0169 84.0584 20.8912 84.0671 20.7872C84.0844 20.6745 84.0931 20.5662 84.0931 20.4622L85.1071 20.7482Z" fill="#123871"/>
<path d="M58.5413 35.468H51.5013V32.443H58.5413V35.468ZM52.2603 33.081V33.653H57.7823V33.081H52.2603ZM57.7823 34.852V34.269H52.2603V34.852H57.7823ZM59.7403 36.788H50.3023V36.15H54.6913C54.662 36.0546 54.6327 35.9666 54.6033 35.886C54.5813 35.798 54.5557 35.721 54.5263 35.655L55.3183 35.534C55.355 35.6146 55.388 35.71 55.4173 35.82C55.454 35.93 55.4907 36.04 55.5273 36.15H59.7403V36.788ZM55.6043 39.45V40.583C55.6043 40.803 55.5823 40.979 55.5383 41.111C55.5017 41.243 55.4283 41.3493 55.3183 41.43C55.2083 41.5106 55.058 41.5693 54.8673 41.606C54.684 41.65 54.4493 41.6866 54.1633 41.716L53.4813 41.782L53.2283 41.034L53.9983 40.968C54.1597 40.9533 54.288 40.9313 54.3833 40.902C54.486 40.88 54.563 40.8433 54.6143 40.792C54.6657 40.748 54.6987 40.6856 54.7133 40.605C54.728 40.517 54.7353 40.407 54.7353 40.275V39.45H51.6883V37.404H58.3543V39.45H55.6043ZM52.4583 38.856H57.5843V38.009H52.4583V38.856ZM53.4923 40.165C53.3237 40.2823 53.1183 40.4106 52.8763 40.55C52.6343 40.682 52.3777 40.814 52.1063 40.946C51.835 41.078 51.5563 41.2026 51.2703 41.32C50.9843 41.4446 50.7167 41.5546 50.4673 41.65L50.1593 40.957C50.4087 40.869 50.6727 40.77 50.9513 40.66C51.2373 40.55 51.5123 40.4363 51.7763 40.319C52.0477 40.1943 52.3007 40.0696 52.5353 39.945C52.77 39.813 52.9717 39.692 53.1403 39.582L53.4923 40.165ZM56.7263 39.637C56.8877 39.6956 57.1003 39.7763 57.3643 39.879C57.6283 39.9743 57.9033 40.0843 58.1893 40.209C58.4753 40.3336 58.7577 40.462 59.0363 40.594C59.315 40.726 59.557 40.847 59.7623 40.957L59.4653 41.639C59.2673 41.5216 59.029 41.3933 58.7503 41.254C58.4717 41.1146 58.1893 40.979 57.9033 40.847C57.6173 40.715 57.3387 40.594 57.0673 40.484C56.8033 40.374 56.5833 40.2896 56.4073 40.231L56.7263 39.637ZM69.3255 38.614H62.4395V35.127H65.1235V31.992L65.9815 32.025V33.081H70.2715V33.884H65.9815V35.127H69.3255V38.614ZM68.5005 35.908H63.2645V37.811H68.5005V35.908ZM60.9105 41.529C61.0351 41.3823 61.1671 41.199 61.3065 40.979C61.4531 40.759 61.5925 40.5316 61.7245 40.297C61.8638 40.055 61.9885 39.8203 62.0985 39.593C62.2158 39.3583 62.3111 39.1566 62.3845 38.988L63.1215 39.263C63.0481 39.4463 62.9528 39.6626 62.8355 39.912C62.7181 40.154 62.5898 40.3996 62.4505 40.649C62.3185 40.8983 62.1828 41.1403 62.0435 41.375C61.9115 41.6096 61.7905 41.8076 61.6805 41.969L60.9105 41.529ZM69.1495 38.999C69.2595 39.1383 69.3878 39.3106 69.5345 39.516C69.6811 39.714 69.8278 39.9266 69.9745 40.154C70.1211 40.374 70.2605 40.5903 70.3925 40.803C70.5245 41.023 70.6308 41.2136 70.7115 41.375L70.0405 41.936C69.9598 41.7453 69.8535 41.5326 69.7215 41.298C69.5895 41.0633 69.4501 40.8323 69.3035 40.605C69.1568 40.3703 69.0101 40.1503 68.8635 39.945C68.7168 39.7323 68.5848 39.5526 68.4675 39.406L69.1495 38.999ZM67.0265 39.164C67.0925 39.3033 67.1658 39.4756 67.2465 39.681C67.3271 39.8863 67.4041 40.099 67.4775 40.319C67.5581 40.5316 67.6315 40.7406 67.6975 40.946C67.7708 41.1586 67.8258 41.342 67.8625 41.496L67.0815 41.782C67.0448 41.6133 66.9935 41.419 66.9275 41.199C66.8688 40.979 66.8028 40.759 66.7295 40.539C66.6561 40.319 66.5791 40.11 66.4985 39.912C66.4251 39.7066 66.3555 39.5343 66.2895 39.395L67.0265 39.164ZM64.8045 39.263C64.8485 39.4096 64.8961 39.5893 64.9475 39.802C64.9988 40.0073 65.0465 40.2236 65.0905 40.451C65.1418 40.671 65.1858 40.8873 65.2225 41.1C65.2665 41.3126 65.2958 41.496 65.3105 41.65L64.4965 41.881C64.4818 41.7123 64.4561 41.5143 64.4195 41.287C64.3828 41.067 64.3425 40.8433 64.2985 40.616C64.2545 40.3886 64.2068 40.1686 64.1555 39.956C64.1115 39.7433 64.0675 39.5636 64.0235 39.417L64.8045 39.263Z" fill="#3A5A8A"/>
<defs>
<linearGradient id="paint0_linear_674_34006" x1="93.4558" y1="-0.214136" x2="6.88527" y2="38.3483" gradientUnits="userSpaceOnUse">
<stop offset="0.5" stop-color="#809AF5"/>
<stop offset="0.5" stop-color="#3867E2"/>
</linearGradient>
</defs>
</svg>
