<svg width="120" height="63" viewBox="0 0 120 63" fill="none" xmlns="http://www.w3.org/2000/svg">
<path d="M43.7327 49H18.1234C16.9185 49 16.4255 51.5313 17.4808 52.1129C23.2953 55.3178 28.407 59.71 30.2653 61.3828C30.6827 61.7585 31.3259 61.7478 31.7316 61.3595C33.5166 59.651 38.4263 55.2043 44.3415 51.9712C45.3929 51.3966 44.9309 49 43.7327 49Z" fill="#4573E7"/>
<rect width="119.489" height="53.6492" rx="26.8246" fill="url(#paint0_linear_674_34008)"/>
<rect x="4.86819" y="4.86819" width="109.752" height="43.9128" rx="21.9564" fill="#D6DFF5"/>
<path fill-rule="evenodd" clip-rule="evenodd" d="M40.2486 26.7551C40.4133 26.8568 40.6032 26.9106 40.7968 26.9105C41.1487 26.9105 41.4913 26.7336 41.6897 26.4124C42.4609 25.1605 42.868 23.7204 42.868 22.2481C42.868 17.8654 39.3025 14.2999 34.9208 14.2999C32.0293 14.2999 29.365 15.875 27.9658 18.4105C27.6855 18.9168 27.8696 19.554 28.3769 19.8332C28.8842 20.113 29.5204 19.9289 29.7996 19.4221C30.8296 17.555 32.7924 16.3946 34.9208 16.3946C38.1477 16.3946 40.7733 19.0206 40.7733 22.2481C40.7733 23.3323 40.4736 24.3924 39.9059 25.314C39.6032 25.8064 39.7566 26.4518 40.2486 26.7551ZM41.0088 31.7774C41.2154 32.0321 41.5171 32.164 41.8219 32.164H41.8219C42.0625 32.1643 42.2956 32.0811 42.4817 31.9287C42.9307 31.5637 42.9982 30.9039 42.633 30.4559L37.8167 24.5375C37.7195 24.4182 37.5973 24.3218 37.4587 24.2551C37.3202 24.1884 37.1686 24.153 37.0148 24.1514H37.0046C36.8523 24.1514 36.7018 24.1847 36.5637 24.2488C36.4255 24.3129 36.303 24.4064 36.2047 24.5227L33.5158 27.7025L26.9228 18.7557C26.7172 18.4759 26.3858 18.322 26.037 18.3307C25.8657 18.3378 25.6988 18.3868 25.5508 18.4733C25.4028 18.5599 25.2783 18.6814 25.1881 18.8273L18.0245 30.4467C17.7207 30.9388 17.8731 31.5841 18.366 31.8879C18.8591 32.1907 19.5034 32.0382 19.8072 31.5452L26.1578 21.2472L32.6168 30.0121C32.7104 30.1396 32.8318 30.2442 32.9718 30.3179C33.1118 30.3916 33.2667 30.4325 33.4248 30.4375C33.7306 30.4621 34.0528 30.3117 34.2593 30.0673L36.9892 26.8388L41.0088 31.7774ZM39.7947 34.1124C40.3736 34.1124 40.8421 34.5808 40.8421 35.1598L40.842 35.1598C40.842 35.7387 40.3736 36.2072 39.7947 36.2072H20.9425C20.3646 36.2072 19.8951 35.7387 19.8951 35.1598C19.8951 34.5808 20.3646 34.1124 20.9425 34.1124H39.7947ZM36.6527 37.2545C37.2316 37.2545 37.7 37.7229 37.7 38.3018C37.7 38.8807 37.2316 39.3492 36.6527 39.3492H24.0845C23.5067 39.3492 23.0372 38.8807 23.0372 38.3018C23.0372 37.7229 23.5066 37.2545 24.0845 37.2545H36.6527Z" fill="#5578F6"/>
<path d="M61.8144 23.1922V24.5572H50.2184V23.1922H52.1554V17.0692L53.4944 17.1212V23.1922H55.8864V15.6002H50.9464V14.2482H61.2814V15.6002H57.2254V18.4342H60.8524V19.8122H57.2254V23.1922H61.8144ZM65.2512 16.9522C65.0259 17.2815 64.7919 17.5979 64.5492 17.9012C64.3066 18.2045 64.0726 18.4905 63.8472 18.7592L62.8332 17.6672C63.1279 17.3465 63.4182 17.0085 63.7042 16.6532C63.9902 16.2892 64.2589 15.9165 64.5102 15.5352C64.7616 15.1539 64.9869 14.7682 65.1862 14.3782C65.3856 13.9882 65.5502 13.6025 65.6802 13.2212L67.0452 13.7932C66.9932 13.9145 66.9369 14.0445 66.8762 14.1832C66.8242 14.3132 66.7636 14.4432 66.6942 14.5732H73.9352V15.7692H66.0182C65.8449 16.0552 65.6629 16.3412 65.4722 16.6272H73.1292V17.7972H65.2512V16.9522ZM74.6632 22.6852C74.6026 22.9365 74.5462 23.1575 74.4942 23.3482C74.4509 23.5302 74.3946 23.7165 74.3252 23.9072C74.1259 24.4359 73.9006 24.8085 73.6492 25.0252C73.3979 25.2419 73.1336 25.3502 72.8562 25.3502C72.5702 25.3502 72.3189 25.2462 72.1022 25.0382C71.8856 24.8389 71.7079 24.5702 71.5692 24.2322C71.4999 24.0589 71.4306 23.8682 71.3612 23.6602C71.3006 23.4435 71.2442 23.1879 71.1922 22.8932C71.1489 22.5985 71.1142 22.2605 71.0882 21.8792C71.0622 21.4979 71.0492 21.0515 71.0492 20.5402V19.9032H64.0292V18.6552H72.3882V20.3062C72.3882 21.1382 72.4142 21.7969 72.4662 22.2822C72.5269 22.7589 72.5832 23.0839 72.6352 23.2572C72.6872 23.4305 72.7349 23.5519 72.7782 23.6212C72.8216 23.6905 72.8649 23.7252 72.9082 23.7252C72.9689 23.7252 73.0252 23.6949 73.0772 23.6342C73.1379 23.5649 73.1942 23.4435 73.2462 23.2702C73.3156 23.0275 73.3676 22.8109 73.4022 22.6202C73.4369 22.4295 73.4716 22.2259 73.5062 22.0092L74.6632 22.6852ZM87.2781 14.9502V16.1852H78.6201V18.2002C78.6201 19.0322 78.5898 19.7602 78.5291 20.3842C78.4684 20.9995 78.3644 21.5715 78.2171 22.1002C78.0784 22.6289 77.8921 23.1402 77.6581 23.6342C77.4328 24.1195 77.1554 24.6439 76.8261 25.2072L75.6041 24.5442C75.9421 24.0155 76.2194 23.5302 76.4361 23.0882C76.6614 22.6375 76.8391 22.1825 76.9691 21.7232C77.0991 21.2552 77.1901 20.7525 77.2421 20.2152C77.2941 19.6779 77.3201 19.0495 77.3201 18.3302V14.9502H81.9741C81.9048 14.7075 81.8311 14.4649 81.7531 14.2222C81.6838 13.9795 81.6144 13.7715 81.5451 13.5982L82.8711 13.3772C82.9404 13.5852 83.0184 13.8279 83.1051 14.1052C83.2004 14.3825 83.2914 14.6642 83.3781 14.9502H87.2781ZM99.594 17.6282C99.5853 17.7149 99.5723 17.8925 99.555 18.1612C99.5463 18.4299 99.5333 18.7462 99.516 19.1102C99.4987 19.4655 99.477 19.8512 99.451 20.2672C99.425 20.6832 99.4033 21.0819 99.386 21.4632C99.3687 21.8445 99.347 22.1869 99.321 22.4902C99.3037 22.7935 99.2907 23.0145 99.282 23.1532C99.256 23.4912 99.2083 23.7642 99.139 23.9722C99.0697 24.1802 98.957 24.3449 98.801 24.4662C98.6537 24.5962 98.4543 24.6872 98.203 24.7392C97.9603 24.7999 97.6483 24.8432 97.267 24.8692L96.552 24.9212L96.149 23.6602L96.955 23.5952C97.1803 23.5779 97.358 23.5562 97.488 23.5302C97.6267 23.4955 97.735 23.4479 97.813 23.3872C97.891 23.3265 97.9473 23.2442 97.982 23.1402C98.0167 23.0275 98.047 22.8802 98.073 22.6982C98.0903 22.5595 98.112 22.3125 98.138 21.9572C98.164 21.6019 98.19 21.2205 98.216 20.8132C98.242 20.3972 98.268 20.0029 98.294 19.6302C98.32 19.2575 98.3373 18.9845 98.346 18.8112H97.293C97.1977 19.5479 97.0633 20.2152 96.89 20.8132C96.7253 21.4112 96.513 21.9659 96.253 22.4772C95.993 22.9885 95.6723 23.4695 95.291 23.9202C94.9183 24.3709 94.4763 24.8172 93.965 25.2592L92.951 24.4662C93.4277 24.0589 93.8393 23.6602 94.186 23.2702C94.5327 22.8802 94.8273 22.4642 95.07 22.0222C95.3213 21.5802 95.5293 21.0992 95.694 20.5792C95.8673 20.0592 96.019 19.4699 96.149 18.8112H95.083C94.8403 19.8339 94.4633 20.7655 93.952 21.6062C93.4493 22.4469 92.756 23.2269 91.872 23.9462L90.923 23.1532C91.1223 22.9972 91.3043 22.8455 91.469 22.6982C91.6423 22.5422 91.8027 22.3862 91.95 22.2302C91.716 22.3169 91.4603 22.4079 91.183 22.5032C90.9143 22.5985 90.637 22.6939 90.351 22.7892C90.0737 22.8845 89.7963 22.9799 89.519 23.0752C89.2503 23.1705 88.9947 23.2615 88.752 23.3482L88.479 22.0872C88.7303 22.0179 88.999 21.9399 89.285 21.8532C89.571 21.7579 89.8613 21.6625 90.156 21.5672V17.5892H88.856V16.3542H90.156V13.3642L91.417 13.4162V16.3542H92.626V17.5892H91.417V21.1512C91.6163 21.0819 91.794 21.0212 91.95 20.9692C92.1147 20.9085 92.2577 20.8565 92.379 20.8132L92.457 21.6712C92.8297 21.2205 93.1287 20.7655 93.354 20.3062C93.588 19.8382 93.7787 19.3399 93.926 18.8112H92.665V17.7322L96.643 15.2622H93.029V14.0012H98.827V15.2882L94.875 17.6282H99.594Z" fill="#123871"/>
<path d="M58.5414 35.468H51.5014V32.443H58.5414V35.468ZM52.2604 33.081V33.653H57.7824V33.081H52.2604ZM57.7824 34.852V34.269H52.2604V34.852H57.7824ZM59.7404 36.788H50.3024V36.15H54.6914C54.662 36.0546 54.6327 35.9666 54.6034 35.886C54.5814 35.798 54.5557 35.721 54.5264 35.655L55.3184 35.534C55.355 35.6146 55.388 35.71 55.4174 35.82C55.454 35.93 55.4907 36.04 55.5274 36.15H59.7404V36.788ZM55.6044 39.45V40.583C55.6044 40.803 55.5824 40.979 55.5384 41.111C55.5017 41.243 55.4284 41.3493 55.3184 41.43C55.2084 41.5106 55.058 41.5693 54.8674 41.606C54.684 41.65 54.4494 41.6866 54.1634 41.716L53.4814 41.782L53.2284 41.034L53.9984 40.968C54.1597 40.9533 54.288 40.9313 54.3834 40.902C54.486 40.88 54.563 40.8433 54.6144 40.792C54.6657 40.748 54.6987 40.6856 54.7134 40.605C54.728 40.517 54.7354 40.407 54.7354 40.275V39.45H51.6884V37.404H58.3544V39.45H55.6044ZM52.4584 38.856H57.5844V38.009H52.4584V38.856ZM53.4924 40.165C53.3237 40.2823 53.1184 40.4106 52.8764 40.55C52.6344 40.682 52.3777 40.814 52.1064 40.946C51.835 41.078 51.5564 41.2026 51.2704 41.32C50.9844 41.4446 50.7167 41.5546 50.4674 41.65L50.1594 40.957C50.4087 40.869 50.6727 40.77 50.9514 40.66C51.2374 40.55 51.5124 40.4363 51.7764 40.319C52.0477 40.1943 52.3007 40.0696 52.5354 39.945C52.77 39.813 52.9717 39.692 53.1404 39.582L53.4924 40.165ZM56.7264 39.637C56.8877 39.6956 57.1004 39.7763 57.3644 39.879C57.6284 39.9743 57.9034 40.0843 58.1894 40.209C58.4754 40.3336 58.7577 40.462 59.0364 40.594C59.315 40.726 59.557 40.847 59.7624 40.957L59.4654 41.639C59.2674 41.5216 59.029 41.3933 58.7504 41.254C58.4717 41.1146 58.1894 40.979 57.9034 40.847C57.6174 40.715 57.3387 40.594 57.0674 40.484C56.8034 40.374 56.5834 40.2896 56.4074 40.231L56.7264 39.637ZM69.3255 38.614H62.4395V35.127H65.1235V31.992L65.9815 32.025V33.081H70.2715V33.884H65.9815V35.127H69.3255V38.614ZM68.5005 35.908H63.2645V37.811H68.5005V35.908ZM60.9105 41.529C61.0352 41.3823 61.1672 41.199 61.3065 40.979C61.4532 40.759 61.5925 40.5316 61.7245 40.297C61.8638 40.055 61.9885 39.8203 62.0985 39.593C62.2158 39.3583 62.3112 39.1566 62.3845 38.988L63.1215 39.263C63.0482 39.4463 62.9528 39.6626 62.8355 39.912C62.7182 40.154 62.5898 40.3996 62.4505 40.649C62.3185 40.8983 62.1828 41.1403 62.0435 41.375C61.9115 41.6096 61.7905 41.8076 61.6805 41.969L60.9105 41.529ZM69.1495 38.999C69.2595 39.1383 69.3878 39.3106 69.5345 39.516C69.6812 39.714 69.8278 39.9266 69.9745 40.154C70.1212 40.374 70.2605 40.5903 70.3925 40.803C70.5245 41.023 70.6308 41.2136 70.7115 41.375L70.0405 41.936C69.9598 41.7453 69.8535 41.5326 69.7215 41.298C69.5895 41.0633 69.4502 40.8323 69.3035 40.605C69.1568 40.3703 69.0102 40.1503 68.8635 39.945C68.7168 39.7323 68.5848 39.5526 68.4675 39.406L69.1495 38.999ZM67.0265 39.164C67.0925 39.3033 67.1658 39.4756 67.2465 39.681C67.3272 39.8863 67.4042 40.099 67.4775 40.319C67.5582 40.5316 67.6315 40.7406 67.6975 40.946C67.7708 41.1586 67.8258 41.342 67.8625 41.496L67.0815 41.782C67.0448 41.6133 66.9935 41.419 66.9275 41.199C66.8688 40.979 66.8028 40.759 66.7295 40.539C66.6562 40.319 66.5792 40.11 66.4985 39.912C66.4252 39.7066 66.3555 39.5343 66.2895 39.395L67.0265 39.164ZM64.8045 39.263C64.8485 39.4096 64.8962 39.5893 64.9475 39.802C64.9988 40.0073 65.0465 40.2236 65.0905 40.451C65.1418 40.671 65.1858 40.8873 65.2225 41.1C65.2665 41.3126 65.2958 41.496 65.3105 41.65L64.4965 41.881C64.4818 41.7123 64.4562 41.5143 64.4195 41.287C64.3828 41.067 64.3425 40.8433 64.2985 40.616C64.2545 40.3886 64.2068 40.1686 64.1555 39.956C64.1115 39.7433 64.0675 39.5636 64.0235 39.417L64.8045 39.263Z" fill="#3A5A8A"/>
<defs>
<linearGradient id="paint0_linear_674_34008" x1="104.865" y1="-0.214136" x2="11.721" y2="46.3414" gradientUnits="userSpaceOnUse">
<stop offset="0.5" stop-color="#809AF5"/>
<stop offset="0.5" stop-color="#3867E2"/>
</linearGradient>
</defs>
</svg>
