<svg width="120" height="63" viewBox="0 0 120 63" fill="none" xmlns="http://www.w3.org/2000/svg">
<path d="M43.7327 49H18.1234C16.9185 49 16.4255 51.5313 17.4808 52.1129C23.2953 55.3178 28.407 59.71 30.2653 61.3828C30.6827 61.7585 31.3259 61.7478 31.7316 61.3595C33.5166 59.651 38.4263 55.2043 44.3415 51.9712C45.3929 51.3966 44.9309 49 43.7327 49Z" fill="#4573E7"/>
<rect width="119.489" height="53.6492" rx="26.8246" fill="url(#paint0_linear_674_34009)"/>
<rect x="4.86819" y="4.86821" width="109.752" height="43.9128" rx="21.9564" fill="#D6DFF5"/>
<path fill-rule="evenodd" clip-rule="evenodd" d="M40.2486 26.7551C40.4134 26.8568 40.6032 26.9107 40.7968 26.9106C41.1487 26.9106 41.4913 26.7336 41.6897 26.4124C42.4609 25.1605 42.868 23.7204 42.868 22.2481C42.868 17.8654 39.3025 14.2999 34.9208 14.2999C32.0294 14.2999 29.365 15.875 27.9658 18.4106C27.6855 18.9168 27.8697 19.554 28.377 19.8333C28.8843 20.113 29.5204 19.9289 29.7996 19.4221C30.8296 17.555 32.7924 16.3946 34.9208 16.3946C38.1478 16.3946 40.7733 19.0207 40.7733 22.2481C40.7733 23.3323 40.4736 24.3924 39.906 25.314C39.6032 25.8065 39.7566 26.4518 40.2486 26.7551ZM41.0088 31.7774C41.2154 32.0321 41.5172 32.164 41.8219 32.164H41.822C42.0625 32.1643 42.2956 32.0812 42.4817 31.9288C42.9307 31.5637 42.9982 30.9039 42.6331 30.4559L37.8167 24.5375C37.7196 24.4183 37.5974 24.3219 37.4588 24.2551C37.3202 24.1884 37.1686 24.153 37.0148 24.1514H37.0046C36.8523 24.1515 36.7018 24.1847 36.5637 24.2488C36.4256 24.3129 36.3031 24.4064 36.2047 24.5227L33.5158 27.7026L26.9228 18.7557C26.7172 18.4759 26.3858 18.322 26.0371 18.3307C25.8658 18.3378 25.6988 18.3868 25.5508 18.4734C25.4028 18.5599 25.2783 18.6814 25.1882 18.8273L18.0245 30.4468C17.7207 30.9388 17.8731 31.5841 18.3661 31.8879C18.8591 32.1907 19.5034 32.0383 19.8072 31.5453L26.1578 21.2472L32.6168 30.0121C32.7104 30.1396 32.8318 30.2442 32.9718 30.3179C33.1118 30.3916 33.2667 30.4325 33.4248 30.4376C33.7306 30.4621 34.0528 30.3118 34.2594 30.0673L36.9892 26.8388L41.0088 31.7774ZM39.7947 34.1124C40.3736 34.1124 40.8421 34.5809 40.8421 35.1598L40.8421 35.1599C40.8421 35.7388 40.3736 36.2072 39.7947 36.2072H20.9425C20.3646 36.2072 19.8952 35.7388 19.8952 35.1598C19.8952 34.5809 20.3646 34.1124 20.9425 34.1124H39.7947ZM36.6527 37.2545C37.2316 37.2545 37.7001 37.723 37.7001 38.3019C37.7001 38.8808 37.2316 39.3492 36.6527 39.3492H24.0846C23.5067 39.3492 23.0372 38.8808 23.0372 38.3019C23.0372 37.723 23.5067 37.2545 24.0846 37.2545H36.6527Z" fill="#5578F6"/>
<path d="M61.8143 17.0822H60.7223V23.5172C60.7223 23.8379 60.7007 24.0892 60.6573 24.2712C60.614 24.4619 60.5273 24.6092 60.3973 24.7132C60.276 24.8259 60.107 24.9039 59.8903 24.9472C59.6737 24.9905 59.3963 25.0295 59.0583 25.0642L58.2393 25.1422L57.8233 23.9202L58.6683 23.8422C58.859 23.8249 59.0107 23.8075 59.1233 23.7902C59.236 23.7642 59.3227 23.7252 59.3833 23.6732C59.444 23.6212 59.4787 23.5475 59.4873 23.4522C59.5047 23.3569 59.5133 23.2225 59.5133 23.0492V17.0822H57.5373V15.8732H59.5133V13.4162L60.7223 13.4682V15.8732H61.8143V17.0822ZM53.7413 20.7482C53.6287 20.5749 53.4987 20.3799 53.3513 20.1632C53.2127 19.9465 53.0653 19.7342 52.9093 19.5262V25.1812H51.7393V19.9162C51.566 20.3409 51.3797 20.7482 51.1803 21.1382C50.9897 21.5195 50.799 21.8619 50.6083 22.1652L49.8153 21.1122C49.954 20.8609 50.1057 20.5749 50.2703 20.2542C50.435 19.9249 50.5953 19.5825 50.7513 19.2272C50.916 18.8632 51.0763 18.4905 51.2323 18.1092C51.3883 17.7192 51.5313 17.3422 51.6613 16.9782H50.4003V15.7692H51.7393V13.4292L52.9093 13.4812V15.7692H53.9753V16.9782H52.9093V18.4082L53.1823 18.1612C53.2863 18.2825 53.399 18.4212 53.5203 18.5772C53.6503 18.7332 53.776 18.8935 53.8973 19.0582C54.0273 19.2229 54.1487 19.3832 54.2613 19.5392C54.374 19.6952 54.4693 19.8382 54.5473 19.9682L53.7413 20.7482ZM57.0173 23.4912C56.87 23.1445 56.7053 22.7805 56.5233 22.3992C56.35 22.0092 56.1637 21.6105 55.9643 21.2032C55.713 21.7492 55.4183 22.2909 55.0803 22.8282C54.751 23.3655 54.3697 23.9115 53.9363 24.4662L52.9483 23.6342C53.9883 22.4122 54.777 21.1555 55.3143 19.8642C55.063 19.3615 54.816 18.8892 54.5733 18.4472C54.3393 17.9965 54.1313 17.6065 53.9493 17.2772L54.8203 16.7702C54.959 17.0129 55.1107 17.2815 55.2753 17.5762C55.44 17.8709 55.609 18.1829 55.7823 18.5122C55.9123 18.0789 56.0207 17.6369 56.1073 17.1862C56.194 16.7355 56.272 16.2632 56.3413 15.7692H54.0403V14.5862H57.4333V15.7692C57.338 16.5232 57.2167 17.2382 57.0693 17.9142C56.922 18.5815 56.7357 19.2402 56.5103 19.8902C56.779 20.4015 57.039 20.9129 57.2903 21.4242C57.5417 21.9269 57.7713 22.3992 57.9793 22.8412L57.0173 23.4912ZM58.3563 21.4762C58.2957 21.2682 58.2133 21.0169 58.1093 20.7222C58.0053 20.4189 57.8927 20.1155 57.7713 19.8122C57.65 19.5089 57.5287 19.2185 57.4073 18.9412C57.2947 18.6639 57.1993 18.4429 57.1213 18.2782L58.1223 17.8752C58.2003 18.0312 58.2957 18.2435 58.4083 18.5122C58.521 18.7722 58.6337 19.0539 58.7463 19.3572C58.8677 19.6519 58.9803 19.9465 59.0843 20.2412C59.1883 20.5272 59.275 20.7742 59.3443 20.9822L58.3563 21.4762ZM69.3592 16.3802C69.4979 17.2035 69.7102 17.9749 69.9962 18.6942C70.2909 19.4049 70.6549 20.0765 71.0882 20.7092C71.5215 21.3419 72.0199 21.9399 72.5832 22.5032C73.1552 23.0579 73.7835 23.5822 74.4682 24.0762L73.5192 25.3112C72.3319 24.3145 71.3482 23.3049 70.5682 22.2822C69.7969 21.2509 69.2075 20.1502 68.8002 18.9802C68.4102 20.1415 67.8295 21.2292 67.0582 22.2432C66.2955 23.2572 65.3032 24.2365 64.0812 25.1812L63.0932 24.0112C63.9945 23.3612 64.7615 22.7069 65.3942 22.0482C66.0269 21.3809 66.5425 20.6789 66.9412 19.9422C67.3485 19.2055 67.6432 18.4125 67.8252 17.5632C68.0159 16.7139 68.1155 15.7692 68.1242 14.7292C68.1329 14.5819 68.1372 14.3912 68.1372 14.1572C68.1372 13.9232 68.1372 13.7195 68.1372 13.5462L69.4502 13.5982C69.4502 13.7109 69.4459 13.8452 69.4372 14.0012C69.4372 14.1485 69.4372 14.3002 69.4372 14.4562C69.4372 14.6122 69.4372 14.7639 69.4372 14.9112C69.4372 15.0499 69.4372 15.1625 69.4372 15.2492C69.4199 15.6305 69.3939 16.0075 69.3592 16.3802ZM87.2781 14.9502V16.1852H78.6201V18.2002C78.6201 19.0322 78.5897 19.7602 78.5291 20.3842C78.4684 20.9995 78.3644 21.5715 78.2171 22.1002C78.0784 22.6289 77.8921 23.1402 77.6581 23.6342C77.4327 24.1195 77.1554 24.6439 76.8261 25.2072L75.6041 24.5442C75.9421 24.0155 76.2194 23.5302 76.4361 23.0882C76.6614 22.6375 76.8391 22.1825 76.9691 21.7232C77.0991 21.2552 77.1901 20.7525 77.2421 20.2152C77.2941 19.6779 77.3201 19.0495 77.3201 18.3302V14.9502H81.9741C81.9047 14.7075 81.8311 14.4649 81.7531 14.2222C81.6837 13.9795 81.6144 13.7715 81.5451 13.5982L82.8711 13.3772C82.9404 13.5852 83.0184 13.8279 83.1051 14.1052C83.2004 14.3825 83.2914 14.6642 83.3781 14.9502H87.2781ZM99.594 17.6282C99.5853 17.7149 99.5723 17.8925 99.555 18.1612C99.5463 18.4299 99.5333 18.7462 99.516 19.1102C99.4986 19.4655 99.477 19.8512 99.451 20.2672C99.425 20.6832 99.4033 21.0819 99.386 21.4632C99.3686 21.8445 99.347 22.1869 99.321 22.4902C99.3036 22.7935 99.2906 23.0145 99.282 23.1532C99.256 23.4912 99.2083 23.7642 99.139 23.9722C99.0696 24.1802 98.957 24.3449 98.801 24.4662C98.6536 24.5962 98.4543 24.6872 98.203 24.7392C97.9603 24.7999 97.6483 24.8432 97.267 24.8692L96.552 24.9212L96.149 23.6602L96.955 23.5952C97.1803 23.5779 97.358 23.5562 97.488 23.5302C97.6266 23.4955 97.735 23.4479 97.813 23.3872C97.891 23.3265 97.9473 23.2442 97.982 23.1402C98.0166 23.0275 98.047 22.8802 98.073 22.6982C98.0903 22.5595 98.112 22.3125 98.138 21.9572C98.164 21.6019 98.19 21.2205 98.216 20.8132C98.242 20.3972 98.268 20.0029 98.294 19.6302C98.32 19.2575 98.3373 18.9845 98.346 18.8112H97.293C97.1976 19.5479 97.0633 20.2152 96.89 20.8132C96.7253 21.4112 96.513 21.9659 96.253 22.4772C95.993 22.9885 95.6723 23.4695 95.291 23.9202C94.9183 24.3709 94.4763 24.8172 93.965 25.2592L92.951 24.4662C93.4276 24.0589 93.8393 23.6602 94.186 23.2702C94.5326 22.8802 94.8273 22.4642 95.07 22.0222C95.3213 21.5802 95.5293 21.0992 95.694 20.5792C95.8673 20.0592 96.019 19.4699 96.149 18.8112H95.083C94.8403 19.8339 94.4633 20.7655 93.952 21.6062C93.4493 22.4469 92.756 23.2269 91.872 23.9462L90.923 23.1532C91.1223 22.9972 91.3043 22.8455 91.469 22.6982C91.6423 22.5422 91.8026 22.3862 91.95 22.2302C91.716 22.3169 91.4603 22.4079 91.183 22.5032C90.9143 22.5985 90.637 22.6939 90.351 22.7892C90.0736 22.8845 89.7963 22.9799 89.519 23.0752C89.2503 23.1705 88.9946 23.2615 88.752 23.3482L88.479 22.0872C88.7303 22.0179 88.999 21.9399 89.285 21.8532C89.571 21.7579 89.8613 21.6625 90.156 21.5672V17.5892H88.856V16.3542H90.156V13.3642L91.417 13.4162V16.3542H92.626V17.5892H91.417V21.1512C91.6163 21.0819 91.794 21.0212 91.95 20.9692C92.1146 20.9085 92.2576 20.8565 92.379 20.8132L92.457 21.6712C92.8296 21.2205 93.1286 20.7655 93.354 20.3062C93.588 19.8382 93.7786 19.3399 93.926 18.8112H92.665V17.7322L96.643 15.2622H93.029V14.0012H98.827V15.2882L94.875 17.6282H99.594Z" fill="#123871"/>
<path d="M58.5413 35.468H51.5013V32.443H58.5413V35.468ZM52.2603 33.081V33.653H57.7823V33.081H52.2603ZM57.7823 34.852V34.269H52.2603V34.852H57.7823ZM59.7403 36.788H50.3023V36.15H54.6913C54.662 36.0547 54.6327 35.9667 54.6033 35.886C54.5813 35.798 54.5557 35.721 54.5263 35.655L55.3183 35.534C55.355 35.6147 55.388 35.71 55.4173 35.82C55.454 35.93 55.4907 36.04 55.5273 36.15H59.7403V36.788ZM55.6043 39.45V40.583C55.6043 40.803 55.5823 40.979 55.5383 41.111C55.5017 41.243 55.4283 41.3493 55.3183 41.43C55.2083 41.5107 55.058 41.5693 54.8673 41.606C54.684 41.65 54.4493 41.6867 54.1633 41.716L53.4813 41.782L53.2283 41.034L53.9983 40.968C54.1597 40.9533 54.288 40.9313 54.3833 40.902C54.486 40.88 54.563 40.8433 54.6143 40.792C54.6657 40.748 54.6987 40.6857 54.7133 40.605C54.728 40.517 54.7353 40.407 54.7353 40.275V39.45H51.6883V37.404H58.3543V39.45H55.6043ZM52.4583 38.856H57.5843V38.009H52.4583V38.856ZM53.4923 40.165C53.3237 40.2823 53.1183 40.4107 52.8763 40.55C52.6343 40.682 52.3777 40.814 52.1063 40.946C51.835 41.078 51.5563 41.2027 51.2703 41.32C50.9843 41.4447 50.7167 41.5547 50.4673 41.65L50.1593 40.957C50.4087 40.869 50.6727 40.77 50.9513 40.66C51.2373 40.55 51.5123 40.4363 51.7763 40.319C52.0477 40.1943 52.3007 40.0697 52.5353 39.945C52.77 39.813 52.9717 39.692 53.1403 39.582L53.4923 40.165ZM56.7263 39.637C56.8877 39.6957 57.1003 39.7763 57.3643 39.879C57.6283 39.9743 57.9033 40.0843 58.1893 40.209C58.4753 40.3337 58.7577 40.462 59.0363 40.594C59.315 40.726 59.557 40.847 59.7623 40.957L59.4653 41.639C59.2673 41.5217 59.029 41.3933 58.7503 41.254C58.4717 41.1147 58.1893 40.979 57.9033 40.847C57.6173 40.715 57.3387 40.594 57.0673 40.484C56.8033 40.374 56.5833 40.2897 56.4073 40.231L56.7263 39.637ZM69.3255 38.614H62.4395V35.127H65.1235V31.992L65.9815 32.025V33.081H70.2715V33.884H65.9815V35.127H69.3255V38.614ZM68.5005 35.908H63.2645V37.811H68.5005V35.908ZM60.9105 41.529C61.0351 41.3823 61.1671 41.199 61.3065 40.979C61.4531 40.759 61.5925 40.5317 61.7245 40.297C61.8638 40.055 61.9885 39.8203 62.0985 39.593C62.2158 39.3583 62.3111 39.1567 62.3845 38.988L63.1215 39.263C63.0481 39.4463 62.9528 39.6627 62.8355 39.912C62.7181 40.154 62.5898 40.3997 62.4505 40.649C62.3185 40.8983 62.1828 41.1403 62.0435 41.375C61.9115 41.6097 61.7905 41.8077 61.6805 41.969L60.9105 41.529ZM69.1495 38.999C69.2595 39.1383 69.3878 39.3107 69.5345 39.516C69.6811 39.714 69.8278 39.9267 69.9745 40.154C70.1211 40.374 70.2605 40.5903 70.3925 40.803C70.5245 41.023 70.6308 41.2137 70.7115 41.375L70.0405 41.936C69.9598 41.7453 69.8535 41.5327 69.7215 41.298C69.5895 41.0633 69.4501 40.8323 69.3035 40.605C69.1568 40.3703 69.0101 40.1503 68.8635 39.945C68.7168 39.7323 68.5848 39.5527 68.4675 39.406L69.1495 38.999ZM67.0265 39.164C67.0925 39.3033 67.1658 39.4757 67.2465 39.681C67.3271 39.8863 67.4041 40.099 67.4775 40.319C67.5581 40.5317 67.6315 40.7407 67.6975 40.946C67.7708 41.1587 67.8258 41.342 67.8625 41.496L67.0815 41.782C67.0448 41.6133 66.9935 41.419 66.9275 41.199C66.8688 40.979 66.8028 40.759 66.7295 40.539C66.6561 40.319 66.5791 40.11 66.4985 39.912C66.4251 39.7067 66.3555 39.5343 66.2895 39.395L67.0265 39.164ZM64.8045 39.263C64.8485 39.4097 64.8961 39.5893 64.9475 39.802C64.9988 40.0073 65.0465 40.2237 65.0905 40.451C65.1418 40.671 65.1858 40.8873 65.2225 41.1C65.2665 41.3127 65.2958 41.496 65.3105 41.65L64.4965 41.881C64.4818 41.7123 64.4561 41.5143 64.4195 41.287C64.3828 41.067 64.3425 40.8433 64.2985 40.616C64.2545 40.3887 64.2068 40.1687 64.1555 39.956C64.1115 39.7433 64.0675 39.5637 64.0235 39.417L64.8045 39.263Z" fill="#3A5A8A"/>
<defs>
<linearGradient id="paint0_linear_674_34009" x1="104.865" y1="-0.214136" x2="11.721" y2="46.3414" gradientUnits="userSpaceOnUse">
<stop offset="0.5" stop-color="#809AF5"/>
<stop offset="0.5" stop-color="#3867E2"/>
</linearGradient>
</defs>
</svg>
