<svg width="107" height="63" viewBox="0 0 107 63" fill="none" xmlns="http://www.w3.org/2000/svg">
<path d="M43.7327 49H18.1234C16.9185 49 16.4255 51.5313 17.4808 52.1129C23.2953 55.3178 28.407 59.71 30.2653 61.3828C30.6827 61.7585 31.3259 61.7478 31.7316 61.3595C33.5166 59.651 38.4263 55.2043 44.3415 51.9712C45.3929 51.3966 44.9309 49 43.7327 49Z" fill="#4573E7"/>
<rect width="106.489" height="53.6492" rx="26.8246" fill="url(#paint0_linear_674_34007)"/>
<rect x="4.86823" y="4.86819" width="96.7521" height="43.9128" rx="21.9564" fill="#D6DFF5"/>
<path fill-rule="evenodd" clip-rule="evenodd" d="M40.2486 26.755C40.4134 26.8568 40.6032 26.9106 40.7969 26.9105C41.1487 26.9105 41.4914 26.7336 41.6897 26.4123C42.4609 25.1604 42.868 23.7203 42.868 22.248C42.868 17.8653 39.3025 14.2998 34.9208 14.2998C32.0294 14.2998 29.365 15.8749 27.9658 18.4105C27.6856 18.9167 27.8697 19.5539 28.377 19.8332C28.8843 20.1129 29.5205 19.9288 29.7997 19.422C30.8296 17.5549 32.7924 16.3945 34.9208 16.3945C38.1478 16.3945 40.7733 19.0206 40.7733 22.248C40.7733 23.3322 40.4736 24.3923 39.906 25.3139C39.6032 25.8064 39.7567 26.4517 40.2486 26.755ZM41.0088 31.7773C41.2155 32.032 41.5172 32.1639 41.822 32.1639H41.822C42.0625 32.1642 42.2957 32.0811 42.4817 31.9287C42.9307 31.5636 42.9982 30.9039 42.6331 30.4558L37.8168 24.5374C37.7196 24.4182 37.5974 24.3218 37.4588 24.2551C37.3202 24.1883 37.1687 24.1529 37.0148 24.1513H37.0046C36.8523 24.1514 36.7019 24.1846 36.5637 24.2487C36.4256 24.3128 36.3031 24.4063 36.2048 24.5226L33.5158 27.7025L26.9228 18.7556C26.7173 18.4759 26.3859 18.3219 26.0371 18.3306C25.8658 18.3377 25.6988 18.3867 25.5508 18.4733C25.4028 18.5598 25.2783 18.6814 25.1882 18.8272L18.0245 30.4467C17.7207 30.9387 17.8731 31.584 18.3661 31.8878C18.8591 32.1906 19.5035 32.0382 19.8072 31.5452L26.1578 21.2472L32.6168 30.012C32.7105 30.1396 32.8319 30.2441 32.9718 30.3178C33.1118 30.3915 33.2667 30.4324 33.4248 30.4375C33.7306 30.462 34.0528 30.3117 34.2594 30.0673L36.9893 26.8387L41.0088 31.7773ZM39.7948 34.1123C40.3737 34.1123 40.8421 34.5808 40.8421 35.1597L40.8421 35.1598C40.8421 35.7387 40.3736 36.2071 39.7947 36.2071H20.9425C20.3647 36.2071 19.8952 35.7387 19.8952 35.1597C19.8952 34.5808 20.3646 34.1123 20.9425 34.1123H39.7948ZM36.6527 37.2544C37.2316 37.2544 37.7001 37.7229 37.7001 38.3018C37.7001 38.8807 37.2317 39.3491 36.6527 39.3491H24.0846C23.5067 39.3491 23.0373 38.8807 23.0373 38.3018C23.0373 37.7229 23.5067 37.2544 24.0846 37.2544H36.6527Z" fill="#5578F6"/>
<path d="M61.8534 21.8272C61.8447 22.0439 61.8317 22.2692 61.8144 22.5032C61.797 22.7285 61.7667 22.9842 61.7234 23.2702C61.6714 23.5822 61.6107 23.8422 61.5414 24.0502C61.472 24.2582 61.368 24.4272 61.2294 24.5572C61.0994 24.6872 60.926 24.7825 60.7094 24.8432C60.4927 24.9039 60.211 24.9472 59.8644 24.9732C59.4657 24.9992 59.067 24.9992 58.6684 24.9732C58.3477 24.9472 58.0704 24.9039 57.8364 24.8432C57.611 24.7825 57.4247 24.6829 57.2774 24.5442C57.13 24.4055 57.0217 24.2149 56.9524 23.9722C56.883 23.7382 56.8484 23.4349 56.8484 23.0622V13.5462L58.1614 13.5982V22.8282C58.1614 22.9755 58.17 23.1012 58.1874 23.2052C58.2134 23.3005 58.2567 23.3785 58.3174 23.4392C58.378 23.4912 58.456 23.5345 58.5514 23.5692C58.6554 23.5952 58.7854 23.6169 58.9414 23.6342C59.1927 23.6602 59.444 23.6602 59.6954 23.6342C59.8687 23.6169 60.003 23.5952 60.0984 23.5692C60.2024 23.5345 60.2804 23.4869 60.3324 23.4262C60.393 23.3655 60.4364 23.2875 60.4624 23.1922C60.4884 23.0882 60.5144 22.9582 60.5404 22.8022C60.549 22.7069 60.5577 22.5985 60.5664 22.4772C60.5837 22.3472 60.5967 22.2172 60.6054 22.0872C60.6227 21.9572 60.6314 21.8315 60.6314 21.7102C60.64 21.5889 60.6444 21.4849 60.6444 21.3982L61.8534 21.8272ZM56.5234 19.4222C56.1334 19.5262 55.7434 19.6259 55.3534 19.7212C54.9634 19.8165 54.5517 19.9162 54.1184 20.0202V23.4132C54.1184 23.6905 54.088 23.9289 54.0274 24.1282C53.9667 24.3275 53.8627 24.4922 53.7154 24.6222C53.5767 24.7609 53.386 24.8649 53.1434 24.9342C52.9094 25.0122 52.619 25.0685 52.2724 25.1032L51.4534 25.1812L51.0504 23.8422L51.9474 23.7772C52.1554 23.7685 52.3157 23.7469 52.4284 23.7122C52.5497 23.6775 52.6407 23.6342 52.7014 23.5822C52.7707 23.5215 52.814 23.4435 52.8314 23.3482C52.8487 23.2529 52.8574 23.1402 52.8574 23.0102V20.3062C52.4847 20.3929 52.0947 20.4795 51.6874 20.5662C51.28 20.6529 50.8424 20.7439 50.3744 20.8392L50.2054 19.5002C50.7167 19.3962 51.189 19.3009 51.6224 19.2142C52.0557 19.1275 52.4674 19.0365 52.8574 18.9412V17.3552L54.6124 15.3272H50.7904V14.0142H56.2634V15.3272L54.1184 17.6932V18.6552C54.5084 18.5599 54.894 18.4645 55.2754 18.3692C55.6567 18.2739 56.0554 18.1699 56.4714 18.0572L56.5234 19.4222ZM70.2692 23.5432H74.3252V24.5962H65.8752V25.1292H64.6012V19.0712L63.3272 19.3832L63.0152 18.2262C64.2112 17.9749 65.3076 17.6975 66.3042 17.3942C67.3096 17.0822 68.2326 16.7399 69.0732 16.3672H68.1632V13.3902L69.4502 13.4422V16.1982C70.0829 15.8862 70.6679 15.5612 71.2052 15.2232C71.0839 15.1539 70.9669 15.0889 70.8542 15.0282C70.7416 14.9675 70.6376 14.9112 70.5422 14.8592L71.0362 13.8322C71.2616 13.9449 71.5172 14.0749 71.8032 14.2222C72.0892 14.3695 72.3796 14.5255 72.6742 14.6902C72.9689 14.8549 73.2592 15.0239 73.5452 15.1972C73.8312 15.3619 74.0912 15.5179 74.3252 15.6652L73.8312 16.8352C73.4846 16.5925 73.0859 16.3369 72.6352 16.0682C72.1932 15.7909 71.7599 15.5352 71.3352 15.3012L71.8682 16.2242C71.1922 16.6402 70.4556 17.0259 69.6582 17.3812C68.8696 17.7279 68.0116 18.0529 67.0842 18.3562H69.9442C69.9009 18.2002 69.8532 18.0485 69.8012 17.9012C69.7492 17.7452 69.6972 17.5849 69.6452 17.4202L70.8282 17.2122C70.8889 17.3682 70.9496 17.5502 71.0102 17.7582C71.0796 17.9575 71.1446 18.1569 71.2052 18.3562H73.9612V19.4092L70.2692 19.3962V20.1242H73.6102V21.1252H70.2692V21.8012H73.6102V22.8282H70.2692V23.5432ZM67.3052 14.9632C66.8459 15.3185 66.3389 15.6869 65.7842 16.0682C65.2296 16.4409 64.6836 16.7789 64.1462 17.0822L63.4442 15.9902C63.9469 15.7302 64.4842 15.4139 65.0562 15.0412C65.6282 14.6685 66.1612 14.2872 66.6552 13.8972L67.3052 14.9632ZM68.9822 19.3962L65.8752 19.3832V20.1242H68.9822V19.3962ZM68.9822 21.1252H65.8752V21.8012H68.9822V21.1252ZM65.8752 23.5432H68.9822V22.8282H65.8752V23.5432ZM86.7581 13.8062V25.1682H85.5621V24.6352H77.7621V25.1682H76.4621V13.8062H86.7581ZM85.5621 23.4782V15.0672H77.7621V23.4782H85.5621ZM84.4961 17.2122H78.7371V16.1332H84.4961V17.2122ZM85.1071 20.7482C85.0984 20.8955 85.0854 21.0342 85.0681 21.1642C85.0594 21.2855 85.0464 21.4199 85.0291 21.5672C85.0031 21.7752 84.9641 21.9529 84.9121 22.1002C84.8601 22.2475 84.7864 22.3689 84.6911 22.4642C84.5958 22.5509 84.4744 22.6159 84.3271 22.6592C84.1798 22.7025 83.9934 22.7242 83.7681 22.7242H82.8971C82.5071 22.7242 82.2254 22.6375 82.0521 22.4642C81.8874 22.2822 81.8051 21.9572 81.8051 21.4892V19.3962H80.8041C80.7868 19.9249 80.7304 20.3799 80.6351 20.7612C80.5398 21.1425 80.4011 21.4805 80.2191 21.7752C80.0371 22.0699 79.8118 22.3385 79.5431 22.5812C79.2831 22.8152 78.9754 23.0579 78.6201 23.3092L77.8791 22.2302C78.2084 22.0395 78.4814 21.8532 78.6981 21.6712C78.9234 21.4805 79.1054 21.2812 79.2441 21.0732C79.3828 20.8565 79.4824 20.6139 79.5431 20.3452C79.6038 20.0765 79.6428 19.7602 79.6601 19.3962H78.1521V18.3172H85.0811V19.3962H82.8971V21.2682C82.8971 21.4675 82.9231 21.5889 82.9751 21.6322C83.0358 21.6755 83.1528 21.6972 83.3261 21.6972H83.5211C83.6078 21.6972 83.6771 21.6929 83.7291 21.6842C83.7898 21.6755 83.8374 21.6539 83.8721 21.6192C83.9154 21.5845 83.9458 21.5325 83.9631 21.4632C83.9891 21.3852 84.0108 21.2855 84.0281 21.1642C84.0454 21.0169 84.0584 20.8912 84.0671 20.7872C84.0844 20.6745 84.0931 20.5662 84.0931 20.4622L85.1071 20.7482Z" fill="#123871"/>
<path d="M58.5414 35.468H51.5014V32.443H58.5414V35.468ZM52.2604 33.081V33.653H57.7824V33.081H52.2604ZM57.7824 34.852V34.269H52.2604V34.852H57.7824ZM59.7404 36.788H50.3024V36.15H54.6914C54.662 36.0546 54.6327 35.9666 54.6034 35.886C54.5814 35.798 54.5557 35.721 54.5264 35.655L55.3184 35.534C55.355 35.6146 55.388 35.71 55.4174 35.82C55.454 35.93 55.4907 36.04 55.5274 36.15H59.7404V36.788ZM55.6044 39.45V40.583C55.6044 40.803 55.5824 40.979 55.5384 41.111C55.5017 41.243 55.4284 41.3493 55.3184 41.43C55.2084 41.5106 55.058 41.5693 54.8674 41.606C54.684 41.65 54.4494 41.6866 54.1634 41.716L53.4814 41.782L53.2284 41.034L53.9984 40.968C54.1597 40.9533 54.288 40.9313 54.3834 40.902C54.486 40.88 54.563 40.8433 54.6144 40.792C54.6657 40.748 54.6987 40.6856 54.7134 40.605C54.728 40.517 54.7354 40.407 54.7354 40.275V39.45H51.6884V37.404H58.3544V39.45H55.6044ZM52.4584 38.856H57.5844V38.009H52.4584V38.856ZM53.4924 40.165C53.3237 40.2823 53.1184 40.4106 52.8764 40.55C52.6344 40.682 52.3777 40.814 52.1064 40.946C51.835 41.078 51.5564 41.2026 51.2704 41.32C50.9844 41.4446 50.7167 41.5546 50.4674 41.65L50.1594 40.957C50.4087 40.869 50.6727 40.77 50.9514 40.66C51.2374 40.55 51.5124 40.4363 51.7764 40.319C52.0477 40.1943 52.3007 40.0696 52.5354 39.945C52.77 39.813 52.9717 39.692 53.1404 39.582L53.4924 40.165ZM56.7264 39.637C56.8877 39.6956 57.1004 39.7763 57.3644 39.879C57.6284 39.9743 57.9034 40.0843 58.1894 40.209C58.4754 40.3336 58.7577 40.462 59.0364 40.594C59.315 40.726 59.557 40.847 59.7624 40.957L59.4654 41.639C59.2674 41.5216 59.029 41.3933 58.7504 41.254C58.4717 41.1146 58.1894 40.979 57.9034 40.847C57.6174 40.715 57.3387 40.594 57.0674 40.484C56.8034 40.374 56.5834 40.2896 56.4074 40.231L56.7264 39.637ZM69.3255 38.614H62.4395V35.127H65.1235V31.992L65.9815 32.025V33.081H70.2715V33.884H65.9815V35.127H69.3255V38.614ZM68.5005 35.908H63.2645V37.811H68.5005V35.908ZM60.9105 41.529C61.0352 41.3823 61.1672 41.199 61.3065 40.979C61.4532 40.759 61.5925 40.5316 61.7245 40.297C61.8638 40.055 61.9885 39.8203 62.0985 39.593C62.2158 39.3583 62.3112 39.1566 62.3845 38.988L63.1215 39.263C63.0482 39.4463 62.9528 39.6626 62.8355 39.912C62.7182 40.154 62.5898 40.3996 62.4505 40.649C62.3185 40.8983 62.1828 41.1403 62.0435 41.375C61.9115 41.6096 61.7905 41.8076 61.6805 41.969L60.9105 41.529ZM69.1495 38.999C69.2595 39.1383 69.3878 39.3106 69.5345 39.516C69.6812 39.714 69.8278 39.9266 69.9745 40.154C70.1212 40.374 70.2605 40.5903 70.3925 40.803C70.5245 41.023 70.6308 41.2136 70.7115 41.375L70.0405 41.936C69.9598 41.7453 69.8535 41.5326 69.7215 41.298C69.5895 41.0633 69.4502 40.8323 69.3035 40.605C69.1568 40.3703 69.0102 40.1503 68.8635 39.945C68.7168 39.7323 68.5848 39.5526 68.4675 39.406L69.1495 38.999ZM67.0265 39.164C67.0925 39.3033 67.1658 39.4756 67.2465 39.681C67.3272 39.8863 67.4042 40.099 67.4775 40.319C67.5582 40.5316 67.6315 40.7406 67.6975 40.946C67.7708 41.1586 67.8258 41.342 67.8625 41.496L67.0815 41.782C67.0448 41.6133 66.9935 41.419 66.9275 41.199C66.8688 40.979 66.8028 40.759 66.7295 40.539C66.6562 40.319 66.5792 40.11 66.4985 39.912C66.4252 39.7066 66.3555 39.5343 66.2895 39.395L67.0265 39.164ZM64.8045 39.263C64.8485 39.4096 64.8962 39.5893 64.9475 39.802C64.9988 40.0073 65.0465 40.2236 65.0905 40.451C65.1418 40.671 65.1858 40.8873 65.2225 41.1C65.2665 41.3126 65.2958 41.496 65.3105 41.65L64.4965 41.881C64.4818 41.7123 64.4562 41.5143 64.4195 41.287C64.3828 41.067 64.3425 40.8433 64.2985 40.616C64.2545 40.3886 64.2068 40.1686 64.1555 39.956C64.1115 39.7433 64.0675 39.5636 64.0235 39.417L64.8045 39.263Z" fill="#3A5A8A"/>
<defs>
<linearGradient id="paint0_linear_674_34007" x1="93.4558" y1="-0.214136" x2="6.88527" y2="38.3483" gradientUnits="userSpaceOnUse">
<stop offset="0.5" stop-color="#809AF5"/>
<stop offset="0.5" stop-color="#3867E2"/>
</linearGradient>
</defs>
</svg>
