<svg width="146" height="63" viewBox="0 0 146 63" fill="none" xmlns="http://www.w3.org/2000/svg">
<path d="M43.7327 49H18.1234C16.9185 49 16.4255 51.5313 17.4808 52.1129C23.2953 55.3178 28.407 59.71 30.2653 61.3828C30.6827 61.7585 31.3259 61.7478 31.7316 61.3595C33.5166 59.651 38.4263 55.2043 44.3415 51.9712C45.3929 51.3966 44.9309 49 43.7327 49Z" fill="#4573E7"/>
<rect width="145.489" height="53.6492" rx="26.8246" fill="url(#paint0_linear_674_34012)"/>
<rect x="4.86819" y="4.86821" width="135.752" height="43.9128" rx="21.9564" fill="#D6DFF5"/>
<path d="M22.9238 13.8246H38.8126C39.3873 13.8246 39.9384 14.0529 40.3447 14.4592C40.751 14.8655 40.9793 15.4166 40.9793 15.9913V37.6579C40.9793 38.2326 40.751 38.7837 40.3447 39.19C39.9384 39.5963 39.3873 39.8246 38.8126 39.8246H22.9238C22.3491 39.8246 21.798 39.5963 21.3917 39.19C20.9854 38.7837 20.7571 38.2326 20.7571 37.6579V15.9913C20.7571 15.4166 20.9854 14.8655 21.3917 14.4592C21.798 14.0529 22.3491 13.8246 22.9238 13.8246ZM22.9238 15.9913V37.6579H38.8126V15.9913H22.9238ZM36.646 31.519C36.646 31.8064 36.5318 32.0819 36.3287 32.2851C36.1255 32.4882 35.85 32.6024 35.5626 32.6024H30.5071C30.2198 32.6024 29.9442 32.4882 29.7411 32.2851C29.5379 32.0819 29.4238 31.8064 29.4238 31.519C29.4238 31.2317 29.5379 30.9562 29.7411 30.753C29.9442 30.5499 30.2198 30.4357 30.5071 30.4357H35.5626C35.85 30.4357 36.1255 30.5499 36.3287 30.753C36.5318 30.9562 36.646 31.2317 36.646 31.519ZM43.8682 38.7413C43.8682 39.0286 43.7541 39.3041 43.5509 39.5073C43.3477 39.7105 43.0722 39.8246 42.7849 39.8246H18.9515C18.6642 39.8246 18.3887 39.7105 18.1855 39.5073C17.9823 39.3041 17.8682 39.0286 17.8682 38.7413C17.8682 38.454 17.9823 38.1784 18.1855 37.9752C18.3887 37.7721 18.6642 37.6579 18.9515 37.6579H42.7849C43.0722 37.6579 43.3477 37.7721 43.5509 37.9752C43.7541 38.1784 43.8682 38.454 43.8682 38.7413ZM27.2571 18.1579H34.4793C35.0539 18.1579 35.605 18.3862 36.0114 18.7925C36.4177 19.1989 36.646 19.75 36.646 20.3246V23.9357C36.646 24.5103 36.4177 25.0615 36.0114 25.4678C35.605 25.8741 35.0539 26.1024 34.4793 26.1024H27.2571C26.6824 26.1024 26.1313 25.8741 25.725 25.4678C25.3187 25.0615 25.0904 24.5103 25.0904 23.9357V20.3246C25.0904 19.75 25.3187 19.1989 25.725 18.7925C26.1313 18.3862 26.6824 18.1579 27.2571 18.1579ZM27.2571 20.3246V23.9357H34.4793V20.3246H27.2571Z" fill="#5578F6"/>
<path d="M53.0513 18.2262H51.7773V15.5612H53.6623C53.515 15.2925 53.3547 15.0239 53.1813 14.7552C53.008 14.4779 52.826 14.1919 52.6353 13.8972L53.7793 13.3122C53.9873 13.6155 54.204 13.9492 54.4293 14.3132C54.6633 14.6685 54.867 14.9979 55.0403 15.3012L54.6373 15.5612H56.7043C56.557 15.2579 56.4053 14.9459 56.2493 14.6252C56.0933 14.2959 55.9373 13.9925 55.7813 13.7152L56.8993 13.1952C57.064 13.4725 57.246 13.8062 57.4453 14.1962C57.6533 14.5862 57.8483 14.9632 58.0303 15.3272L57.6403 15.5612H58.7713C59.0487 15.1452 59.3087 14.7465 59.5513 14.3652C59.794 13.9839 60.0063 13.6329 60.1883 13.3122L61.3973 13.9362C61.2413 14.1875 61.068 14.4519 60.8773 14.7292C60.6953 15.0065 60.509 15.2839 60.3183 15.5612H62.2553V18.2262H61.0073V16.7832H53.0513V18.2262ZM62.6193 21.9702H57.8873V23.4912C57.8873 23.8205 57.857 24.0805 57.7963 24.2712C57.7357 24.4705 57.6317 24.6265 57.4843 24.7392C57.3457 24.8605 57.1593 24.9472 56.9253 24.9992C56.6913 25.0512 56.3967 25.0945 56.0413 25.1292L55.1183 25.2202L54.7153 23.8942L55.7553 23.8162C55.92 23.8075 56.05 23.7945 56.1453 23.7772C56.2493 23.7512 56.3273 23.7165 56.3793 23.6732C56.4313 23.6212 56.466 23.5519 56.4833 23.4652C56.5007 23.3699 56.5093 23.2442 56.5093 23.0882V21.9702H51.4133V20.7092H56.5093V20.1632C56.596 20.1112 56.7433 20.0245 56.9513 19.9032C57.168 19.7819 57.389 19.6605 57.6143 19.5392C57.8483 19.4092 58.065 19.2965 58.2643 19.2012C58.4637 19.0972 58.6023 19.0452 58.6803 19.0452H53.5063V17.8232H60.8253V19.0452C60.7127 19.0712 60.5263 19.1535 60.2663 19.2922C60.015 19.4309 59.7377 19.5869 59.4343 19.7602C59.1397 19.9335 58.8493 20.1069 58.5633 20.2802C58.2773 20.4535 58.052 20.5879 57.8873 20.6832V20.7092H62.6193V21.9702ZM69.5532 16.4842C69.4579 16.7615 69.3539 17.0259 69.2412 17.2772C69.1285 17.5285 69.0115 17.7799 68.8902 18.0312V25.1032H67.6812V19.9682C67.5599 20.1329 67.4342 20.2932 67.3042 20.4492C67.1829 20.5965 67.0529 20.7482 66.9142 20.9042L66.4202 20.2542C66.3942 20.7742 66.3465 21.2465 66.2772 21.6712C66.2079 22.0959 66.1169 22.4989 66.0042 22.8802C65.8915 23.2615 65.7529 23.6385 65.5882 24.0112C65.4235 24.3839 65.2285 24.7825 65.0032 25.2072L63.8072 24.5702C64.0672 24.1022 64.2839 23.6645 64.4572 23.2572C64.6305 22.8499 64.7692 22.4339 64.8732 22.0092C64.9772 21.5845 65.0465 21.1339 65.0812 20.6572C65.1245 20.1719 65.1462 19.6215 65.1462 19.0062V14.7422H69.7482C69.6962 14.5602 69.6399 14.3825 69.5792 14.2092C69.5272 14.0272 69.4665 13.8452 69.3972 13.6632L70.7622 13.4422C70.8489 13.6675 70.9269 13.8799 70.9962 14.0792C71.0742 14.2699 71.1479 14.4909 71.2172 14.7422H75.3122V15.9642H66.4462V18.8632C66.4462 18.9932 66.4462 19.1189 66.4462 19.2402C66.4462 19.3529 66.4419 19.4699 66.4332 19.5912C66.8319 19.1145 67.2045 18.5685 67.5512 17.9532C67.8979 17.3379 68.1795 16.7052 68.3962 16.0552L69.5532 16.4842ZM75.5072 19.0842H73.9862V23.4522C73.9862 23.7469 73.9559 23.9852 73.8952 24.1672C73.8432 24.3579 73.7522 24.5095 73.6222 24.6222C73.4922 24.7435 73.3145 24.8345 73.0892 24.8952C72.8639 24.9559 72.5822 24.9992 72.2442 25.0252L71.3732 25.1032L70.9832 23.9332L71.8672 23.8682C72.2399 23.8422 72.4782 23.7729 72.5822 23.6602C72.6949 23.5389 72.7512 23.3395 72.7512 23.0622V19.0842H69.2672V17.8882H72.7512V16.2762L73.9862 16.3282V17.8882H75.5072V19.0842ZM71.1392 22.5162C71.0439 22.3515 70.9182 22.1522 70.7622 21.9182C70.6149 21.6755 70.4589 21.4329 70.2942 21.1902C70.1382 20.9475 69.9865 20.7222 69.8392 20.5142C69.6919 20.2975 69.5705 20.1285 69.4752 20.0072L70.3982 19.3572C70.5109 19.4959 70.6409 19.6692 70.7882 19.8772C70.9355 20.0765 71.0872 20.2889 71.2432 20.5142C71.3992 20.7395 71.5465 20.9649 71.6852 21.1902C71.8325 21.4069 71.9582 21.6019 72.0622 21.7752L71.1392 22.5162ZM83.2731 17.8882C83.4291 18.5555 83.6501 19.1752 83.9361 19.7472C84.2221 20.3105 84.5774 20.8392 85.0021 21.3332C85.4267 21.8272 85.9251 22.2952 86.4971 22.7372C87.0777 23.1705 87.7364 23.5865 88.4731 23.9852L87.6411 25.2982C86.4277 24.5529 85.4094 23.7425 84.5861 22.8672C83.7627 21.9919 83.1301 21.0602 82.6881 20.0722C82.4541 20.6182 82.1594 21.1382 81.8041 21.6322C81.4487 22.1175 81.0544 22.5769 80.6211 23.0102C80.1877 23.4435 79.7197 23.8509 79.2171 24.2322C78.7231 24.6222 78.2117 24.9905 77.6831 25.3372L76.8381 23.9852C77.4794 23.6212 78.0861 23.2225 78.6581 22.7892C79.2387 22.3472 79.7501 21.8662 80.1921 21.3462C80.6427 20.8262 81.0111 20.2672 81.2971 19.6692C81.5917 19.0625 81.7737 18.4125 81.8431 17.7192H77.2801V16.3932H81.8821V13.4162L83.3121 13.4682V16.3932H87.9531V17.7192H83.2861C83.2861 17.7452 83.2817 17.7712 83.2731 17.7972C83.2731 17.8232 83.2731 17.8535 83.2731 17.8882ZM95.992 15.8082H92.924V14.7422H94.991C94.861 14.5689 94.731 14.3955 94.601 14.2222C94.471 14.0489 94.3323 13.8799 94.185 13.7152L95.108 13.0132C95.3073 13.2299 95.485 13.4335 95.641 13.6242C95.8056 13.8149 95.9616 14.0315 96.109 14.2742L95.602 14.7422H97.162C97.266 14.6122 97.3743 14.4692 97.487 14.3132C97.6083 14.1485 97.7253 13.9882 97.838 13.8322C97.9593 13.6762 98.0676 13.5289 98.163 13.3902C98.267 13.2515 98.3493 13.1345 98.41 13.0392L99.515 13.6372C99.4196 13.7845 99.294 13.9579 99.138 14.1572C98.9906 14.3479 98.8433 14.5429 98.696 14.7422H100.867V15.8082H97.344C97.2746 16.0855 97.201 16.3542 97.123 16.6142H99.97V22.8022H93.587V16.6142H95.758L95.992 15.8082ZM91.637 16.8352C91.5503 16.6792 91.4376 16.4885 91.299 16.2632C91.1603 16.0292 91.0086 15.7952 90.844 15.5612C90.688 15.3185 90.5276 15.0889 90.363 14.8722C90.1983 14.6469 90.051 14.4605 89.921 14.3132L90.922 13.5722C91.0346 13.7109 91.169 13.8799 91.325 14.0792C91.481 14.2785 91.637 14.4909 91.793 14.7162C91.949 14.9415 92.1006 15.1669 92.248 15.3922C92.3953 15.6089 92.5253 15.8082 92.638 15.9902L91.637 16.8352ZM95.381 23.5952C96.3516 23.6125 97.318 23.6125 98.28 23.5952C99.242 23.5779 100.208 23.5432 101.179 23.4912L100.919 24.7262C99.9483 24.7782 98.995 24.8129 98.059 24.8302C97.123 24.8475 96.1696 24.8475 95.199 24.8302C94.7743 24.8215 94.3973 24.7955 94.068 24.7522C93.7473 24.7175 93.4526 24.6439 93.184 24.5312C92.924 24.4185 92.6813 24.2669 92.456 24.0762C92.2306 23.8855 92.001 23.6385 91.767 23.3352C91.507 23.6125 91.2513 23.8942 91 24.1802C90.7573 24.4749 90.5103 24.7522 90.259 25.0122L89.427 23.9592C89.713 23.6819 89.999 23.3959 90.285 23.1012C90.5796 22.8065 90.857 22.5032 91.117 22.1912V18.9022H89.791V17.5892H92.339V22.1652C92.5296 22.4512 92.7203 22.6852 92.911 22.8672C93.1103 23.0492 93.327 23.1922 93.561 23.2962C93.8036 23.4002 94.0723 23.4739 94.367 23.5172C94.6616 23.5605 94.9996 23.5865 95.381 23.5952ZM98.67 17.5892H94.887V18.3692H98.67V17.5892ZM94.887 20.0982H98.67V19.3182H94.887V20.0982ZM98.67 21.8142V21.0472H94.887V21.8142H98.67ZM114.002 23.1922V24.5572H102.406V23.1922H104.343V17.0692L105.682 17.1212V23.1922H108.074V15.6002H103.134V14.2482H113.469V15.6002H109.413V18.4342H113.04V19.8122H109.413V23.1922H114.002ZM118.193 16.2632C118.089 16.1245 117.95 15.9599 117.777 15.7692C117.612 15.5699 117.439 15.3705 117.257 15.1712C117.075 14.9719 116.893 14.7812 116.711 14.5992C116.529 14.4172 116.373 14.2655 116.243 14.1442L117.101 13.2342C117.239 13.3382 117.4 13.4725 117.582 13.6372C117.764 13.8019 117.946 13.9795 118.128 14.1702C118.318 14.3522 118.5 14.5385 118.674 14.7292C118.847 14.9112 118.994 15.0715 119.116 15.2102L118.193 16.2632ZM123.796 23.7512C124.004 23.7425 124.168 23.7252 124.29 23.6992C124.411 23.6732 124.502 23.6299 124.563 23.5692C124.632 23.4999 124.675 23.4089 124.693 23.2962C124.719 23.1749 124.732 23.0145 124.732 22.8152V15.4312H119.402V14.1962H126.071V23.2572C126.071 23.6385 126.049 23.9462 126.006 24.1802C125.962 24.4142 125.876 24.5962 125.746 24.7262C125.624 24.8649 125.451 24.9602 125.226 25.0122C125.009 25.0729 124.719 25.1119 124.355 25.1292L123.224 25.1942L122.821 23.8032L123.796 23.7512ZM115.918 15.7302L117.218 15.7822V24.9732H115.918V15.7302Z" fill="#123871"/>
<path d="M53.6233 34.049L51.7313 34.412V33.609L53.9643 33.147H54.6133V40.781H53.6233V34.049ZM65.6485 35.314H59.0155V32.487H65.6485V35.314ZM64.8235 33.191H59.8515V34.61H64.8235V33.191ZM60.4565 37.019L60.2365 38.163H65.5165C65.5091 38.2437 65.4981 38.3793 65.4835 38.57C65.4761 38.7533 65.4615 38.9513 65.4395 39.164C65.4248 39.3693 65.4101 39.5673 65.3955 39.758C65.3808 39.9413 65.3698 40.0697 65.3625 40.143C65.3331 40.4657 65.2781 40.726 65.1975 40.924C65.1241 41.122 64.9995 41.2797 64.8235 41.397C64.6475 41.5143 64.4055 41.5987 64.0975 41.65C63.7895 41.7013 63.3898 41.7417 62.8985 41.771L61.9415 41.826L61.6775 40.99L62.8655 40.946C63.2028 40.9313 63.4705 40.9093 63.6685 40.88C63.8738 40.8507 64.0315 40.803 64.1415 40.737C64.2515 40.6637 64.3285 40.5647 64.3725 40.44C64.4165 40.3153 64.4458 40.154 64.4605 39.956C64.4678 39.8973 64.4751 39.8203 64.4825 39.725C64.4971 39.6297 64.5081 39.5343 64.5155 39.439C64.5301 39.3363 64.5411 39.2373 64.5485 39.142C64.5631 39.0467 64.5705 38.966 64.5705 38.9H59.1585L59.5325 37.019H57.5085V36.293H67.1775V37.019H60.4565ZM69.6786 31.948C69.7959 32.0433 69.9316 32.1643 70.0856 32.311C70.2469 32.4577 70.4083 32.6117 70.5696 32.773C70.7309 32.9343 70.8849 33.0957 71.0316 33.257C71.1783 33.411 71.2993 33.5467 71.3946 33.664L70.8336 34.39C70.7383 34.2507 70.6173 34.093 70.4706 33.917C70.3313 33.741 70.1809 33.5687 70.0196 33.4C69.8656 33.2313 69.7116 33.07 69.5576 32.916C69.4036 32.762 69.2679 32.6373 69.1506 32.542L69.6786 31.948ZM77.3786 40.231C77.3786 40.5317 77.3529 40.77 77.3016 40.946C77.2576 41.1293 77.1769 41.2687 77.0596 41.364C76.9496 41.4667 76.7956 41.5363 76.5976 41.573C76.4069 41.617 76.1649 41.6537 75.8716 41.683L74.9146 41.771L74.6506 40.902L75.6076 40.836C75.8056 40.8213 75.9633 40.803 76.0806 40.781C76.2053 40.759 76.3006 40.7187 76.3666 40.66C76.4326 40.594 76.4766 40.506 76.4986 40.396C76.5206 40.286 76.5316 40.1357 76.5316 39.945V33.51H71.8346V32.707H77.3786V40.231ZM69.8106 34.005V41.727H68.9966V33.961L69.8106 34.005Z" fill="#3A5A8A"/>
<defs>
<linearGradient id="paint0_linear_674_34012" x1="127.683" y1="-0.214136" x2="24.248" y2="62.7345" gradientUnits="userSpaceOnUse">
<stop offset="0.5" stop-color="#809AF5"/>
<stop offset="0.5" stop-color="#3867E2"/>
</linearGradient>
</defs>
</svg>
