<svg width="98" height="63" viewBox="0 0 98 63" fill="none" xmlns="http://www.w3.org/2000/svg">
<path d="M43.7327 49H18.1234C16.9185 49 16.4255 51.5313 17.4808 52.1129C23.2953 55.3178 28.407 59.71 30.2653 61.3828C30.6827 61.7585 31.3259 61.7478 31.7316 61.3595C33.5166 59.651 38.4263 55.2043 44.3415 51.9712C45.3929 51.3966 44.9309 49 43.7327 49Z" fill="#4573E7"/>
<rect width="97.4886" height="53.6492" rx="26.8246" fill="url(#paint0_linear_674_34013)"/>
<rect x="4.86823" y="4.86821" width="87.7521" height="43.9128" rx="21.9564" fill="#D6DFF5"/>
<path d="M22.9238 13.8246H38.8127C39.3873 13.8246 39.9384 14.0529 40.3447 14.4592C40.7511 14.8655 40.9793 15.4166 40.9793 15.9913V37.6579C40.9793 38.2326 40.7511 38.7837 40.3447 39.19C39.9384 39.5963 39.3873 39.8246 38.8127 39.8246H22.9238C22.3491 39.8246 21.798 39.5963 21.3917 39.19C20.9854 38.7837 20.7571 38.2326 20.7571 37.6579V15.9913C20.7571 15.4166 20.9854 14.8655 21.3917 14.4592C21.798 14.0529 22.3491 13.8246 22.9238 13.8246ZM22.9238 15.9913V37.6579H38.8127V15.9913H22.9238ZM36.646 31.519C36.646 31.8064 36.5319 32.0819 36.3287 32.2851C36.1255 32.4882 35.85 32.6024 35.5627 32.6024H30.5071C30.2198 32.6024 29.9442 32.4882 29.7411 32.2851C29.5379 32.0819 29.4238 31.8064 29.4238 31.519C29.4238 31.2317 29.5379 30.9562 29.7411 30.753C29.9442 30.5498 30.2198 30.4357 30.5071 30.4357H35.5627C35.85 30.4357 36.1255 30.5498 36.3287 30.753C36.5319 30.9562 36.646 31.2317 36.646 31.519ZM43.8682 38.7413C43.8682 39.0286 43.7541 39.3041 43.5509 39.5073C43.3478 39.7105 43.0722 39.8246 42.7849 39.8246H18.9516C18.6642 39.8246 18.3887 39.7105 18.1855 39.5073C17.9824 39.3041 17.8682 39.0286 17.8682 38.7413C17.8682 38.4539 17.9824 38.1784 18.1855 37.9752C18.3887 37.7721 18.6642 37.6579 18.9516 37.6579H42.7849C43.0722 37.6579 43.3478 37.7721 43.5509 37.9752C43.7541 38.1784 43.8682 38.4539 43.8682 38.7413ZM27.2571 18.1579H34.4793C35.054 18.1579 35.6051 18.3862 36.0114 18.7925C36.4177 19.1989 36.646 19.75 36.646 20.3246V23.9357C36.646 24.5103 36.4177 25.0614 36.0114 25.4678C35.6051 25.8741 35.054 26.1024 34.4793 26.1024H27.2571C26.6825 26.1024 26.1314 25.8741 25.725 25.4678C25.3187 25.0614 25.0904 24.5103 25.0904 23.9357V20.3246C25.0904 19.75 25.3187 19.1989 25.725 18.7925C26.1314 18.3862 26.6825 18.1579 27.2571 18.1579ZM27.2571 20.3246V23.9357H34.4793V20.3246H27.2571Z" fill="#5578F6"/>
<path d="M57.9394 20.1632V23.4522C57.9394 23.7642 57.909 24.0199 57.8484 24.2192C57.7964 24.4185 57.701 24.5745 57.5624 24.6872C57.4237 24.8085 57.2417 24.8952 57.0164 24.9472C56.7997 24.9992 56.531 25.0382 56.2104 25.0642L55.4434 25.1292L55.0664 23.8552L55.8854 23.8032C56.232 23.7859 56.453 23.7339 56.5484 23.6472C56.6437 23.5519 56.6914 23.3785 56.6914 23.1272V20.1632H52.4794V18.8892C52.7134 18.5685 52.9734 18.1699 53.2594 17.6932C53.554 17.2079 53.8444 16.7009 54.1304 16.1722H51.6474V14.9372H54.7674C54.9407 14.5905 55.0967 14.2655 55.2354 13.9622C55.374 13.6589 55.491 13.3945 55.5864 13.1692L56.8994 13.6892C56.8387 13.8452 56.7607 14.0315 56.6654 14.2482C56.57 14.4562 56.4617 14.6859 56.3404 14.9372H62.2684V16.1722H55.7164C55.5604 16.4582 55.4044 16.7442 55.2484 17.0302C55.0924 17.3075 54.9407 17.5675 54.7934 17.8102C54.6547 18.0529 54.5247 18.2695 54.4034 18.4602C54.282 18.6509 54.178 18.8025 54.0914 18.9152H56.6914V16.7052L57.9394 16.7572V18.9152H61.6964V20.1632H57.9394ZM59.4344 20.5402C59.9457 20.9822 60.483 21.4675 61.0464 21.9962C61.6097 22.5249 62.1514 23.0709 62.6714 23.6342L61.8004 24.7912C61.549 24.5052 61.2847 24.2149 61.0074 23.9202C60.73 23.6255 60.4484 23.3395 60.1624 23.0622C59.8764 22.7762 59.5904 22.5032 59.3044 22.2432C59.027 21.9832 58.7627 21.7449 58.5114 21.5282L59.4344 20.5402ZM55.2224 21.4242C55.0317 21.7102 54.802 22.0092 54.5334 22.3212C54.2734 22.6332 53.996 22.9452 53.7014 23.2572C53.4154 23.5605 53.1207 23.8552 52.8174 24.1412C52.514 24.4272 52.2324 24.6829 51.9724 24.9082L51.0884 23.8032C51.3397 23.6039 51.604 23.3785 51.8814 23.1272C52.1674 22.8672 52.449 22.5985 52.7264 22.3212C53.0124 22.0352 53.281 21.7449 53.5324 21.4502C53.7837 21.1469 54.0004 20.8522 54.1824 20.5662L55.2224 21.4242ZM70.3441 16.2632C70.2401 16.1245 70.1014 15.9599 69.9281 15.7692C69.7634 15.5699 69.5901 15.3705 69.4081 15.1712C69.2261 14.9719 69.0441 14.7812 68.8621 14.5992C68.6801 14.4172 68.5241 14.2655 68.3941 14.1442L69.2521 13.2342C69.3908 13.3382 69.5511 13.4725 69.7331 13.6372C69.9151 13.8019 70.0971 13.9795 70.2791 14.1702C70.4698 14.3522 70.6518 14.5385 70.8251 14.7292C70.9984 14.9112 71.1458 15.0715 71.2671 15.2102L70.3441 16.2632ZM75.9471 23.7512C76.1551 23.7425 76.3198 23.7252 76.4411 23.6992C76.5624 23.6732 76.6534 23.6299 76.7141 23.5692C76.7834 23.4999 76.8268 23.4089 76.8441 23.2962C76.8701 23.1749 76.8831 23.0145 76.8831 22.8152V15.4312H71.5531V14.1962H78.2221V23.2572C78.2221 23.6385 78.2004 23.9462 78.1571 24.1802C78.1138 24.4142 78.0271 24.5962 77.8971 24.7262C77.7758 24.8649 77.6024 24.9602 77.3771 25.0122C77.1604 25.0729 76.8701 25.1119 76.5061 25.1292L75.3751 25.1942L74.9721 23.8032L75.9471 23.7512ZM68.0691 15.7302L69.3691 15.7822V24.9732H68.0691V15.7302Z" fill="#123871"/>
<path d="M51.2474 39.736C52.0614 39.098 52.714 38.5553 53.2054 38.108C53.6967 37.6607 54.078 37.2683 54.3494 36.931C54.6207 36.5937 54.8004 36.293 54.8884 36.029C54.9764 35.7577 55.0204 35.4863 55.0204 35.215C55.0204 34.9437 54.969 34.72 54.8664 34.544C54.771 34.368 54.6464 34.2287 54.4924 34.126C54.3384 34.0233 54.1624 33.9537 53.9644 33.917C53.7737 33.8803 53.5867 33.862 53.4034 33.862C53.1614 33.862 52.9047 33.8767 52.6334 33.906C52.362 33.928 52.076 33.9793 51.7754 34.06V33.213C52.032 33.1543 52.3034 33.1103 52.5894 33.081C52.8827 33.0517 53.1907 33.037 53.5134 33.037C53.8874 33.037 54.2247 33.0773 54.5254 33.158C54.826 33.2387 55.0827 33.367 55.2954 33.543C55.5154 33.719 55.6804 33.9463 55.7904 34.225C55.9077 34.5037 55.9664 34.8373 55.9664 35.226C55.9664 35.5707 55.915 35.897 55.8124 36.205C55.7097 36.5057 55.5374 36.821 55.2954 37.151C55.0534 37.4737 54.727 37.8257 54.3164 38.207C53.9057 38.581 53.3924 39.0137 52.7764 39.505L52.3364 39.846V39.945H56.2744V40.781H51.2474V39.736ZM65.6485 35.314H59.0155V32.487H65.6485V35.314ZM64.8235 33.191H59.8515V34.61H64.8235V33.191ZM60.4565 37.019L60.2365 38.163H65.5165C65.5092 38.2437 65.4982 38.3793 65.4835 38.57C65.4762 38.7533 65.4615 38.9513 65.4395 39.164C65.4248 39.3693 65.4102 39.5673 65.3955 39.758C65.3808 39.9413 65.3698 40.0697 65.3625 40.143C65.3332 40.4657 65.2782 40.726 65.1975 40.924C65.1242 41.122 64.9995 41.2797 64.8235 41.397C64.6475 41.5143 64.4055 41.5987 64.0975 41.65C63.7895 41.7013 63.3898 41.7417 62.8985 41.771L61.9415 41.826L61.6775 40.99L62.8655 40.946C63.2028 40.9313 63.4705 40.9093 63.6685 40.88C63.8738 40.8507 64.0315 40.803 64.1415 40.737C64.2515 40.6637 64.3285 40.5647 64.3725 40.44C64.4165 40.3153 64.4458 40.154 64.4605 39.956C64.4678 39.8973 64.4752 39.8203 64.4825 39.725C64.4972 39.6297 64.5082 39.5343 64.5155 39.439C64.5302 39.3363 64.5412 39.2373 64.5485 39.142C64.5632 39.0467 64.5705 38.966 64.5705 38.9H59.1585L59.5325 37.019H57.5085V36.293H67.1775V37.019H60.4565ZM69.6786 31.948C69.796 32.0433 69.9316 32.1643 70.0856 32.311C70.247 32.4577 70.4083 32.6117 70.5696 32.773C70.731 32.9343 70.885 33.0957 71.0316 33.257C71.1783 33.411 71.2993 33.5467 71.3946 33.664L70.8336 34.39C70.7383 34.2507 70.6173 34.093 70.4706 33.917C70.3313 33.741 70.181 33.5687 70.0196 33.4C69.8656 33.2313 69.7116 33.07 69.5576 32.916C69.4036 32.762 69.268 32.6373 69.1506 32.542L69.6786 31.948ZM77.3786 40.231C77.3786 40.5317 77.353 40.77 77.3016 40.946C77.2576 41.1293 77.177 41.2687 77.0596 41.364C76.9496 41.4667 76.7956 41.5363 76.5976 41.573C76.407 41.617 76.165 41.6537 75.8716 41.683L74.9146 41.771L74.6506 40.902L75.6076 40.836C75.8056 40.8213 75.9633 40.803 76.0806 40.781C76.2053 40.759 76.3006 40.7187 76.3666 40.66C76.4326 40.594 76.4766 40.506 76.4986 40.396C76.5206 40.286 76.5316 40.1357 76.5316 39.945V33.51H71.8346V32.707H77.3786V40.231ZM69.8106 34.005V41.727H68.9966V33.961L69.8106 34.005Z" fill="#3A5A8A"/>
<defs>
<linearGradient id="paint0_linear_674_34013" x1="85.5573" y1="-0.214136" x2="4.12054" y2="32.9956" gradientUnits="userSpaceOnUse">
<stop offset="0.5" stop-color="#809AF5"/>
<stop offset="0.5" stop-color="#3867E2"/>
</linearGradient>
</defs>
</svg>
