<svg width="122" height="53" viewBox="0 0 122 53" fill="none" xmlns="http://www.w3.org/2000/svg">
<path d="M37.9925 39.5544H12.3832C11.1782 39.5544 10.6853 42.0858 11.7406 42.6674C17.5551 45.8722 22.6667 50.2645 24.525 51.9372C24.9424 52.3129 25.5857 52.3022 25.9914 51.9139C27.7764 50.2055 32.6861 45.7588 38.6012 42.5257C39.6526 41.951 39.1907 39.5544 37.9925 39.5544Z" fill="#4573E7"/>
<rect width="121.095" height="45.4013" rx="22.7007" fill="url(#paint0_linear_674_34011)"/>
<rect x="4.86823" y="4.86819" width="111.359" height="35.6649" rx="17.8325" fill="#D6DFF5"/>
<path d="M20.667 27.5282C17.586 28.2946 15.9742 31.4695 17.7757 32.6191C19.8613 33.6592 22.5055 33.0769 23.8431 32.6191C25.4426 32.0717 26.8293 30.8127 26.8293 29.7726V18.1127C31.0007 19.1528 34.9825 22.3278 35.2669 22.8752C35.5513 23.4226 32.7072 24.7364 33.0864 24.9553C33.4656 25.1743 35.741 24.2437 36.8786 22.711C38.0163 21.1782 32.0436 17.7843 31.0955 17.0726C30.3371 16.6347 26.7345 13.6422 25.028 12.2007V27.5282C24.0167 27.4552 22.5159 27.2545 20.667 27.5282Z" fill="#547EE9"/>
<path d="M54.2513 14.5837V15.5965H44.4269V14.5837H46.914C46.8765 14.3436 46.8352 14.0998 46.7902 13.8522C46.7527 13.5972 46.7152 13.3721 46.6777 13.177H45.0459V12.1304H48.8046C48.7671 11.9879 48.7296 11.8529 48.692 11.7253C48.6545 11.5903 48.6095 11.4515 48.557 11.3089L49.6936 11.1176C49.7536 11.2677 49.8099 11.4327 49.8624 11.6128C49.9149 11.7853 49.9674 11.9579 50.02 12.1304H53.6324V13.177H52.0681C52.0156 13.3946 51.9593 13.6234 51.8993 13.8635C51.8468 14.1036 51.7905 14.3436 51.7305 14.5837H54.2513ZM47.8368 13.177C47.8818 13.3946 47.9268 13.6309 47.9718 13.886C48.0168 14.1336 48.0581 14.3662 48.0956 14.5837H50.5601C50.6201 14.3586 50.6764 14.1261 50.7289 13.886C50.789 13.6459 50.8415 13.4096 50.8865 13.177H47.8368ZM45.6873 16.373H53.0134V21.3921H51.843V21.0095H46.8352V21.3921H45.6873V16.373ZM46.8352 17.4196V18.1961H51.843V17.4196H46.8352ZM51.843 19.9854V19.1977H46.8352V19.9854H51.843ZM61.2102 16.6094V19.9292C61.2102 20.1917 61.1802 20.4056 61.1202 20.5706C61.0677 20.7357 60.9814 20.867 60.8614 20.9645C60.7413 21.0695 60.5838 21.1483 60.3887 21.2008C60.2012 21.2533 59.9723 21.2908 59.7022 21.3134L58.982 21.3809L58.6332 20.2218L59.3421 20.1542C59.6197 20.1242 59.8035 20.0755 59.8936 20.0079C59.9836 19.9329 60.0286 19.7904 60.0286 19.5803V16.6094H56.2136L56.675 11.9616C57.2902 11.9466 57.9279 11.9204 58.5881 11.8829C59.2484 11.8378 59.8973 11.7891 60.535 11.7366C61.1802 11.6765 61.7992 11.6128 62.3918 11.5453C62.9845 11.4702 63.5247 11.3915 64.0124 11.3089L64.2487 12.4455C63.776 12.5206 63.2621 12.5918 62.7069 12.6594C62.1518 12.7194 61.5891 12.7756 61.0189 12.8282C60.4562 12.8807 59.8936 12.9294 59.3309 12.9745C58.7757 13.012 58.2543 13.0457 57.7666 13.0757L57.4965 15.4953H60.0286V13.3121L61.2102 13.3571V15.4953H64.7889V16.6094H61.2102ZM58.7569 17.6672C58.6069 17.9148 58.4268 18.1811 58.2168 18.4662C58.0142 18.7513 57.7966 19.0401 57.5641 19.3327C57.339 19.6178 57.1027 19.9029 56.8551 20.188C56.6075 20.4656 56.3712 20.7244 56.1461 20.9645L55.2683 20.1992C55.5009 19.9667 55.7335 19.7153 55.9661 19.4453C56.2061 19.1752 56.4387 18.9051 56.6638 18.635C56.8889 18.3574 57.0952 18.0836 57.2827 17.8135C57.4778 17.5434 57.6466 17.2883 57.7891 17.0483L58.7569 17.6672ZM62.797 17.0483C62.9695 17.2358 63.1646 17.4534 63.3822 17.701C63.6072 17.9485 63.8361 18.2074 64.0686 18.4775C64.3012 18.74 64.53 19.0064 64.7551 19.2765C64.9802 19.5465 65.1827 19.7979 65.3628 20.0304L64.485 20.9532C64.3125 20.7207 64.1136 20.4618 63.8886 20.1767C63.671 19.8917 63.4459 19.6066 63.2134 19.3215C62.9808 19.0364 62.752 18.7588 62.5269 18.4887C62.3018 18.2186 62.0993 17.9823 61.9192 17.7797L62.797 17.0483ZM76.2942 12.8394H68.7993V14.7075C68.7993 15.3602 68.7881 15.9379 68.7656 16.4406C68.7506 16.9432 68.7206 17.3934 68.6756 17.791C68.6305 18.1886 68.5705 18.5487 68.4955 18.8713C68.428 19.1864 68.3417 19.4865 68.2367 19.7716C68.1316 20.0567 68.0078 20.338 67.8653 20.6156C67.7303 20.8932 67.5765 21.1896 67.4039 21.5047L66.2785 20.897C66.4511 20.6044 66.6049 20.3305 66.7399 20.0755C66.875 19.8204 66.9913 19.5653 67.0888 19.3102C67.1863 19.0476 67.2651 18.7738 67.3251 18.4887C67.3927 18.1961 67.4452 17.8698 67.4827 17.5096C67.5277 17.1495 67.5577 16.7407 67.5727 16.283C67.5877 15.8179 67.5952 15.2852 67.5952 14.685V11.6803H76.2942V12.8394ZM76.463 15.4165H73.6271V19.7716C73.6271 20.0717 73.6009 20.3155 73.5484 20.5031C73.5033 20.6907 73.4171 20.8407 73.2895 20.9532C73.1695 21.0658 73.0044 21.1445 72.7944 21.1896C72.5843 21.2421 72.3142 21.2796 71.9841 21.3021L71.0388 21.3696L70.6899 20.1542L71.7253 20.0867C71.8678 20.0792 71.9879 20.0642 72.0854 20.0417C72.1829 20.0192 72.2579 19.9854 72.3105 19.9404C72.363 19.8879 72.4005 19.8204 72.423 19.7379C72.4455 19.6478 72.4568 19.5353 72.4568 19.4002V15.4165H69.0919V14.2686H76.463V15.4165Z" fill="#123871"/>
<path d="M48.685 28.4886V29.1915H51.6516V33.8923C51.6516 34.1175 51.6364 34.297 51.606 34.4309C51.5755 34.5708 51.5208 34.6804 51.4417 34.7595C51.3626 34.8386 51.2591 34.8934 51.1313 34.9238C51.0035 34.9603 50.8392 34.9907 50.6384 35.0151L49.9812 35.0881L49.7074 34.2301L50.3007 34.1662C50.4041 34.154 50.4832 34.1418 50.538 34.1297C50.5989 34.1175 50.6445 34.0962 50.6749 34.0658C50.7053 34.0293 50.7236 33.9836 50.7297 33.9288C50.7419 33.868 50.7479 33.7889 50.7479 33.6915V30.0312H49.3605L49.9447 30.3872C49.8777 30.4907 49.7926 30.6124 49.6891 30.7523C49.5917 30.8862 49.4913 31.0201 49.3879 31.154H50.3646V31.8659H48.6394V32.5323H50.538V33.2443H48.6394V34.7777H47.7631V33.2443H45.8919V32.5323H47.7631V31.8659H46.0653V31.154H47.0603C46.969 31.0201 46.8716 30.8862 46.7682 30.7523C46.6647 30.6124 46.5765 30.4998 46.5035 30.4146L46.9872 30.0312H45.6637V34.942H44.7783V29.1915H47.7814V28.4886H44.2306V27.6397H47.7814V26.7726L48.685 26.8091V27.6397H52.2084V28.4886H48.685ZM48.4477 31.154C48.5877 30.9775 48.7246 30.7889 48.8585 30.588C48.9923 30.3872 49.114 30.2016 49.2236 30.0312H47.1881C47.2428 30.0982 47.3006 30.1712 47.3615 30.2503C47.4284 30.3294 47.4923 30.4116 47.5532 30.4968C47.6201 30.5759 47.681 30.655 47.7357 30.7341C47.7905 30.8071 47.8331 30.868 47.8635 30.9166L47.6262 31.154H48.4477ZM60.1257 30.5515H54.366V27.1925H60.1257V30.5515ZM55.3062 27.9409V28.5251H59.1855V27.9409H55.3062ZM59.1855 29.803V29.228H55.3062V29.803H59.1855ZM60.5638 31.1175V35.0698H59.6237V34.7321H54.8863V35.079H53.937V31.1175H60.5638ZM54.8863 31.8933V32.5505H59.6237V31.8933H54.8863ZM59.6237 33.9562V33.299H54.8863V33.9562H59.6237ZM66.7012 29.9582C66.8107 30.4268 66.9659 30.8619 67.1667 31.2635C67.3675 31.659 67.617 32.0302 67.9152 32.3771C68.2134 32.724 68.5633 33.0526 68.9649 33.3629C69.3726 33.6672 69.8351 33.9593 70.3524 34.2392L69.7682 35.1611C68.9162 34.6378 68.2012 34.0688 67.6231 33.4542C67.045 32.8396 66.6008 32.1854 66.2905 31.4917C66.1262 31.8751 65.9193 32.2402 65.6698 32.587C65.4203 32.9278 65.1434 33.2503 64.8391 33.5546C64.5349 33.8589 64.2063 34.1449 63.8533 34.4126C63.5064 34.6865 63.1474 34.9451 62.7762 35.1885L62.1829 34.2392C62.6332 33.9836 63.0592 33.7037 63.4608 33.3994C63.8685 33.0891 64.2276 32.7513 64.5379 32.3862C64.8543 32.0211 65.113 31.6286 65.3138 31.2087C65.5207 30.7828 65.6485 30.3264 65.6971 29.8396H62.4933V28.9085H65.7245V26.8182L66.7286 26.8547V28.9085H69.9873V29.8396H66.7103C66.7103 29.8578 66.7073 29.8761 66.7012 29.8943C66.7012 29.9126 66.7012 29.9339 66.7012 29.9582ZM72.4369 30.1955H71.5424V28.3243H72.866C72.7625 28.1357 72.6499 27.947 72.5282 27.7584C72.4065 27.5637 72.2787 27.3628 72.1449 27.156L72.9481 26.7452C73.0942 26.9582 73.2463 27.1925 73.4045 27.448C73.5688 27.6975 73.7118 27.9288 73.8335 28.1418L73.5506 28.3243H75.0019C74.8984 28.1113 74.7919 27.8923 74.6824 27.6671C74.5729 27.4359 74.4633 27.2229 74.3538 27.0282L75.1388 26.663C75.2544 26.8578 75.3822 27.0921 75.5222 27.3659C75.6682 27.6397 75.8051 27.9044 75.9329 28.16L75.6591 28.3243H76.4532C76.6479 28.0322 76.8305 27.7523 77.0009 27.4846C77.1713 27.2168 77.3204 26.9704 77.4482 26.7452L78.2971 27.1833C78.1875 27.3598 78.0658 27.5454 77.9319 27.7401C77.8041 27.9349 77.6733 28.1296 77.5394 28.3243H78.8995V30.1955H78.0232V29.1823H72.4369V30.1955ZM79.1551 32.8244H75.8325V33.8923C75.8325 34.1236 75.8112 34.3061 75.7686 34.44C75.726 34.58 75.653 34.6895 75.5496 34.7686C75.4522 34.8538 75.3214 34.9147 75.1571 34.9512C74.9928 34.9877 74.7859 35.0181 74.5364 35.0424L73.8883 35.1063L73.6053 34.1753L74.3356 34.1205C74.4512 34.1144 74.5424 34.1053 74.6094 34.0931C74.6824 34.0749 74.7372 34.0506 74.7737 34.0201C74.8102 33.9836 74.8345 33.9349 74.8467 33.8741C74.8589 33.8071 74.865 33.7189 74.865 33.6094V32.8244H71.2868V31.939H74.865V31.5556C74.9258 31.5191 75.0293 31.4582 75.1753 31.373C75.3274 31.2878 75.4826 31.2026 75.6408 31.1175C75.8051 31.0262 75.9573 30.9471 76.0972 30.8801C76.2372 30.8071 76.3346 30.7706 76.3893 30.7706H72.7564V29.9126H77.8954V30.7706C77.8163 30.7889 77.6855 30.8467 77.5029 30.944C77.3265 31.0414 77.1317 31.1509 76.9187 31.2726C76.7118 31.3943 76.508 31.516 76.3072 31.6377C76.1064 31.7595 75.9481 31.8538 75.8325 31.9207V31.939H79.1551V32.8244ZM88.2134 29.5657V30.3872H80.2447V29.5657H82.262C82.2316 29.371 82.1981 29.1732 82.1616 28.9724C82.1311 28.7655 82.1007 28.5829 82.0703 28.4247H80.7468V27.5758H83.7955C83.765 27.4602 83.7346 27.3507 83.7042 27.2472C83.6738 27.1377 83.6373 27.0251 83.5947 26.9095L84.5166 26.7543C84.5653 26.876 84.6109 27.0099 84.6535 27.156C84.6961 27.2959 84.7387 27.4359 84.7813 27.5758H87.7113V28.4247H86.4426C86.4 28.6012 86.3543 28.7868 86.3056 28.9815C86.263 29.1763 86.2174 29.371 86.1687 29.5657H88.2134ZM83.0105 28.4247C83.047 28.6012 83.0835 28.7929 83.12 28.9998C83.1565 29.2006 83.19 29.3892 83.2204 29.5657H85.2194C85.2681 29.3832 85.3137 29.1945 85.3563 28.9998C85.405 28.8051 85.4476 28.6134 85.4841 28.4247H83.0105ZM81.267 31.017H87.2093V35.0881H86.26V34.7777H82.1981V35.0881H81.267V31.017ZM82.1981 31.8659V32.4958H86.26V31.8659H82.1981ZM86.26 33.9471V33.3081H82.1981V33.9471H86.26ZM93.8578 31.2087V33.9015C93.8578 34.1144 93.8335 34.2879 93.7848 34.4218C93.7422 34.5556 93.6722 34.6621 93.5749 34.7412C93.4775 34.8264 93.3497 34.8903 93.1915 34.9329C93.0394 34.9755 92.8538 35.0059 92.6347 35.0242L92.0505 35.079L91.7675 34.1388L92.3426 34.084C92.5678 34.0597 92.7168 34.0201 92.7899 33.9654C92.8629 33.9045 92.8994 33.7889 92.8994 33.6185V31.2087H89.805L90.1793 27.4389C90.6783 27.4267 91.1955 27.4054 91.731 27.375C92.2665 27.3385 92.7929 27.299 93.3102 27.2564C93.8335 27.2077 94.3355 27.156 94.8163 27.1012C95.297 27.0403 95.7351 26.9764 96.1307 26.9095L96.3224 27.8314C95.939 27.8923 95.5221 27.9501 95.0718 28.0048C94.6215 28.0535 94.1651 28.0992 93.7027 28.1418C93.2463 28.1844 92.7899 28.2239 92.3335 28.2604C91.8832 28.2909 91.4602 28.3182 91.0647 28.3426L90.8456 30.3051H92.8994V28.5343L93.8578 28.5708V30.3051H96.7605V31.2087H93.8578ZM91.8679 32.0668C91.7462 32.2676 91.6002 32.4836 91.4298 32.7148C91.2655 32.9461 91.089 33.1804 90.9004 33.4177C90.7178 33.6489 90.5261 33.8802 90.3253 34.1114C90.1245 34.3366 89.9328 34.5465 89.7503 34.7412L89.0383 34.1205C89.2269 33.9319 89.4156 33.728 89.6042 33.509C89.799 33.2899 89.9876 33.0708 90.1702 32.8518C90.3527 32.6266 90.5201 32.4045 90.6722 32.1854C90.8304 31.9663 90.9673 31.7595 91.0829 31.5647L91.8679 32.0668ZM95.1449 31.5647C95.2848 31.7169 95.443 31.8933 95.6195 32.0941C95.8021 32.295 95.9877 32.5049 96.1763 32.724C96.365 32.9369 96.5506 33.153 96.7331 33.372C96.9157 33.5911 97.08 33.795 97.226 33.9836L96.514 34.7321C96.3741 34.5435 96.2128 34.3335 96.0303 34.1023C95.8538 33.871 95.6712 33.6398 95.4826 33.4086C95.2939 33.1773 95.1083 32.9522 94.9258 32.7331C94.7432 32.514 94.5789 32.3223 94.4329 32.158L95.1449 31.5647ZM106.093 28.1509H100.013V29.6661C100.013 30.1955 100.004 30.6641 99.9861 31.0718C99.9739 31.4795 99.9496 31.8446 99.913 32.1672C99.8765 32.4897 99.8278 32.7818 99.767 33.0434C99.7122 33.299 99.6422 33.5424 99.5571 33.7737C99.4719 34.0049 99.3715 34.2331 99.2558 34.4583C99.1463 34.6834 99.0216 34.9238 98.8816 35.1794L97.9688 34.6865C98.1088 34.4491 98.2335 34.227 98.343 34.0201C98.4526 33.8132 98.5469 33.6063 98.626 33.3994C98.7051 33.1864 98.769 32.9643 98.8177 32.7331C98.8725 32.4958 98.9151 32.2311 98.9455 31.939C98.982 31.6469 99.0063 31.3152 99.0185 30.944C99.0307 30.5667 99.0368 30.1347 99.0368 29.6479V27.2107H106.093V28.1509ZM106.23 30.2412H103.929V33.7737C103.929 34.0171 103.908 34.2149 103.865 34.367C103.829 34.5191 103.759 34.6408 103.655 34.7321C103.558 34.8234 103.424 34.8873 103.254 34.9238C103.083 34.9664 102.864 34.9968 102.597 35.0151L101.83 35.0698L101.547 34.084L102.387 34.0293C102.502 34.0232 102.6 34.011 102.679 33.9927C102.758 33.9745 102.819 33.9471 102.861 33.9106C102.904 33.868 102.934 33.8132 102.953 33.7463C102.971 33.6733 102.98 33.582 102.98 33.4725V30.2412H100.251V29.3101H106.23V30.2412Z" fill="#3A5A8A"/>
<defs>
<linearGradient id="paint0_linear_674_34011" x1="106.275" y1="-0.181216" x2="19.4161" y2="51.8097" gradientUnits="userSpaceOnUse">
<stop offset="0.5" stop-color="#809AF5"/>
<stop offset="0.5" stop-color="#3867E2"/>
</linearGradient>
</defs>
</svg>
