<svg width="126" height="53" viewBox="0 0 126 53" fill="none" xmlns="http://www.w3.org/2000/svg">
<path d="M37.9925 39.5544H12.3832C11.1782 39.5544 10.6853 42.0858 11.7406 42.6674C17.5551 45.8722 22.6667 50.2645 24.525 51.9372C24.9424 52.3129 25.5857 52.3022 25.9914 51.9139C27.7764 50.2055 32.6861 45.7588 38.6012 42.5257C39.6526 41.951 39.1907 39.5544 37.9925 39.5544Z" fill="#4573E7"/>
<rect width="125.095" height="45.4013" rx="22.7007" fill="url(#paint0_linear_674_34010)"/>
<rect x="4.86821" y="4.86821" width="115.359" height="35.6649" rx="17.8325" fill="#D6DFF5"/>
<path d="M28.5221 18.2348V30.7007C26.8034 28.7061 22.1393 28.1521 20.0221 28.1244V14.9106C24.4308 13.9133 27.5257 16.7112 28.5221 18.2348Z" fill="#547EE9"/>
<path d="M29.5221 18.2348V30.7007C31.2407 28.7061 35.9048 28.1521 38.0221 28.1244V14.9106C33.6133 13.9133 30.5184 16.7112 29.5221 18.2348Z" fill="#547EE9"/>
<path d="M20.6548 28.0626C25.7698 28.6149 25.6695 29.5048 26.5221 30.3639C25.9955 30.2412 24.7468 29.9773 23.9645 29.9036C22.9867 29.8116 19.9026 30.3639 18.9999 30.64C18.2778 30.861 18.0471 30.4253 18.0221 30.1798V15.6359C18.0221 14.7522 18.8244 14.654 19.2256 14.7154C19.2507 15.2984 19.2858 17.5505 19.2256 21.8953C19.1504 27.3263 19.7521 27.6944 20.6548 28.0626Z" fill="#547EE9" fill-opacity="0.5"/>
<path d="M37.3893 28.0626C32.2743 28.6149 32.3746 29.5048 31.5221 30.3639C32.0486 30.2412 33.2973 29.9773 34.0796 29.9036C35.0575 29.8116 38.1415 30.3639 39.0442 30.64C39.7663 30.861 39.997 30.4253 40.0221 30.1798V15.6359C40.0221 14.7522 39.2197 14.654 38.8185 14.7154C38.7934 15.2984 38.7583 17.5505 38.8185 21.8953C38.8937 27.3263 38.292 27.6944 37.3893 28.0626Z" fill="#547EE9" fill-opacity="0.5"/>
<path d="M57.7223 11.6353V21.4259H56.687V20.9307H49.9011V21.4259H48.8658V11.6353H57.7223ZM56.687 19.9854L56.6758 16.4406L56.3607 17.2958C55.7155 17.1233 55.1453 16.947 54.6501 16.7669C54.155 16.5794 53.7086 16.3768 53.311 16.1592C52.9583 16.3468 52.557 16.5306 52.1068 16.7107C52.3094 16.7557 52.5307 16.8044 52.7708 16.857C53.0109 16.902 53.2547 16.9507 53.5023 17.0033C53.7498 17.0558 53.9899 17.1083 54.2225 17.1608C54.4626 17.2133 54.6801 17.2621 54.8752 17.3071L54.7739 18.1849C54.5563 18.1324 54.3088 18.0723 54.0312 18.0048C53.7611 17.9373 53.4835 17.8735 53.1984 17.8135C52.9208 17.746 52.6432 17.686 52.3657 17.6334C52.0956 17.5734 51.8555 17.5209 51.6454 17.4759L51.7355 16.857C51.5179 16.9395 51.2853 17.0258 51.0377 17.1158C50.7902 17.1983 50.5313 17.2808 50.2612 17.3634L49.9124 16.4856C50.4075 16.3505 50.8614 16.2117 51.2741 16.0692C51.6942 15.9192 52.0806 15.7654 52.4332 15.6078C52.0731 15.3377 51.7467 15.0526 51.4541 14.7525C51.3116 14.9026 51.1653 15.0451 51.0152 15.1802C50.8652 15.3152 50.7076 15.4503 50.5426 15.5853L50.0249 14.8988C50.205 14.7413 50.385 14.5687 50.5651 14.3812C50.7526 14.1861 50.9289 13.9873 51.094 13.7847C51.2666 13.5822 51.4241 13.3796 51.5666 13.177C51.7167 12.9745 51.848 12.7832 51.9605 12.6031H49.9011V19.9854H56.687ZM56.6758 12.6031H52.2306L52.8496 12.8619C52.7895 12.967 52.7295 13.0683 52.6695 13.1658C52.617 13.2633 52.557 13.3608 52.4894 13.4584H55.9105V14.2574C55.6329 14.5275 55.3553 14.7788 55.0778 15.0114C54.8002 15.2364 54.5076 15.4465 54.2 15.6416C54.5751 15.7991 54.969 15.9342 55.3816 16.0467C55.7942 16.1517 56.2256 16.253 56.6758 16.3505V12.6031ZM53.2772 15.1914C53.5548 15.0414 53.8024 14.8913 54.0199 14.7413C54.2375 14.5837 54.4326 14.4224 54.6051 14.2574H52.0843C52.2644 14.4524 52.4519 14.625 52.647 14.775C52.8496 14.9251 53.0596 15.0639 53.2772 15.1914ZM50.9702 18.0386C51.2253 18.0836 51.5404 18.1436 51.9155 18.2186C52.2981 18.2937 52.6958 18.3724 53.1084 18.455C53.521 18.5375 53.9261 18.6238 54.3238 18.7138C54.7214 18.7963 55.0703 18.8713 55.3704 18.9389L55.2578 19.8166C54.9652 19.7491 54.6201 19.6703 54.2225 19.5803C53.8324 19.4903 53.431 19.404 53.0184 19.3215C52.6057 19.2315 52.2081 19.1489 51.8255 19.0739C51.4429 18.9914 51.1203 18.9276 50.8577 18.8826L50.9702 18.0386ZM67.4046 15.9567H68.9914C68.9914 16.0317 68.9839 16.1517 68.9689 16.3168C68.9614 16.4743 68.9464 16.6544 68.9239 16.857C68.9089 17.052 68.8901 17.2621 68.8676 17.4872C68.8526 17.7047 68.8338 17.9148 68.8113 18.1174C68.7888 18.3124 68.7701 18.4925 68.7551 18.6575C68.7401 18.8151 68.7288 18.9314 68.7213 19.0064C68.6988 19.269 68.6463 19.4903 68.5638 19.6703C68.4812 19.8429 68.3649 19.9854 68.2149 20.098C68.0648 20.2105 67.8773 20.293 67.6522 20.3456C67.4271 20.4056 67.1608 20.4468 66.8532 20.4693L65.9079 20.5369L65.5478 19.389L66.6056 19.3215C66.7782 19.314 66.9245 19.299 67.0445 19.2765C67.1646 19.2465 67.2583 19.2052 67.3259 19.1527C67.4009 19.0927 67.4572 19.0176 67.4947 18.9276C67.5322 18.8301 67.5584 18.71 67.5734 18.5675C67.5809 18.5075 67.5959 18.4062 67.6185 18.2636C67.641 18.1211 67.6597 17.9748 67.6747 17.8248C67.6972 17.6672 67.716 17.5209 67.731 17.3859C67.746 17.2433 67.7572 17.142 67.7647 17.082H63.8035V21.4034H62.7119V17.082H59.3471V15.9567H62.7119V13.8748H60.1911V12.7719H62.7119V11.1289L63.8035 11.1739V12.7719H67.3146C66.887 12.4193 66.5006 12.1267 66.1555 11.8941L66.8532 11.0051C67.0408 11.1401 67.2433 11.2902 67.4609 11.4552C67.6785 11.6128 67.896 11.7816 68.1136 11.9617C68.3387 12.1342 68.5562 12.3068 68.7663 12.4793C68.9764 12.6519 69.1677 12.8094 69.3402 12.952L68.6875 13.9535C68.56 13.826 68.4062 13.6872 68.2261 13.5372C68.0461 13.3796 67.8585 13.2183 67.6635 13.0532L67.4046 15.9567ZM63.8035 15.9567H66.268L66.4593 13.8748H63.8035V15.9567ZM80.1817 12.3105V14.1786H79.1013V13.3008H75.1963V14.1786H74.1385V12.3105H76.558C76.513 12.1605 76.4642 12.0104 76.4117 11.8604C76.3667 11.7103 76.3179 11.5603 76.2654 11.4102L77.3232 11.2189C77.3833 11.369 77.4433 11.5415 77.5033 11.7366C77.5633 11.9241 77.6233 12.1155 77.6834 12.3105H80.1817ZM72.6305 19.3102C72.698 19.2502 72.7806 19.1827 72.8781 19.1077C72.9756 19.0326 73.0694 18.9576 73.1594 18.8826C73.257 18.8001 73.347 18.725 73.4295 18.6575C73.5195 18.5825 73.5946 18.5187 73.6546 18.4662L73.9697 19.5803C73.9247 19.6103 73.8421 19.6703 73.7221 19.7604C73.6096 19.8429 73.4783 19.9367 73.3282 20.0417C73.1857 20.1467 73.0394 20.2555 72.8893 20.3681C72.7468 20.4806 72.623 20.5744 72.518 20.6494C72.4354 20.7244 72.3342 20.807 72.2141 20.897C72.0941 20.987 71.9853 21.0733 71.8878 21.1558L71.3138 20.3005C71.4639 20.173 71.5539 20.0567 71.5839 19.9517C71.6214 19.8467 71.6402 19.7191 71.6402 19.5691V15.0226L72.608 15.0676L73.0807 13.8297H72.0341C71.914 14.1899 71.7827 14.55 71.6402 14.9101C71.4976 15.2702 71.3288 15.6753 71.1338 16.1255L70.2448 15.5178C70.4023 15.1502 70.5486 14.8013 70.6836 14.4712C70.8262 14.1336 70.9575 13.7997 71.0775 13.4696C71.1976 13.132 71.3063 12.7869 71.4039 12.4343C71.5089 12.0742 71.6064 11.6878 71.6965 11.2752L72.6643 11.4215C72.6043 11.6691 72.548 11.9054 72.4955 12.1305C72.4505 12.348 72.3979 12.5581 72.3379 12.7607H73.8909V13.841L73.3282 15.5853L72.6305 15.3377V19.3102ZM75.6465 17.8585H79.7315V21.3696H78.6962V20.9195H75.6465V21.4259H74.5999V14.2011H79.4952V17.127H75.6465V17.8585ZM75.6465 15.1577V16.1592H78.4486V15.1577H75.6465ZM75.6465 18.8263V19.9854H78.6962V18.8263H75.6465Z" fill="#123871"/>
<path d="M52.685 28.4886V29.1915H55.6516V33.8924C55.6516 34.1175 55.6364 34.297 55.6059 34.4309C55.5755 34.5709 55.5207 34.6804 55.4416 34.7595C55.3625 34.8386 55.2591 34.8934 55.1313 34.9238C55.0035 34.9603 54.8392 34.9907 54.6384 35.0151L53.9812 35.0881L53.7073 34.2301L54.3006 34.1662C54.4041 34.154 54.4832 34.1419 54.538 34.1297C54.5988 34.1175 54.6445 34.0962 54.6749 34.0658C54.7053 34.0293 54.7236 33.9836 54.7296 33.9289C54.7418 33.868 54.7479 33.7889 54.7479 33.6915V30.0313H53.3605L53.9447 30.3872C53.8777 30.4907 53.7925 30.6124 53.6891 30.7524C53.5917 30.8862 53.4913 31.0201 53.3878 31.154H54.3645V31.866H52.6394V32.5323H54.538V33.2443H52.6394V34.7778H51.7631V33.2443H49.8919V32.5323H51.7631V31.866H50.0653V31.154H51.0602C50.969 31.0201 50.8716 30.8862 50.7681 30.7524C50.6647 30.6124 50.5765 30.4998 50.5034 30.4146L50.9872 30.0313H49.6637V34.9421H48.7783V29.1915H51.7813V28.4886H48.2306V27.6398H51.7813V26.7726L52.685 26.8091V27.6398H56.2084V28.4886H52.685ZM52.4477 31.154C52.5876 30.9775 52.7246 30.7889 52.8584 30.5881C52.9923 30.3872 53.114 30.2016 53.2235 30.0313H51.188C51.2428 30.0982 51.3006 30.1712 51.3615 30.2503C51.4284 30.3294 51.4923 30.4116 51.5531 30.4968C51.6201 30.5759 51.6809 30.655 51.7357 30.7341C51.7905 30.8071 51.8331 30.868 51.8635 30.9167L51.6262 31.154H52.4477ZM64.1257 30.5515H58.366V27.1925H64.1257V30.5515ZM59.3061 27.941V28.5252H63.1855V27.941H59.3061ZM63.1855 29.8031V29.228H59.3061V29.8031H63.1855ZM64.5638 31.1175V35.0699H63.6236V34.7321H58.8863V35.079H57.937V31.1175H64.5638ZM58.8863 31.8933V32.5506H63.6236V31.8933H58.8863ZM63.6236 33.9563V33.299H58.8863V33.9563H63.6236ZM70.7012 29.9582C70.8107 30.4268 70.9659 30.8619 71.1667 31.2635C71.3675 31.6591 71.617 32.0303 71.9152 32.3771C72.2134 32.724 72.5633 33.0526 72.9649 33.3629C73.3726 33.6672 73.8351 33.9593 74.3523 34.2392L73.7681 35.1611C72.9162 34.6378 72.2012 34.0688 71.6231 33.4542C71.045 32.8396 70.6008 32.1854 70.2904 31.4917C70.1261 31.8751 69.9192 32.2402 69.6697 32.5871C69.4202 32.9278 69.1434 33.2504 68.8391 33.5546C68.5348 33.8589 68.2062 34.1449 67.8533 34.4126C67.5064 34.6865 67.1474 34.9451 66.7762 35.1885L66.1829 34.2392C66.6332 33.9836 67.0591 33.7037 67.4608 33.3995C67.8685 33.0891 68.2275 32.7514 68.5379 32.3863C68.8543 32.0211 69.1129 31.6286 69.3137 31.2088C69.5206 30.7828 69.6484 30.3264 69.6971 29.8396H66.4932V28.9085H69.7245V26.8182L70.7286 26.8548V28.9085H73.9872V29.8396H70.7103C70.7103 29.8578 70.7073 29.8761 70.7012 29.8943C70.7012 29.9126 70.7012 29.9339 70.7012 29.9582ZM76.4369 30.1956H75.5424V28.3243H76.8659C76.7625 28.1357 76.6499 27.9471 76.5282 27.7584C76.4065 27.5637 76.2787 27.3629 76.1448 27.156L76.9481 26.7452C77.0941 26.9582 77.2463 27.1925 77.4045 27.4481C77.5688 27.6976 77.7118 27.9288 77.8335 28.1418L77.5505 28.3243H79.0019C78.8984 28.1114 78.7919 27.8923 78.6824 27.6671C78.5728 27.4359 78.4633 27.2229 78.3538 27.0282L79.1388 26.6631C79.2544 26.8578 79.3822 27.0921 79.5221 27.3659C79.6682 27.6398 79.8051 27.9045 79.9329 28.16L79.6591 28.3243H80.4532C80.6479 28.0323 80.8305 27.7523 81.0009 27.4846C81.1712 27.2168 81.3203 26.9704 81.4481 26.7452L82.297 27.1834C82.1875 27.3598 82.0658 27.5454 81.9319 27.7402C81.8041 27.9349 81.6733 28.1296 81.5394 28.3243H82.8995V30.1956H82.0232V29.1824H76.4369V30.1956ZM83.155 32.8244H79.8325V33.8924C79.8325 34.1236 79.8112 34.3062 79.7686 34.44C79.726 34.58 79.653 34.6895 79.5495 34.7686C79.4522 34.8538 79.3213 34.9147 79.157 34.9512C78.9927 34.9877 78.7858 35.0181 78.5363 35.0425L77.8882 35.1064L77.6053 34.1753L78.3355 34.1206C78.4511 34.1145 78.5424 34.1053 78.6094 34.0932C78.6824 34.0749 78.7371 34.0506 78.7737 34.0201C78.8102 33.9836 78.8345 33.935 78.8467 33.8741C78.8588 33.8072 78.8649 33.7189 78.8649 33.6094V32.8244H75.2868V31.939H78.8649V31.5556C78.9258 31.5191 79.0292 31.4583 79.1753 31.3731C79.3274 31.2879 79.4826 31.2027 79.6408 31.1175C79.8051 31.0262 79.9572 30.9471 80.0972 30.8802C80.2372 30.8071 80.3345 30.7706 80.3893 30.7706H76.7564V29.9126H81.8954V30.7706C81.8163 30.7889 81.6855 30.8467 81.5029 30.944C81.3264 31.0414 81.1317 31.1509 80.9187 31.2727C80.7118 31.3944 80.508 31.5161 80.3071 31.6378C80.1063 31.7595 79.9481 31.8538 79.8325 31.9207V31.939H83.155V32.8244ZM91.7843 27.1742V35.1155H90.9446V34.7139H85.4404V35.1155H84.6007V27.1742H91.7843ZM90.9446 33.9471L90.9354 31.0718L90.6798 31.7656C90.1565 31.6256 89.694 31.4826 89.2924 31.3365C88.8908 31.1844 88.5287 31.0201 88.2062 30.8436C87.9202 30.9958 87.5946 31.1449 87.2295 31.2909C87.3938 31.3274 87.5733 31.367 87.7681 31.4096C87.9628 31.4461 88.1605 31.4856 88.3614 31.5282C88.5622 31.5708 88.7569 31.6134 88.9455 31.656C89.1403 31.6986 89.3167 31.7382 89.475 31.7747L89.3928 32.4867C89.2163 32.4441 89.0155 32.3954 88.7904 32.3406C88.5713 32.2858 88.3462 32.2341 88.1149 32.1854C87.8898 32.1307 87.6646 32.082 87.4394 32.0394C87.2204 31.9907 87.0256 31.9481 86.8553 31.9116L86.9283 31.4096C86.7518 31.4765 86.5632 31.5465 86.3624 31.6195C86.1615 31.6865 85.9516 31.7534 85.7325 31.8203L85.4496 31.1084C85.8512 30.9988 86.2194 30.8862 86.554 30.7706C86.8948 30.6489 87.2082 30.5242 87.4942 30.3964C87.2021 30.1773 86.9374 29.9461 86.7001 29.7027C86.5845 29.8244 86.4658 29.94 86.3441 30.0495C86.2224 30.1591 86.0946 30.2686 85.9607 30.3781L85.5408 29.8213C85.6869 29.6935 85.8329 29.5536 85.979 29.4014C86.1311 29.2432 86.2741 29.082 86.408 28.9177C86.548 28.7534 86.6757 28.5891 86.7914 28.4248C86.9131 28.2604 87.0196 28.1053 87.1108 27.9592H85.4404V33.9471H90.9446ZM90.9354 27.9592H87.3299L87.8319 28.1692C87.7833 28.2544 87.7346 28.3365 87.6859 28.4156C87.6433 28.4947 87.5946 28.5738 87.5399 28.6529H90.3147V29.301C90.0896 29.5201 89.8644 29.724 89.6393 29.9126C89.4141 30.0952 89.1768 30.2655 88.9273 30.4238C89.2316 30.5515 89.551 30.6611 89.8857 30.7524C90.2204 30.8376 90.5703 30.9197 90.9354 30.9988V27.9592ZM88.1788 30.0586C88.404 29.9369 88.6048 29.8152 88.7812 29.6935C88.9577 29.5657 89.1159 29.4349 89.2559 29.301H87.2112C87.3573 29.4592 87.5094 29.5992 87.6676 29.7209C87.8319 29.8426 88.0023 29.9552 88.1788 30.0586ZM86.3076 32.368C86.5145 32.4045 86.7701 32.4532 87.0743 32.514C87.3847 32.5749 87.7072 32.6388 88.0419 32.7057C88.3766 32.7727 88.7052 32.8427 89.0277 32.9157C89.3502 32.9826 89.6332 33.0435 89.8766 33.0982L89.7853 33.8102C89.548 33.7554 89.2681 33.6915 88.9455 33.6185C88.6291 33.5455 88.3036 33.4755 87.9689 33.4086C87.6342 33.3356 87.3117 33.2686 87.0013 33.2078C86.691 33.1408 86.4293 33.0891 86.2163 33.0526L86.3076 32.368ZM99.6377 30.6793H100.925C100.925 30.7402 100.919 30.8376 100.907 30.9714C100.9 31.0992 100.888 31.2453 100.87 31.4096C100.858 31.5678 100.843 31.7382 100.824 31.9207C100.812 32.0972 100.797 32.2676 100.779 32.4319C100.76 32.5901 100.745 32.7362 100.733 32.87C100.721 32.9978 100.712 33.0921 100.706 33.153C100.687 33.366 100.645 33.5455 100.578 33.6915C100.511 33.8315 100.417 33.9471 100.295 34.0384C100.173 34.1297 100.021 34.1966 99.8385 34.2392C99.656 34.2879 99.44 34.3214 99.1905 34.3396L98.4237 34.3944L98.1316 33.4633L98.9897 33.4086C99.1296 33.4025 99.2483 33.3903 99.3456 33.3721C99.443 33.3477 99.5191 33.3143 99.5738 33.2717C99.6347 33.223 99.6803 33.1621 99.7108 33.0891C99.7412 33.01 99.7625 32.9126 99.7747 32.797C99.7807 32.7483 99.7929 32.6662 99.8112 32.5506C99.8294 32.4349 99.8446 32.3163 99.8568 32.1946C99.8751 32.0668 99.8903 31.9481 99.9024 31.8386C99.9146 31.723 99.9237 31.6408 99.9298 31.5921H96.7168V35.0972H95.8314V31.5921H93.1022V30.6793H95.8314V28.9907H93.7868V28.0961H95.8314V26.7635L96.7168 26.8V28.0961H99.5647C99.2178 27.8101 98.9045 27.5728 98.6245 27.3842L99.1905 26.6631C99.3426 26.7726 99.5069 26.8943 99.6834 27.0282C99.8598 27.156 100.036 27.2929 100.213 27.4389C100.395 27.5789 100.572 27.7189 100.742 27.8588C100.913 27.9988 101.068 28.1266 101.208 28.2422L100.678 29.0546C100.575 28.9511 100.45 28.8385 100.304 28.7168C100.158 28.5891 100.006 28.4582 99.8477 28.3243L99.6377 30.6793ZM96.7168 30.6793H98.7158L98.871 28.9907H96.7168V30.6793ZM110.001 27.7219V29.2371H109.125V28.5252H105.958V29.2371H105.1V27.7219H107.062C107.026 27.6002 106.986 27.4785 106.943 27.3568C106.907 27.2351 106.867 27.1134 106.825 26.9917L107.683 26.8365C107.732 26.9582 107.78 27.0982 107.829 27.2564C107.878 27.4085 107.926 27.5637 107.975 27.7219H110.001ZM103.876 33.3995C103.931 33.3508 103.998 33.296 104.077 33.2351C104.156 33.1743 104.232 33.1134 104.306 33.0526C104.385 32.9857 104.458 32.9248 104.525 32.87C104.598 32.8092 104.658 32.7575 104.707 32.7149L104.963 33.6185C104.926 33.6429 104.859 33.6915 104.762 33.7646C104.671 33.8315 104.564 33.9076 104.442 33.9928C104.327 34.078 104.208 34.1662 104.086 34.2575C103.971 34.3488 103.87 34.4248 103.785 34.4857C103.718 34.5465 103.636 34.6135 103.539 34.6865C103.441 34.7595 103.353 34.8295 103.274 34.8964L102.809 34.2027C102.93 34.0993 103.003 34.0049 103.028 33.9197C103.058 33.8345 103.073 33.7311 103.073 33.6094V29.9217L103.858 29.9582L104.242 28.9542H103.393C103.295 29.2463 103.189 29.5384 103.073 29.8304C102.958 30.1225 102.821 30.4511 102.662 30.8163L101.941 30.3234C102.069 30.0252 102.188 29.7422 102.297 29.4745C102.413 29.2006 102.519 28.9298 102.617 28.6621C102.714 28.3882 102.802 28.1083 102.882 27.8223C102.967 27.5302 103.046 27.2168 103.119 26.8821L103.904 27.0008C103.855 27.2016 103.81 27.3933 103.767 27.5759C103.73 27.7523 103.688 27.9227 103.639 28.087H104.899V28.9633L104.442 30.3781L103.876 30.1773V33.3995ZM106.323 32.222H109.636V35.0699H108.796V34.7047H106.323V35.1155H105.474V29.2554H109.445V31.6286H106.323V32.222ZM106.323 30.0313V30.8436H108.596V30.0313H106.323ZM106.323 33.007V33.9471H108.796V33.007H106.323Z" fill="#3A5A8A"/>
<defs>
<linearGradient id="paint0_linear_674_34010" x1="109.785" y1="-0.181216" x2="21.6193" y2="54.3354" gradientUnits="userSpaceOnUse">
<stop offset="0.5" stop-color="#809AF5"/>
<stop offset="0.5" stop-color="#3867E2"/>
</linearGradient>
</defs>
</svg>
