<svg width="98" height="63" viewBox="0 0 98 63" fill="none" xmlns="http://www.w3.org/2000/svg">
<path d="M43.7327 49H18.1234C16.9185 49 16.4255 51.5313 17.4808 52.1129C23.2953 55.3178 28.407 59.71 30.2653 61.3828C30.6827 61.7585 31.3259 61.7478 31.7316 61.3595C33.5166 59.651 38.4263 55.2043 44.3415 51.9712C45.3929 51.3966 44.9309 49 43.7327 49Z" fill="#4573E7"/>
<rect width="97.4886" height="53.6492" rx="26.8246" fill="url(#paint0_linear_674_34015)"/>
<rect x="4.86823" y="4.86816" width="87.7521" height="43.9128" rx="21.9564" fill="#D6DFF5"/>
<path d="M22.9238 13.8246H38.8127C39.3873 13.8246 39.9384 14.0529 40.3447 14.4592C40.7511 14.8655 40.9793 15.4166 40.9793 15.9913V37.6579C40.9793 38.2326 40.7511 38.7837 40.3447 39.19C39.9384 39.5963 39.3873 39.8246 38.8127 39.8246H22.9238C22.3491 39.8246 21.798 39.5963 21.3917 39.19C20.9854 38.7837 20.7571 38.2326 20.7571 37.6579V15.9913C20.7571 15.4166 20.9854 14.8655 21.3917 14.4592C21.798 14.0529 22.3491 13.8246 22.9238 13.8246ZM22.9238 15.9913V37.6579H38.8127V15.9913H22.9238ZM36.646 31.519C36.646 31.8063 36.5319 32.0819 36.3287 32.2851C36.1255 32.4882 35.85 32.6024 35.5627 32.6024H30.5071C30.2198 32.6024 29.9442 32.4882 29.7411 32.2851C29.5379 32.0819 29.4238 31.8063 29.4238 31.519C29.4238 31.2317 29.5379 30.9562 29.7411 30.753C29.9442 30.5498 30.2198 30.4357 30.5071 30.4357H35.5627C35.85 30.4357 36.1255 30.5498 36.3287 30.753C36.5319 30.9562 36.646 31.2317 36.646 31.519ZM43.8682 38.7413C43.8682 39.0286 43.7541 39.3041 43.5509 39.5073C43.3478 39.7104 43.0722 39.8246 42.7849 39.8246H18.9516C18.6642 39.8246 18.3887 39.7104 18.1855 39.5073C17.9824 39.3041 17.8682 39.0286 17.8682 38.7413C17.8682 38.4539 17.9824 38.1784 18.1855 37.9752C18.3887 37.7721 18.6642 37.6579 18.9516 37.6579H42.7849C43.0722 37.6579 43.3478 37.7721 43.5509 37.9752C43.7541 38.1784 43.8682 38.4539 43.8682 38.7413ZM27.2571 18.1579H34.4793C35.054 18.1579 35.6051 18.3862 36.0114 18.7925C36.4177 19.1988 36.646 19.7499 36.646 20.3246V23.9357C36.646 24.5103 36.4177 25.0614 36.0114 25.4678C35.6051 25.8741 35.054 26.1024 34.4793 26.1024H27.2571C26.6825 26.1024 26.1314 25.8741 25.725 25.4678C25.3187 25.0614 25.0904 24.5103 25.0904 23.9357V20.3246C25.0904 19.7499 25.3187 19.1988 25.725 18.7925C26.1314 18.3862 26.6825 18.1579 27.2571 18.1579ZM27.2571 20.3246V23.9357H34.4793V20.3246H27.2571Z" fill="#5578F6"/>
<path d="M54.6764 13.4162L56.0024 13.4682V25.0382H54.6764V22.8412C54.4164 22.9625 54.139 23.0925 53.8444 23.2312C53.5497 23.3612 53.2637 23.4912 52.9864 23.6212C52.709 23.7425 52.4534 23.8552 52.2194 23.9592C51.9854 24.0718 51.799 24.1585 51.6604 24.2192L51.1534 22.8672C51.318 22.7978 51.5477 22.7025 51.8424 22.5812C52.137 22.4512 52.449 22.3125 52.7784 22.1652C53.1164 22.0178 53.4544 21.8705 53.7924 21.7232C54.1304 21.5672 54.425 21.4285 54.6764 21.3072V17.9142H51.6734V16.5492H54.6764V13.4162ZM62.7104 21.5412C62.7104 21.7318 62.6974 21.9832 62.6714 22.2952C62.654 22.5985 62.628 22.8758 62.5934 23.1272C62.55 23.4392 62.4894 23.6992 62.4114 23.9072C62.342 24.1238 62.238 24.2928 62.0994 24.4142C61.9607 24.5355 61.7787 24.6222 61.5534 24.6742C61.3367 24.7262 61.055 24.7522 60.7084 24.7522H59.4604C59.1137 24.7522 58.8234 24.7218 58.5894 24.6612C58.364 24.6092 58.182 24.5138 58.0434 24.3752C57.9047 24.2452 57.805 24.0632 57.7444 23.8292C57.6924 23.5952 57.6664 23.2962 57.6664 22.9322V13.4552L58.9924 13.5072V17.3812C59.469 17.0778 59.9544 16.7528 60.4484 16.4062C60.9424 16.0595 61.3887 15.7258 61.7874 15.4052L62.5674 16.6012C62.342 16.7572 62.0777 16.9392 61.7744 17.1472C61.4797 17.3465 61.1677 17.5545 60.8384 17.7712C60.509 17.9878 60.184 18.2045 59.8634 18.4212C59.5427 18.6292 59.2524 18.8155 58.9924 18.9802V22.8022C58.9924 22.9408 59.001 23.0535 59.0184 23.1402C59.0357 23.2182 59.0704 23.2832 59.1224 23.3352C59.1744 23.3785 59.2437 23.4088 59.3304 23.4262C59.417 23.4435 59.5297 23.4522 59.6684 23.4522H60.3574C60.5394 23.4522 60.6824 23.4435 60.7864 23.4262C60.8904 23.4088 60.9727 23.3742 61.0334 23.3222C61.094 23.2702 61.1374 23.2008 61.1634 23.1142C61.198 23.0275 61.2284 22.9148 61.2544 22.7762C61.2717 22.6895 61.2847 22.5682 61.2934 22.4122C61.3107 22.2562 61.3194 22.0915 61.3194 21.9182C61.328 21.7448 61.3324 21.5802 61.3324 21.4242C61.341 21.2682 61.3454 21.1512 61.3454 21.0732L62.7104 21.5412ZM70.3441 16.2632C70.2401 16.1245 70.1014 15.9598 69.9281 15.7692C69.7634 15.5698 69.5901 15.3705 69.4081 15.1712C69.2261 14.9718 69.0441 14.7812 68.8621 14.5992C68.6801 14.4172 68.5241 14.2655 68.3941 14.1442L69.2521 13.2342C69.3908 13.3382 69.5511 13.4725 69.7331 13.6372C69.9151 13.8018 70.0971 13.9795 70.2791 14.1702C70.4698 14.3522 70.6518 14.5385 70.8251 14.7292C70.9984 14.9112 71.1458 15.0715 71.2671 15.2102L70.3441 16.2632ZM75.9471 23.7512C76.1551 23.7425 76.3198 23.7252 76.4411 23.6992C76.5624 23.6732 76.6534 23.6298 76.7141 23.5692C76.7834 23.4998 76.8268 23.4088 76.8441 23.2962C76.8701 23.1748 76.8831 23.0145 76.8831 22.8152V15.4312H71.5531V14.1962H78.2221V23.2572C78.2221 23.6385 78.2004 23.9462 78.1571 24.1802C78.1138 24.4142 78.0271 24.5962 77.8971 24.7262C77.7758 24.8648 77.6024 24.9602 77.3771 25.0122C77.1604 25.0728 76.8701 25.1118 76.5061 25.1292L75.3751 25.1942L74.9721 23.8032L75.9471 23.7512ZM68.0691 15.7302L69.3691 15.7822V24.9732H68.0691V15.7302Z" fill="#123871"/>
<path d="M56.4394 38.9H55.5374V40.781H54.6134V38.9H51.0054V37.833L54.3494 33.147H55.5374V38.064H56.4394V38.9ZM54.6134 38.064V34.159H54.5474L51.8414 37.998V38.064H54.6134ZM65.6485 35.314H59.0155V32.487H65.6485V35.314ZM64.8235 33.191H59.8515V34.61H64.8235V33.191ZM60.4565 37.019L60.2365 38.163H65.5165C65.5092 38.2437 65.4982 38.3793 65.4835 38.57C65.4762 38.7533 65.4615 38.9513 65.4395 39.164C65.4248 39.3693 65.4102 39.5673 65.3955 39.758C65.3808 39.9413 65.3698 40.0697 65.3625 40.143C65.3332 40.4657 65.2782 40.726 65.1975 40.924C65.1242 41.122 64.9995 41.2797 64.8235 41.397C64.6475 41.5143 64.4055 41.5987 64.0975 41.65C63.7895 41.7013 63.3898 41.7417 62.8985 41.771L61.9415 41.826L61.6775 40.99L62.8655 40.946C63.2028 40.9313 63.4705 40.9093 63.6685 40.88C63.8738 40.8507 64.0315 40.803 64.1415 40.737C64.2515 40.6637 64.3285 40.5647 64.3725 40.44C64.4165 40.3153 64.4458 40.154 64.4605 39.956C64.4678 39.8973 64.4752 39.8203 64.4825 39.725C64.4972 39.6297 64.5082 39.5343 64.5155 39.439C64.5302 39.3363 64.5412 39.2373 64.5485 39.142C64.5632 39.0467 64.5705 38.966 64.5705 38.9H59.1585L59.5325 37.019H57.5085V36.293H67.1775V37.019H60.4565ZM69.6786 31.948C69.796 32.0433 69.9316 32.1643 70.0856 32.311C70.247 32.4577 70.4083 32.6117 70.5696 32.773C70.731 32.9343 70.885 33.0957 71.0316 33.257C71.1783 33.411 71.2993 33.5467 71.3946 33.664L70.8336 34.39C70.7383 34.2507 70.6173 34.093 70.4706 33.917C70.3313 33.741 70.181 33.5687 70.0196 33.4C69.8656 33.2313 69.7116 33.07 69.5576 32.916C69.4036 32.762 69.268 32.6373 69.1506 32.542L69.6786 31.948ZM77.3786 40.231C77.3786 40.5317 77.353 40.77 77.3016 40.946C77.2576 41.1293 77.177 41.2687 77.0596 41.364C76.9496 41.4667 76.7956 41.5363 76.5976 41.573C76.407 41.617 76.165 41.6537 75.8716 41.683L74.9146 41.771L74.6506 40.902L75.6076 40.836C75.8056 40.8213 75.9633 40.803 76.0806 40.781C76.2053 40.759 76.3006 40.7187 76.3666 40.66C76.4326 40.594 76.4766 40.506 76.4986 40.396C76.5206 40.286 76.5316 40.1357 76.5316 39.945V33.51H71.8346V32.707H77.3786V40.231ZM69.8106 34.005V41.727H68.9966V33.961L69.8106 34.005Z" fill="#3A5A8A"/>
<defs>
<linearGradient id="paint0_linear_674_34015" x1="85.5573" y1="-0.214136" x2="4.12054" y2="32.9956" gradientUnits="userSpaceOnUse">
<stop offset="0.5" stop-color="#809AF5"/>
<stop offset="0.5" stop-color="#3867E2"/>
</linearGradient>
</defs>
</svg>
