<svg width="133" height="63" viewBox="0 0 133 63" fill="none" xmlns="http://www.w3.org/2000/svg">
<path d="M43.7327 49H18.1234C16.9185 49 16.4255 51.5313 17.4808 52.1129C23.2953 55.3178 28.407 59.71 30.2653 61.3828C30.6827 61.7585 31.3259 61.7478 31.7316 61.3595C33.5166 59.651 38.4263 55.2043 44.3415 51.9712C45.3929 51.3966 44.9309 49 43.7327 49Z" fill="#4573E7"/>
<rect width="132.489" height="53.6492" rx="26.8246" fill="url(#paint0_linear_674_34014)"/>
<rect x="4.86816" y="4.86823" width="122.752" height="43.9128" rx="21.9564" fill="#D6DFF5"/>
<path d="M22.9237 13.8246H38.8126C39.3872 13.8246 39.9383 14.0529 40.3447 14.4592C40.751 14.8656 40.9793 15.4167 40.9793 15.9913V37.658C40.9793 38.2326 40.751 38.7837 40.3447 39.19C39.9383 39.5964 39.3872 39.8246 38.8126 39.8246H22.9237C22.3491 39.8246 21.798 39.5964 21.3917 39.19C20.9853 38.7837 20.7571 38.2326 20.7571 37.658V15.9913C20.7571 15.4167 20.9853 14.8656 21.3917 14.4592C21.798 14.0529 22.3491 13.8246 22.9237 13.8246ZM22.9237 15.9913V37.658H38.8126V15.9913H22.9237ZM36.6459 31.5191C36.6459 31.8064 36.5318 32.082 36.3286 32.2851C36.1255 32.4883 35.8499 32.6024 35.5626 32.6024H30.5071C30.2197 32.6024 29.9442 32.4883 29.741 32.2851C29.5379 32.082 29.4237 31.8064 29.4237 31.5191C29.4237 31.2318 29.5379 30.9562 29.741 30.7531C29.9442 30.5499 30.2197 30.4358 30.5071 30.4358H35.5626C35.8499 30.4358 36.1255 30.5499 36.3286 30.7531C36.5318 30.9562 36.6459 31.2318 36.6459 31.5191ZM43.8682 38.7413C43.8682 39.0286 43.754 39.3042 43.5509 39.5073C43.3477 39.7105 43.0721 39.8246 42.7848 39.8246H18.9515C18.6642 39.8246 18.3886 39.7105 18.1855 39.5073C17.9823 39.3042 17.8682 39.0286 17.8682 38.7413C17.8682 38.454 17.9823 38.1784 18.1855 37.9753C18.3886 37.7721 18.6642 37.658 18.9515 37.658H42.7848C43.0721 37.658 43.3477 37.7721 43.5509 37.9753C43.754 38.1784 43.8682 38.454 43.8682 38.7413ZM27.2571 18.158H34.4793C35.0539 18.158 35.605 18.3863 36.0113 18.7926C36.4177 19.1989 36.6459 19.75 36.6459 20.3246V23.9358C36.6459 24.5104 36.4177 25.0615 36.0113 25.4678C35.605 25.8742 35.0539 26.1024 34.4793 26.1024H27.2571C26.6824 26.1024 26.1313 25.8742 25.725 25.4678C25.3187 25.0615 25.0904 24.5104 25.0904 23.9358V20.3246C25.0904 19.75 25.3187 19.1989 25.725 18.7926C26.1313 18.3863 26.6824 18.158 27.2571 18.158ZM27.2571 20.3246V23.9358H34.4793V20.3246H27.2571Z" fill="#5578F6"/>
<path d="M62.7364 14.8982V16.0812H51.2184V14.8982H54.3514C54.204 14.6816 54.0567 14.4736 53.9094 14.2742C53.7707 14.0749 53.6537 13.9146 53.5584 13.7932L54.6244 13.0392C54.789 13.2386 54.971 13.4769 55.1704 13.7542C55.3784 14.0229 55.5517 14.2612 55.6904 14.4692L55.1834 14.8982H57.8874C57.9914 14.7596 58.0997 14.6079 58.2124 14.4432C58.325 14.2786 58.4334 14.1182 58.5374 13.9622C58.65 13.7976 58.754 13.6416 58.8494 13.4942C58.9447 13.3382 59.0314 13.1952 59.1094 13.0652L60.3054 13.7152C60.2014 13.8712 60.0757 14.0576 59.9284 14.2742C59.781 14.4822 59.6337 14.6902 59.4864 14.8982H62.7364ZM60.4354 16.7962L61.6964 16.8482V23.5042C61.6964 23.8076 61.679 24.0546 61.6444 24.2452C61.6097 24.4359 61.536 24.5876 61.4234 24.7002C61.3107 24.8216 61.146 24.9082 60.9294 24.9602C60.7214 25.0209 60.444 25.0686 60.0974 25.1032L59.1224 25.1942L58.7454 23.9332L59.6554 23.8552C59.9934 23.8206 60.2057 23.7599 60.2924 23.6732C60.3877 23.5866 60.4354 23.4219 60.4354 23.1792V16.7962ZM52.1414 16.9522H56.9384V23.6732C56.9384 23.9506 56.9167 24.1802 56.8734 24.3622C56.8387 24.5442 56.7694 24.6916 56.6654 24.8042C56.5614 24.9169 56.4227 24.9949 56.2494 25.0382C56.076 25.0902 55.8594 25.1249 55.5994 25.1422L54.9494 25.1812L54.5724 23.9462L55.0404 23.9202C55.3177 23.9029 55.4954 23.8639 55.5734 23.8032C55.6514 23.7339 55.6904 23.5822 55.6904 23.3482V22.4642H53.4024V25.0382H52.1414V16.9522ZM59.1354 22.8282H57.9784V17.3162L59.1354 17.3682V22.8282ZM53.4024 18.1482V19.1622H55.6904V18.1482H53.4024ZM55.6904 21.3332V20.3062H53.4024V21.3332H55.6904ZM74.8832 14.0532V23.5952C74.8832 23.8726 74.8616 24.0979 74.8182 24.2712C74.7836 24.4446 74.7142 24.5832 74.6102 24.6872C74.5062 24.7912 74.3589 24.8692 74.1682 24.9212C73.9862 24.9819 73.7479 25.0296 73.4532 25.0642L72.9332 25.1292L72.5432 23.9332L73.1022 23.8812C73.2409 23.8639 73.3492 23.8466 73.4272 23.8292C73.5139 23.8032 73.5789 23.7686 73.6222 23.7252C73.6742 23.6819 73.7046 23.6256 73.7132 23.5562C73.7306 23.4782 73.7392 23.3786 73.7392 23.2572V21.2812H72.3482C72.3222 21.7232 72.2746 22.1176 72.2052 22.4642C72.1446 22.8109 72.0536 23.1446 71.9322 23.4652C71.8196 23.7772 71.6722 24.0892 71.4902 24.4012C71.3082 24.7219 71.0872 25.0686 70.8272 25.4412L69.7742 24.7522C69.8956 24.5876 70.0039 24.4316 70.0992 24.2842C70.2032 24.1369 70.2986 23.9939 70.3852 23.8552H67.1352V18.6942H68.2792V16.8742H66.9402V15.6392H68.2792V13.4812L69.4232 13.5332V15.6392H70.9702V16.8742H69.4232V18.6942H70.5282V23.5952C70.7016 23.2746 70.8359 22.9582 70.9312 22.6462C71.0352 22.3342 71.1089 21.9876 71.1522 21.6062C71.2042 21.2162 71.2346 20.7742 71.2432 20.2802C71.2519 19.7776 71.2562 19.1882 71.2562 18.5122V14.0532H74.8832ZM66.3812 16.3022C66.2772 16.1809 66.1386 16.0422 65.9652 15.8862C65.8006 15.7302 65.6229 15.5742 65.4322 15.4182C65.2502 15.2622 65.0682 15.1149 64.8862 14.9762C64.7129 14.8376 64.5656 14.7249 64.4442 14.6382L65.1332 13.6892C65.2719 13.7846 65.4279 13.8972 65.6012 14.0272C65.7746 14.1486 65.9479 14.2786 66.1212 14.4172C66.3032 14.5559 66.4766 14.6946 66.6412 14.8332C66.8059 14.9719 66.9489 15.0976 67.0702 15.2102L66.3812 16.3022ZM72.4002 15.3272V17.1602H73.7392V15.3272H72.4002ZM66.0432 19.5132C65.8959 19.3746 65.7269 19.2142 65.5362 19.0322C65.3456 18.8502 65.1462 18.6726 64.9382 18.4992C64.7389 18.3172 64.5439 18.1482 64.3532 17.9922C64.1712 17.8362 64.0109 17.7106 63.8722 17.6152L64.5612 16.6662C64.7086 16.7702 64.8776 16.8959 65.0682 17.0432C65.2676 17.1819 65.4626 17.3336 65.6532 17.4982C65.8526 17.6542 66.0432 17.8146 66.2252 17.9792C66.4159 18.1352 66.5762 18.2739 66.7062 18.3952L66.0432 19.5132ZM73.7392 20.1242V18.3302H72.4002V19.1362C72.4002 19.3096 72.4002 19.4829 72.4002 19.6562C72.4002 19.8209 72.3959 19.9769 72.3872 20.1242H73.7392ZM69.4102 19.9162H68.2662V22.6072H69.4102V19.9162ZM64.1192 24.6482C64.1712 24.5356 64.2406 24.3579 64.3272 24.1152C64.4139 23.8812 64.5092 23.6126 64.6132 23.3092C64.7259 23.0059 64.8386 22.6896 64.9512 22.3602C65.0726 22.0222 65.1852 21.7059 65.2892 21.4112C65.3932 21.1079 65.4842 20.8392 65.5622 20.6052C65.6402 20.3626 65.6966 20.1892 65.7312 20.0852L66.8882 20.4752C66.8622 20.5879 66.8059 20.7656 66.7192 21.0082C66.6412 21.2509 66.5502 21.5239 66.4462 21.8272C66.3422 22.1306 66.2296 22.4512 66.1082 22.7892C65.9869 23.1272 65.8699 23.4479 65.7572 23.7512C65.6532 24.0459 65.5536 24.3102 65.4582 24.5442C65.3629 24.7869 65.2936 24.9602 65.2502 25.0642L64.1192 24.6482ZM83.2731 17.8882C83.4291 18.5556 83.6501 19.1752 83.9361 19.7472C84.2221 20.3106 84.5774 20.8392 85.0021 21.3332C85.4268 21.8272 85.9251 22.2952 86.4971 22.7372C87.0778 23.1706 87.7364 23.5866 88.4731 23.9852L87.6411 25.2982C86.4278 24.5529 85.4094 23.7426 84.5861 22.8672C83.7628 21.9919 83.1301 21.0602 82.6881 20.0722C82.4541 20.6182 82.1594 21.1382 81.8041 21.6322C81.4488 22.1176 81.0544 22.5769 80.6211 23.0102C80.1878 23.4436 79.7198 23.8509 79.2171 24.2322C78.7231 24.6222 78.2118 24.9906 77.6831 25.3372L76.8381 23.9852C77.4794 23.6212 78.0861 23.2226 78.6581 22.7892C79.2388 22.3472 79.7501 21.8662 80.1921 21.3462C80.6428 20.8262 81.0111 20.2672 81.2971 19.6692C81.5918 19.0626 81.7738 18.4126 81.8431 17.7192H77.2801V16.3932H81.8821V13.4162L83.3121 13.4682V16.3932H87.9531V17.7192H83.2861C83.2861 17.7452 83.2818 17.7712 83.2731 17.7972C83.2731 17.8232 83.2731 17.8536 83.2731 17.8882ZM95.992 15.8082H92.924V14.7422H94.991C94.861 14.5689 94.731 14.3956 94.601 14.2222C94.471 14.0489 94.3323 13.8799 94.185 13.7152L95.108 13.0132C95.3073 13.2299 95.485 13.4336 95.641 13.6242C95.8057 13.8149 95.9617 14.0316 96.109 14.2742L95.602 14.7422H97.162C97.266 14.6122 97.3743 14.4692 97.487 14.3132C97.6083 14.1486 97.7253 13.9882 97.838 13.8322C97.9593 13.6762 98.0677 13.5289 98.163 13.3902C98.267 13.2516 98.3493 13.1346 98.41 13.0392L99.515 13.6372C99.4197 13.7846 99.294 13.9579 99.138 14.1572C98.9907 14.3479 98.8433 14.5429 98.696 14.7422H100.867V15.8082H97.344C97.2747 16.0856 97.201 16.3542 97.123 16.6142H99.97V22.8022H93.587V16.6142H95.758L95.992 15.8082ZM91.637 16.8352C91.5503 16.6792 91.4377 16.4886 91.299 16.2632C91.1603 16.0292 91.0087 15.7952 90.844 15.5612C90.688 15.3186 90.5277 15.0889 90.363 14.8722C90.1983 14.6469 90.051 14.4606 89.921 14.3132L90.922 13.5722C91.0347 13.7109 91.169 13.8799 91.325 14.0792C91.481 14.2786 91.637 14.4909 91.793 14.7162C91.949 14.9416 92.1007 15.1669 92.248 15.3922C92.3953 15.6089 92.5253 15.8082 92.638 15.9902L91.637 16.8352ZM95.381 23.5952C96.3517 23.6126 97.318 23.6126 98.28 23.5952C99.242 23.5779 100.208 23.5432 101.179 23.4912L100.919 24.7262C99.9483 24.7782 98.995 24.8129 98.059 24.8302C97.123 24.8476 96.1697 24.8476 95.199 24.8302C94.7743 24.8216 94.3973 24.7956 94.068 24.7522C93.7473 24.7176 93.4527 24.6439 93.184 24.5312C92.924 24.4186 92.6813 24.2669 92.456 24.0762C92.2307 23.8856 92.001 23.6386 91.767 23.3352C91.507 23.6126 91.2513 23.8942 91 24.1802C90.7573 24.4749 90.5103 24.7522 90.259 25.0122L89.427 23.9592C89.713 23.6819 89.999 23.3959 90.285 23.1012C90.5797 22.8066 90.857 22.5032 91.117 22.1912V18.9022H89.791V17.5892H92.339V22.1652C92.5297 22.4512 92.7203 22.6852 92.911 22.8672C93.1103 23.0492 93.327 23.1922 93.561 23.2962C93.8037 23.4002 94.0723 23.4739 94.367 23.5172C94.6617 23.5606 94.9997 23.5866 95.381 23.5952ZM98.67 17.5892H94.887V18.3692H98.67V17.5892ZM94.887 20.0982H98.67V19.3182H94.887V20.0982ZM98.67 21.8142V21.0472H94.887V21.8142H98.67ZM105.396 16.2632C105.292 16.1246 105.153 15.9599 104.98 15.7692C104.815 15.5699 104.642 15.3706 104.46 15.1712C104.278 14.9719 104.096 14.7812 103.914 14.5992C103.732 14.4172 103.576 14.2656 103.446 14.1442L104.304 13.2342C104.443 13.3382 104.603 13.4726 104.785 13.6372C104.967 13.8019 105.149 13.9796 105.331 14.1702C105.522 14.3522 105.704 14.5386 105.877 14.7292C106.05 14.9112 106.198 15.0716 106.319 15.2102L105.396 16.2632ZM110.999 23.7512C111.207 23.7426 111.372 23.7252 111.493 23.6992C111.614 23.6732 111.705 23.6299 111.766 23.5692C111.835 23.4999 111.879 23.4089 111.896 23.2962C111.922 23.1749 111.935 23.0146 111.935 22.8152V15.4312H106.605V14.1962H113.274V23.2572C113.274 23.6386 113.252 23.9462 113.209 24.1802C113.166 24.4142 113.079 24.5962 112.949 24.7262C112.828 24.8649 112.654 24.9602 112.429 25.0122C112.212 25.0729 111.922 25.1119 111.558 25.1292L110.427 25.1942L110.024 23.8032L110.999 23.7512ZM103.121 15.7302L104.421 15.7822V24.9732H103.121V15.7302Z" fill="#123871"/>
<path d="M53.1064 40.891C52.7984 40.891 52.4977 40.88 52.2044 40.858C51.9184 40.836 51.647 40.7993 51.3904 40.748V39.879C51.6837 39.9523 51.966 40.0037 52.2374 40.033C52.516 40.055 52.802 40.066 53.0954 40.066C53.3814 40.066 53.6454 40.044 53.8874 40C54.1367 39.956 54.3494 39.879 54.5254 39.769C54.7014 39.659 54.8407 39.516 54.9434 39.34C55.046 39.1567 55.0974 38.933 55.0974 38.669C55.0974 38.1263 54.914 37.7487 54.5474 37.536C54.1807 37.3233 53.6344 37.217 52.9084 37.217H52.3034V36.458H52.8974C53.5647 36.458 54.0707 36.337 54.4154 36.095C54.76 35.8457 54.9324 35.512 54.9324 35.094C54.9324 34.6467 54.7967 34.3277 54.5254 34.137C54.2614 33.9463 53.8544 33.851 53.3044 33.851C53.0844 33.851 52.8314 33.8693 52.5454 33.906C52.2594 33.9427 51.9954 33.9977 51.7534 34.071V33.257C51.944 33.1983 52.1824 33.147 52.4684 33.103C52.7617 33.059 53.055 33.037 53.3484 33.037C54.1697 33.037 54.7894 33.1947 55.2074 33.51C55.6327 33.8253 55.8454 34.335 55.8454 35.039C55.8454 35.5377 55.7244 35.9227 55.4824 36.194C55.2404 36.458 54.9104 36.6523 54.4924 36.777V36.843C55.035 36.9383 55.4274 37.1437 55.6694 37.459C55.9187 37.767 56.0434 38.174 56.0434 38.68C56.0434 39.384 55.805 39.9303 55.3284 40.319C54.859 40.7003 54.1184 40.891 53.1064 40.891ZM65.6485 35.314H59.0155V32.487H65.6485V35.314ZM64.8235 33.191H59.8515V34.61H64.8235V33.191ZM60.4565 37.019L60.2365 38.163H65.5165C65.5092 38.2437 65.4982 38.3793 65.4835 38.57C65.4762 38.7533 65.4615 38.9513 65.4395 39.164C65.4248 39.3693 65.4102 39.5673 65.3955 39.758C65.3808 39.9413 65.3698 40.0697 65.3625 40.143C65.3332 40.4657 65.2782 40.726 65.1975 40.924C65.1242 41.122 64.9995 41.2797 64.8235 41.397C64.6475 41.5143 64.4055 41.5987 64.0975 41.65C63.7895 41.7013 63.3898 41.7417 62.8985 41.771L61.9415 41.826L61.6775 40.99L62.8655 40.946C63.2028 40.9313 63.4705 40.9093 63.6685 40.88C63.8738 40.8507 64.0315 40.803 64.1415 40.737C64.2515 40.6637 64.3285 40.5647 64.3725 40.44C64.4165 40.3153 64.4458 40.154 64.4605 39.956C64.4678 39.8973 64.4752 39.8203 64.4825 39.725C64.4972 39.6297 64.5082 39.5343 64.5155 39.439C64.5302 39.3363 64.5412 39.2373 64.5485 39.142C64.5632 39.0467 64.5705 38.966 64.5705 38.9H59.1585L59.5325 37.019H57.5085V36.293H67.1775V37.019H60.4565ZM69.6786 31.948C69.796 32.0433 69.9316 32.1643 70.0856 32.311C70.247 32.4577 70.4083 32.6117 70.5696 32.773C70.731 32.9343 70.885 33.0957 71.0316 33.257C71.1783 33.411 71.2993 33.5467 71.3946 33.664L70.8336 34.39C70.7383 34.2507 70.6173 34.093 70.4706 33.917C70.3313 33.741 70.181 33.5687 70.0196 33.4C69.8656 33.2313 69.7116 33.07 69.5576 32.916C69.4036 32.762 69.268 32.6373 69.1506 32.542L69.6786 31.948ZM77.3786 40.231C77.3786 40.5317 77.353 40.77 77.3016 40.946C77.2576 41.1293 77.177 41.2687 77.0596 41.364C76.9496 41.4667 76.7956 41.5363 76.5976 41.573C76.407 41.617 76.165 41.6537 75.8716 41.683L74.9146 41.771L74.6506 40.902L75.6076 40.836C75.8056 40.8213 75.9633 40.803 76.0806 40.781C76.2053 40.759 76.3006 40.7187 76.3666 40.66C76.4326 40.594 76.4766 40.506 76.4986 40.396C76.5206 40.286 76.5316 40.1357 76.5316 39.945V33.51H71.8346V32.707H77.3786V40.231ZM69.8106 34.005V41.727H68.9966V33.961L69.8106 34.005Z" fill="#3A5A8A"/>
<defs>
<linearGradient id="paint0_linear_674_34014" x1="116.274" y1="-0.214136" x2="17.5248" y2="54.5129" gradientUnits="userSpaceOnUse">
<stop offset="0.5" stop-color="#809AF5"/>
<stop offset="0.5" stop-color="#3867E2"/>
</linearGradient>
</defs>
</svg>
