<svg width="114" height="53" viewBox="0 0 114 53" fill="none" xmlns="http://www.w3.org/2000/svg">
<path d="M37.9925 39.5544H12.3832C11.1782 39.5544 10.6853 42.0858 11.7406 42.6674C17.5551 45.8722 22.6667 50.2645 24.525 51.9372C24.9424 52.3129 25.5857 52.3022 25.9914 51.9139C27.7764 50.2055 32.6861 45.7588 38.6012 42.5257C39.6526 41.951 39.1907 39.5544 37.9925 39.5544Z" fill="#4573E7"/>
<rect width="113.095" height="46.4886" rx="23.2443" fill="url(#paint0_linear_736_42848)"/>
<rect x="4.86823" y="4.86823" width="103.359" height="36.7521" rx="18.3761" fill="#D6DFF5"/>
<path d="M35.1121 27.2343C34.5121 26.9643 33.8221 27.2643 33.5821 27.8343C33.3121 28.4343 33.6121 29.1243 34.1821 29.3643C35.5921 29.9643 36.4621 30.8043 36.4621 31.5243C36.4621 32.8443 33.4921 34.7043 28.6921 34.7043C23.8921 34.7043 20.9221 32.8743 20.9221 31.5543C20.9221 30.8643 21.6721 30.1143 22.9621 29.5143C23.5321 29.2443 23.8021 28.5543 23.5021 27.9543C23.2321 27.3843 22.5421 27.1143 21.9421 27.4143C19.7821 28.4343 18.6121 29.9043 18.6121 31.5543C18.6121 34.7043 22.9621 37.0743 28.7221 37.0743C34.4821 37.0743 38.8321 34.7043 38.8321 31.5543C38.8021 29.8443 37.4521 28.2543 35.1121 27.2343Z" fill="#2566E5"/>
<path d="M45.4021 14.1244C45.2821 13.7344 44.9821 13.4644 44.6221 13.3444L31.1821 9.47435C30.8521 9.38435 30.5221 9.41435 30.2221 9.62435C29.9521 9.80435 29.7421 10.1344 29.7121 10.4644L29.2621 14.2444L28.5721 20.1543L28.3621 21.9843L27.3421 30.8643C27.2821 31.4943 27.7321 32.0943 28.3621 32.1543H28.4821C29.0521 32.1543 29.5621 31.7043 29.6521 31.1343L30.5221 23.5443L41.6521 26.0043C41.7421 26.0343 41.8321 26.0343 41.8921 26.0343C42.1921 26.0343 42.5221 25.9143 42.7321 25.6743C43.0021 25.3743 43.1221 24.9544 43.0021 24.5644L41.5921 19.3443L45.1021 15.2344C45.4321 14.9044 45.5221 14.4844 45.4021 14.1244ZM39.4921 18.2643C39.2521 18.5643 39.1621 18.9543 39.2521 19.3143L40.3021 23.2743L30.8221 21.1743L31.8721 12.0844L42.2221 15.0544L39.4921 18.2643Z" fill="#2566E5"/>
<path d="M64.2626 20.214V21.2718H54.3707V20.214H56.6439L57.2291 16.7816H55.1809V15.69H57.4091L57.7918 13.4618H54.9559V12.359H63.7561V13.4618H58.9846L58.602 15.69H62.5858L62.4282 20.214H64.2626ZM57.8143 20.214H61.2466L61.3816 16.7816H58.4107L57.8143 20.214ZM74.7326 12.5278V21.8232H73.6185V21.103H67.1252V21.8232H66.0223V12.5278H74.7326ZM73.6185 20.0227V18.3684H72.4819C71.9642 18.3684 71.5778 18.2671 71.3228 18.0645C71.0677 17.8545 70.9401 17.4719 70.9401 16.9167V13.6306H69.7585V14.9698C69.7585 15.48 69.7285 15.9151 69.6685 16.2752C69.6085 16.6353 69.5072 16.9654 69.3646 17.2655C69.2221 17.5581 69.0308 17.8357 68.7907 18.0983C68.5581 18.3609 68.2693 18.646 67.9242 18.9536L67.1364 18.1771C67.459 17.9145 67.7179 17.6744 67.9129 17.4568C68.1155 17.2393 68.2693 17.0142 68.3743 16.7816C68.4869 16.5416 68.5581 16.279 68.5881 15.9939C68.6257 15.7013 68.6444 15.3487 68.6444 14.936V13.6306H67.1252V20.0227H73.6185ZM73.6185 13.6306H72.0205V16.4778C72.0205 16.7854 72.073 16.9879 72.178 17.0855C72.2831 17.183 72.4931 17.2318 72.8082 17.2318H73.6185V13.6306ZM82.0404 15.6113C82.1754 16.1889 82.3667 16.7254 82.6143 17.2205C82.8619 17.7082 83.1695 18.1658 83.5371 18.5935C83.9047 19.0211 84.3361 19.4262 84.8313 19.8088C85.3339 20.184 85.9041 20.5441 86.5418 20.8892L85.8216 22.0258C84.7712 21.3806 83.8897 20.6791 83.177 19.9214C82.4643 19.1636 81.9166 18.3571 81.534 17.5019C81.3314 17.9745 81.0763 18.4247 80.7687 18.8523C80.4611 19.2724 80.1198 19.67 79.7446 20.0452C79.3695 20.4203 78.9644 20.7729 78.5293 21.103C78.1016 21.4406 77.659 21.7595 77.2013 22.0596L76.4699 20.8892C77.025 20.5741 77.5502 20.229 78.0454 19.8539C78.548 19.4712 78.9907 19.0549 79.3733 18.6047C79.7634 18.1546 80.0823 17.6707 80.3298 17.153C80.5849 16.6278 80.7425 16.0652 80.8025 15.465H76.8525V14.3171H80.8362V11.74L82.0741 11.7851V14.3171H86.0917V15.465H82.0516C82.0516 15.4875 82.0479 15.51 82.0404 15.5325C82.0404 15.555 82.0404 15.5813 82.0404 15.6113ZM93.0506 13.8107H90.3947V12.8879H92.1841C92.0715 12.7379 91.959 12.5878 91.8464 12.4378C91.7339 12.2877 91.6139 12.1414 91.4863 11.9989L92.2853 11.3912C92.4579 11.5787 92.6117 11.755 92.7467 11.9201C92.8893 12.0851 93.0243 12.2727 93.1519 12.4828L92.713 12.8879H94.0634C94.1534 12.7754 94.2472 12.6516 94.3447 12.5165C94.4498 12.374 94.5511 12.2352 94.6486 12.1002C94.7536 11.9651 94.8474 11.8376 94.9299 11.7175C95.02 11.5975 95.0912 11.4962 95.1437 11.4137L96.1003 11.9313C96.0178 12.0589 95.909 12.2089 95.7739 12.3815C95.6464 12.5465 95.5189 12.7153 95.3913 12.8879H97.2707V13.8107H94.221C94.1609 14.0508 94.0972 14.2833 94.0296 14.5084H96.4942V19.8651H90.9687V14.5084H92.848L93.0506 13.8107ZM89.2806 14.6997C89.2056 14.5647 89.1081 14.3996 88.988 14.2046C88.868 14.002 88.7367 13.7994 88.5942 13.5969C88.4591 13.3868 88.3203 13.188 88.1778 13.0004C88.0352 12.8054 87.9077 12.6441 87.7952 12.5165L88.6617 11.8751C88.7592 11.9951 88.8755 12.1414 89.0106 12.314C89.1456 12.4865 89.2806 12.6703 89.4157 12.8654C89.5507 13.0605 89.682 13.2555 89.8096 13.4506C89.9371 13.6381 90.0496 13.8107 90.1472 13.9682L89.2806 14.6997ZM92.5217 20.5516C93.3619 20.5666 94.1984 20.5666 95.0312 20.5516C95.864 20.5366 96.7005 20.5066 97.5408 20.4615L97.3157 21.5306C96.4754 21.5757 95.6502 21.6057 94.8399 21.6207C94.0296 21.6357 93.2044 21.6357 92.3641 21.6207C91.9965 21.6132 91.6701 21.5907 91.3851 21.5531C91.1075 21.5231 90.8524 21.4594 90.6198 21.3618C90.3947 21.2643 90.1847 21.133 89.9896 20.968C89.7945 20.8029 89.5957 20.5891 89.3932 20.3265C89.1681 20.5666 88.9468 20.8104 88.7292 21.058C88.5191 21.3131 88.3053 21.5531 88.0878 21.7782L87.3675 20.8667C87.6151 20.6266 87.8627 20.379 88.1103 20.1239C88.3653 19.8689 88.6054 19.6063 88.8305 19.3362V16.489H87.6826V15.3524H89.8883V19.3137C90.0534 19.5613 90.2184 19.7638 90.3835 19.9214C90.556 20.0789 90.7436 20.2027 90.9462 20.2927C91.1562 20.3828 91.3888 20.4465 91.6439 20.4841C91.899 20.5216 92.1916 20.5441 92.5217 20.5516ZM95.3688 15.3524H92.094V16.0276H95.3688V15.3524ZM92.094 17.5244H95.3688V16.8492H92.094V17.5244ZM95.3688 19.0098V18.3459H92.094V19.0098H95.3688Z" fill="#123871"/>
<path d="M56.3574 28.9592H57.2611V29.8081H56.3574V31.1682C56.5096 31.1195 56.6526 31.0708 56.7864 31.0221C56.9203 30.9735 57.0451 30.9278 57.1607 30.8852L57.2154 31.7524C57.0998 31.795 56.969 31.8437 56.8229 31.8984C56.6769 31.9471 56.5217 31.9988 56.3574 32.0536V34.509C56.3574 34.722 56.3392 34.8924 56.3027 35.0202C56.2722 35.148 56.2144 35.2484 56.1292 35.3214C56.0501 35.3944 55.9406 35.4492 55.8006 35.4857C55.6607 35.5222 55.4811 35.5526 55.2621 35.577L54.8696 35.6226L54.5866 34.7555L54.97 34.7189C55.0734 34.7068 55.1586 34.6946 55.2256 34.6824C55.2925 34.6642 55.3442 34.6398 55.3807 34.6094C55.4233 34.5729 55.4507 34.5273 55.4629 34.4725C55.4811 34.4177 55.4903 34.3447 55.4903 34.2534V32.3366C55.2651 32.4035 55.0521 32.4674 54.8513 32.5282C54.6505 32.5891 54.4801 32.6378 54.3402 32.6743L54.1759 31.8345C54.3402 31.7919 54.5349 31.7372 54.76 31.6702C54.9913 31.6033 55.2347 31.5303 55.4903 31.4512V29.8081H54.3675V28.9592H55.4903V27.3892L56.3574 27.4258V28.9592ZM61.9254 35.6409C61.5603 35.434 61.2226 35.224 60.9122 35.011C60.6019 34.798 60.3159 34.5699 60.0542 34.3264C59.8473 34.5212 59.6191 34.7129 59.3696 34.9015C59.1262 35.0901 58.8585 35.2788 58.5664 35.4674L58.329 35.1845V35.6317H57.4528V27.7178H61.7155C61.7094 27.8335 61.7033 27.9704 61.6972 28.1286C61.6912 28.2868 61.6851 28.445 61.679 28.6033C61.679 28.7554 61.6759 28.8984 61.6699 29.0323C61.6638 29.1601 61.6577 29.2513 61.6516 29.3061C61.6333 29.4947 61.606 29.6499 61.5694 29.7716C61.5329 29.8872 61.4721 29.9785 61.3869 30.0455C61.3017 30.1124 61.1891 30.1611 61.0492 30.1915C60.9092 30.2219 60.7297 30.2432 60.5106 30.2554L59.4792 30.3193L59.2145 29.4887L60.1546 29.4339C60.2824 29.4278 60.3828 29.4187 60.4558 29.4065C60.535 29.3943 60.5958 29.3761 60.6384 29.3517C60.6871 29.3274 60.7206 29.2939 60.7388 29.2513C60.7571 29.2087 60.7723 29.1509 60.7845 29.0779C60.7966 29.011 60.8057 28.9288 60.8118 28.8314C60.8179 28.7341 60.8179 28.6428 60.8118 28.5576H58.329V30.6753H61.825V31.4968C61.7216 31.868 61.5755 32.2362 61.3869 32.6013C61.2043 32.9664 60.9579 33.3315 60.6475 33.6966C60.9031 33.9096 61.1739 34.1074 61.4599 34.2899C61.752 34.4664 62.0654 34.652 62.4001 34.8467L61.9254 35.6409ZM58.329 34.4999C58.755 34.2321 59.1323 33.9583 59.4609 33.6784C59.0654 33.1733 58.7459 32.5617 58.5025 31.8437L59.2145 31.5424C59.324 31.871 59.4457 32.1601 59.5796 32.4096C59.7195 32.6591 59.8747 32.8873 60.0451 33.0942C60.2581 32.8447 60.4376 32.5921 60.5836 32.3366C60.7297 32.0749 60.8453 31.798 60.9305 31.5059H58.329V34.4999ZM67.6612 29.0414H65.507V28.2929H66.9583C66.867 28.1712 66.7758 28.0495 66.6845 27.9278C66.5932 27.8061 66.4958 27.6874 66.3924 27.5718L67.0405 27.0789C67.1804 27.231 67.3052 27.374 67.4147 27.5079C67.5303 27.6418 67.6399 27.7939 67.7433 27.9643L67.3873 28.2929H68.4827C68.5557 28.2016 68.6318 28.1012 68.7109 27.9917C68.7961 27.8761 68.8782 27.7635 68.9573 27.654C69.0425 27.5444 69.1186 27.441 69.1855 27.3436C69.2586 27.2462 69.3164 27.1641 69.359 27.0972L70.1348 27.517C70.0679 27.6205 69.9797 27.7422 69.8701 27.8821C69.7667 28.016 69.6632 28.1529 69.5598 28.2929H71.0841V29.0414H68.6105C68.5618 29.2361 68.5101 29.4248 68.4553 29.6073H70.4543V33.9522H65.9725V29.6073H67.4969L67.6612 29.0414ZM64.6033 29.7625C64.5425 29.653 64.4634 29.5191 64.366 29.3609C64.2686 29.1966 64.1622 29.0323 64.0465 28.868C63.937 28.6976 63.8244 28.5363 63.7088 28.3842C63.5932 28.226 63.4897 28.0951 63.3985 27.9917L64.1013 27.4714C64.1804 27.5688 64.2747 27.6874 64.3843 27.8274C64.4938 27.9673 64.6033 28.1164 64.7129 28.2746C64.8224 28.4329 64.9289 28.5911 65.0323 28.7493C65.1358 28.9014 65.2271 29.0414 65.3062 29.1692L64.6033 29.7625ZM67.2322 34.509C67.9137 34.5212 68.5922 34.5212 69.2677 34.509C69.9431 34.4968 70.6217 34.4725 71.3032 34.436L71.1206 35.3031C70.4391 35.3396 69.7697 35.364 69.1125 35.3761C68.4553 35.3883 67.7859 35.3883 67.1044 35.3761C66.8062 35.3701 66.5415 35.3518 66.3102 35.3214C66.0851 35.297 65.8782 35.2453 65.6896 35.1662C65.507 35.0871 65.3366 34.9806 65.1784 34.8467C65.0202 34.7129 64.8589 34.5394 64.6946 34.3264C64.5121 34.5212 64.3325 34.7189 64.1561 34.9198C63.9857 35.1267 63.8122 35.3214 63.6358 35.5039L63.0516 34.7646C63.2524 34.5699 63.4532 34.369 63.654 34.1621C63.8609 33.9552 64.0557 33.7423 64.2382 33.5232V31.2138H63.3072V30.2919H65.0962V33.5049C65.2301 33.7057 65.364 33.87 65.4979 33.9978C65.6378 34.1256 65.79 34.226 65.9543 34.2991C66.1246 34.3721 66.3133 34.4238 66.5202 34.4542C66.7271 34.4847 66.9644 34.5029 67.2322 34.509ZM69.5415 30.2919H66.8853V30.8396H69.5415V30.2919ZM66.8853 32.0536H69.5415V31.5059H66.8853V32.0536ZM69.5415 33.2585V32.7199H66.8853V33.2585H69.5415ZM79.2753 33.0485H73.187V29.8994H75.5328V27.3892L76.4548 27.4258V28.1742H79.8412V29.0962H76.4548V29.8994H79.2753V33.0485ZM78.3899 30.8122H74.0724V32.154H78.3899V30.8122ZM79.1018 33.1581C79.2966 33.4623 79.4883 33.794 79.6769 34.153C79.8716 34.506 80.0359 34.8193 80.1698 35.0932L79.4031 35.6135C79.3483 35.4735 79.2783 35.3153 79.1931 35.1388C79.114 34.9623 79.0258 34.7828 78.9284 34.6003C78.8311 34.4116 78.7306 34.226 78.6272 34.0435C78.5298 33.8609 78.4325 33.6905 78.3351 33.5323L79.1018 33.1581ZM72.192 35.2484C72.3016 35.0962 72.405 34.9289 72.5024 34.7463C72.6058 34.5699 72.7032 34.3903 72.7945 34.2078C72.8858 34.0252 72.9679 33.8457 73.0409 33.6692C73.1139 33.4928 73.1778 33.3315 73.2326 33.1855L74.0267 33.5141C73.9659 33.6905 73.8929 33.8761 73.8077 34.0709C73.7225 34.2656 73.6342 34.4603 73.543 34.655C73.4517 34.8498 73.3574 35.0384 73.26 35.221C73.1687 35.4035 73.0805 35.5678 72.9953 35.7139L72.192 35.2484ZM77.258 33.3315C77.325 33.4593 77.3919 33.6053 77.4588 33.7696C77.5258 33.9279 77.5866 34.0922 77.6414 34.2625C77.6962 34.4268 77.7479 34.5881 77.7966 34.7463C77.8452 34.9045 77.8848 35.0445 77.9152 35.1662L77.1028 35.4492C77.0785 35.3153 77.045 35.1692 77.0024 35.011C76.9598 34.8528 76.9081 34.6916 76.8473 34.5273C76.7925 34.363 76.7316 34.1986 76.6647 34.0343C76.5978 33.87 76.5339 33.7179 76.473 33.578L77.258 33.3315ZM75.4051 33.4137C75.4476 33.5536 75.4902 33.7088 75.5328 33.8792C75.5754 34.0496 75.615 34.2199 75.6515 34.3903C75.688 34.5607 75.7184 34.725 75.7428 34.8832C75.7671 35.0415 75.7854 35.1814 75.7975 35.3031L74.9304 35.5222C74.9 35.2118 74.8482 34.8802 74.7752 34.5273C74.7083 34.1743 74.6414 33.8609 74.5744 33.5871L75.4051 33.4137Z" fill="#3A5A8A"/>
<defs>
<linearGradient id="paint0_linear_736_42848" x1="99.2541" y1="-0.185555" x2="14.37" y2="46.1569" gradientUnits="userSpaceOnUse">
<stop offset="0.5" stop-color="#809AF5"/>
<stop offset="0.5" stop-color="#3867E2"/>
</linearGradient>
</defs>
</svg>
