<svg width="102" height="53" viewBox="0 0 102 53" fill="none" xmlns="http://www.w3.org/2000/svg">
<path d="M89.7327 39H64.1234C62.9185 39 62.4255 41.5313 63.4808 42.1129C69.2953 45.3178 74.407 49.71 76.2653 51.3828C76.6827 51.7585 77.3259 51.7478 77.7316 51.3595C79.5166 49.651 84.4263 45.2043 90.3415 41.9712C91.3929 41.3966 90.9309 39 89.7327 39Z" fill="#4573E7"/>
<rect width="101.104" height="45.4013" rx="22.7007" fill="url(#paint0_linear_674_33999)"/>
<rect x="4.86819" y="4.86816" width="91.3675" height="35.6649" rx="17.8325" fill="#D6DFF5"/>
<path d="M29.1745 23.2522V17.7267C29.1745 16.6211 29.5416 16.3763 30.5235 16.3763H39.9765C41.3902 16.3763 44.0292 18.2796 44.0292 21.8385C44.0292 22.5756 43.4159 23.1889 42.6788 23.1889H29.1745V23.2522ZM24.5085 23.2522C22.6657 23.2522 21.1324 21.7189 21.1324 19.8157C21.1324 17.9138 22.6066 16.3805 24.5085 16.3805C26.3512 16.3805 27.8845 17.9138 27.8845 19.8157C27.824 21.7175 26.3512 23.2522 24.5085 23.2522ZM44.0292 26.015V31.1719C44.0292 31.9091 43.4159 32.5224 42.6788 32.5224C42.3216 32.5194 41.98 32.3762 41.7276 32.1235C41.4752 31.8708 41.3323 31.5291 41.3297 31.1719V28.7173C41.3272 28.3599 41.184 28.0179 40.9313 27.7652C40.6787 27.5125 40.3367 27.3694 39.9793 27.3668H21.0705C20.7131 27.3694 20.3712 27.5125 20.1185 27.7652C19.8658 28.0179 19.7227 28.3599 19.7201 28.7173V31.1719C19.7201 31.9091 19.1082 32.5224 18.3725 32.5224C18.0151 32.5198 17.6731 32.3767 17.4204 32.124C17.1677 31.8713 17.0246 31.5293 17.022 31.1719V14.2297C17.022 13.6769 17.2668 12.8793 18.3725 12.8793C18.3725 12.8793 19.7215 12.8202 19.7215 14.2297V23.2522C19.7215 23.9894 20.3348 24.6027 21.0719 24.6027H42.6788C43.2302 24.6027 44.0306 24.7251 44.0306 26.015H44.0292Z" fill="#2566E5"/>
<path d="M60.6633 11.9841V21.2796H59.5492V20.5594H53.0559V21.2796H51.9531V11.9841H60.6633ZM59.5492 19.479V17.8247H58.4126C57.895 17.8247 57.5086 17.7235 57.2535 17.5209C56.9984 17.3108 56.8709 16.9282 56.8709 16.373V13.087H55.6893V14.4262C55.6893 14.9363 55.6593 15.3715 55.5992 15.7316C55.5392 16.0917 55.4379 16.4218 55.2954 16.7219C55.1528 17.0145 54.9615 17.2921 54.7215 17.5547C54.4889 17.8172 54.2 18.1023 53.8549 18.4099L53.0672 17.6334C53.3898 17.3709 53.6486 17.1308 53.8437 16.9132C54.0462 16.6956 54.2 16.4706 54.3051 16.238C54.4176 15.9979 54.4889 15.7353 54.5189 15.4502C54.5564 15.1577 54.5752 14.805 54.5752 14.3924V13.087H53.0559V19.479H59.5492ZM59.5492 13.087H57.9512V15.9341C57.9512 16.2417 58.0038 16.4443 58.1088 16.5418C58.2138 16.6394 58.4239 16.6881 58.739 16.6881H59.5492V13.087ZM69.6704 16.9357V20.0079C69.6704 20.263 69.6442 20.4693 69.5916 20.6269C69.5466 20.7844 69.4679 20.9082 69.3553 20.9983C69.2503 21.0958 69.1077 21.1671 68.9277 21.2121C68.7551 21.2571 68.5376 21.2946 68.275 21.3246L67.6785 21.3921L67.3072 20.3005L67.9374 20.233C68.0649 20.218 68.1699 20.203 68.2525 20.188C68.335 20.1655 68.3988 20.1355 68.4438 20.098C68.4888 20.0605 68.5188 20.0079 68.5338 19.9404C68.5563 19.8654 68.5676 19.7641 68.5676 19.6366V16.9357H66.0693L65.5629 17.5209C65.4578 17.3483 65.3415 17.172 65.214 16.992C65.0865 16.8119 64.9589 16.6394 64.8314 16.4743V21.3246H63.7961V16.7669C63.646 17.112 63.4885 17.4496 63.3234 17.7797C63.1659 18.1023 63.0008 18.4062 62.8282 18.6913L62.0743 17.9035C62.2168 17.6709 62.3631 17.4121 62.5131 17.127C62.6632 16.8344 62.8095 16.5306 62.952 16.2155C63.1021 15.8929 63.2409 15.5665 63.3684 15.2364C63.5035 14.8988 63.6235 14.5725 63.7285 14.2574H62.6594V13.177H63.7961V11.1851L64.8314 11.2302V13.177H65.923V14.2574H64.8314V15.5515L65.1015 15.2589C65.244 15.409 65.4016 15.6003 65.5741 15.8329C65.7542 16.0579 65.9192 16.2755 66.0693 16.4856L66.0805 15.8891C66.1405 15.7916 66.2081 15.6641 66.2831 15.5065C66.3656 15.3415 66.4481 15.1614 66.5307 14.9663C66.6207 14.7638 66.7107 14.5462 66.8008 14.3136C66.8908 14.0811 66.9808 13.8447 67.0708 13.6047H66.058V12.5468H67.4422C67.5397 12.2467 67.626 11.9729 67.701 11.7253C67.7836 11.4702 67.8436 11.2564 67.8811 11.0839L68.9052 11.3314C68.8677 11.474 68.8151 11.6503 68.7476 11.8604C68.6801 12.0704 68.6051 12.2992 68.5226 12.5468H72.0224V13.6047H68.1512C68.0612 13.8522 67.9711 14.0961 67.8811 14.3361C67.7986 14.5762 67.716 14.7975 67.6335 15.0001C67.551 15.2027 67.476 15.3827 67.4085 15.5403C67.3409 15.6903 67.2847 15.8066 67.2396 15.8891H68.5676V14.1111L69.6704 14.1561V15.8891H71.9099V16.9357H69.6704ZM67.8136 17.9485C67.551 18.4887 67.2547 19.0326 66.9245 19.5803C66.5944 20.1205 66.2681 20.6081 65.9455 21.0433L65.0677 20.3455C65.2328 20.143 65.3978 19.9254 65.5629 19.6928C65.7279 19.4528 65.8892 19.2052 66.0468 18.9501C66.2043 18.695 66.3506 18.4362 66.4857 18.1736C66.6282 17.911 66.7557 17.6522 66.8683 17.3971L67.8136 17.9485ZM70.8858 17.4084C71.0133 17.5884 71.1559 17.8022 71.3134 18.0498C71.4785 18.2899 71.6398 18.5375 71.7973 18.7926C71.9624 19.0476 72.1199 19.3027 72.27 19.5578C72.4275 19.8054 72.5626 20.0304 72.6751 20.233L71.7636 20.9307C71.651 20.7132 71.516 20.4731 71.3585 20.2105C71.2084 19.9404 71.0509 19.6703 70.8858 19.4002C70.7283 19.1302 70.5707 18.8751 70.4132 18.635C70.2631 18.3874 70.1318 18.1811 70.0193 18.0161L70.8858 17.4084Z" fill="#123871"/>
<path d="M57.5465 29.6023C57.8203 29.7362 58.1185 29.8609 58.441 29.9765C58.7696 30.0861 59.1256 30.1865 59.509 30.2778L59.226 31.0901C58.8792 30.9867 58.5566 30.8832 58.2585 30.7798C57.9603 30.6763 57.6804 30.5638 57.4187 30.4421L57.7656 31.0627C57.3335 31.3548 56.871 31.6226 56.3781 31.866C55.8852 32.1033 55.3862 32.3102 54.8811 32.4867L54.5434 31.7382C55.0363 31.58 55.5262 31.3853 56.013 31.154C56.5059 30.9228 56.9532 30.6763 57.3548 30.4147C57.2574 30.366 57.1631 30.3173 57.0718 30.2686C56.9806 30.2199 56.8923 30.1713 56.8071 30.1226C56.4846 30.3173 56.1225 30.5029 55.7209 30.6794C55.3254 30.8498 54.8781 31.0141 54.3791 31.1723L54.1965 30.7524V33.5364H53.4572V28.0688L54.1965 28.1053V28.8903C54.5252 28.58 54.8294 28.2301 55.1093 27.8406C55.3893 27.4511 55.6144 27.0708 55.7848 26.6996L56.5515 27.01C56.5211 27.083 56.4876 27.156 56.4511 27.229C56.4146 27.296 56.3781 27.3629 56.3416 27.4298H58.8061V28.151C58.6479 28.4187 58.4654 28.6743 58.2585 28.9177C58.0576 29.155 57.8203 29.3832 57.5465 29.6023ZM53.5576 27.01C53.4602 27.369 53.3537 27.7189 53.2381 28.0597C53.1286 28.4004 53.0038 28.7351 52.8639 29.0637V35.0699H52.0697V30.7068C51.9846 30.8528 51.8994 31.0019 51.8142 31.154C51.729 31.3001 51.6377 31.4461 51.5403 31.5922L50.9105 30.9623C51.0687 30.7189 51.2361 30.4329 51.4125 30.1043C51.5951 29.7696 51.7685 29.4167 51.9328 29.0455C52.1032 28.6743 52.2614 28.297 52.4075 27.9136C52.5535 27.5242 52.6691 27.156 52.7543 26.8092L53.5576 27.01ZM55.8943 28.1692C55.8822 28.1814 55.873 28.1935 55.867 28.2057C55.867 28.2179 55.8609 28.2301 55.8487 28.2422C55.9765 28.4187 56.1195 28.583 56.2777 28.7351C56.4359 28.8812 56.6154 29.0242 56.8163 29.1641C57.0231 29.0181 57.2057 28.8629 57.3639 28.6986C57.5282 28.5343 57.6743 28.3579 57.8021 28.1692H55.8943ZM54.1965 30.3416C54.5799 30.2199 54.9237 30.1013 55.228 29.9857C55.5383 29.864 55.8213 29.7392 56.0769 29.6114C55.943 29.5019 55.8183 29.3863 55.7026 29.2646C55.587 29.1428 55.4745 29.012 55.3649 28.8721C55.1276 29.152 54.8538 29.4289 54.5434 29.7027L54.1965 29.228V30.3416ZM58.4775 31.9664C57.9785 32.3498 57.4004 32.6966 56.7432 33.007C56.0921 33.3173 55.4136 33.582 54.7077 33.8011L54.3882 33.0983C55.082 32.8853 55.7392 32.6327 56.3599 32.3407C56.9806 32.0425 57.5495 31.7169 58.0668 31.364L58.4775 31.9664ZM53.9957 34.4401C54.9268 34.2088 55.797 33.9137 56.6063 33.5547C57.4217 33.1956 58.152 32.7788 58.797 32.3041L59.2169 32.9157C58.5901 33.4269 57.866 33.8589 57.0444 34.2119C56.229 34.5709 55.3254 34.8782 54.3335 35.1338L53.9957 34.4401ZM63.3187 30.4968H62.4242V26.873L63.3187 26.9096V30.4968ZM66.3401 29.438C66.8269 29.6692 67.4598 29.8487 68.2387 29.9765L67.974 30.7889C67.4445 30.6733 66.9851 30.5485 66.5956 30.4147C66.2062 30.2808 65.8532 30.1165 65.5368 29.9218C65.2751 30.0556 64.9922 30.1834 64.6879 30.3051C64.3837 30.4268 64.055 30.5394 63.7021 30.6429L63.337 29.8305C63.8968 29.6844 64.3897 29.5262 64.8157 29.3558C64.6575 29.2098 64.5023 29.0485 64.3502 28.8721C64.2041 28.6895 64.055 28.4887 63.9029 28.2696L64.3593 27.9593H63.62V27.1834H67.7366V27.941C67.408 28.5069 66.9425 29.0059 66.3401 29.438ZM61.6392 30.3782H60.7812V27.2108L61.6392 27.2473V30.3782ZM64.6331 27.9593C64.7853 28.1601 64.9374 28.3457 65.0895 28.5161C65.2478 28.6804 65.4151 28.8325 65.5916 28.9725C65.8228 28.8325 66.0297 28.6804 66.2123 28.5161C66.4009 28.3518 66.5743 28.1662 66.7326 27.9593H64.6331ZM66.2305 33.4816V31.6652H62.3055V33.4999H61.3562V30.8072H67.1981V33.4816H66.2305ZM64.7792 31.9116C64.767 32.0333 64.7457 32.1703 64.7153 32.3224C64.691 32.4745 64.6605 32.6114 64.624 32.7332C64.5449 33.0374 64.4171 33.3113 64.2406 33.5547C64.0642 33.7981 63.8238 34.0171 63.5195 34.2119C63.2153 34.4127 62.841 34.5922 62.3968 34.7504C61.9526 34.9147 61.4232 35.0669 60.8086 35.2068L60.5165 34.3032C61.0337 34.2058 61.481 34.1023 61.8583 33.9928C62.2416 33.8833 62.5642 33.7616 62.8258 33.6277C63.0875 33.4877 63.2913 33.3326 63.4374 33.1622C63.5834 32.9918 63.6838 32.797 63.7386 32.578C63.769 32.4745 63.7934 32.3528 63.8116 32.2129C63.836 32.0729 63.8542 31.9512 63.8664 31.8477L64.7792 31.9116ZM64.98 33.1804C65.4547 33.3386 65.9476 33.5212 66.4587 33.7281C66.9699 33.935 67.475 34.148 67.974 34.367L67.7001 35.2798C67.475 35.1581 67.2346 35.0334 66.979 34.9056C66.7234 34.7778 66.4618 34.6531 66.194 34.5313C65.9324 34.4157 65.6676 34.3062 65.3999 34.2027C65.1321 34.0993 64.8735 34.005 64.624 33.9198L64.98 33.1804ZM70.5423 29.5658H69.6387V27.7493H72.8791C72.8365 27.6094 72.7939 27.4755 72.7513 27.3477C72.7087 27.2138 72.6691 27.0952 72.6326 26.9917L73.6093 26.8548C73.6519 26.9765 73.6975 27.1134 73.7462 27.2655C73.801 27.4177 73.8557 27.5789 73.9105 27.7493H76.8406V29.0455H75.946V28.5343H70.5423V29.5658ZM71.8659 29.0364C71.7807 29.2798 71.6803 29.5201 71.5646 29.7575C71.4551 29.9948 71.3334 30.2291 71.1995 30.4603V35.0973H70.305V31.7839C70.1589 31.9786 70.0099 32.1611 69.8577 32.3315C69.7117 32.5019 69.5626 32.6662 69.4105 32.8244L69.0453 31.8934C69.2279 31.7047 69.4165 31.4887 69.6113 31.2453C69.806 31.0019 69.9946 30.7433 70.1772 30.4694C70.3598 30.1956 70.5271 29.9126 70.6792 29.6205C70.8375 29.3285 70.9652 29.0424 71.0626 28.7625L71.8659 29.0364ZM74.7594 30.0496C74.729 30.1713 74.6955 30.293 74.659 30.4147C74.6286 30.5364 74.5951 30.655 74.5586 30.7707H76.5028V35.0243H75.6266V34.65H72.9886V35.0516H72.1123V30.7707H73.6093C73.6458 30.649 73.6793 30.5303 73.7097 30.4147C73.7462 30.293 73.7797 30.1713 73.8101 30.0496H71.8202V29.2828H77.0596V30.0496H74.7594ZM75.6266 31.51H72.9886V32.3407H75.6266V31.51ZM75.6266 33.9107V33.0709H72.9886V33.9107H75.6266ZM82.7041 29.6936V30.4786H85.7984V31.2636H82.7041V32.0303H85.123V35.079H84.2102V34.7139H80.2396V35.079H79.3268V32.0303H81.773V31.2636H78.6513V30.4786H81.773V29.6936H80.1209V29.2372C79.6097 29.5353 79.0651 29.8061 78.487 30.0496L78.1219 29.155C78.9556 28.8447 79.6767 28.4917 80.2852 28.0962C80.8937 27.6946 81.4171 27.2321 81.8552 26.7087H82.6311C83.051 27.226 83.5804 27.6854 84.2193 28.0871C84.8583 28.4826 85.5611 28.8203 86.3279 29.1003L85.9445 29.9857C85.6707 29.87 85.3999 29.7483 85.1321 29.6205C84.8644 29.4867 84.6027 29.3497 84.3471 29.2098V29.6936H82.7041ZM82.2386 27.5303C82.0438 27.7737 81.8126 28.011 81.5448 28.2422C81.2771 28.4735 80.9789 28.6956 80.6503 28.9086H83.8542C83.5195 28.6956 83.2153 28.4735 82.9414 28.2422C82.6676 28.0049 82.4333 27.7676 82.2386 27.5303ZM84.2102 32.8336H80.2396V33.9198H84.2102V32.8336Z" fill="#3A5A8A"/>
<defs>
<linearGradient id="paint0_linear_674_33999" x1="88.7302" y1="-0.181216" x2="9.91296" y2="39.2078" gradientUnits="userSpaceOnUse">
<stop offset="0.5" stop-color="#809AF5"/>
<stop offset="0.5" stop-color="#3867E2"/>
</linearGradient>
</defs>
</svg>
