<svg width="132" height="62" viewBox="0 0 132 62" fill="none" xmlns="http://www.w3.org/2000/svg">
<path d="M41.7327 48H16.1234C14.9185 48 14.4255 50.5313 15.4808 51.1129C21.2953 54.3178 26.407 58.71 28.2653 60.3828C28.6827 60.7585 29.3259 60.7478 29.7316 60.3595C31.5166 58.651 36.4263 54.2043 42.3415 50.9712C43.3929 50.3966 42.9309 48 41.7327 48Z" fill="#4573E7"/>
<rect width="131.489" height="53.6492" rx="26.8246" fill="url(#paint0_linear_674_33988)"/>
<rect x="4.86819" y="4.86816" width="121.752" height="43.9128" rx="21.9564" fill="#D6DFF5"/>
<path d="M30.3964 40.2167C29.7953 40.2167 29.3445 40.0665 28.8937 39.9162L19.7277 35.4083C19.1266 35.1078 18.6759 34.657 18.3753 34.2062C18.0748 33.6052 17.9245 33.0041 17.9245 32.4031V21.4339C17.7743 20.8328 17.9245 20.0815 18.3753 19.6307C18.6759 19.0297 19.1266 18.7291 19.7277 18.4286L24.0853 16.3249C24.0853 16.3249 24.2356 16.3249 24.2356 16.1747L28.8937 13.7705C29.7953 13.3197 30.9974 13.3197 31.899 13.7705L41.065 18.2784C41.6661 18.5789 42.1169 19.0297 42.4174 19.4805C42.7179 20.0815 42.8682 20.6826 42.8682 21.2836V32.1025C42.8682 32.7036 42.7179 33.3046 42.4174 33.9057C42.1169 34.5068 41.6661 34.8073 41.065 35.1078L31.899 39.6157C31.4482 40.2167 30.8472 40.2167 30.3964 40.2167ZM20.0282 21.7344V32.2528C20.0282 32.4031 20.0282 32.7036 20.1785 32.8539L20.6293 33.3046L29.1943 37.512V26.3926L20.0282 21.7344ZM31.5985 26.3926V37.512L40.1635 33.3046L40.6142 32.8539C40.7645 32.7036 40.7645 32.4031 40.7645 32.2528V21.7344L36.7074 23.8381L31.5985 26.3926ZM21.5309 19.9312L30.5466 24.4391L33.7022 22.7862L24.6864 18.2784L21.5309 19.9312ZM27.2408 17.0762L36.2566 21.5841L39.4121 19.9312L30.9974 15.7239C30.6969 15.5736 30.2461 15.5736 29.9456 15.7239L27.2408 17.0762Z" fill="#5578F6"/>
<path d="M59.2533 17.3812C59.6433 17.5718 60.068 17.7495 60.5273 17.9142C60.9953 18.0702 61.5023 18.2132 62.0483 18.3432L61.6453 19.5002C61.1513 19.3528 60.692 19.2055 60.2673 19.0582C59.8427 18.9108 59.444 18.7505 59.0713 18.5772L59.5653 19.4612C58.95 19.8772 58.2913 20.2585 57.5893 20.6052C56.8873 20.9432 56.1767 21.2378 55.4573 21.4892L54.9763 20.4232C55.6783 20.1978 56.376 19.9205 57.0693 19.5912C57.7713 19.2618 58.4083 18.9108 58.9803 18.5382C58.8417 18.4688 58.7073 18.3995 58.5773 18.3302C58.4473 18.2608 58.3217 18.1915 58.2003 18.1222C57.741 18.3995 57.2253 18.6638 56.6533 18.9152C56.09 19.1578 55.453 19.3918 54.7423 19.6172L54.4823 19.0192V22.9842H53.4293V15.1972L54.4823 15.2492V16.3672C54.9503 15.9252 55.3837 15.4268 55.7823 14.8722C56.181 14.3175 56.5017 13.7758 56.7443 13.2472L57.8363 13.6892C57.793 13.7932 57.7453 13.8972 57.6933 14.0012C57.6413 14.0965 57.5893 14.1918 57.5373 14.2872H61.0473V15.3142C60.822 15.6955 60.562 16.0595 60.2673 16.4062C59.9813 16.7442 59.6433 17.0692 59.2533 17.3812ZM53.5723 13.6892C53.4337 14.2005 53.282 14.6988 53.1173 15.1842C52.9613 15.6695 52.7837 16.1462 52.5843 16.6142V25.1682H51.4533V18.9542C51.332 19.1622 51.2107 19.3745 51.0893 19.5912C50.968 19.7992 50.838 20.0072 50.6993 20.2152L49.8023 19.3182C50.0277 18.9715 50.266 18.5642 50.5173 18.0962C50.7773 17.6195 51.0243 17.1168 51.2583 16.5882C51.501 16.0595 51.7263 15.5222 51.9343 14.9762C52.1423 14.4215 52.307 13.8972 52.4283 13.4032L53.5723 13.6892ZM56.9003 15.3402C56.883 15.3575 56.87 15.3748 56.8613 15.3922C56.8613 15.4095 56.8527 15.4268 56.8353 15.4442C57.0173 15.6955 57.221 15.9295 57.4463 16.1462C57.6717 16.3542 57.9273 16.5578 58.2133 16.7572C58.508 16.5492 58.768 16.3282 58.9933 16.0942C59.2273 15.8602 59.4353 15.6088 59.6173 15.3402H56.9003ZM54.4823 18.4342C55.0283 18.2608 55.518 18.0918 55.9513 17.9272C56.3933 17.7538 56.7963 17.5762 57.1603 17.3942C56.9697 17.2382 56.792 17.0735 56.6273 16.9002C56.4627 16.7268 56.3023 16.5405 56.1463 16.3412C55.8083 16.7398 55.4183 17.1342 54.9763 17.5242L54.4823 16.8482V18.4342ZM60.5793 20.7482C59.8687 21.2942 59.0453 21.7882 58.1093 22.2302C57.182 22.6722 56.2157 23.0492 55.2103 23.3612L54.7553 22.3602C55.7433 22.0568 56.6793 21.6972 57.5633 21.2812C58.4473 20.8565 59.2577 20.3928 59.9943 19.8902L60.5793 20.7482ZM54.1963 24.2712C55.5223 23.9418 56.7617 23.5215 57.9143 23.0102C59.0757 22.4988 60.1157 21.9052 61.0343 21.2292L61.6323 22.1002C60.7397 22.8282 59.7083 23.4435 58.5383 23.9462C57.377 24.4575 56.09 24.8952 54.6773 25.2592L54.1963 24.2712ZM67.4742 18.6552H66.2002V13.4942L67.4742 13.5462V18.6552ZM71.7772 17.1472C72.4705 17.4765 73.3719 17.7322 74.4812 17.9142L74.1042 19.0712C73.3502 18.9065 72.6959 18.7288 72.1412 18.5382C71.5865 18.3475 71.0839 18.1135 70.6332 17.8362C70.2605 18.0268 69.8575 18.2088 69.4242 18.3822C68.9909 18.5555 68.5229 18.7158 68.0202 18.8632L67.5002 17.7062C68.2975 17.4982 68.9995 17.2728 69.6062 17.0302C69.3809 16.8222 69.1599 16.5925 68.9432 16.3412C68.7352 16.0812 68.5229 15.7952 68.3062 15.4832L68.9562 15.0412H67.9032V13.9362H73.7662V15.0152C73.2982 15.8212 72.6352 16.5318 71.7772 17.1472ZM65.0822 18.4862H63.8602V13.9752L65.0822 14.0272V18.4862ZM69.3462 15.0412C69.5629 15.3272 69.7795 15.5915 69.9962 15.8342C70.2215 16.0682 70.4599 16.2848 70.7112 16.4842C71.0405 16.2848 71.3352 16.0682 71.5952 15.8342C71.8639 15.6002 72.1109 15.3358 72.3362 15.0412H69.3462ZM71.6212 22.9062V20.3192H66.0312V22.9322H64.6792V19.0972H72.9992V22.9062H71.6212ZM69.5542 20.6702C69.5369 20.8435 69.5065 21.0385 69.4632 21.2552C69.4285 21.4718 69.3852 21.6668 69.3332 21.8402C69.2205 22.2735 69.0385 22.6635 68.7872 23.0102C68.5359 23.3568 68.1935 23.6688 67.7602 23.9462C67.3269 24.2322 66.7939 24.4878 66.1612 24.7132C65.5285 24.9472 64.7745 25.1638 63.8992 25.3632L63.4832 24.0762C64.2199 23.9375 64.8569 23.7902 65.3942 23.6342C65.9402 23.4782 66.3995 23.3048 66.7722 23.1142C67.1449 22.9148 67.4352 22.6938 67.6432 22.4512C67.8512 22.2085 67.9942 21.9312 68.0722 21.6192C68.1155 21.4718 68.1502 21.2985 68.1762 21.0992C68.2109 20.8998 68.2369 20.7265 68.2542 20.5792L69.5542 20.6702ZM69.8402 22.4772C70.5162 22.7025 71.2182 22.9625 71.9462 23.2572C72.6742 23.5518 73.3935 23.8552 74.1042 24.1672L73.7142 25.4672C73.3935 25.2938 73.0512 25.1162 72.6872 24.9342C72.3232 24.7522 71.9505 24.5745 71.5692 24.4012C71.1965 24.2365 70.8195 24.0805 70.4382 23.9332C70.0569 23.7858 69.6885 23.6515 69.3332 23.5302L69.8402 22.4772ZM79.7641 18.4212C79.6427 18.2218 79.4824 17.9662 79.2831 17.6542C79.0924 17.3335 78.8974 17.0345 78.6981 16.7572V25.1162H77.4631V13.4422L78.6981 13.4942V15.8472L79.2051 15.4442C79.2831 15.5482 79.3871 15.6955 79.5171 15.8862C79.6557 16.0768 79.7944 16.2762 79.9331 16.4842C80.0804 16.6922 80.2234 16.9002 80.3621 17.1082C80.5007 17.3075 80.6134 17.4765 80.7001 17.6152L79.7641 18.4212ZM83.7681 20.3972C84.0714 21.2118 84.5221 21.9182 85.1201 22.5162C85.7267 23.1055 86.5284 23.6082 87.5251 24.0242L86.9011 25.1942C85.9997 24.7695 85.2284 24.2582 84.5871 23.6602C83.9457 23.0622 83.4301 22.3688 83.0401 21.5802C82.8927 21.9268 82.7107 22.2562 82.4941 22.5682C82.2861 22.8802 82.0304 23.1878 81.7271 23.4912C81.4324 23.7858 81.0901 24.0762 80.7001 24.3622C80.3187 24.6568 79.8854 24.9515 79.4001 25.2462L78.7241 24.1282C79.2181 23.8508 79.6557 23.5735 80.0371 23.2962C80.4271 23.0102 80.7607 22.7155 81.0381 22.4122C81.3241 22.1088 81.5581 21.7925 81.7401 21.4632C81.9221 21.1338 82.0607 20.7785 82.1561 20.3972H79.4391V19.1492H82.2991V19.0452V16.6142H80.3101V15.3662H82.2991C82.2991 14.9328 82.2991 14.5428 82.2991 14.1962C82.3077 13.8495 82.3121 13.5982 82.3121 13.4422L83.5471 13.4942V15.3662H86.2251V19.1492H87.2781V20.3972H83.7681ZM75.4871 20.1502C75.5477 19.8555 75.6127 19.5175 75.6821 19.1362C75.7514 18.7462 75.8207 18.3475 75.8901 17.9402C75.9681 17.5242 76.0374 17.1082 76.0981 16.6922C76.1587 16.2675 76.2107 15.8732 76.2541 15.5092L77.3331 15.6262C77.2984 15.9555 77.2464 16.3325 77.1771 16.7572C77.1164 17.1818 77.0514 17.6152 76.9821 18.0572C76.9127 18.4905 76.8391 18.9108 76.7611 19.3182C76.6917 19.7168 76.6267 20.0548 76.5661 20.3322L75.4871 20.1502ZM83.5211 19.1492H85.0031V16.6142H83.5341C83.5341 17.1255 83.5297 17.5978 83.5211 18.0312C83.5211 18.4645 83.5211 18.7765 83.5211 18.9672V19.1492ZM95.109 17.0952V16.0292H92.288V14.9112H93.9C93.7786 14.7118 93.6486 14.5038 93.51 14.2872C93.3713 14.0705 93.2456 13.8928 93.133 13.7542L94.108 13.1432C94.2553 13.3165 94.4156 13.5288 94.589 13.7802C94.771 14.0228 94.9356 14.2828 95.083 14.5602L94.602 14.9112H96.162C96.3613 14.6252 96.5563 14.3218 96.747 14.0012C96.9463 13.6805 97.1023 13.4118 97.215 13.1952L98.32 13.7152C98.216 13.8885 98.099 14.0792 97.969 14.2872C97.839 14.4952 97.7003 14.7032 97.553 14.9112H99.178V18.1872H96.305V19.2142H99.594C99.594 19.3008 99.5896 19.4525 99.581 19.6692C99.581 19.8772 99.5766 20.1025 99.568 20.3452C99.5593 20.5792 99.5463 20.8045 99.529 21.0212C99.5203 21.2292 99.5116 21.3765 99.503 21.4632C99.477 21.7232 99.4293 21.9355 99.36 22.1002C99.2993 22.2562 99.2083 22.3862 99.087 22.4902C98.9656 22.5855 98.8096 22.6592 98.619 22.7112C98.4283 22.7545 98.1986 22.7892 97.93 22.8152L97.358 22.8802L96.994 21.7232L97.527 21.6582C97.683 21.6408 97.8086 21.6235 97.904 21.6062C98.008 21.5802 98.086 21.5498 98.138 21.5152C98.1986 21.4805 98.242 21.4328 98.268 21.3722C98.294 21.3115 98.307 21.2335 98.307 21.1382L98.346 20.3062H96.305V23.5042H95.109V21.2032C94.719 21.5845 94.2943 21.9442 93.835 22.2822C93.3756 22.6202 92.899 22.9235 92.405 23.1922L91.755 22.1262C92.2663 21.8662 92.7516 21.5802 93.211 21.2682C93.679 20.9562 94.0993 20.6355 94.472 20.3062H91.989L92.353 17.0952H95.109ZM90.858 16.7052C90.7713 16.5492 90.6543 16.3628 90.507 16.1462C90.3683 15.9208 90.2166 15.6955 90.052 15.4702C89.896 15.2448 89.7313 15.0282 89.558 14.8202C89.3933 14.6035 89.246 14.4258 89.116 14.2872L90.052 13.5332C90.1733 13.6632 90.312 13.8235 90.468 14.0142C90.624 14.2048 90.7843 14.4085 90.949 14.6252C91.1136 14.8332 91.2696 15.0455 91.417 15.2622C91.573 15.4702 91.7073 15.6608 91.82 15.8342L90.858 16.7052ZM96.305 17.0952H97.995V16.0292H96.305V17.0952ZM94.186 23.7382C96.188 23.7815 98.1856 23.7555 100.179 23.6602L99.932 24.8172C97.9473 24.9038 95.967 24.9298 93.991 24.8952C93.5836 24.8865 93.2196 24.8562 92.899 24.8042C92.587 24.7522 92.301 24.6612 92.041 24.5312C91.781 24.4098 91.534 24.2452 91.3 24.0372C91.0746 23.8378 90.8536 23.5865 90.637 23.2832C90.3943 23.5865 90.1516 23.8812 89.909 24.1672C89.6663 24.4618 89.4106 24.7435 89.142 25.0122L88.349 24.0502C88.6436 23.7728 88.934 23.4868 89.22 23.1922C89.506 22.8975 89.7833 22.5898 90.052 22.2692V18.9022H88.817V17.6932H91.248V22.2692C91.4386 22.5552 91.6293 22.7935 91.82 22.9842C92.0106 23.1662 92.2186 23.3135 92.444 23.4262C92.678 23.5388 92.9336 23.6168 93.211 23.6602C93.497 23.7035 93.822 23.7295 94.186 23.7382ZM95.109 18.1872H93.471L93.341 19.2142H95.109V18.1872ZM111.533 21.5152H102.862V17.0302H106.203V13.4552L107.516 13.5072V14.5732H112.339V15.8862H107.516V17.0302H111.533V21.5152ZM110.272 18.3302H104.123V20.2412H110.272V18.3302ZM111.286 21.6712C111.563 22.1045 111.836 22.5768 112.105 23.0882C112.382 23.5908 112.616 24.0372 112.807 24.4272L111.715 25.1682C111.637 24.9688 111.537 24.7435 111.416 24.4922C111.303 24.2408 111.177 23.9852 111.039 23.7252C110.9 23.4565 110.757 23.1922 110.61 22.9322C110.471 22.6722 110.332 22.4295 110.194 22.2042L111.286 21.6712ZM101.445 24.6482C101.601 24.4315 101.748 24.1932 101.887 23.9332C102.034 23.6818 102.173 23.4262 102.303 23.1662C102.433 22.9062 102.55 22.6505 102.654 22.3992C102.758 22.1478 102.849 21.9182 102.927 21.7102L104.058 22.1782C103.971 22.4295 103.867 22.6938 103.746 22.9712C103.624 23.2485 103.499 23.5258 103.369 23.8032C103.239 24.0805 103.104 24.3492 102.966 24.6092C102.836 24.8692 102.71 25.1032 102.589 25.3112L101.445 24.6482ZM108.66 21.9182C108.755 22.1002 108.85 22.3082 108.946 22.5422C109.041 22.7675 109.128 23.0015 109.206 23.2442C109.284 23.4782 109.357 23.7078 109.427 23.9332C109.496 24.1585 109.552 24.3578 109.596 24.5312L108.439 24.9342C108.404 24.7435 108.356 24.5355 108.296 24.3102C108.235 24.0848 108.161 23.8552 108.075 23.6212C107.997 23.3872 107.91 23.1532 107.815 22.9192C107.719 22.6852 107.628 22.4685 107.542 22.2692L108.66 21.9182ZM106.021 22.0352C106.081 22.2345 106.142 22.4555 106.203 22.6982C106.263 22.9408 106.32 23.1835 106.372 23.4262C106.424 23.6688 106.467 23.9028 106.502 24.1282C106.536 24.3535 106.562 24.5528 106.58 24.7262L105.345 25.0382C105.301 24.5962 105.228 24.1238 105.124 23.6212C105.028 23.1185 104.933 22.6722 104.838 22.2822L106.021 22.0352Z" fill="#123871"/>
<path d="M53.4923 36.1609C53.4337 36.0509 53.364 35.9263 53.2833 35.7869C53.21 35.6403 53.1257 35.4899 53.0303 35.3359C52.9423 35.1746 52.847 35.0169 52.7443 34.8629C52.649 34.7016 52.5537 34.5513 52.4583 34.4119V41.8479H51.6553V31.9589L52.4583 32.0139V34.0049L52.8433 33.7409C52.9387 33.8729 53.0487 34.0233 53.1733 34.1919C53.298 34.3606 53.419 34.5366 53.5363 34.7199C53.6537 34.8959 53.7637 35.0683 53.8663 35.2369C53.969 35.4056 54.0533 35.5486 54.1193 35.6659L53.4923 36.1609ZM56.7043 37.7119C56.961 38.4673 57.357 39.1273 57.8923 39.6919C58.435 40.2493 59.1647 40.7369 60.0813 41.1549L59.6193 41.8809C58.7833 41.4849 58.0903 41.0156 57.5403 40.4729C56.9903 39.9229 56.5577 39.2923 56.2423 38.5809C56.1397 38.8963 56.004 39.1969 55.8353 39.4829C55.674 39.7616 55.4687 40.0366 55.2193 40.3079C54.9773 40.5793 54.6877 40.8433 54.3503 41.0999C54.0203 41.3639 53.6353 41.6279 53.1953 41.8919L52.7113 41.2319C53.166 40.9679 53.562 40.7039 53.8993 40.4399C54.2367 40.1759 54.5227 39.9009 54.7573 39.6149C54.992 39.3289 55.179 39.0283 55.3183 38.7129C55.4577 38.3976 55.5603 38.0639 55.6263 37.7119H53.1513V36.9309H55.7033C55.7107 36.8796 55.7143 36.8283 55.7143 36.7769C55.7143 36.7256 55.7143 36.6706 55.7143 36.6119V34.4559H53.9103V33.6639H55.7143C55.7143 33.2899 55.7143 32.9526 55.7143 32.6519C55.7217 32.3513 55.7253 32.1276 55.7253 31.9809L56.5393 32.0139V33.6639H58.8713V36.9309H59.9053V37.7119H56.7043ZM49.9063 37.6789C49.9723 37.4516 50.0383 37.1766 50.1043 36.8539C50.1777 36.5239 50.2437 36.1829 50.3023 35.8309C50.361 35.4716 50.416 35.1123 50.4673 34.7529C50.5187 34.3863 50.5627 34.0526 50.5993 33.7519L51.3363 33.8509C51.2923 34.1589 51.2447 34.4926 51.1933 34.8519C51.142 35.2039 51.087 35.5596 51.0283 35.9189C50.9697 36.2709 50.9073 36.6119 50.8413 36.9419C50.7827 37.2719 50.724 37.5653 50.6653 37.8219L49.9063 37.6789ZM56.5283 36.5569C56.5283 36.6229 56.5247 36.6889 56.5173 36.7549C56.5173 36.8136 56.5173 36.8723 56.5173 36.9309H58.0573V34.4559H56.5393C56.5393 34.9033 56.5357 35.3213 56.5283 35.7099C56.5283 36.0986 56.5283 36.3809 56.5283 36.5569ZM63.5615 39.5049C64.1335 39.2556 64.6395 38.9659 65.0795 38.6359C65.5268 38.2986 65.9045 37.9576 66.2125 37.6129H64.0235L64.2545 35.1379H66.5535V34.0819H64.1665V33.3669H65.5965C65.5085 33.1763 65.3948 32.9709 65.2555 32.7509C65.1161 32.5236 64.9878 32.3329 64.8705 32.1789L65.5305 31.8379C65.6478 31.9919 65.7761 32.1899 65.9155 32.4319C66.0621 32.6666 66.1978 32.9013 66.3225 33.1359L65.9045 33.3669H67.5655C67.7195 33.1103 67.8771 32.8389 68.0385 32.5529C68.1998 32.2596 68.3281 32.0176 68.4235 31.8269L69.1825 32.0909C69.0798 32.2669 68.9625 32.4686 68.8305 32.6959C68.6985 32.9233 68.5591 33.1469 68.4125 33.3669H69.7435V35.8309H67.3455V36.9199H70.2275C70.2275 36.9859 70.2238 37.0959 70.2165 37.2499C70.2091 37.4039 70.2018 37.5689 70.1945 37.7449C70.1871 37.9136 70.1798 38.0823 70.1725 38.2509C70.1651 38.4123 70.1578 38.5369 70.1505 38.6249C70.1358 38.8596 70.1101 39.0466 70.0735 39.1859C70.0441 39.3253 69.9891 39.4389 69.9085 39.5269C69.8278 39.6076 69.7178 39.6663 69.5785 39.7029C69.4465 39.7396 69.2705 39.7689 69.0505 39.7909L68.5775 39.8459L68.3025 39.1089L68.7865 39.0649C68.9111 39.0576 69.0101 39.0429 69.0835 39.0209C69.1568 38.9989 69.2118 38.9659 69.2485 38.9219C69.2851 38.8779 69.3108 38.8193 69.3255 38.7459C69.3401 38.6726 69.3548 38.5773 69.3695 38.4599C69.3695 38.4306 69.3695 38.3756 69.3695 38.2949C69.3768 38.2143 69.3841 38.1299 69.3915 38.0419C69.3988 37.9466 69.4025 37.8623 69.4025 37.7889C69.4098 37.7083 69.4135 37.6496 69.4135 37.6129H67.3455V40.4839H66.5535V38.2399C66.2308 38.5919 65.8641 38.9256 65.4535 39.2409C65.0428 39.5563 64.5771 39.8533 64.0565 40.1319L63.5615 39.5049ZM62.8245 34.6429C62.7365 34.4816 62.6338 34.3129 62.5165 34.1369C62.3991 33.9536 62.2745 33.7739 62.1425 33.5979C62.0178 33.4146 61.8895 33.2423 61.7575 33.0809C61.6255 32.9123 61.5008 32.7656 61.3835 32.6409L61.9665 32.2119C62.0911 32.3439 62.2195 32.4943 62.3515 32.6629C62.4908 32.8243 62.6228 32.9893 62.7475 33.1579C62.8795 33.3266 63.0041 33.4916 63.1215 33.6529C63.2388 33.8143 63.3415 33.9646 63.4295 34.1039L62.8245 34.6429ZM67.3455 35.1379H68.9735V34.0819H67.3455V35.1379ZM66.8395 40.8579C67.1621 40.8653 67.4995 40.8653 67.8515 40.8579C68.2035 40.8579 68.5555 40.8506 68.9075 40.8359C69.2668 40.8286 69.6151 40.8176 69.9525 40.8029C70.2898 40.7883 70.6051 40.7736 70.8985 40.7589L70.7005 41.5289C70.4658 41.5363 70.1871 41.5436 69.8645 41.5509C69.5418 41.5583 69.2081 41.5656 68.8635 41.5729C68.5261 41.5803 68.1961 41.5839 67.8735 41.5839C67.5508 41.5839 67.2758 41.5839 67.0485 41.5839C66.4618 41.5766 65.9558 41.5583 65.5305 41.5289C65.1125 41.5069 64.7348 41.4483 64.3975 41.3529C64.0675 41.2649 63.7595 41.1293 63.4735 40.9459C63.1948 40.7626 62.9015 40.5059 62.5935 40.1759C62.4688 40.3079 62.3515 40.4289 62.2415 40.5389C62.1315 40.6489 62.0215 40.7589 61.9115 40.8689C61.8088 40.9789 61.6988 41.0889 61.5815 41.1989C61.4641 41.3089 61.3395 41.4299 61.2075 41.5619L60.7015 40.9569C60.9948 40.7003 61.2771 40.4473 61.5485 40.1979C61.8198 39.9413 62.0618 39.6956 62.2745 39.4609V36.3259H61.0315V35.5669H63.0335V39.6479C63.3048 39.9266 63.5615 40.1429 63.8035 40.2969C64.0528 40.4509 64.3168 40.5683 64.5955 40.6489C64.8815 40.7296 65.2005 40.7809 65.5525 40.8029C65.9118 40.8249 66.3408 40.8433 66.8395 40.8579ZM64.9145 36.9199H66.5535V35.8309H64.9915L64.9145 36.9199ZM80.1536 38.6139H73.2676V35.1269H75.9516V31.9919L76.8096 32.0249V33.0809H81.0996V33.8839H76.8096V35.1269H80.1536V38.6139ZM79.3286 35.9079H74.0926V37.8109H79.3286V35.9079ZM71.7386 41.5289C71.8632 41.3823 71.9952 41.1989 72.1346 40.9789C72.2812 40.7589 72.4206 40.5316 72.5526 40.2969C72.6919 40.0549 72.8166 39.8203 72.9266 39.5929C73.0439 39.3583 73.1392 39.1566 73.2126 38.9879L73.9496 39.2629C73.8762 39.4463 73.7809 39.6626 73.6636 39.9119C73.5462 40.1539 73.4179 40.3996 73.2786 40.6489C73.1466 40.8983 73.0109 41.1403 72.8716 41.3749C72.7396 41.6096 72.6186 41.8076 72.5086 41.9689L71.7386 41.5289ZM79.9776 38.9989C80.0876 39.1383 80.2159 39.3106 80.3626 39.5159C80.5092 39.7139 80.6559 39.9266 80.8026 40.1539C80.9492 40.3739 81.0886 40.5903 81.2206 40.8029C81.3526 41.0229 81.4589 41.2136 81.5396 41.3749L80.8686 41.9359C80.7879 41.7453 80.6816 41.5326 80.5496 41.2979C80.4176 41.0633 80.2782 40.8323 80.1316 40.6049C79.9849 40.3703 79.8382 40.1503 79.6916 39.9449C79.5449 39.7323 79.4129 39.5526 79.2956 39.4059L79.9776 38.9989ZM77.8546 39.1639C77.9206 39.3033 77.9939 39.4756 78.0746 39.6809C78.1552 39.8863 78.2322 40.0989 78.3056 40.3189C78.3862 40.5316 78.4596 40.7406 78.5256 40.9459C78.5989 41.1586 78.6539 41.3419 78.6906 41.4959L77.9096 41.7819C77.8729 41.6133 77.8216 41.4189 77.7556 41.1989C77.6969 40.9789 77.6309 40.7589 77.5576 40.5389C77.4842 40.3189 77.4072 40.1099 77.3266 39.9119C77.2532 39.7066 77.1836 39.5343 77.1176 39.3949L77.8546 39.1639ZM75.6326 39.2629C75.6766 39.4096 75.7242 39.5893 75.7756 39.8019C75.8269 40.0073 75.8746 40.2236 75.9186 40.4509C75.9699 40.6709 76.0139 40.8873 76.0506 41.0999C76.0946 41.3126 76.1239 41.4959 76.1386 41.6499L75.3246 41.8809C75.3099 41.7123 75.2842 41.5143 75.2476 41.2869C75.2109 41.0669 75.1706 40.8433 75.1266 40.6159C75.0826 40.3886 75.0349 40.1686 74.9836 39.9559C74.9396 39.7433 74.8956 39.5636 74.8516 39.4169L75.6326 39.2629Z" fill="#3A5A8A"/>
<defs>
<linearGradient id="paint0_linear_674_33988" x1="115.396" y1="-0.214136" x2="17.045" y2="53.881" gradientUnits="userSpaceOnUse">
<stop offset="0.5" stop-color="#809AF5"/>
<stop offset="0.5" stop-color="#3867E2"/>
</linearGradient>
</defs>
</svg>
