<svg width="119" height="53" viewBox="0 0 119 53" fill="none" xmlns="http://www.w3.org/2000/svg">
<path d="M37.9925 39.5544H12.3832C11.1782 39.5544 10.6853 42.0858 11.7406 42.6674C17.5551 45.8722 22.6667 50.2645 24.525 51.9372C24.9424 52.3129 25.5857 52.3022 25.9914 51.9139C27.7764 50.2055 32.6861 45.7588 38.6012 42.5257C39.6526 41.951 39.1907 39.5544 37.9925 39.5544Z" fill="#4573E7"/>
<rect width="118.069" height="45.4013" rx="22.7007" fill="url(#paint0_linear_735_42849)"/>
<rect x="4.86823" y="4.86823" width="108.333" height="35.6649" rx="17.8325" fill="#D6DFF5"/>
<path d="M29.8652 23.5569H34.1463C34.6192 23.5569 35.0024 23.9401 35.0024 24.413C35.0024 24.8857 34.6189 25.2692 34.1463 25.2692H29.8652V29.5503C29.8652 30.0232 29.4819 30.4065 29.009 30.4065C28.5363 30.4065 28.1528 30.0232 28.1528 29.5503V25.2692H23.8717C23.3988 25.2692 23.0155 24.886 23.0155 24.413C23.0155 23.9401 23.3988 23.5569 23.8717 23.5569H28.1528V21.8445H24.7279C24.2552 21.8445 23.8717 21.4613 23.8717 20.9884C23.8717 20.5157 24.255 20.1322 24.7279 20.1322H26.9422L24.8754 18.0651C24.7661 17.9596 24.6868 17.8268 24.6458 17.6805C24.6047 17.5342 24.6033 17.3796 24.6417 17.2326C24.6803 17.0856 24.7572 16.9515 24.8647 16.844C24.9721 16.7366 25.1062 16.6596 25.2532 16.6211C25.5527 16.5429 25.8709 16.6321 26.0858 16.8545L29.0088 19.7775L31.932 16.8545C32.0376 16.7452 32.1704 16.666 32.3167 16.625C32.4631 16.584 32.6177 16.5826 32.7647 16.6211C32.9118 16.6596 33.0459 16.7365 33.1534 16.844C33.2608 16.9514 33.3378 17.0856 33.3762 17.2326C33.4148 17.3796 33.4134 17.5342 33.3724 17.6805C33.3314 17.8268 33.2521 17.9596 33.1428 18.0651L31.076 20.1322H33.2901C33.763 20.1322 34.1463 20.5154 34.1463 20.9884C34.1463 21.4613 33.763 21.8445 33.2901 21.8445H29.8652V23.5569ZM29.009 34.6876C22.3888 34.6876 17.0221 29.3209 17.0221 22.7007C17.0221 16.0805 22.3888 10.7138 29.009 10.7138C35.6292 10.7138 40.9959 16.0805 40.9959 22.7007C40.9959 29.3209 35.6292 34.6876 29.009 34.6876ZM29.009 32.975C34.6831 32.975 39.2835 28.3746 39.2835 22.7005C39.2835 17.0266 34.6831 12.4259 29.009 12.4259C23.3351 12.4259 18.7344 17.0264 18.7344 22.7005C18.7344 28.3746 23.3349 32.975 29.009 32.975Z" fill="#2566E5"/>
<path d="M56.0869 14.6288C56.4245 14.7938 56.7921 14.9476 57.1897 15.0902C57.5949 15.2252 58.0337 15.349 58.5064 15.4616L58.1575 16.4631C57.7299 16.3356 57.3323 16.208 56.9647 16.0805C56.597 15.953 56.2519 15.8142 55.9293 15.6641L56.357 16.4294C55.8243 16.7895 55.2541 17.1196 54.6464 17.4197C54.0387 17.7123 53.4235 17.9674 52.8008 18.1849L52.3845 17.2621C52.9921 17.0671 53.5961 16.827 54.1963 16.5419C54.804 16.2568 55.3554 15.953 55.8506 15.6304C55.7305 15.5703 55.6142 15.5103 55.5017 15.4503C55.3892 15.3903 55.2804 15.3303 55.1753 15.2702C54.7777 15.5103 54.3313 15.7391 53.8362 15.9567C53.3485 16.1668 52.7971 16.3693 52.1819 16.5644L51.9568 16.0467V19.4791H51.0453V12.7382L51.9568 12.7832V13.751C52.3619 13.3684 52.7371 12.937 53.0822 12.4569C53.4273 11.9767 53.7049 11.5078 53.9149 11.0502L54.8602 11.4328C54.8227 11.5228 54.7815 11.6128 54.7365 11.7029C54.6914 11.7854 54.6464 11.8679 54.6014 11.9504H57.6399V12.8395C57.4448 13.1696 57.2197 13.4847 56.9647 13.7848C56.7171 14.0774 56.4245 14.3587 56.0869 14.6288ZM51.1691 11.4328C51.049 11.8754 50.9177 12.3068 50.7752 12.7269C50.6402 13.1471 50.4864 13.5597 50.3138 13.9648V21.3697H49.3347V15.9905C49.2297 16.1705 49.1247 16.3543 49.0196 16.5419C48.9146 16.722 48.8021 16.902 48.682 17.0821L47.9055 16.3056C48.1006 16.0055 48.3069 15.6529 48.5245 15.2477C48.7496 14.8351 48.9634 14.4 49.1659 13.9423C49.376 13.4847 49.5711 13.0195 49.7511 12.5469C49.9312 12.0667 50.0737 11.6128 50.1788 11.1852L51.1691 11.4328ZM54.05 12.862C54.035 12.877 54.0237 12.892 54.0162 12.907C54.0162 12.922 54.0087 12.937 53.9937 12.952C54.1513 13.1696 54.3276 13.3721 54.5226 13.5597C54.7177 13.7398 54.939 13.9161 55.1866 14.0886C55.4417 13.9086 55.6667 13.7173 55.8618 13.5147C56.0644 13.3121 56.2444 13.0946 56.402 12.862H54.05ZM51.9568 15.5403C52.4295 15.3903 52.8534 15.244 53.2285 15.1014C53.6111 14.9514 53.96 14.7976 54.2751 14.64C54.11 14.505 53.9562 14.3625 53.8137 14.2124C53.6711 14.0624 53.5323 13.9011 53.3973 13.7285C53.1047 14.0736 52.7671 14.415 52.3845 14.7526L51.9568 14.1674V15.5403ZM57.2347 17.5435C56.6195 18.0161 55.9068 18.4438 55.0966 18.8264C54.2938 19.209 53.4573 19.5353 52.587 19.8054L52.1931 18.9389C53.0484 18.6763 53.8587 18.365 54.6239 18.0049C55.3892 17.6372 56.0906 17.2359 56.7283 16.8007L57.2347 17.5435ZM51.7092 20.5932C52.8571 20.3081 53.9299 19.9442 54.9278 19.5016C55.9331 19.0589 56.8334 18.545 57.6286 17.9598L58.1463 18.7138C57.3735 19.344 56.4808 19.8767 55.4679 20.3118C54.4626 20.7545 53.3485 21.1334 52.1256 21.4485L51.7092 20.5932ZM63.2034 15.7316H62.1005V11.264L63.2034 11.309V15.7316ZM66.9283 14.4262C67.5285 14.7113 68.3087 14.9326 69.269 15.0902L68.9427 16.0918C68.29 15.9492 67.7235 15.7954 67.2434 15.6304C66.7632 15.4653 66.3281 15.2627 65.938 15.0227C65.6154 15.1877 65.2665 15.3453 64.8914 15.4953C64.5163 15.6454 64.1111 15.7842 63.676 15.9117L63.2259 14.9101C63.9161 14.7301 64.5238 14.535 65.0489 14.3249C64.8539 14.1449 64.6626 13.9461 64.475 13.7285C64.2949 13.5034 64.1111 13.2559 63.9236 12.9858L64.4863 12.6032H63.5747V11.6466H68.6501V12.5806C68.2449 13.2784 67.671 13.8936 66.9283 14.4262ZM61.1327 15.5853H60.0749V11.6804L61.1327 11.7254V15.5853ZM64.8239 12.6032C65.0114 12.8507 65.199 13.0796 65.3865 13.2896C65.5816 13.4922 65.7879 13.6797 66.0055 13.8523C66.2906 13.6797 66.5457 13.4922 66.7707 13.2896C67.0033 13.0871 67.2171 12.8582 67.4122 12.6032H64.8239ZM66.7932 19.4116V17.1721H61.9542V19.4341H60.7838V16.1143H67.9861V19.4116H66.7932ZM65.0039 17.4759C64.9889 17.626 64.9627 17.7948 64.9251 17.9824C64.8951 18.1699 64.8576 18.3387 64.8126 18.4888C64.7151 18.8639 64.5575 19.2015 64.34 19.5016C64.1224 19.8017 63.826 20.0718 63.4509 20.3118C63.0758 20.5594 62.6144 20.7807 62.0667 20.9758C61.5191 21.1784 60.8664 21.3659 60.1086 21.5385L59.7485 20.4244C60.3862 20.3043 60.9376 20.1768 61.4028 20.0418C61.8754 19.9067 62.2731 19.7567 62.5957 19.5916C62.9183 19.4191 63.1696 19.2278 63.3496 19.0177C63.5297 18.8076 63.6535 18.5675 63.721 18.2975C63.7585 18.1699 63.7885 18.0199 63.811 17.8473C63.8411 17.6748 63.8636 17.5247 63.8786 17.3972L65.0039 17.4759ZM65.2515 19.0402C65.8367 19.2353 66.4444 19.4603 67.0746 19.7154C67.7048 19.9705 68.3275 20.2331 68.9427 20.5032L68.6051 21.6285C68.3275 21.4785 68.0311 21.3247 67.716 21.1671C67.4009 21.0096 67.0783 20.8558 66.7482 20.7057C66.4256 20.5632 66.0993 20.4281 65.7692 20.3006C65.4391 20.1731 65.1202 20.0568 64.8126 19.9517L65.2515 19.0402ZM77.961 13.1771C77.9085 13.3496 77.8485 13.5372 77.7809 13.7398C77.7134 13.9348 77.6459 14.1299 77.5784 14.3249H79.6265V20.008C79.6265 20.2631 79.604 20.4694 79.559 20.6269C79.514 20.7845 79.4352 20.9083 79.3227 20.9983C79.2101 21.0883 79.0638 21.1521 78.8838 21.1896C78.7037 21.2346 78.4787 21.2684 78.2086 21.2909L77.4996 21.3584L77.1732 20.4019L77.961 20.3231C78.096 20.3081 78.2048 20.2893 78.2873 20.2668C78.3699 20.2518 78.4336 20.2218 78.4787 20.1768C78.5237 20.1318 78.5537 20.0718 78.5687 19.9967C78.5837 19.9217 78.5912 19.8204 78.5912 19.6929V15.2815H72.3455V17.1271C72.5105 16.9995 72.6868 16.857 72.8744 16.6995C73.0619 16.5419 73.242 16.3844 73.4146 16.2268C73.5946 16.0693 73.7634 15.9117 73.921 15.7542C74.0785 15.5966 74.2136 15.4541 74.3261 15.3265L75.0238 16.0017C74.8888 16.1518 74.7275 16.3168 74.5399 16.4969C74.3524 16.6694 74.1535 16.8495 73.9435 17.0371H77.0832C76.8807 16.842 76.6743 16.6544 76.4643 16.4744C76.2542 16.2943 76.0741 16.1443 75.9241 16.0242L76.6218 15.3378C76.7644 15.4503 76.9294 15.5891 77.117 15.7542C77.312 15.9117 77.5034 16.073 77.6909 16.2381C77.8785 16.4031 78.051 16.5607 78.2086 16.7107C78.3736 16.8608 78.5012 16.9808 78.5912 17.0708L78.0285 17.9598C77.961 17.8923 77.8785 17.8098 77.7809 17.7123C77.6909 17.6147 77.5896 17.5135 77.4771 17.4084V20.1655H73.3808V17.5097L72.8181 17.9711L72.3455 17.3634V21.2346H71.3101V14.3249H73.302L73.0319 13.1771H70.6687V12.1643H74.9563C74.9113 12.0142 74.8625 11.8642 74.81 11.7141C74.7575 11.5641 74.7125 11.429 74.675 11.309L75.8341 11.1514C75.8866 11.294 75.9391 11.4515 75.9916 11.6241C76.0441 11.7966 76.1004 11.9767 76.1604 12.1643H80.223V13.1771H77.961ZM76.3967 14.3249C76.4568 14.1599 76.5243 13.9761 76.5993 13.7735C76.6743 13.571 76.7419 13.3721 76.8019 13.1771H74.1573C74.2023 13.3571 74.2473 13.5522 74.2923 13.7623C74.3448 13.9648 74.3899 14.1524 74.4274 14.3249H76.3967ZM74.3486 19.209H76.5093V17.9936H74.3486V19.209ZM91.447 19.7829V20.9083H81.6114V19.7829H84.7511V17.521L83.7495 18.1512C83.6295 17.8061 83.4907 17.4272 83.3332 17.0146C83.1756 16.6019 83.0106 16.1893 82.838 15.7767C82.673 15.3565 82.5079 14.9551 82.3429 14.5725C82.1778 14.1899 82.0278 13.8598 81.8927 13.5822L82.9618 13.0758C83.0818 13.3159 83.2206 13.6122 83.3782 13.9648C83.5432 14.3099 83.7083 14.6776 83.8733 15.0677C84.0384 15.4578 84.1959 15.8442 84.346 16.2268C84.5035 16.6094 84.6386 16.9545 84.7511 17.2621V11.2752L85.944 11.3202V19.7829H87.1256V11.2752L88.296 11.3202V17.3859C88.4685 17.0633 88.6411 16.7182 88.8137 16.3506C88.9862 15.9755 89.1513 15.6004 89.3088 15.2252C89.4739 14.8501 89.6239 14.4862 89.759 14.1336C89.9015 13.7735 90.0253 13.4397 90.1303 13.1321L91.2219 13.6272C91.1169 13.9348 90.9818 14.2874 90.8168 14.6851C90.6592 15.0827 90.4867 15.4916 90.2991 15.9117C90.1191 16.3243 89.9315 16.7295 89.7364 17.1271C89.5489 17.5247 89.3726 17.8773 89.2075 18.1849L88.296 17.6898V19.7829H91.447ZM96.8867 13.5259H95.57V12.5356H96.8867V11.1514L97.9558 11.1965V12.5356H99.2274V13.5259H97.9558V14.7976H99.3287V15.8329H95.39V14.7976H96.8867V13.5259ZM95.5475 11.8267C95.39 12.0817 95.2099 12.3481 95.0073 12.6257C94.8123 12.8957 94.606 13.1658 94.3884 13.4359C94.1708 13.706 93.9457 13.9648 93.7132 14.2124C93.4881 14.46 93.2668 14.6776 93.0492 14.8651L92.5541 13.8973C92.7191 13.7398 92.8954 13.556 93.083 13.3459C93.278 13.1283 93.4693 12.8995 93.6569 12.6594C93.852 12.4118 94.0358 12.1643 94.2083 11.9167C94.3884 11.6691 94.5459 11.4328 94.681 11.2077L95.5475 11.8267ZM102.266 12.997H99.5875V11.9392H102.266V12.997ZM95.6375 14.3249C95.5175 14.565 95.3825 14.8126 95.2324 15.0677C95.0899 15.3153 94.9323 15.5703 94.7598 15.8329V21.3809H93.7244V17.2846C93.5894 17.4572 93.4543 17.6222 93.3193 17.7798C93.1918 17.9373 93.0642 18.0874 92.9367 18.2299L92.3627 17.2509C92.5503 17.0408 92.7566 16.7857 92.9817 16.4856C93.2143 16.1855 93.4431 15.8742 93.6682 15.5516C93.8932 15.229 94.1033 14.9101 94.2984 14.595C94.5009 14.2724 94.6585 13.9873 94.771 13.7398L95.6375 14.3249ZM102.525 15.7091H101.624V20.1881C101.624 20.4356 101.602 20.6344 101.557 20.7845C101.519 20.9345 101.448 21.0508 101.343 21.1334C101.238 21.2234 101.099 21.2909 100.927 21.3359C100.754 21.3809 100.537 21.4184 100.274 21.4485L99.8014 21.5047L99.4412 20.4694L99.9364 20.4244C100.191 20.4019 100.357 20.3531 100.432 20.2781C100.507 20.2031 100.544 20.0455 100.544 19.8054V15.7091H99.5538V14.6626H102.525V15.7091ZM99.61 20.0643C98.8748 20.1618 98.1471 20.2443 97.4268 20.3118C96.7066 20.3869 95.9751 20.4431 95.2324 20.4806L95.1311 19.4678C95.4237 19.4528 95.7163 19.4378 96.0089 19.4228C96.3015 19.4003 96.5941 19.3778 96.8867 19.3553V18.1174H95.525V17.1046H96.8867V16.103L97.9558 16.148V17.1046H99.2949V18.1174H97.9558V19.2653C98.2259 19.2353 98.4922 19.209 98.7548 19.1865C99.0249 19.1565 99.2949 19.1227 99.565 19.0852L99.61 20.0643Z" fill="#123871"/>
<path d="M54.2836 28.4248C54.241 28.5648 54.1923 28.7169 54.1375 28.8812C54.0827 29.0394 54.028 29.1976 53.9732 29.3558H55.6345V33.9654C55.6345 34.1723 55.6162 34.3397 55.5797 34.4675C55.5432 34.5952 55.4793 34.6957 55.388 34.7687C55.2968 34.8417 55.1781 34.8934 55.032 34.9238C54.886 34.9604 54.7034 34.9877 54.4844 35.006L53.9093 35.0608L53.6446 34.2849L54.2836 34.221C54.3931 34.2088 54.4813 34.1936 54.5483 34.1754C54.6152 34.1632 54.6669 34.1388 54.7034 34.1023C54.74 34.0658 54.7643 34.0171 54.7765 33.9563C54.7886 33.8954 54.7947 33.8133 54.7947 33.7098V30.1317H49.7287V31.6287C49.8626 31.5252 50.0056 31.4096 50.1577 31.2818C50.3099 31.154 50.4559 31.0262 50.5959 30.8984C50.7419 30.7707 50.8789 30.6429 51.0066 30.5151C51.1344 30.3873 51.244 30.2717 51.3352 30.1682L51.9012 30.7159C51.7916 30.8376 51.6608 30.9715 51.5087 31.1175C51.3565 31.2575 51.1953 31.4035 51.0249 31.5557H53.5716C53.4073 31.3974 53.2399 31.2453 53.0695 31.0993C52.8992 30.9532 52.7531 30.8315 52.6314 30.7341L53.1973 30.1773C53.313 30.2686 53.4468 30.3812 53.599 30.5151C53.7572 30.6429 53.9124 30.7737 54.0645 30.9076C54.2166 31.0415 54.3566 31.1692 54.4844 31.2909C54.6182 31.4127 54.7217 31.51 54.7947 31.583L54.3383 32.3041C54.2836 32.2494 54.2166 32.1824 54.1375 32.1033C54.0645 32.0242 53.9823 31.9421 53.8911 31.8569V34.0932H50.5685V31.939L50.1121 32.3133L49.7287 31.8204V34.9604H48.889V29.3558H50.5046L50.2855 28.4248H48.3687V27.6033H51.8464C51.8099 27.4816 51.7703 27.3599 51.7277 27.2382C51.6851 27.1165 51.6486 27.0069 51.6182 26.9096L52.5584 26.7818C52.601 26.8974 52.6436 27.0252 52.6862 27.1651C52.7288 27.3051 52.7744 27.4511 52.8231 27.6033H56.1183V28.4248H54.2836ZM53.0148 29.3558C53.0635 29.222 53.1182 29.0729 53.1791 28.9086C53.2399 28.7443 53.2947 28.583 53.3434 28.4248H51.1983C51.2348 28.5708 51.2714 28.7291 51.3079 28.8994C51.3505 29.0637 51.387 29.2159 51.4174 29.3558H53.0148ZM51.3535 33.3173H53.1061V32.3315H51.3535V33.3173ZM65.2222 33.7829V34.6957H57.2444V33.7829H59.7911V31.9482L58.9787 32.4593C58.8814 32.1794 58.7688 31.8721 58.641 31.5374C58.5132 31.2027 58.3793 30.868 58.2394 30.5333C58.1055 30.1926 57.9716 29.867 57.8377 29.5566C57.7039 29.2463 57.5821 28.9785 57.4726 28.7534L58.3398 28.3426C58.4371 28.5374 58.5497 28.7777 58.6775 29.0637C58.8114 29.3437 58.9452 29.6418 59.0791 29.9583C59.213 30.2747 59.3408 30.5881 59.4625 30.8984C59.5903 31.2088 59.6998 31.4887 59.7911 31.7382V26.8822L60.7587 26.9187V33.7829H61.7171V26.8822L62.6664 26.9187V31.8386C62.8063 31.577 62.9463 31.297 63.0863 30.9989C63.2262 30.6946 63.3601 30.3903 63.4879 30.0861C63.6218 29.7818 63.7435 29.4867 63.853 29.2007C63.9686 28.9086 64.069 28.6378 64.1542 28.3883L65.0396 28.7899C64.9544 29.0394 64.8449 29.3254 64.711 29.6479C64.5832 29.9704 64.4433 30.3021 64.2911 30.6429C64.1451 30.9776 63.993 31.3062 63.8348 31.6287C63.6826 31.9512 63.5396 32.2372 63.4057 32.4867L62.6664 32.0851V33.7829H65.2222ZM69.6344 28.7078H68.5664V27.9045H69.6344V26.7818L70.5015 26.8183V27.9045H71.533V28.7078H70.5015V29.7392H71.6151V30.579H68.4204V29.7392H69.6344V28.7078ZM68.5482 27.3294C68.4204 27.5363 68.2743 27.7524 68.11 27.9775C67.9518 28.1966 67.7845 28.4157 67.608 28.6347C67.4315 28.8538 67.249 29.0637 67.0603 29.2646C66.8778 29.4654 66.6982 29.6418 66.5218 29.794L66.1201 29.009C66.254 28.8812 66.397 28.7321 66.5492 28.5617C66.7074 28.3852 66.8626 28.1996 67.0147 28.0049C67.1729 27.8041 67.322 27.6033 67.4619 27.4025C67.608 27.2017 67.7358 27.01 67.8453 26.8274L68.5482 27.3294ZM73.9975 28.2787H71.8251V27.4207H73.9975V28.2787ZM68.6212 29.3558C68.5238 29.5506 68.4143 29.7514 68.2926 29.9583C68.177 30.1591 68.0492 30.366 67.9092 30.579V35.079H67.0694V31.7565C66.9599 31.8964 66.8504 32.0303 66.7408 32.1581C66.6374 32.2859 66.5339 32.4076 66.4305 32.5232L65.965 31.7291C66.1171 31.5587 66.2845 31.3518 66.467 31.1084C66.6557 30.865 66.8413 30.6124 67.0238 30.3508C67.2064 30.0891 67.3768 29.8305 67.535 29.5749C67.6993 29.3132 67.8271 29.082 67.9183 28.8812L68.6212 29.3558ZM74.2075 30.4786H73.4772V34.1115C73.4772 34.3123 73.459 34.4735 73.4225 34.5952C73.392 34.7169 73.3342 34.8113 73.249 34.8782C73.1638 34.9512 73.0513 35.006 72.9113 35.0425C72.7713 35.079 72.5949 35.1094 72.3819 35.1338L71.9985 35.1794L71.7064 34.3397L72.108 34.3032C72.3149 34.2849 72.4488 34.2453 72.5097 34.1845C72.5705 34.1236 72.601 33.9958 72.601 33.8011V30.4786H71.7977V29.6297H74.2075V30.4786ZM71.8433 34.0111C71.247 34.0902 70.6567 34.1571 70.0725 34.2119C69.4883 34.2727 68.895 34.3184 68.2926 34.3488L68.2104 33.5273C68.4478 33.5151 68.6851 33.5029 68.9224 33.4908C69.1597 33.4725 69.3971 33.4543 69.6344 33.436V32.4319H68.5299V31.6104H69.6344V30.798L70.5015 30.8346V31.6104H71.5878V32.4319H70.5015V33.363C70.7206 33.3386 70.9366 33.3173 71.1496 33.2991C71.3687 33.2747 71.5878 33.2474 71.8068 33.2169L71.8433 34.0111Z" fill="#3A5A8A"/>
<defs>
<linearGradient id="paint0_linear_735_42849" x1="103.619" y1="-0.181216" x2="17.8138" y2="49.8955" gradientUnits="userSpaceOnUse">
<stop offset="0.5" stop-color="#809AF5"/>
<stop offset="0.5" stop-color="#3867E2"/>
</linearGradient>
</defs>
</svg>
