<svg width="155" height="54" viewBox="0 0 155 54" fill="none" xmlns="http://www.w3.org/2000/svg">
<path d="M38.7327 40H13.1234C11.9185 40 11.4255 42.5313 12.4808 43.1129C18.2953 46.3178 23.407 50.71 25.2653 52.3828C25.6827 52.7585 26.3259 52.7478 26.7316 52.3595C28.5166 50.651 33.4263 46.2043 39.3415 42.9712C40.3929 42.3966 39.9309 40 38.7327 40Z" fill="#4573E7"/>
<rect width="154.104" height="45.4013" rx="22.7007" fill="url(#paint0_linear_674_33997)"/>
<rect x="4.86819" y="4.86821" width="144.368" height="35.6649" rx="17.8325" fill="#D6DFF5"/>
<path d="M29.1745 23.2523V17.7268C29.1745 16.6211 29.5416 16.3763 30.5235 16.3763H39.9765C41.3902 16.3763 44.0292 18.2796 44.0292 21.8385C44.0292 22.5757 43.4159 23.189 42.6788 23.189H29.1745V23.2523ZM24.5085 23.2523C22.6657 23.2523 21.1324 21.719 21.1324 19.8157C21.1324 17.9139 22.6066 16.3806 24.5085 16.3806C26.3512 16.3806 27.8845 17.9139 27.8845 19.8157C27.824 21.7176 26.3512 23.2523 24.5085 23.2523ZM44.0292 26.015V31.172C44.0292 31.9091 43.4159 32.5224 42.6788 32.5224C42.3216 32.5195 41.98 32.3762 41.7276 32.1235C41.4752 31.8709 41.3323 31.5291 41.3297 31.172V28.7173C41.3272 28.3599 41.184 28.0179 40.9313 27.7652C40.6787 27.5125 40.3367 27.3694 39.9793 27.3669H21.0705C20.7131 27.3694 20.3712 27.5125 20.1185 27.7652C19.8658 28.0179 19.7227 28.3599 19.7201 28.7173V31.172C19.7201 31.9091 19.1082 32.5224 18.3725 32.5224C18.0151 32.5198 17.6731 32.3767 17.4204 32.124C17.1677 31.8713 17.0246 31.5293 17.022 31.172V14.2297C17.022 13.6769 17.2668 12.8793 18.3725 12.8793C18.3725 12.8793 19.7215 12.8202 19.7215 14.2297V23.2523C19.7215 23.9894 20.3348 24.6027 21.0719 24.6027H42.6788C43.2302 24.6027 44.0306 24.7251 44.0306 26.015H44.0292Z" fill="#2566E5"/>
<path d="M52.4145 13.5484V12.3555H60.2245V13.5484H52.4145ZM51.3904 20.5144V19.344H61.2485V20.5144H51.3904ZM72.2812 16.1142H67.9486V21.3246H66.767V16.1142H62.5244V14.9326H66.767V11.1852L67.9486 11.2302V14.9326H72.2812V16.1142ZM82.8188 11.9842V21.2796H81.7047V20.5594H75.2114V21.2796H74.1085V11.9842H82.8188ZM81.7047 19.479V17.8248H80.5681C80.0504 17.8248 79.6641 17.7235 79.409 17.5209C79.1539 17.3108 79.0264 16.9282 79.0264 16.3731V13.087H77.8447V14.4262C77.8447 14.9363 77.8147 15.3715 77.7547 15.7316C77.6947 16.0917 77.5934 16.4218 77.4509 16.7219C77.3083 17.0145 77.117 17.2921 76.8769 17.5547C76.6443 17.8173 76.3555 18.1023 76.0104 18.4099L75.2226 17.6334C75.5452 17.3709 75.8041 17.1308 75.9991 16.9132C76.2017 16.6957 76.3555 16.4706 76.4605 16.238C76.5731 15.9979 76.6443 15.7353 76.6744 15.4503C76.7119 15.1577 76.7306 14.8051 76.7306 14.3924V13.087H75.2114V19.479H81.7047ZM81.7047 13.087H80.1067V15.9342C80.1067 16.2418 80.1592 16.4443 80.2642 16.5419C80.3693 16.6394 80.5793 16.6882 80.8944 16.6882H81.7047V13.087ZM85.929 14.775C86.2141 14.5575 86.5367 14.2799 86.8968 13.9423C87.2569 13.5972 87.602 13.2446 87.9321 12.8844H85.0962V11.8266H94.0316V12.8844H89.3726C89.1925 13.087 89.0087 13.2896 88.8212 13.4921C88.6336 13.6947 88.4498 13.886 88.2697 14.0661C88.0897 14.2386 87.9171 14.3999 87.7521 14.55C87.587 14.7 87.4445 14.8276 87.3244 14.9326L91.6571 14.7863C91.477 14.5912 91.2932 14.4037 91.1056 14.2236C90.9256 14.0361 90.7418 13.8523 90.5542 13.6722L91.3195 12.9745C92.2798 13.8072 93.1575 14.6738 93.9528 15.574L93.2213 16.5193C93.1163 16.3993 93.0112 16.2793 92.9062 16.1592C92.8012 16.0392 92.6961 15.9192 92.5911 15.7991C92.4111 15.7991 92.1522 15.8066 91.8146 15.8216C91.4845 15.8291 91.1094 15.8404 90.6893 15.8554C90.2766 15.8629 89.8377 15.8779 89.3726 15.9004C88.9074 15.9154 88.4461 15.9342 87.9884 15.9567C87.5308 15.9717 87.0956 15.9904 86.683 16.0129C86.2704 16.0354 85.914 16.058 85.6139 16.0805L85.3551 15.0451C85.5126 15.0076 85.6327 14.9626 85.7152 14.9101C85.7977 14.8576 85.869 14.8126 85.929 14.775ZM94.493 19.9967V21.0208H84.6236V19.9967H89.0125V18.4775H85.5576V17.4421H89.0125V16.0917L90.1378 16.1367V17.4421H93.5702V18.4775H90.1378V19.9967H94.493ZM96.7254 13.5484V12.3555H104.535V13.5484H96.7254ZM95.7013 20.5144V19.344H105.559V20.5144H95.7013ZM116.592 16.1142H112.26V21.3246H111.078V16.1142H106.835V14.9326H111.078V11.1852L112.26 11.2302V14.9326H116.592V16.1142ZM126.027 19.0739C126.057 18.9014 126.079 18.7213 126.094 18.5337C126.117 18.3387 126.132 18.1811 126.139 18.0611L127.276 18.4437C127.269 18.6088 127.25 18.8113 127.22 19.0514C127.19 19.2915 127.16 19.4978 127.13 19.6703C127.085 19.9479 127.021 20.173 126.938 20.3456C126.863 20.5181 126.758 20.6569 126.623 20.7619C126.488 20.867 126.316 20.942 126.106 20.987C125.896 21.032 125.64 21.062 125.34 21.077C124.538 21.1221 123.746 21.1221 122.966 21.077C122.628 21.0545 122.343 21.0133 122.111 20.9533C121.878 20.9007 121.687 20.8107 121.537 20.6832C121.394 20.5556 121.289 20.3831 121.222 20.1655C121.162 19.9404 121.132 19.6591 121.132 19.3215V15.9567L117.992 16.4743L117.812 15.349L121.132 14.7976V11.2414L122.313 11.2864V14.6062L127.647 13.7285L127.782 14.8538L122.313 15.7541V19.1189C122.313 19.2765 122.321 19.404 122.336 19.5015C122.351 19.5991 122.384 19.6778 122.437 19.7379C122.489 19.7904 122.565 19.8279 122.662 19.8504C122.767 19.8729 122.91 19.8917 123.09 19.9067C123.757 19.9667 124.425 19.9667 125.093 19.9067C125.273 19.8917 125.419 19.8729 125.532 19.8504C125.644 19.8279 125.731 19.7904 125.791 19.7379C125.858 19.6778 125.907 19.5953 125.937 19.4903C125.967 19.3853 125.997 19.2465 126.027 19.0739ZM136.137 16.9357V20.008C136.137 20.263 136.111 20.4693 136.058 20.6269C136.013 20.7844 135.934 20.9082 135.822 20.9983C135.717 21.0958 135.574 21.1671 135.394 21.2121C135.221 21.2571 135.004 21.2946 134.741 21.3246L134.145 21.3921L133.774 20.3005L134.404 20.233C134.531 20.218 134.636 20.203 134.719 20.188C134.801 20.1655 134.865 20.1355 134.91 20.098C134.955 20.0605 134.985 20.008 135 19.9404C135.023 19.8654 135.034 19.7641 135.034 19.6366V16.9357H132.536L132.029 17.5209C131.924 17.3484 131.808 17.1721 131.68 16.992C131.553 16.8119 131.425 16.6394 131.298 16.4743V21.3246H130.262V16.7669C130.112 17.112 129.955 17.4496 129.79 17.7797C129.632 18.1023 129.467 18.4062 129.295 18.6913L128.541 17.9035C128.683 17.671 128.829 17.4121 128.98 17.127C129.13 16.8344 129.276 16.5306 129.418 16.2155C129.568 15.8929 129.707 15.5665 129.835 15.2364C129.97 14.8988 130.09 14.5725 130.195 14.2574H129.126V13.177H130.262V11.1852L131.298 11.2302V13.177H132.389V14.2574H131.298V15.5515L131.568 15.2589C131.71 15.409 131.868 15.6003 132.04 15.8329C132.221 16.058 132.386 16.2755 132.536 16.4856L132.547 15.8891C132.607 15.7916 132.674 15.6641 132.749 15.5065C132.832 15.3415 132.915 15.1614 132.997 14.9664C133.087 14.7638 133.177 14.5462 133.267 14.3136C133.357 14.0811 133.447 13.8447 133.537 13.6047H132.524V12.5468H133.909C134.006 12.2467 134.092 11.9729 134.167 11.7253C134.25 11.4702 134.31 11.2564 134.347 11.0839L135.372 11.3315C135.334 11.474 135.282 11.6503 135.214 11.8604C135.146 12.0704 135.071 12.2993 134.989 12.5468H138.489V13.6047H134.618C134.528 13.8523 134.437 14.0961 134.347 14.3362C134.265 14.5762 134.182 14.7976 134.1 15.0001C134.017 15.2027 133.942 15.3827 133.875 15.5403C133.807 15.6903 133.751 15.8066 133.706 15.8891H135.034V14.1111L136.137 14.1561V15.8891H138.376V16.9357H136.137ZM134.28 17.9485C134.017 18.4887 133.721 19.0326 133.391 19.5803C133.061 20.1205 132.734 20.6081 132.412 21.0433L131.534 20.3456C131.699 20.143 131.864 19.9254 132.029 19.6929C132.194 19.4528 132.356 19.2052 132.513 18.9501C132.671 18.695 132.817 18.4362 132.952 18.1736C133.095 17.911 133.222 17.6522 133.335 17.3971L134.28 17.9485ZM137.352 17.4084C137.48 17.5884 137.622 17.8023 137.78 18.0498C137.945 18.2899 138.106 18.5375 138.264 18.7926C138.429 19.0476 138.586 19.3027 138.736 19.5578C138.894 19.8054 139.029 20.0305 139.141 20.233L138.23 20.9307C138.117 20.7132 137.982 20.4731 137.825 20.2105C137.675 19.9404 137.517 19.6703 137.352 19.4003C137.195 19.1302 137.037 18.8751 136.88 18.635C136.729 18.3874 136.598 18.1811 136.486 18.0161L137.352 17.4084Z" fill="#123871"/>
<path d="M55.8031 30.8345C56.0647 31.6195 56.4937 32.2889 57.0901 32.8427C57.6864 33.3903 58.4441 33.865 59.3629 34.2666L58.8518 35.2615C58.4015 35.0181 57.9907 34.7717 57.6195 34.5222C57.2544 34.2788 56.9258 34.0232 56.6337 33.7554C56.3416 33.4877 56.083 33.2078 55.8578 32.9157C55.6388 32.6175 55.4532 32.298 55.301 31.9572C55.0333 32.5293 54.6164 33.0952 54.0505 33.655C53.4846 34.2149 52.7178 34.7473 51.7503 35.2524L51.2026 34.3122C52.1945 33.8376 52.9825 33.3173 53.5667 32.7514C54.1509 32.1794 54.5191 31.5404 54.6712 30.8345H51.4856V29.9309H54.7442V28.2148H51.9693V27.3294H58.5323V28.2148H55.7209V29.9309H59.0161V30.8345H55.8031ZM65.409 28.2422H64.3593V27.5576H65.409V26.8365L66.1849 26.873V27.5576H67.7366V28.8081H68.2204V29.5201H67.7366V30.7341H66.1849V31.3365H67.837V32.0029H66.1849V32.5049H68.0744V33.1713H66.1849V33.9015H65.409V33.1713H63.9759V32.5049H65.409V32.0029H64.3137V31.3365H65.409V30.7341H64.3593V30.0678H65.409V29.5201H64.0946V28.8081H65.409V28.2422ZM65.5459 34.0658C66.0145 34.084 66.48 34.0901 66.9425 34.084C67.4111 34.078 67.8796 34.0658 68.3482 34.0475L68.2022 34.7595C67.7458 34.7778 67.2894 34.7899 66.833 34.796C66.3827 34.8021 65.9293 34.796 65.4729 34.7778C64.98 34.7595 64.5388 34.6926 64.1494 34.5769C63.766 34.4613 63.4191 34.2514 63.1088 33.9471C62.8958 34.3001 62.625 34.6926 62.2964 35.1246L61.767 34.6865V35.0151H60.982V30.5242C60.8968 30.6946 60.8086 30.8619 60.7173 31.0262C60.626 31.1905 60.5347 31.3518 60.4434 31.51L59.8593 30.798C59.9992 30.5607 60.1422 30.2868 60.2883 29.9765C60.4404 29.6661 60.5865 29.3406 60.7264 28.9998C60.8664 28.6529 60.9942 28.3 61.1098 27.941C61.2315 27.5759 61.3289 27.2229 61.4019 26.8821L62.2234 27.0464C62.1625 27.3264 62.0926 27.6002 62.0134 27.8679C61.9404 28.1357 61.8583 28.4004 61.767 28.6621V34.4035C62.1017 33.9897 62.3725 33.6064 62.5794 33.2534C62.3055 32.7788 62.0743 32.1459 61.8857 31.3548L62.6068 31.1266C62.6615 31.3518 62.7193 31.5678 62.7802 31.7747C62.841 31.9816 62.9141 32.1763 62.9993 32.3589C63.1696 31.8721 63.2761 31.3061 63.3187 30.6611H62.0134V29.9126L63.2548 28.1692H62.1869V27.4207H64.1768V28.1783L62.9627 29.9126H64.0855V30.6976C64.055 30.9653 64.0216 31.2148 63.9851 31.4461C63.9486 31.6712 63.906 31.8842 63.8573 32.085C63.8147 32.2858 63.763 32.4775 63.7021 32.6601C63.6473 32.8427 63.5804 33.0191 63.5013 33.1895C63.7264 33.4512 64.0033 33.6581 64.3319 33.8102C64.6605 33.9623 65.0652 34.0475 65.5459 34.0658ZM66.1849 28.2422V28.8081H66.9699V28.2422H66.1849ZM66.9699 29.5201H66.1849V30.0678H66.9699V29.5201ZM70.5423 29.5657H69.6387V27.7493H72.8791C72.8365 27.6093 72.7939 27.4755 72.7513 27.3477C72.7087 27.2138 72.6691 27.0951 72.6326 26.9917L73.6093 26.8548C73.6519 26.9765 73.6975 27.1134 73.7462 27.2655C73.801 27.4176 73.8557 27.5789 73.9105 27.7493H76.8406V29.0454H75.946V28.5343H70.5423V29.5657ZM71.8659 29.0363C71.7807 29.2797 71.6803 29.5201 71.5646 29.7574C71.4551 29.9947 71.3334 30.229 71.1995 30.4603V35.0972H70.305V31.7838C70.1589 31.9785 70.0099 32.1611 69.8577 32.3315C69.7117 32.5019 69.5626 32.6662 69.4105 32.8244L69.0453 31.8933C69.2279 31.7047 69.4165 31.4887 69.6113 31.2453C69.806 31.0019 69.9946 30.7432 70.1772 30.4694C70.3598 30.1956 70.5271 29.9126 70.6792 29.6205C70.8375 29.3284 70.9652 29.0424 71.0626 28.7625L71.8659 29.0363ZM74.7594 30.0495C74.729 30.1712 74.6955 30.2929 74.659 30.4146C74.6286 30.5363 74.5951 30.655 74.5586 30.7706H76.5028V35.0242H75.6266V34.65H72.9886V35.0516H72.1123V30.7706H73.6093C73.6458 30.6489 73.6793 30.5303 73.7097 30.4146C73.7462 30.2929 73.7797 30.1712 73.8101 30.0495H71.8202V29.2828H77.0596V30.0495H74.7594ZM75.6266 31.51H72.9886V32.3406H75.6266V31.51ZM75.6266 33.9106V33.0708H72.9886V33.9106H75.6266ZM82.7041 29.6935V30.4785H85.7984V31.2635H82.7041V32.0303H85.123V35.079H84.2102V34.7139H80.2396V35.079H79.3268V32.0303H81.773V31.2635H78.6513V30.4785H81.773V29.6935H80.1209V29.2371C79.6097 29.5353 79.0651 29.8061 78.487 30.0495L78.1219 29.155C78.9556 28.8446 79.6767 28.4917 80.2852 28.0961C80.8937 27.6945 81.4171 27.232 81.8552 26.7087H82.6311C83.051 27.226 83.5804 27.6854 84.2193 28.087C84.8583 28.4826 85.5611 28.8203 86.3279 29.1002L85.9445 29.9856C85.6707 29.87 85.3999 29.7483 85.1321 29.6205C84.8644 29.4866 84.6027 29.3497 84.3471 29.2097V29.6935H82.7041ZM82.2386 27.5302C82.0438 27.7736 81.8126 28.011 81.5448 28.2422C81.2771 28.4734 80.9789 28.6955 80.6503 28.9085H83.8542C83.5195 28.6955 83.2153 28.4734 82.9414 28.2422C82.6676 28.0049 82.4333 27.7675 82.2386 27.5302ZM84.2102 32.8335H80.2396V33.9197H84.2102V32.8335Z" fill="#3A5A8A"/>
<defs>
<linearGradient id="paint0_linear_674_33997" x1="135.244" y1="-0.181216" x2="40.2334" y2="72.1907" gradientUnits="userSpaceOnUse">
<stop offset="0.5" stop-color="#809AF5"/>
<stop offset="0.5" stop-color="#3867E2"/>
</linearGradient>
</defs>
</svg>
