<svg width="133" height="53" viewBox="0 0 133 53" fill="none" xmlns="http://www.w3.org/2000/svg">
<path d="M120.733 39H95.1234C93.9185 39 93.4255 41.5313 94.4808 42.1129C100.295 45.3178 105.407 49.71 107.265 51.3828C107.683 51.7585 108.326 51.7478 108.732 51.3595C110.517 49.651 115.426 45.2043 121.341 41.9712C122.393 41.3966 121.931 39 120.733 39Z" fill="#4573E7"/>
<rect width="132.104" height="45.4013" rx="22.7007" fill="url(#paint0_linear_674_34003)"/>
<rect x="4.86819" y="4.86816" width="122.368" height="35.6649" rx="17.8325" fill="#D6DFF5"/>
<path d="M29.1745 23.2522V17.7267C29.1745 16.6211 29.5416 16.3763 30.5235 16.3763H39.9765C41.3902 16.3763 44.0292 18.2796 44.0292 21.8385C44.0292 22.5756 43.4159 23.1889 42.6788 23.1889H29.1745V23.2522ZM24.5085 23.2522C22.6657 23.2522 21.1324 21.7189 21.1324 19.8157C21.1324 17.9138 22.6066 16.3805 24.5085 16.3805C26.3512 16.3805 27.8845 17.9138 27.8845 19.8157C27.824 21.7175 26.3512 23.2522 24.5085 23.2522ZM44.0292 26.015V31.1719C44.0292 31.9091 43.4159 32.5224 42.6788 32.5224C42.3216 32.5194 41.98 32.3762 41.7276 32.1235C41.4752 31.8708 41.3323 31.5291 41.3297 31.1719V28.7173C41.3272 28.3599 41.184 28.0179 40.9313 27.7652C40.6787 27.5125 40.3367 27.3694 39.9793 27.3668H21.0705C20.7131 27.3694 20.3712 27.5125 20.1185 27.7652C19.8658 28.0179 19.7227 28.3599 19.7201 28.7173V31.1719C19.7201 31.9091 19.1082 32.5224 18.3725 32.5224C18.0151 32.5198 17.6731 32.3767 17.4204 32.124C17.1677 31.8713 17.0246 31.5293 17.022 31.1719V14.2297C17.022 13.6769 17.2668 12.8793 18.3725 12.8793C18.3725 12.8793 19.7215 12.8202 19.7215 14.2297V23.2522C19.7215 23.9894 20.3348 24.6027 21.0719 24.6027H42.6788C43.2302 24.6027 44.0306 24.7251 44.0306 26.015H44.0292Z" fill="#2566E5"/>
<path d="M61.2035 16.1142H56.8709V21.3246H55.6893V16.1142H51.4467V14.9326H55.6893V11.1851L56.8709 11.2302V14.9326H61.2035V16.1142ZM63.2334 13.1545V11.9954H71.561V13.1545H63.2334ZM63.7173 16.6544V15.5515H71.0884V16.6544H63.7173ZM62.5357 20.6381V19.524H72.27V20.6381H62.5357ZM74.8513 14.775C75.1364 14.5575 75.459 14.2799 75.8191 13.9423C76.1792 13.5972 76.5243 13.2445 76.8544 12.8844H74.0185V11.8266H82.9538V12.8844H78.2949C78.1148 13.087 77.931 13.2896 77.7434 13.4921C77.5559 13.6947 77.3721 13.886 77.192 14.0661C77.012 14.2386 76.8394 14.3999 76.6744 14.55C76.5093 14.7 76.3668 14.8275 76.2467 14.9326L80.5793 14.7863C80.3993 14.5912 80.2155 14.4037 80.0279 14.2236C79.8479 14.036 79.6641 13.8522 79.4765 13.6722L80.2417 12.9745C81.202 13.8072 82.0798 14.6737 82.8751 15.574L82.1436 16.5193C82.0386 16.3993 81.9335 16.2793 81.8285 16.1592C81.7235 16.0392 81.6184 15.9191 81.5134 15.7991C81.3333 15.7991 81.0745 15.8066 80.7369 15.8216C80.4068 15.8291 80.0317 15.8404 79.6115 15.8554C79.1989 15.8629 78.76 15.8779 78.2949 15.9004C77.8297 15.9154 77.3683 15.9341 76.9107 15.9567C76.453 15.9717 76.0179 15.9904 75.6053 16.0129C75.1926 16.0354 74.8363 16.0579 74.5362 16.0804L74.2773 15.0451C74.4349 15.0076 74.5549 14.9626 74.6375 14.9101C74.72 14.8576 74.7913 14.8125 74.8513 14.775ZM83.4152 19.9967V21.0208H73.5459V19.9967H77.9348V18.4775H74.4799V17.4421H77.9348V16.0917L79.0601 16.1367V17.4421H82.4924V18.4775H79.0601V19.9967H83.4152ZM94.4367 16.1142H90.1041V21.3246H88.9225V16.1142H84.6799V14.9326H88.9225V11.1851L90.1041 11.2302V14.9326H94.4367V16.1142ZM105.582 19.6703V20.7282H95.6901V19.6703H97.9633L98.5485 16.238H96.5003V15.1464H98.7285L99.1112 12.9182H96.2753V11.8153H105.076V12.9182H100.304L99.9214 15.1464H103.905L103.748 19.6703H105.582ZM99.1337 19.6703H102.566L102.701 16.238H99.7301L99.1337 19.6703ZM113.981 16.9357V20.0079C113.981 20.263 113.955 20.4693 113.903 20.6269C113.858 20.7844 113.779 20.9082 113.666 20.9983C113.561 21.0958 113.419 21.1671 113.239 21.2121C113.066 21.2571 112.848 21.2946 112.586 21.3246L111.989 21.3921L111.618 20.3005L112.248 20.233C112.376 20.218 112.481 20.203 112.563 20.188C112.646 20.1655 112.71 20.1355 112.755 20.098C112.8 20.0605 112.83 20.0079 112.845 19.9404C112.867 19.8654 112.878 19.7641 112.878 19.6366V16.9357H110.38L109.874 17.5209C109.769 17.3483 109.652 17.172 109.525 16.992C109.397 16.8119 109.27 16.6394 109.142 16.4743V21.3246H108.107V16.7669C107.957 17.112 107.799 17.4496 107.634 17.7797C107.477 18.1023 107.312 18.4062 107.139 18.6913L106.385 17.9035C106.528 17.6709 106.674 17.4121 106.824 17.127C106.974 16.8344 107.12 16.5306 107.263 16.2155C107.413 15.8929 107.552 15.5665 107.679 15.2364C107.814 14.8988 107.934 14.5725 108.039 14.2574H106.97V13.177H108.107V11.1851L109.142 11.2302V13.177H110.234V14.2574H109.142V15.5515L109.412 15.2589C109.555 15.409 109.712 15.6003 109.885 15.8329C110.065 16.0579 110.23 16.2755 110.38 16.4856L110.391 15.8891C110.451 15.7916 110.519 15.6641 110.594 15.5065C110.677 15.3415 110.759 15.1614 110.842 14.9663C110.932 14.7638 111.022 14.5462 111.112 14.3136C111.202 14.0811 111.292 13.8447 111.382 13.6047H110.369V12.5468H111.753C111.851 12.2467 111.937 11.9729 112.012 11.7253C112.094 11.4702 112.155 11.2564 112.192 11.0839L113.216 11.3314C113.179 11.474 113.126 11.6503 113.059 11.8604C112.991 12.0704 112.916 12.2992 112.833 12.5468H116.333V13.6047H112.462C112.372 13.8522 112.282 14.0961 112.192 14.3361C112.109 14.5762 112.027 14.7975 111.944 15.0001C111.862 15.2027 111.787 15.3827 111.719 15.5403C111.652 15.6903 111.596 15.8066 111.551 15.8891H112.878V14.1111L113.981 14.1561V15.8891H116.221V16.9357H113.981ZM112.124 17.9485C111.862 18.4887 111.566 19.0326 111.235 19.5803C110.905 20.1205 110.579 20.6081 110.256 21.0433L109.379 20.3455C109.544 20.143 109.709 19.9254 109.874 19.6928C110.039 19.4528 110.2 19.2052 110.358 18.9501C110.515 18.695 110.662 18.4362 110.797 18.1736C110.939 17.911 111.067 17.6522 111.179 17.3971L112.124 17.9485ZM115.197 17.4084C115.324 17.5884 115.467 17.8022 115.624 18.0498C115.789 18.2899 115.951 18.5375 116.108 18.7926C116.273 19.0476 116.431 19.3027 116.581 19.5578C116.738 19.8054 116.873 20.0304 116.986 20.233L116.074 20.9307C115.962 20.7132 115.827 20.4731 115.669 20.2105C115.519 19.9404 115.362 19.6703 115.197 19.4002C115.039 19.1302 114.882 18.8751 114.724 18.635C114.574 18.3874 114.443 18.1811 114.33 18.0161L115.197 17.4084Z" fill="#123871"/>
<path d="M57.5465 29.6023C57.8203 29.7362 58.1185 29.8609 58.441 29.9765C58.7696 30.0861 59.1256 30.1865 59.509 30.2778L59.226 31.0901C58.8792 30.9867 58.5566 30.8832 58.2585 30.7798C57.9603 30.6763 57.6804 30.5638 57.4187 30.4421L57.7656 31.0627C57.3335 31.3548 56.871 31.6226 56.3781 31.866C55.8852 32.1033 55.3862 32.3102 54.8811 32.4867L54.5434 31.7382C55.0363 31.58 55.5262 31.3853 56.013 31.154C56.5059 30.9228 56.9532 30.6763 57.3548 30.4147C57.2574 30.366 57.1631 30.3173 57.0718 30.2686C56.9806 30.2199 56.8923 30.1713 56.8071 30.1226C56.4846 30.3173 56.1225 30.5029 55.7209 30.6794C55.3254 30.8498 54.8781 31.0141 54.3791 31.1723L54.1965 30.7524V33.5364H53.4572V28.0688L54.1965 28.1053V28.8903C54.5252 28.58 54.8294 28.2301 55.1093 27.8406C55.3893 27.4511 55.6144 27.0708 55.7848 26.6996L56.5515 27.01C56.5211 27.083 56.4876 27.156 56.4511 27.229C56.4146 27.296 56.3781 27.3629 56.3416 27.4298H58.8061V28.151C58.6479 28.4187 58.4654 28.6743 58.2585 28.9177C58.0576 29.155 57.8203 29.3832 57.5465 29.6023ZM53.5576 27.01C53.4602 27.369 53.3537 27.7189 53.2381 28.0597C53.1286 28.4004 53.0038 28.7351 52.8639 29.0637V35.0699H52.0697V30.7068C51.9846 30.8528 51.8994 31.0019 51.8142 31.154C51.729 31.3001 51.6377 31.4461 51.5403 31.5922L50.9105 30.9623C51.0687 30.7189 51.2361 30.4329 51.4125 30.1043C51.5951 29.7696 51.7685 29.4167 51.9328 29.0455C52.1032 28.6743 52.2614 28.297 52.4075 27.9136C52.5535 27.5242 52.6691 27.156 52.7543 26.8092L53.5576 27.01ZM55.8943 28.1692C55.8822 28.1814 55.873 28.1935 55.867 28.2057C55.867 28.2179 55.8609 28.2301 55.8487 28.2422C55.9765 28.4187 56.1195 28.583 56.2777 28.7351C56.4359 28.8812 56.6154 29.0242 56.8163 29.1641C57.0231 29.0181 57.2057 28.8629 57.3639 28.6986C57.5282 28.5343 57.6743 28.3579 57.8021 28.1692H55.8943ZM54.1965 30.3416C54.5799 30.2199 54.9237 30.1013 55.228 29.9857C55.5383 29.864 55.8213 29.7392 56.0769 29.6114C55.943 29.5019 55.8183 29.3863 55.7026 29.2646C55.587 29.1428 55.4745 29.012 55.3649 28.8721C55.1276 29.152 54.8538 29.4289 54.5434 29.7027L54.1965 29.228V30.3416ZM58.4775 31.9664C57.9785 32.3498 57.4004 32.6966 56.7432 33.007C56.0921 33.3173 55.4136 33.582 54.7077 33.8011L54.3882 33.0983C55.082 32.8853 55.7392 32.6327 56.3599 32.3407C56.9806 32.0425 57.5495 31.7169 58.0668 31.364L58.4775 31.9664ZM53.9957 34.4401C54.9268 34.2088 55.797 33.9137 56.6063 33.5547C57.4217 33.1956 58.152 32.7788 58.797 32.3041L59.2169 32.9157C58.5901 33.4269 57.866 33.8589 57.0444 34.2119C56.229 34.5709 55.3254 34.8782 54.3335 35.1338L53.9957 34.4401ZM63.3187 30.4968H62.4242V26.873L63.3187 26.9096V30.4968ZM66.3401 29.438C66.8269 29.6692 67.4598 29.8487 68.2387 29.9765L67.974 30.7889C67.4445 30.6733 66.9851 30.5485 66.5956 30.4147C66.2062 30.2808 65.8532 30.1165 65.5368 29.9218C65.2751 30.0556 64.9922 30.1834 64.6879 30.3051C64.3837 30.4268 64.055 30.5394 63.7021 30.6429L63.337 29.8305C63.8968 29.6844 64.3897 29.5262 64.8157 29.3558C64.6575 29.2098 64.5023 29.0485 64.3502 28.8721C64.2041 28.6895 64.055 28.4887 63.9029 28.2696L64.3593 27.9593H63.62V27.1834H67.7366V27.941C67.408 28.5069 66.9425 29.0059 66.3401 29.438ZM61.6392 30.3782H60.7812V27.2108L61.6392 27.2473V30.3782ZM64.6331 27.9593C64.7853 28.1601 64.9374 28.3457 65.0895 28.5161C65.2478 28.6804 65.4151 28.8325 65.5916 28.9725C65.8228 28.8325 66.0297 28.6804 66.2123 28.5161C66.4009 28.3518 66.5743 28.1662 66.7326 27.9593H64.6331ZM66.2305 33.4816V31.6652H62.3055V33.4999H61.3562V30.8072H67.1981V33.4816H66.2305ZM64.7792 31.9116C64.767 32.0333 64.7457 32.1703 64.7153 32.3224C64.691 32.4745 64.6605 32.6114 64.624 32.7332C64.5449 33.0374 64.4171 33.3113 64.2406 33.5547C64.0642 33.7981 63.8238 34.0171 63.5195 34.2119C63.2153 34.4127 62.841 34.5922 62.3968 34.7504C61.9526 34.9147 61.4232 35.0669 60.8086 35.2068L60.5165 34.3032C61.0337 34.2058 61.481 34.1023 61.8583 33.9928C62.2416 33.8833 62.5642 33.7616 62.8258 33.6277C63.0875 33.4877 63.2913 33.3326 63.4374 33.1622C63.5834 32.9918 63.6838 32.797 63.7386 32.578C63.769 32.4745 63.7934 32.3528 63.8116 32.2129C63.836 32.0729 63.8542 31.9512 63.8664 31.8477L64.7792 31.9116ZM64.98 33.1804C65.4547 33.3386 65.9476 33.5212 66.4587 33.7281C66.9699 33.935 67.475 34.148 67.974 34.367L67.7001 35.2798C67.475 35.1581 67.2346 35.0334 66.979 34.9056C66.7234 34.7778 66.4618 34.6531 66.194 34.5313C65.9324 34.4157 65.6676 34.3062 65.3999 34.2027C65.1321 34.0993 64.8735 34.005 64.624 33.9198L64.98 33.1804ZM70.5423 29.5658H69.6387V27.7493H72.8791C72.8365 27.6094 72.7939 27.4755 72.7513 27.3477C72.7087 27.2138 72.6691 27.0952 72.6326 26.9917L73.6093 26.8548C73.6519 26.9765 73.6975 27.1134 73.7462 27.2655C73.801 27.4177 73.8557 27.5789 73.9105 27.7493H76.8406V29.0455H75.946V28.5343H70.5423V29.5658ZM71.8659 29.0364C71.7807 29.2798 71.6803 29.5201 71.5646 29.7575C71.4551 29.9948 71.3334 30.2291 71.1995 30.4603V35.0973H70.305V31.7839C70.1589 31.9786 70.0099 32.1611 69.8577 32.3315C69.7117 32.5019 69.5626 32.6662 69.4105 32.8244L69.0453 31.8934C69.2279 31.7047 69.4165 31.4887 69.6113 31.2453C69.806 31.0019 69.9946 30.7433 70.1772 30.4694C70.3598 30.1956 70.5271 29.9126 70.6792 29.6205C70.8375 29.3285 70.9652 29.0424 71.0626 28.7625L71.8659 29.0364ZM74.7594 30.0496C74.729 30.1713 74.6955 30.293 74.659 30.4147C74.6286 30.5364 74.5951 30.655 74.5586 30.7707H76.5028V35.0243H75.6266V34.65H72.9886V35.0516H72.1123V30.7707H73.6093C73.6458 30.649 73.6793 30.5303 73.7097 30.4147C73.7462 30.293 73.7797 30.1713 73.8101 30.0496H71.8202V29.2828H77.0596V30.0496H74.7594ZM75.6266 31.51H72.9886V32.3407H75.6266V31.51ZM75.6266 33.9107V33.0709H72.9886V33.9107H75.6266ZM82.7041 29.6936V30.4786H85.7984V31.2636H82.7041V32.0303H85.123V35.079H84.2102V34.7139H80.2396V35.079H79.3268V32.0303H81.773V31.2636H78.6513V30.4786H81.773V29.6936H80.1209V29.2372C79.6097 29.5353 79.0651 29.8061 78.487 30.0496L78.1219 29.155C78.9556 28.8447 79.6767 28.4917 80.2852 28.0962C80.8937 27.6946 81.4171 27.2321 81.8552 26.7087H82.6311C83.051 27.226 83.5804 27.6854 84.2193 28.0871C84.8583 28.4826 85.5611 28.8203 86.3279 29.1003L85.9445 29.9857C85.6707 29.87 85.3999 29.7483 85.1321 29.6205C84.8644 29.4867 84.6027 29.3497 84.3471 29.2098V29.6936H82.7041ZM82.2386 27.5303C82.0438 27.7737 81.8126 28.011 81.5448 28.2422C81.2771 28.4735 80.9789 28.6956 80.6503 28.9086H83.8542C83.5195 28.6956 83.2153 28.4735 82.9414 28.2422C82.6676 28.0049 82.4333 27.7676 82.2386 27.5303ZM84.2102 32.8336H80.2396V33.9198H84.2102V32.8336Z" fill="#3A5A8A"/>
<defs>
<linearGradient id="paint0_linear_674_34003" x1="115.936" y1="-0.181216" x2="25.7053" y2="58.738" gradientUnits="userSpaceOnUse">
<stop offset="0.5" stop-color="#809AF5"/>
<stop offset="0.5" stop-color="#3867E2"/>
</linearGradient>
</defs>
</svg>
