<svg width="133" height="52" viewBox="0 0 133 52" fill="none" xmlns="http://www.w3.org/2000/svg">
<path d="M35.7327 38H10.1234C8.91846 38 8.42552 40.5313 9.48079 41.1129C15.2953 44.3178 20.407 48.71 22.2653 50.3828C22.6827 50.7585 23.3259 50.7478 23.7316 50.3595C25.5166 48.651 30.4263 44.2043 36.3415 40.9712C37.3929 40.3966 36.9309 38 35.7327 38Z" fill="#4573E7"/>
<rect width="132.104" height="45.4013" rx="22.7007" fill="url(#paint0_linear_674_34001)"/>
<rect x="4.86823" y="4.86816" width="122.368" height="35.6649" rx="17.8325" fill="#D6DFF5"/>
<path d="M29.1745 23.2522V17.7267C29.1745 16.6211 29.5417 16.3763 30.5236 16.3763H39.9765C41.3903 16.3763 44.0292 18.2796 44.0292 21.8385C44.0292 22.5756 43.4159 23.1889 42.6788 23.1889H29.1745V23.2522ZM24.5085 23.2522C22.6658 23.2522 21.1325 21.7189 21.1325 19.8157C21.1325 17.9138 22.6067 16.3805 24.5085 16.3805C26.3513 16.3805 27.8846 17.9138 27.8846 19.8157C27.8241 21.7175 26.3513 23.2522 24.5085 23.2522ZM44.0292 26.015V31.1719C44.0292 31.9091 43.4159 32.5224 42.6788 32.5224C42.3217 32.5194 41.9801 32.3762 41.7277 32.1235C41.4753 31.8708 41.3324 31.5291 41.3298 31.1719V28.7173C41.3272 28.3599 41.1841 28.0179 40.9314 27.7652C40.6787 27.5125 40.3367 27.3694 39.9794 27.3668H21.0706C20.7132 27.3694 20.3712 27.5125 20.1185 27.7652C19.8658 28.0179 19.7227 28.3599 19.7201 28.7173V31.1719C19.7201 31.9091 19.1082 32.5224 18.3725 32.5224C18.0152 32.5198 17.6732 32.3767 17.4205 32.124C17.1678 31.8713 17.0247 31.5293 17.0221 31.1719V14.2297C17.0221 13.6769 17.2669 12.8793 18.3725 12.8793C18.3725 12.8793 19.7215 12.8202 19.7215 14.2297V23.2522C19.7215 23.9894 20.3349 24.6027 21.072 24.6027H42.6788C43.2302 24.6027 44.0306 24.7251 44.0306 26.015H44.0292Z" fill="#2566E5"/>
<path d="M61.2036 16.1142H56.871V21.3246H55.6893V16.1142H51.4467V14.9326H55.6893V11.1851L56.871 11.2302V14.9326H61.2036V16.1142ZM72.2475 14.6625H62.5582V13.5259H67.0371C67.0071 13.3683 66.9696 13.192 66.9246 12.997C66.8796 12.7944 66.8346 12.5993 66.7896 12.4118C66.7446 12.2242 66.6995 12.0479 66.6545 11.8829C66.617 11.7178 66.5833 11.5903 66.5532 11.5002L67.7349 11.3652C67.7649 11.4627 67.8024 11.6015 67.8474 11.7816C67.8924 11.9541 67.9374 12.1417 67.9824 12.3443C68.035 12.5468 68.0837 12.7531 68.1287 12.9632C68.1813 13.1733 68.2263 13.3608 68.2638 13.5259H72.2475V14.6625ZM69.2766 15.6078C69.5092 15.9454 69.7643 16.328 70.0418 16.7557C70.3269 17.1833 70.6045 17.6184 70.8746 18.0611C71.1522 18.5037 71.411 18.9351 71.6511 19.3552C71.8987 19.7679 72.105 20.128 72.2701 20.4356L71.2572 21.3246C71.0847 20.9795 70.8709 20.5819 70.6158 20.1317C70.3682 19.6816 70.1056 19.2239 69.828 18.7588C69.5504 18.2936 69.2729 17.8398 68.9953 17.3971C68.7177 16.947 68.4663 16.5568 68.2413 16.2267L69.2766 15.6078ZM62.4795 20.6381C62.757 20.308 63.0346 19.9442 63.3122 19.5465C63.5898 19.1489 63.8561 18.7363 64.1112 18.3086C64.3663 17.881 64.6064 17.4459 64.8314 17.0032C65.0565 16.5606 65.2516 16.1255 65.4166 15.6978L66.5645 16.1367C66.3619 16.6244 66.1369 17.1083 65.8893 17.5884C65.6492 18.0611 65.3941 18.5225 65.124 18.9726C64.854 19.4228 64.5801 19.8504 64.3025 20.2555C64.0249 20.6681 63.7549 21.047 63.4923 21.3921L62.4795 20.6381ZM74.8513 14.775C75.1364 14.5575 75.459 14.2799 75.8191 13.9423C76.1793 13.5972 76.5244 13.2445 76.8545 12.8844H74.0186V11.8266H82.9539V12.8844H78.2949C78.1149 13.087 77.9311 13.2896 77.7435 13.4921C77.5559 13.6947 77.3721 13.886 77.1921 14.0661C77.012 14.2386 76.8395 14.3999 76.6744 14.55C76.5094 14.7 76.3668 14.8275 76.2468 14.9326L80.5794 14.7863C80.3993 14.5912 80.2155 14.4037 80.028 14.2236C79.8479 14.036 79.6641 13.8522 79.4766 13.6722L80.2418 12.9745C81.2021 13.8072 82.0799 14.6737 82.8751 15.574L82.1436 16.5193C82.0386 16.3993 81.9336 16.2793 81.8285 16.1592C81.7235 16.0392 81.6185 15.9191 81.5134 15.7991C81.3334 15.7991 81.0746 15.8066 80.737 15.8216C80.4068 15.8291 80.0317 15.8404 79.6116 15.8554C79.199 15.8629 78.7601 15.8779 78.2949 15.9004C77.8298 15.9154 77.3684 15.9341 76.9107 15.9567C76.4531 15.9717 76.018 15.9904 75.6053 16.0129C75.1927 16.0354 74.8363 16.0579 74.5362 16.0804L74.2774 15.0451C74.435 15.0076 74.555 14.9626 74.6375 14.9101C74.72 14.8576 74.7913 14.8125 74.8513 14.775ZM83.4153 19.9967V21.0208H73.5459V19.9967H77.9348V18.4775H74.48V17.4421H77.9348V16.0917L79.0602 16.1367V17.4421H82.4925V18.4775H79.0602V19.9967H83.4153ZM94.4368 16.1142H90.1041V21.3246H88.9225V16.1142H84.6799V14.9326H88.9225V11.1851L90.1041 11.2302V14.9326H94.4368V16.1142ZM104.839 21.3359C104.209 20.6081 103.68 19.9142 103.253 19.2539C102.825 18.5937 102.476 17.8885 102.206 17.1383C101.936 16.388 101.733 15.5478 101.598 14.6175C101.463 13.6872 101.373 12.5881 101.328 11.3202L102.521 11.3652C102.536 12.1379 102.574 12.8432 102.634 13.4809C102.694 14.1111 102.78 14.6925 102.892 15.2252C103.005 15.7578 103.147 16.2492 103.32 16.6994C103.493 17.1495 103.695 17.5847 103.928 18.0048C104.168 18.4174 104.445 18.8226 104.761 19.2202C105.076 19.6178 105.432 20.0267 105.83 20.4468L104.839 21.3359ZM99.7639 11.5903C99.7264 12.4305 99.6739 13.1808 99.6064 13.841C99.5388 14.5012 99.4488 15.1089 99.3363 15.6641C99.2312 16.2117 99.0962 16.7181 98.9312 17.1833C98.7661 17.6484 98.5635 18.1023 98.3235 18.545C98.0909 18.9876 97.8171 19.434 97.502 19.8841C97.1869 20.3268 96.8267 20.8032 96.4216 21.3134L95.4088 20.4918C95.7914 20.0417 96.1328 19.6178 96.4329 19.2202C96.733 18.8151 96.9918 18.4099 97.2094 18.0048C97.4344 17.5922 97.6257 17.1683 97.7833 16.7332C97.9483 16.298 98.0834 15.8254 98.1884 15.3152C98.2935 14.7975 98.376 14.2311 98.436 13.6159C98.5035 13.0007 98.5523 12.3105 98.5823 11.5453L99.7639 11.5903ZM113.981 16.9357V20.0079C113.981 20.263 113.955 20.4693 113.903 20.6269C113.858 20.7844 113.779 20.9082 113.666 20.9983C113.561 21.0958 113.419 21.1671 113.239 21.2121C113.066 21.2571 112.849 21.2946 112.586 21.3246L111.99 21.3921L111.618 20.3005L112.248 20.233C112.376 20.218 112.481 20.203 112.563 20.188C112.646 20.1655 112.71 20.1355 112.755 20.098C112.8 20.0605 112.83 20.0079 112.845 19.9404C112.867 19.8654 112.879 19.7641 112.879 19.6366V16.9357H110.38L109.874 17.5209C109.769 17.3483 109.653 17.172 109.525 16.992C109.397 16.8119 109.27 16.6394 109.142 16.4743V21.3246H108.107V16.7669C107.957 17.112 107.799 17.4496 107.634 17.7797C107.477 18.1023 107.312 18.4062 107.139 18.6913L106.385 17.9035C106.528 17.6709 106.674 17.4121 106.824 17.127C106.974 16.8344 107.12 16.5306 107.263 16.2155C107.413 15.8929 107.552 15.5665 107.679 15.2364C107.814 14.8988 107.934 14.5725 108.04 14.2574H106.97V13.177H108.107V11.1851L109.142 11.2302V13.177H110.234V14.2574H109.142V15.5515L109.412 15.2589C109.555 15.409 109.713 15.6003 109.885 15.8329C110.065 16.0579 110.23 16.2755 110.38 16.4856L110.392 15.8891C110.452 15.7916 110.519 15.6641 110.594 15.5065C110.677 15.3415 110.759 15.1614 110.842 14.9663C110.932 14.7638 111.022 14.5462 111.112 14.3136C111.202 14.0811 111.292 13.8447 111.382 13.6047H110.369V12.5468H111.753C111.851 12.2467 111.937 11.9729 112.012 11.7253C112.095 11.4702 112.155 11.2564 112.192 11.0839L113.216 11.3314C113.179 11.474 113.126 11.6503 113.059 11.8604C112.991 12.0704 112.916 12.2992 112.834 12.5468H116.333V13.6047H112.462C112.372 13.8522 112.282 14.0961 112.192 14.3361C112.11 14.5762 112.027 14.7975 111.944 15.0001C111.862 15.2027 111.787 15.3827 111.719 15.5403C111.652 15.6903 111.596 15.8066 111.551 15.8891H112.879V14.1111L113.981 14.1561V15.8891H116.221V16.9357H113.981ZM112.125 17.9485C111.862 18.4887 111.566 19.0326 111.236 19.5803C110.905 20.1205 110.579 20.6081 110.256 21.0433L109.379 20.3455C109.544 20.143 109.709 19.9254 109.874 19.6928C110.039 19.4528 110.2 19.2052 110.358 18.9501C110.515 18.695 110.662 18.4362 110.797 18.1736C110.939 17.911 111.067 17.6522 111.179 17.3971L112.125 17.9485ZM115.197 17.4084C115.324 17.5884 115.467 17.8022 115.624 18.0498C115.789 18.2899 115.951 18.5375 116.108 18.7926C116.273 19.0476 116.431 19.3027 116.581 19.5578C116.739 19.8054 116.874 20.0304 116.986 20.233L116.075 20.9307C115.962 20.7132 115.827 20.4731 115.669 20.2105C115.519 19.9404 115.362 19.6703 115.197 19.4002C115.039 19.1302 114.882 18.8751 114.724 18.635C114.574 18.3874 114.443 18.1811 114.33 18.0161L115.197 17.4084Z" fill="#123871"/>
<path d="M57.5465 29.6023C57.8204 29.7362 58.1186 29.8609 58.4411 29.9765C58.7697 30.0861 59.1257 30.1865 59.509 30.2778L59.2261 31.0901C58.8792 30.9867 58.5567 30.8832 58.2585 30.7798C57.9603 30.6763 57.6804 30.5638 57.4188 30.4421L57.7656 31.0627C57.3336 31.3548 56.8711 31.6226 56.3782 31.866C55.8853 32.1033 55.3863 32.3102 54.8812 32.4867L54.5435 31.7382C55.0364 31.58 55.5262 31.3853 56.0131 31.154C56.506 30.9228 56.9532 30.6763 57.3549 30.4147C57.2575 30.366 57.1632 30.3173 57.0719 30.2686C56.9806 30.2199 56.8924 30.1713 56.8072 30.1226C56.4847 30.3173 56.1226 30.5029 55.721 30.6794C55.3254 30.8498 54.8782 31.0141 54.3792 31.1723L54.1966 30.7524V33.5364H53.4572V28.0688L54.1966 28.1053V28.8903C54.5252 28.58 54.8295 28.2301 55.1094 27.8406C55.3893 27.4511 55.6145 27.0708 55.7849 26.6996L56.5516 27.01C56.5212 27.083 56.4877 27.156 56.4512 27.229C56.4147 27.296 56.3782 27.3629 56.3417 27.4298H58.8062V28.151C58.648 28.4187 58.4654 28.6743 58.2585 28.9177C58.0577 29.155 57.8204 29.3832 57.5465 29.6023ZM53.5577 27.01C53.4603 27.369 53.3538 27.7189 53.2382 28.0597C53.1286 28.4004 53.0039 28.7351 52.8639 29.0637V35.0699H52.0698V30.7068C51.9846 30.8528 51.8994 31.0019 51.8142 31.154C51.729 31.3001 51.6378 31.4461 51.5404 31.5922L50.9106 30.9623C51.0688 30.7189 51.2361 30.4329 51.4126 30.1043C51.5952 29.7696 51.7686 29.4167 51.9329 29.0455C52.1033 28.6743 52.2615 28.297 52.4075 27.9136C52.5536 27.5242 52.6692 27.156 52.7544 26.8092L53.5577 27.01ZM55.8944 28.1692C55.8822 28.1814 55.8731 28.1935 55.867 28.2057C55.867 28.2179 55.8609 28.2301 55.8488 28.2422C55.9765 28.4187 56.1195 28.583 56.2778 28.7351C56.436 28.8812 56.6155 29.0242 56.8163 29.1641C57.0232 29.0181 57.2058 28.8629 57.364 28.6986C57.5283 28.5343 57.6743 28.3579 57.8021 28.1692H55.8944ZM54.1966 30.3416C54.58 30.2199 54.9238 30.1013 55.2281 29.9857C55.5384 29.864 55.8214 29.7392 56.077 29.6114C55.9431 29.5019 55.8183 29.3863 55.7027 29.2646C55.5871 29.1428 55.4745 29.012 55.365 28.8721C55.1277 29.152 54.8538 29.4289 54.5435 29.7027L54.1966 29.228V30.3416ZM58.4776 31.9664C57.9786 32.3498 57.4005 32.6966 56.7433 33.007C56.0922 33.3173 55.4137 33.582 54.7078 33.8011L54.3883 33.0983C55.082 32.8853 55.7392 32.6327 56.3599 32.3407C56.9806 32.0425 57.5496 31.7169 58.0668 31.364L58.4776 31.9664ZM53.9958 34.4401C54.9268 34.2088 55.797 33.9137 56.6064 33.5547C57.4218 33.1956 58.152 32.7788 58.7971 32.3041L59.2169 32.9157C58.5902 33.4269 57.866 33.8589 57.0445 34.2119C56.2291 34.5709 55.3254 34.8782 54.3335 35.1338L53.9958 34.4401ZM63.3188 30.4968H62.4243V26.873L63.3188 26.9096V30.4968ZM66.3401 29.438C66.8269 29.6692 67.4598 29.8487 68.2387 29.9765L67.974 30.7889C67.4446 30.6733 66.9852 30.5485 66.5957 30.4147C66.2062 30.2808 65.8533 30.1165 65.5369 29.9218C65.2752 30.0556 64.9922 30.1834 64.688 30.3051C64.3837 30.4268 64.0551 30.5394 63.7022 30.6429L63.337 29.8305C63.8969 29.6844 64.3898 29.5262 64.8158 29.3558C64.6576 29.2098 64.5024 29.0485 64.3502 28.8721C64.2042 28.6895 64.0551 28.4887 63.903 28.2696L64.3594 27.9593H63.62V27.1834H67.7367V27.941C67.4081 28.5069 66.9426 29.0059 66.3401 29.438ZM61.6393 30.3782H60.7812V27.2108L61.6393 27.2473V30.3782ZM64.6332 27.9593C64.7853 28.1601 64.9375 28.3457 65.0896 28.5161C65.2478 28.6804 65.4152 28.8325 65.5916 28.9725C65.8229 28.8325 66.0298 28.6804 66.2123 28.5161C66.401 28.3518 66.5744 28.1662 66.7326 27.9593H64.6332ZM66.2306 33.4816V31.6652H62.3056V33.4999H61.3563V30.8072H67.1981V33.4816H66.2306ZM64.7793 31.9116C64.7671 32.0333 64.7458 32.1703 64.7154 32.3224C64.691 32.4745 64.6606 32.6114 64.6241 32.7332C64.545 33.0374 64.4172 33.3113 64.2407 33.5547C64.0642 33.7981 63.8239 34.0171 63.5196 34.2119C63.2153 34.4127 62.8411 34.5922 62.3969 34.7504C61.9527 34.9147 61.4232 35.0669 60.8086 35.2068L60.5165 34.3032C61.0338 34.2058 61.481 34.1023 61.8583 33.9928C62.2417 33.8833 62.5642 33.7616 62.8259 33.6277C63.0876 33.4877 63.2914 33.3326 63.4375 33.1622C63.5835 32.9918 63.6839 32.797 63.7387 32.578C63.7691 32.4745 63.7934 32.3528 63.8117 32.2129C63.836 32.0729 63.8543 31.9512 63.8665 31.8477L64.7793 31.9116ZM64.9801 33.1804C65.4547 33.3386 65.9476 33.5212 66.4588 33.7281C66.9699 33.935 67.475 34.148 67.974 34.367L67.7002 35.2798C67.475 35.1581 67.2347 35.0334 66.9791 34.9056C66.7235 34.7778 66.4618 34.6531 66.1941 34.5313C65.9324 34.4157 65.6677 34.3062 65.4 34.2027C65.1322 34.0993 64.8736 34.005 64.6241 33.9198L64.9801 33.1804ZM70.5424 29.5658H69.6387V27.7493H72.8791C72.8365 27.6094 72.7939 27.4755 72.7513 27.3477C72.7087 27.2138 72.6692 27.0952 72.6327 26.9917L73.6093 26.8548C73.6519 26.9765 73.6976 27.1134 73.7463 27.2655C73.801 27.4177 73.8558 27.5789 73.9106 27.7493H76.8406V29.0455H75.9461V28.5343H70.5424V29.5658ZM71.8659 29.0364C71.7807 29.2798 71.6803 29.5201 71.5647 29.7575C71.4552 29.9948 71.3335 30.2291 71.1996 30.4603V35.0973H70.3051V31.7839C70.159 31.9786 70.0099 32.1611 69.8578 32.3315C69.7117 32.5019 69.5627 32.6662 69.4105 32.8244L69.0454 31.8934C69.228 31.7047 69.4166 31.4887 69.6113 31.2453C69.8061 31.0019 69.9947 30.7433 70.1773 30.4694C70.3598 30.1956 70.5272 29.9126 70.6793 29.6205C70.8375 29.3285 70.9653 29.0424 71.0627 28.7625L71.8659 29.0364ZM74.7595 30.0496C74.729 30.1713 74.6956 30.293 74.6591 30.4147C74.6286 30.5364 74.5952 30.655 74.5586 30.7707H76.5029V35.0243H75.6266V34.65H72.9887V35.0516H72.1124V30.7707H73.6093C73.6459 30.649 73.6793 30.5303 73.7098 30.4147C73.7463 30.293 73.7797 30.1713 73.8102 30.0496H71.8203V29.2828H77.0597V30.0496H74.7595ZM75.6266 31.51H72.9887V32.3407H75.6266V31.51ZM75.6266 33.9107V33.0709H72.9887V33.9107H75.6266ZM82.7042 29.6936V30.4786H85.7985V31.2636H82.7042V32.0303H85.123V35.079H84.2103V34.7139H80.2396V35.079H79.3268V32.0303H81.7731V31.2636H78.6514V30.4786H81.7731V29.6936H80.121V29.2372C79.6098 29.5353 79.0652 29.8061 78.4871 30.0496L78.122 29.155C78.9556 28.8447 79.6767 28.4917 80.2853 28.0962C80.8938 27.6946 81.4171 27.2321 81.8553 26.7087H82.6311C83.051 27.226 83.5804 27.6854 84.2194 28.0871C84.8583 28.4826 85.5612 28.8203 86.3279 29.1003L85.9446 29.9857C85.6707 29.87 85.3999 29.7483 85.1322 29.6205C84.8644 29.4867 84.6028 29.3497 84.3472 29.2098V29.6936H82.7042ZM82.2386 27.5303C82.0439 27.7737 81.8127 28.011 81.5449 28.2422C81.2772 28.4735 80.979 28.6956 80.6504 28.9086H83.8543C83.5196 28.6956 83.2153 28.4735 82.9415 28.2422C82.6676 28.0049 82.4334 27.7676 82.2386 27.5303ZM84.2103 32.8336H80.2396V33.9198H84.2103V32.8336Z" fill="#3A5A8A"/>
<defs>
<linearGradient id="paint0_linear_674_34001" x1="115.936" y1="-0.181216" x2="25.7053" y2="58.738" gradientUnits="userSpaceOnUse">
<stop offset="0.5" stop-color="#809AF5"/>
<stop offset="0.5" stop-color="#3867E2"/>
</linearGradient>
</defs>
</svg>
