<svg width="111" height="52" viewBox="0 0 111 52" fill="none" xmlns="http://www.w3.org/2000/svg">
<path d="M35.7327 38H10.1234C8.91846 38 8.42552 40.5313 9.48079 41.1129C15.2953 44.3178 20.407 48.71 22.2653 50.3828C22.6827 50.7585 23.3259 50.7478 23.7316 50.3595C25.5166 48.651 30.4263 44.2043 36.3415 40.9712C37.3929 40.3966 36.9309 38 35.7327 38Z" fill="#4573E7"/>
<rect width="110.104" height="45.4013" rx="22.7007" fill="url(#paint0_linear_674_34002)"/>
<rect x="4.86823" y="4.86816" width="100.368" height="35.6649" rx="17.8325" fill="#D6DFF5"/>
<path d="M29.1745 23.2522V17.7267C29.1745 16.6211 29.5417 16.3763 30.5236 16.3763H39.9765C41.3903 16.3763 44.0292 18.2796 44.0292 21.8385C44.0292 22.5756 43.4159 23.1889 42.6788 23.1889H29.1745V23.2522ZM24.5085 23.2522C22.6658 23.2522 21.1325 21.7189 21.1325 19.8157C21.1325 17.9138 22.6067 16.3805 24.5085 16.3805C26.3513 16.3805 27.8846 17.9138 27.8846 19.8157C27.8241 21.7175 26.3513 23.2522 24.5085 23.2522ZM44.0292 26.015V31.1719C44.0292 31.9091 43.4159 32.5224 42.6788 32.5224C42.3217 32.5194 41.9801 32.3762 41.7277 32.1235C41.4753 31.8708 41.3324 31.5291 41.3298 31.1719V28.7173C41.3272 28.3599 41.1841 28.0179 40.9314 27.7652C40.6787 27.5125 40.3367 27.3694 39.9794 27.3668H21.0706C20.7132 27.3694 20.3712 27.5125 20.1185 27.7652C19.8658 28.0179 19.7227 28.3599 19.7201 28.7173V31.1719C19.7201 31.9091 19.1082 32.5224 18.3725 32.5224C18.0152 32.5198 17.6732 32.3767 17.4205 32.124C17.1678 31.8713 17.0247 31.5293 17.0221 31.1719V14.2297C17.0221 13.6769 17.2669 12.8793 18.3725 12.8793C18.3725 12.8793 19.7215 12.8202 19.7215 14.2297V23.2522C19.7215 23.9894 20.3349 24.6027 21.072 24.6027H42.6788C43.2302 24.6027 44.0306 24.7251 44.0306 26.015H44.0292Z" fill="#2566E5"/>
<path d="M61.1698 14.6625H51.4805V13.5259H55.9594C55.9294 13.3683 55.8919 13.192 55.8469 12.997C55.8019 12.7944 55.7569 12.5993 55.7118 12.4118C55.6668 12.2242 55.6218 12.0479 55.5768 11.8829C55.5393 11.7178 55.5055 11.5903 55.4755 11.5002L56.6571 11.3652C56.6871 11.4627 56.7247 11.6015 56.7697 11.7816C56.8147 11.9541 56.8597 12.1417 56.9047 12.3443C56.9572 12.5468 57.006 12.7531 57.051 12.9632C57.1035 13.1733 57.1485 13.3608 57.1861 13.5259H61.1698V14.6625ZM58.1989 15.6078C58.4314 15.9454 58.6865 16.328 58.9641 16.7557C59.2492 17.1833 59.5268 17.6184 59.7969 18.0611C60.0745 18.5037 60.3333 18.9351 60.5734 19.3552C60.821 19.7679 61.0273 20.128 61.1923 20.4356L60.1795 21.3246C60.0069 20.9795 59.7931 20.5819 59.538 20.1317C59.2905 19.6816 59.0279 19.2239 58.7503 18.7588C58.4727 18.2936 58.1951 17.8398 57.9175 17.3971C57.6399 16.947 57.3886 16.5568 57.1635 16.2267L58.1989 15.6078ZM51.4017 20.6381C51.6793 20.308 51.9569 19.9442 52.2345 19.5465C52.5121 19.1489 52.7784 18.7363 53.0335 18.3086C53.2886 17.881 53.5286 17.4459 53.7537 17.0032C53.9788 16.5606 54.1739 16.1255 54.3389 15.6978L55.4868 16.1367C55.2842 16.6244 55.0591 17.1083 54.8116 17.5884C54.5715 18.0611 54.3164 18.5225 54.0463 18.9726C53.7762 19.4228 53.5024 19.8504 53.2248 20.2555C52.9472 20.6681 52.6771 21.047 52.4145 21.3921L51.4017 20.6381ZM63.7736 14.775C64.0587 14.5575 64.3813 14.2799 64.7414 13.9423C65.1015 13.5972 65.4466 13.2445 65.7767 12.8844H62.9408V11.8266H71.8762V12.8844H67.2172C67.0371 13.087 66.8533 13.2896 66.6658 13.4921C66.4782 13.6947 66.2944 13.886 66.1144 14.0661C65.9343 14.2386 65.7617 14.3999 65.5967 14.55C65.4316 14.7 65.2891 14.8275 65.1691 14.9326L69.5017 14.7863C69.3216 14.5912 69.1378 14.4037 68.9503 14.2236C68.7702 14.036 68.5864 13.8522 68.3988 13.6722L69.1641 12.9745C70.1244 13.8072 71.0022 14.6737 71.7974 15.574L71.0659 16.5193C70.9609 16.3993 70.8559 16.2793 70.7508 16.1592C70.6458 16.0392 70.5408 15.9191 70.4357 15.7991C70.2557 15.7991 69.9968 15.8066 69.6592 15.8216C69.3291 15.8291 68.954 15.8404 68.5339 15.8554C68.1212 15.8629 67.6823 15.8779 67.2172 15.9004C66.7521 15.9154 66.2907 15.9341 65.833 15.9567C65.3754 15.9717 64.9402 15.9904 64.5276 16.0129C64.115 16.0354 63.7586 16.0579 63.4585 16.0804L63.1997 15.0451C63.3572 15.0076 63.4773 14.9626 63.5598 14.9101C63.6423 14.8576 63.7136 14.8125 63.7736 14.775ZM72.3376 19.9967V21.0208H62.4682V19.9967H66.8571V18.4775H63.4022V17.4421H66.8571V16.0917L67.9824 16.1367V17.4421H71.4148V18.4775H67.9824V19.9967H72.3376ZM82.6838 21.3359C82.0536 20.6081 81.5247 19.9142 81.0971 19.2539C80.6694 18.5937 80.3206 17.8885 80.0505 17.1383C79.7804 16.388 79.5778 15.5478 79.4428 14.6175C79.3078 13.6872 79.2177 12.5881 79.1727 11.3202L80.3656 11.3652C80.3806 12.1379 80.4181 12.8432 80.4781 13.4809C80.5381 14.1111 80.6244 14.6925 80.737 15.2252C80.8495 15.7578 80.992 16.2492 81.1646 16.6994C81.3371 17.1495 81.5397 17.5847 81.7723 18.0048C82.0124 18.4174 82.2899 18.8226 82.605 19.2202C82.9201 19.6178 83.2765 20.0267 83.6741 20.4468L82.6838 21.3359ZM77.6085 11.5903C77.571 12.4305 77.5184 13.1808 77.4509 13.841C77.3834 14.5012 77.2934 15.1089 77.1808 15.6641C77.0758 16.2117 76.9408 16.7181 76.7757 17.1833C76.6106 17.6484 76.4081 18.1023 76.168 18.545C75.9354 18.9876 75.6616 19.434 75.3465 19.8841C75.0314 20.3268 74.6713 20.8032 74.2662 21.3134L73.2533 20.4918C73.636 20.0417 73.9773 19.6178 74.2774 19.2202C74.5775 18.8151 74.8363 18.4099 75.0539 18.0048C75.279 17.5922 75.4703 17.1683 75.6278 16.7332C75.7929 16.298 75.9279 15.8254 76.033 15.3152C76.138 14.7975 76.2205 14.2311 76.2805 13.6159C76.3481 13.0007 76.3968 12.3105 76.4268 11.5453L77.6085 11.5903ZM91.8259 16.9357V20.0079C91.8259 20.263 91.7997 20.4693 91.7472 20.6269C91.7021 20.7844 91.6234 20.9082 91.5108 20.9983C91.4058 21.0958 91.2633 21.1671 91.0832 21.2121C90.9106 21.2571 90.6931 21.2946 90.4305 21.3246L89.8341 21.3921L89.4627 20.3005L90.0929 20.233C90.2204 20.218 90.3255 20.203 90.408 20.188C90.4905 20.1655 90.5543 20.1355 90.5993 20.098C90.6443 20.0605 90.6743 20.0079 90.6893 19.9404C90.7118 19.8654 90.7231 19.7641 90.7231 19.6366V16.9357H88.2248L87.7184 17.5209C87.6134 17.3483 87.4971 17.172 87.3695 16.992C87.242 16.8119 87.1144 16.6394 86.9869 16.4743V21.3246H85.9516V16.7669C85.8015 17.112 85.644 17.4496 85.4789 17.7797C85.3214 18.1023 85.1563 18.4062 84.9838 18.6913L84.2298 17.9035C84.3723 17.6709 84.5186 17.4121 84.6687 17.127C84.8187 16.8344 84.965 16.5306 85.1076 16.2155C85.2576 15.8929 85.3964 15.5665 85.5239 15.2364C85.659 14.8988 85.779 14.5725 85.8841 14.2574H84.815V13.177H85.9516V11.1851L86.9869 11.2302V13.177H88.0785V14.2574H86.9869V15.5515L87.257 15.2589C87.3995 15.409 87.5571 15.6003 87.7296 15.8329C87.9097 16.0579 88.0747 16.2755 88.2248 16.4856L88.236 15.8891C88.2961 15.7916 88.3636 15.6641 88.4386 15.5065C88.5211 15.3415 88.6037 15.1614 88.6862 14.9663C88.7762 14.7638 88.8662 14.5462 88.9563 14.3136C89.0463 14.0811 89.1363 13.8447 89.2264 13.6047H88.2135V12.5468H89.5977C89.6953 12.2467 89.7815 11.9729 89.8566 11.7253C89.9391 11.4702 89.9991 11.2564 90.0366 11.0839L91.0607 11.3314C91.0232 11.474 90.9707 11.6503 90.9031 11.8604C90.8356 12.0704 90.7606 12.2992 90.6781 12.5468H94.1779V13.6047H90.3067C90.2167 13.8522 90.1266 14.0961 90.0366 14.3361C89.9541 14.5762 89.8716 14.7975 89.789 15.0001C89.7065 15.2027 89.6315 15.3827 89.564 15.5403C89.4964 15.6903 89.4402 15.8066 89.3952 15.8891H90.7231V14.1111L91.8259 14.1561V15.8891H94.0654V16.9357H91.8259ZM89.9691 17.9485C89.7065 18.4887 89.4102 19.0326 89.0801 19.5803C88.75 20.1205 88.4236 20.6081 88.101 21.0433L87.2232 20.3455C87.3883 20.143 87.5533 19.9254 87.7184 19.6928C87.8834 19.4528 88.0447 19.2052 88.2023 18.9501C88.3598 18.695 88.5061 18.4362 88.6412 18.1736C88.7837 17.911 88.9113 17.6522 89.0238 17.3971L89.9691 17.9485ZM93.0413 17.4084C93.1689 17.5884 93.3114 17.8022 93.469 18.0498C93.634 18.2899 93.7953 18.5375 93.9529 18.7926C94.1179 19.0476 94.2755 19.3027 94.4255 19.5578C94.5831 19.8054 94.7181 20.0304 94.8306 20.233L93.9191 20.9307C93.8066 20.7132 93.6715 20.4731 93.514 20.2105C93.3639 19.9404 93.2064 19.6703 93.0413 19.4002C92.8838 19.1302 92.7262 18.8751 92.5687 18.635C92.4186 18.3874 92.2873 18.1811 92.1748 18.0161L93.0413 17.4084Z" fill="#123871"/>
<path d="M57.5465 29.6022C57.8204 29.7361 58.1186 29.8608 58.4411 29.9765C58.7697 30.086 59.1257 30.1864 59.509 30.2777L59.2261 31.0901C58.8792 30.9866 58.5567 30.8832 58.2585 30.7797C57.9603 30.6763 57.6804 30.5637 57.4188 30.442L57.7656 31.0627C57.3336 31.3548 56.8711 31.6225 56.3782 31.8659C55.8853 32.1033 55.3863 32.3102 54.8812 32.4866L54.5435 31.7382C55.0364 31.5799 55.5262 31.3852 56.0131 31.154C56.506 30.9227 56.9532 30.6763 57.3549 30.4146C57.2575 30.3659 57.1632 30.3172 57.0719 30.2686C56.9806 30.2199 56.8924 30.1712 56.8072 30.1225C56.4847 30.3172 56.1226 30.5028 55.721 30.6793C55.3254 30.8497 54.8782 31.014 54.3792 31.1722L54.1966 30.7523V33.5363H53.4572V28.0687L54.1966 28.1053V28.8903C54.5252 28.5799 54.8295 28.23 55.1094 27.8405C55.3893 27.4511 55.6145 27.0708 55.7849 26.6996L56.5516 27.0099C56.5212 27.0829 56.4877 27.156 56.4512 27.229C56.4147 27.2959 56.3782 27.3628 56.3417 27.4298H58.8062V28.1509C58.648 28.4186 58.4654 28.6742 58.2585 28.9176C58.0577 29.155 57.8204 29.3832 57.5465 29.6022ZM53.5577 27.0099C53.4603 27.3689 53.3538 27.7188 53.2382 28.0596C53.1286 28.4004 53.0039 28.7351 52.8639 29.0637V35.0698H52.0698V30.7067C51.9846 30.8527 51.8994 31.0018 51.8142 31.154C51.729 31.3 51.6378 31.4461 51.5404 31.5921L50.9106 30.9623C51.0688 30.7189 51.2361 30.4329 51.4126 30.1043C51.5952 29.7696 51.7686 29.4166 51.9329 29.0454C52.1033 28.6742 52.2615 28.2969 52.4075 27.9136C52.5536 27.5241 52.6692 27.156 52.7544 26.8091L53.5577 27.0099ZM55.8944 28.1691C55.8822 28.1813 55.8731 28.1935 55.867 28.2057C55.867 28.2178 55.8609 28.23 55.8488 28.2422C55.9765 28.4186 56.1195 28.5829 56.2778 28.7351C56.436 28.8811 56.6155 29.0241 56.8163 29.1641C57.0232 29.018 57.2058 28.8629 57.364 28.6986C57.5283 28.5343 57.6743 28.3578 57.8021 28.1691H55.8944ZM54.1966 30.3416C54.58 30.2199 54.9238 30.1012 55.2281 29.9856C55.5384 29.8639 55.8214 29.7391 56.077 29.6114C55.9431 29.5018 55.8183 29.3862 55.7027 29.2645C55.5871 29.1428 55.4745 29.012 55.365 28.872C55.1277 29.1519 54.8538 29.4288 54.5435 29.7026L54.1966 29.228V30.3416ZM58.4776 31.9663C57.9786 32.3497 57.4005 32.6966 56.7433 33.0069C56.0922 33.3173 55.4137 33.582 54.7078 33.8011L54.3883 33.0982C55.082 32.8852 55.7392 32.6327 56.3599 32.3406C56.9806 32.0424 57.5496 31.7169 58.0668 31.3639L58.4776 31.9663ZM53.9958 34.44C54.9268 34.2088 55.797 33.9136 56.6064 33.5546C57.4218 33.1956 58.152 32.7787 58.7971 32.3041L59.2169 32.9157C58.5902 33.4268 57.866 33.8589 57.0445 34.2118C56.2291 34.5708 55.3254 34.8781 54.3335 35.1337L53.9958 34.44ZM63.3188 30.4968H62.4243V26.873L63.3188 26.9095V30.4968ZM66.3401 29.4379C66.8269 29.6692 67.4598 29.8487 68.2387 29.9765L67.974 30.7889C67.4446 30.6732 66.9852 30.5485 66.5957 30.4146C66.2062 30.2807 65.8533 30.1164 65.5369 29.9217C65.2752 30.0556 64.9922 30.1834 64.688 30.3051C64.3837 30.4268 64.0551 30.5394 63.7022 30.6428L63.337 29.8304C63.8969 29.6844 64.3898 29.5262 64.8158 29.3558C64.6576 29.2097 64.5024 29.0485 64.3502 28.872C64.2042 28.6894 64.0551 28.4886 63.903 28.2696L64.3594 27.9592H63.62V27.1833H67.7367V27.9409C67.4081 28.5069 66.9426 29.0059 66.3401 29.4379ZM61.6393 30.3781H60.7812V27.2107L61.6393 27.2472V30.3781ZM64.6332 27.9592C64.7853 28.16 64.9375 28.3456 65.0896 28.516C65.2478 28.6803 65.4152 28.8324 65.5916 28.9724C65.8229 28.8324 66.0298 28.6803 66.2123 28.516C66.401 28.3517 66.5744 28.1661 66.7326 27.9592H64.6332ZM66.2306 33.4816V31.6651H62.3056V33.4998H61.3563V30.8071H67.1981V33.4816H66.2306ZM64.7793 31.9116C64.7671 32.0333 64.7458 32.1702 64.7154 32.3223C64.691 32.4745 64.6606 32.6114 64.6241 32.7331C64.545 33.0374 64.4172 33.3112 64.2407 33.5546C64.0642 33.798 63.8239 34.0171 63.5196 34.2118C63.2153 34.4126 62.8411 34.5921 62.3969 34.7504C61.9527 34.9147 61.4232 35.0668 60.8086 35.2068L60.5165 34.3031C61.0338 34.2057 61.481 34.1023 61.8583 33.9927C62.2417 33.8832 62.5642 33.7615 62.8259 33.6276C63.0876 33.4877 63.2914 33.3325 63.4375 33.1621C63.5835 32.9917 63.6839 32.797 63.7387 32.5779C63.7691 32.4745 63.7934 32.3528 63.8117 32.2128C63.836 32.0728 63.8543 31.9511 63.8665 31.8477L64.7793 31.9116ZM64.9801 33.1804C65.4547 33.3386 65.9476 33.5211 66.4588 33.728C66.9699 33.9349 67.475 34.1479 67.974 34.367L67.7002 35.2798C67.475 35.1581 67.2347 35.0333 66.9791 34.9055C66.7235 34.7777 66.4618 34.653 66.1941 34.5313C65.9324 34.4157 65.6677 34.3061 65.4 34.2027C65.1322 34.0992 64.8736 34.0049 64.6241 33.9197L64.9801 33.1804ZM70.5424 29.5657H69.6387V27.7493H72.8791C72.8365 27.6093 72.7939 27.4754 72.7513 27.3476C72.7087 27.2138 72.6692 27.0951 72.6327 26.9916L73.6093 26.8547C73.6519 26.9764 73.6976 27.1134 73.7463 27.2655C73.801 27.4176 73.8558 27.5789 73.9106 27.7493H76.8406V29.0454H75.9461V28.5343H70.5424V29.5657ZM71.8659 29.0363C71.7807 29.2797 71.6803 29.5201 71.5647 29.7574C71.4552 29.9947 71.3335 30.229 71.1996 30.4602V35.0972H70.3051V31.7838C70.159 31.9785 70.0099 32.1611 69.8578 32.3315C69.7117 32.5019 69.5627 32.6662 69.4105 32.8244L69.0454 31.8933C69.228 31.7047 69.4166 31.4887 69.6113 31.2452C69.8061 31.0018 69.9947 30.7432 70.1773 30.4694C70.3598 30.1955 70.5272 29.9126 70.6793 29.6205C70.8375 29.3284 70.9653 29.0424 71.0627 28.7625L71.8659 29.0363ZM74.7595 30.0495C74.729 30.1712 74.6956 30.2929 74.6591 30.4146C74.6286 30.5363 74.5952 30.655 74.5586 30.7706H76.5029V35.0242H75.6266V34.6499H72.9887V35.0516H72.1124V30.7706H73.6093C73.6459 30.6489 73.6793 30.5302 73.7098 30.4146C73.7463 30.2929 73.7797 30.1712 73.8102 30.0495H71.8203V29.2827H77.0597V30.0495H74.7595ZM75.6266 31.51H72.9887V32.3406H75.6266V31.51ZM75.6266 33.9106V33.0708H72.9887V33.9106H75.6266ZM82.7042 29.6935V30.4785H85.7985V31.2635H82.7042V32.0302H85.123V35.079H84.2103V34.7138H80.2396V35.079H79.3268V32.0302H81.7731V31.2635H78.6514V30.4785H81.7731V29.6935H80.121V29.2371C79.6098 29.5353 79.0652 29.8061 78.4871 30.0495L78.122 29.155C78.9556 28.8446 79.6767 28.4917 80.2853 28.0961C80.8938 27.6945 81.4171 27.232 81.8553 26.7087H82.6311C83.051 27.2259 83.5804 27.6854 84.2194 28.087C84.8583 28.4825 85.5612 28.8203 86.3279 29.1002L85.9446 29.9856C85.6707 29.87 85.3999 29.7483 85.1322 29.6205C84.8644 29.4866 84.6028 29.3497 84.3472 29.2097V29.6935H82.7042ZM82.2386 27.5302C82.0439 27.7736 81.8127 28.0109 81.5449 28.2422C81.2772 28.4734 80.979 28.6955 80.6504 28.9085H83.8543C83.5196 28.6955 83.2153 28.4734 82.9415 28.2422C82.6676 28.0048 82.4334 27.7675 82.2386 27.5302ZM84.2103 32.8335H80.2396V33.9197H84.2103V32.8335Z" fill="#3A5A8A"/>
<defs>
<linearGradient id="paint0_linear_674_34002" x1="96.6287" y1="-0.181216" x2="13.8708" y2="44.8587" gradientUnits="userSpaceOnUse">
<stop offset="0.5" stop-color="#809AF5"/>
<stop offset="0.5" stop-color="#3867E2"/>
</linearGradient>
</defs>
</svg>
