<svg width="102" height="53" viewBox="0 0 102 53" fill="none" xmlns="http://www.w3.org/2000/svg">
<path d="M89.7327 39H64.1234C62.9185 39 62.4255 41.5313 63.4808 42.1129C69.2953 45.3178 74.407 49.71 76.2653 51.3828C76.6827 51.7585 77.3259 51.7478 77.7316 51.3595C79.5166 49.651 84.4263 45.2043 90.3415 41.9712C91.3929 41.3966 90.9309 39 89.7327 39Z" fill="#4573E7"/>
<rect width="101.104" height="45.4013" rx="22.7007" fill="url(#paint0_linear_674_34000)"/>
<rect x="4.86823" y="4.86823" width="91.3675" height="35.6649" rx="17.8325" fill="#D6DFF5"/>
<path d="M29.1745 23.2523V17.7268C29.1745 16.6211 29.5417 16.3764 30.5236 16.3764H39.9765C41.3903 16.3764 44.0292 18.2796 44.0292 21.8386C44.0292 22.5757 43.4159 23.189 42.6788 23.189H29.1745V23.2523ZM24.5085 23.2523C22.6658 23.2523 21.1325 21.719 21.1325 19.8157C21.1325 17.9139 22.6067 16.3806 24.5085 16.3806C26.3513 16.3806 27.8846 17.9139 27.8846 19.8157C27.8241 21.7176 26.3513 23.2523 24.5085 23.2523ZM44.0292 26.0151V31.172C44.0292 31.9091 43.4159 32.5224 42.6788 32.5224C42.3217 32.5195 41.9801 32.3762 41.7277 32.1236C41.4753 31.8709 41.3324 31.5291 41.3298 31.172V28.7173C41.3272 28.36 41.1841 28.018 40.9314 27.7653C40.6787 27.5126 40.3367 27.3695 39.9794 27.3669H21.0706C20.7132 27.3695 20.3712 27.5126 20.1185 27.7653C19.8658 28.018 19.7227 28.36 19.7201 28.7173V31.172C19.7201 31.9091 19.1082 32.5224 18.3725 32.5224C18.0152 32.5199 17.6732 32.3768 17.4205 32.1241C17.1678 31.8714 17.0247 31.5294 17.0221 31.172V14.2297C17.0221 13.6769 17.2669 12.8793 18.3725 12.8793C18.3725 12.8793 19.7215 12.8202 19.7215 14.2297V23.2523C19.7215 23.9894 20.3349 24.6027 21.072 24.6027H42.6788C43.2302 24.6027 44.0306 24.7251 44.0306 26.0151H44.0292Z" fill="#2566E5"/>
<path d="M61.2711 19.6704V20.7282H51.3792V19.6704H53.6524L54.2376 16.2381H52.1895V15.1465H54.4177L54.8003 12.9183H51.9644V11.8154H60.7647V12.9183H55.9932L55.6106 15.1465H59.5943L59.4368 19.6704H61.2711ZM54.8228 19.6704H58.2551L58.3902 16.2381H55.4192L54.8228 19.6704ZM69.6705 16.9358V20.008C69.6705 20.2631 69.6442 20.4694 69.5917 20.6269C69.5467 20.7845 69.4679 20.9083 69.3554 20.9983C69.2503 21.0958 69.1078 21.1671 68.9277 21.2121C68.7552 21.2571 68.5376 21.2947 68.275 21.3247L67.6786 21.3922L67.3072 20.3006L67.9374 20.2331C68.065 20.2181 68.17 20.2031 68.2525 20.1881C68.3351 20.1655 68.3988 20.1355 68.4438 20.098C68.4889 20.0605 68.5189 20.008 68.5339 19.9405C68.5564 19.8655 68.5676 19.7642 68.5676 19.6366V16.9358H66.0693L65.5629 17.521C65.4579 17.3484 65.3416 17.1721 65.2141 16.992C65.0865 16.812 64.959 16.6394 64.8314 16.4744V21.3247H63.7961V16.767C63.6461 17.1121 63.4885 17.4497 63.3235 17.7798C63.1659 18.1024 63.0009 18.4062 62.8283 18.6913L62.0743 17.9036C62.2169 17.671 62.3632 17.4122 62.5132 17.1271C62.6633 16.8345 62.8096 16.5306 62.9521 16.2155C63.1021 15.8929 63.2409 15.5666 63.3685 15.2365C63.5035 14.8989 63.6236 14.5725 63.7286 14.2574H62.6595V13.1771H63.7961V11.1852L64.8314 11.2302V13.1771H65.923V14.2574H64.8314V15.5516L65.1015 15.259C65.2441 15.409 65.4016 15.6004 65.5742 15.8329C65.7542 16.058 65.9193 16.2756 66.0693 16.4856L66.0806 15.8892C66.1406 15.7917 66.2081 15.6641 66.2832 15.5066C66.3657 15.3415 66.4482 15.1615 66.5307 14.9664C66.6208 14.7638 66.7108 14.5463 66.8008 14.3137C66.8908 14.0811 66.9809 13.8448 67.0709 13.6047H66.0581V12.5469H67.4423C67.5398 12.2468 67.6261 11.973 67.7011 11.7254C67.7836 11.4703 67.8436 11.2565 67.8812 11.0839L68.9052 11.3315C68.8677 11.474 68.8152 11.6504 68.7477 11.8604C68.6802 12.0705 68.6051 12.2993 68.5226 12.5469H72.0225V13.6047H68.1512C68.0612 13.8523 67.9712 14.0961 67.8812 14.3362C67.7986 14.5763 67.7161 14.7976 67.6336 15.0002C67.5511 15.2027 67.476 15.3828 67.4085 15.5403C67.341 15.6904 67.2847 15.8067 67.2397 15.8892H68.5676V14.1111L69.6705 14.1561V15.8892H71.9099V16.9358H69.6705ZM67.8136 17.9486C67.5511 18.4888 67.2547 19.0327 66.9246 19.5804C66.5945 20.1205 66.2682 20.6082 65.9455 21.0433L65.0678 20.3456C65.2328 20.143 65.3979 19.9255 65.5629 19.6929C65.728 19.4528 65.8893 19.2052 66.0468 18.9502C66.2044 18.6951 66.3507 18.4363 66.4857 18.1737C66.6283 17.9111 66.7558 17.6523 66.8683 17.3972L67.8136 17.9486ZM70.8859 17.4084C71.0134 17.5885 71.1559 17.8023 71.3135 18.0499C71.4786 18.29 71.6399 18.5375 71.7974 18.7926C71.9625 19.0477 72.12 19.3028 72.2701 19.5579C72.4276 19.8054 72.5626 20.0305 72.6752 20.2331L71.7636 20.9308C71.6511 20.7132 71.5161 20.4731 71.3585 20.2106C71.2085 19.9405 71.0509 19.6704 70.8859 19.4003C70.7283 19.1302 70.5708 18.8751 70.4132 18.6351C70.2632 18.3875 70.1319 18.1812 70.0193 18.0161L70.8859 17.4084Z" fill="#123871"/>
<path d="M57.5465 29.6023C57.8204 29.7362 58.1186 29.8609 58.4411 29.9765C58.7697 30.0861 59.1257 30.1865 59.509 30.2778L59.2261 31.0901C58.8792 30.9867 58.5567 30.8832 58.2585 30.7798C57.9603 30.6763 57.6804 30.5638 57.4188 30.4421L57.7656 31.0627C57.3336 31.3548 56.8711 31.6226 56.3782 31.866C55.8853 32.1033 55.3863 32.3102 54.8812 32.4867L54.5435 31.7382C55.0364 31.58 55.5262 31.3853 56.0131 31.154C56.506 30.9228 56.9532 30.6763 57.3549 30.4147C57.2575 30.366 57.1632 30.3173 57.0719 30.2686C56.9806 30.2199 56.8924 30.1713 56.8072 30.1226C56.4847 30.3173 56.1226 30.5029 55.721 30.6794C55.3254 30.8498 54.8782 31.0141 54.3792 31.1723L54.1966 30.7524V33.5364H53.4572V28.0688L54.1966 28.1053V28.8903C54.5252 28.58 54.8295 28.2301 55.1094 27.8406C55.3893 27.4511 55.6145 27.0708 55.7849 26.6996L56.5516 27.01C56.5212 27.083 56.4877 27.156 56.4512 27.229C56.4147 27.296 56.3782 27.3629 56.3417 27.4298H58.8062V28.151C58.648 28.4187 58.4654 28.6743 58.2585 28.9177C58.0577 29.155 57.8204 29.3832 57.5465 29.6023ZM53.5577 27.01C53.4603 27.369 53.3538 27.7189 53.2382 28.0597C53.1286 28.4004 53.0039 28.7351 52.8639 29.0637V35.0699H52.0698V30.7068C51.9846 30.8528 51.8994 31.0019 51.8142 31.154C51.729 31.3001 51.6378 31.4461 51.5404 31.5922L50.9106 30.9623C51.0688 30.7189 51.2361 30.4329 51.4126 30.1043C51.5952 29.7696 51.7686 29.4167 51.9329 29.0455C52.1033 28.6743 52.2615 28.297 52.4075 27.9136C52.5536 27.5242 52.6692 27.156 52.7544 26.8092L53.5577 27.01ZM55.8944 28.1692C55.8822 28.1814 55.8731 28.1935 55.867 28.2057C55.867 28.2179 55.8609 28.2301 55.8488 28.2422C55.9765 28.4187 56.1195 28.583 56.2778 28.7351C56.436 28.8812 56.6155 29.0242 56.8163 29.1641C57.0232 29.0181 57.2058 28.8629 57.364 28.6986C57.5283 28.5343 57.6743 28.3579 57.8021 28.1692H55.8944ZM54.1966 30.3416C54.58 30.2199 54.9238 30.1013 55.2281 29.9857C55.5384 29.864 55.8214 29.7392 56.077 29.6114C55.9431 29.5019 55.8183 29.3863 55.7027 29.2646C55.5871 29.1428 55.4745 29.012 55.365 28.8721C55.1277 29.152 54.8538 29.4289 54.5435 29.7027L54.1966 29.228V30.3416ZM58.4776 31.9664C57.9786 32.3498 57.4005 32.6966 56.7433 33.007C56.0922 33.3173 55.4137 33.582 54.7078 33.8011L54.3883 33.0983C55.082 32.8853 55.7392 32.6327 56.3599 32.3407C56.9806 32.0425 57.5496 31.7169 58.0668 31.364L58.4776 31.9664ZM53.9958 34.4401C54.9268 34.2088 55.797 33.9137 56.6064 33.5547C57.4218 33.1956 58.152 32.7788 58.7971 32.3041L59.2169 32.9157C58.5902 33.4269 57.866 33.8589 57.0445 34.2119C56.2291 34.5709 55.3254 34.8782 54.3335 35.1338L53.9958 34.4401ZM63.3188 30.4968H62.4243V26.873L63.3188 26.9096V30.4968ZM66.3401 29.438C66.8269 29.6692 67.4598 29.8487 68.2387 29.9765L67.974 30.7889C67.4446 30.6733 66.9852 30.5485 66.5957 30.4147C66.2062 30.2808 65.8533 30.1165 65.5369 29.9218C65.2752 30.0556 64.9922 30.1834 64.688 30.3051C64.3837 30.4268 64.0551 30.5394 63.7022 30.6429L63.337 29.8305C63.8969 29.6844 64.3898 29.5262 64.8158 29.3558C64.6576 29.2098 64.5024 29.0485 64.3502 28.8721C64.2042 28.6895 64.0551 28.4887 63.903 28.2696L64.3594 27.9593H63.62V27.1834H67.7367V27.941C67.4081 28.5069 66.9426 29.0059 66.3401 29.438ZM61.6393 30.3782H60.7812V27.2108L61.6393 27.2473V30.3782ZM64.6332 27.9593C64.7853 28.1601 64.9375 28.3457 65.0896 28.5161C65.2478 28.6804 65.4152 28.8325 65.5916 28.9725C65.8229 28.8325 66.0298 28.6804 66.2123 28.5161C66.401 28.3518 66.5744 28.1662 66.7326 27.9593H64.6332ZM66.2306 33.4816V31.6652H62.3056V33.4999H61.3563V30.8072H67.1981V33.4816H66.2306ZM64.7793 31.9116C64.7671 32.0333 64.7458 32.1703 64.7154 32.3224C64.691 32.4745 64.6606 32.6114 64.6241 32.7332C64.545 33.0374 64.4172 33.3113 64.2407 33.5547C64.0642 33.7981 63.8239 34.0171 63.5196 34.2119C63.2153 34.4127 62.8411 34.5922 62.3969 34.7504C61.9527 34.9147 61.4232 35.0669 60.8086 35.2068L60.5165 34.3032C61.0338 34.2058 61.481 34.1023 61.8583 33.9928C62.2417 33.8833 62.5642 33.7616 62.8259 33.6277C63.0876 33.4877 63.2914 33.3326 63.4375 33.1622C63.5835 32.9918 63.6839 32.797 63.7387 32.578C63.7691 32.4745 63.7934 32.3528 63.8117 32.2129C63.836 32.0729 63.8543 31.9512 63.8665 31.8477L64.7793 31.9116ZM64.9801 33.1804C65.4547 33.3386 65.9476 33.5212 66.4588 33.7281C66.9699 33.935 67.475 34.148 67.974 34.367L67.7002 35.2798C67.475 35.1581 67.2347 35.0334 66.9791 34.9056C66.7235 34.7778 66.4618 34.6531 66.1941 34.5313C65.9324 34.4157 65.6677 34.3062 65.4 34.2027C65.1322 34.0993 64.8736 34.005 64.6241 33.9198L64.9801 33.1804ZM70.5424 29.5658H69.6387V27.7493H72.8791C72.8365 27.6094 72.7939 27.4755 72.7513 27.3477C72.7087 27.2138 72.6692 27.0952 72.6327 26.9917L73.6093 26.8548C73.6519 26.9765 73.6976 27.1134 73.7463 27.2655C73.801 27.4177 73.8558 27.5789 73.9106 27.7493H76.8406V29.0455H75.9461V28.5343H70.5424V29.5658ZM71.8659 29.0364C71.7807 29.2798 71.6803 29.5201 71.5647 29.7575C71.4552 29.9948 71.3335 30.2291 71.1996 30.4603V35.0973H70.3051V31.7839C70.159 31.9786 70.0099 32.1611 69.8578 32.3315C69.7117 32.5019 69.5627 32.6662 69.4105 32.8244L69.0454 31.8934C69.228 31.7047 69.4166 31.4887 69.6113 31.2453C69.8061 31.0019 69.9947 30.7433 70.1773 30.4694C70.3598 30.1956 70.5272 29.9126 70.6793 29.6205C70.8375 29.3285 70.9653 29.0424 71.0627 28.7625L71.8659 29.0364ZM74.7595 30.0496C74.729 30.1713 74.6956 30.293 74.6591 30.4147C74.6286 30.5364 74.5952 30.655 74.5586 30.7707H76.5029V35.0243H75.6266V34.65H72.9887V35.0516H72.1124V30.7707H73.6093C73.6459 30.649 73.6793 30.5303 73.7098 30.4147C73.7463 30.293 73.7797 30.1713 73.8102 30.0496H71.8203V29.2828H77.0597V30.0496H74.7595ZM75.6266 31.51H72.9887V32.3407H75.6266V31.51ZM75.6266 33.9107V33.0709H72.9887V33.9107H75.6266ZM82.7042 29.6936V30.4786H85.7985V31.2636H82.7042V32.0303H85.123V35.079H84.2103V34.7139H80.2396V35.079H79.3268V32.0303H81.7731V31.2636H78.6514V30.4786H81.7731V29.6936H80.121V29.2372C79.6098 29.5353 79.0652 29.8061 78.4871 30.0496L78.122 29.155C78.9556 28.8447 79.6767 28.4917 80.2853 28.0962C80.8938 27.6946 81.4171 27.2321 81.8553 26.7087H82.6311C83.051 27.226 83.5804 27.6854 84.2194 28.0871C84.8583 28.4826 85.5612 28.8203 86.3279 29.1003L85.9446 29.9857C85.6707 29.87 85.3999 29.7483 85.1322 29.6205C84.8644 29.4867 84.6028 29.3497 84.3472 29.2098V29.6936H82.7042ZM82.2386 27.5303C82.0439 27.7737 81.8127 28.011 81.5449 28.2422C81.2772 28.4735 80.979 28.6956 80.6504 28.9086H83.8543C83.5196 28.6956 83.2153 28.4735 82.9415 28.2422C82.6676 28.0049 82.4334 27.7676 82.2386 27.5303ZM84.2103 32.8336H80.2396V33.9198H84.2103V32.8336Z" fill="#3A5A8A"/>
<defs>
<linearGradient id="paint0_linear_674_34000" x1="88.7302" y1="-0.181216" x2="9.91296" y2="39.2078" gradientUnits="userSpaceOnUse">
<stop offset="0.5" stop-color="#809AF5"/>
<stop offset="0.5" stop-color="#3867E2"/>
</linearGradient>
</defs>
</svg>
