<svg width="144" height="53" viewBox="0 0 144 53" fill="none" xmlns="http://www.w3.org/2000/svg">
<path d="M130.733 39.5544H105.123C103.918 39.5544 103.426 42.0858 104.481 42.6674C110.295 45.8722 115.407 50.2645 117.265 51.9372C117.683 52.3129 118.326 52.3022 118.732 51.9139C120.517 50.2055 125.426 45.7588 131.341 42.5257C132.393 41.951 131.931 39.5544 130.733 39.5544Z" fill="#4573E7"/>
<rect width="143.104" height="45.4013" rx="22.7007" fill="url(#paint0_linear_674_33996)"/>
<rect x="4.86819" y="4.86821" width="133.368" height="35.6649" rx="17.8325" fill="#D6DFF5"/>
<path d="M29.1745 23.2523V17.7268C29.1745 16.6211 29.5416 16.3763 30.5235 16.3763H39.9765C41.3902 16.3763 44.0292 18.2796 44.0292 21.8385C44.0292 22.5757 43.4159 23.189 42.6788 23.189H29.1745V23.2523ZM24.5085 23.2523C22.6657 23.2523 21.1324 21.719 21.1324 19.8157C21.1324 17.9139 22.6066 16.3806 24.5085 16.3806C26.3512 16.3806 27.8845 17.9139 27.8845 19.8157C27.824 21.7176 26.3512 23.2523 24.5085 23.2523ZM44.0292 26.015V31.172C44.0292 31.9091 43.4159 32.5224 42.6788 32.5224C42.3216 32.5195 41.98 32.3762 41.7276 32.1235C41.4752 31.8709 41.3323 31.5291 41.3297 31.172V28.7173C41.3272 28.3599 41.184 28.0179 40.9313 27.7652C40.6787 27.5125 40.3367 27.3694 39.9793 27.3669H21.0705C20.7131 27.3694 20.3712 27.5125 20.1185 27.7652C19.8658 28.0179 19.7227 28.3599 19.7201 28.7173V31.172C19.7201 31.9091 19.1082 32.5224 18.3725 32.5224C18.0151 32.5198 17.6731 32.3767 17.4204 32.124C17.1677 31.8713 17.0246 31.5293 17.022 31.172V14.2297C17.022 13.6769 17.2668 12.8793 18.3725 12.8793C18.3725 12.8793 19.7215 12.8202 19.7215 14.2297V23.2523C19.7215 23.9894 20.3348 24.6027 21.0719 24.6027H42.6788C43.2302 24.6027 44.0306 24.7251 44.0306 26.015H44.0292Z" fill="#2566E5"/>
<path d="M61.2035 16.1142H56.8709V21.3246H55.6893V16.1142H51.4467V14.9326H55.6893V11.1852L56.8709 11.2302V14.9326H61.2035V16.1142ZM72.4951 18.3424C72.4801 18.6875 72.4613 18.9914 72.4388 19.254C72.4163 19.509 72.39 19.7304 72.36 19.9179C72.3225 20.128 72.2737 20.3043 72.2137 20.4468C72.1612 20.5894 72.0824 20.7057 71.9774 20.7957C71.8724 20.8932 71.7373 20.9645 71.5723 21.0095C71.4072 21.0545 71.2009 21.0845 70.9533 21.0995C70.5707 21.1221 70.1956 21.1221 69.828 21.0995C69.6179 21.092 69.4303 21.062 69.2653 21.0095C69.1077 20.9645 68.9727 20.8895 68.8602 20.7844C68.7476 20.6794 68.6613 20.5369 68.6013 20.3568C68.5488 20.1843 68.5226 19.9629 68.5226 19.6929V14.505H66.4519C66.4294 15.1051 66.3881 15.6453 66.3281 16.1255C66.2756 16.6056 66.1931 17.0483 66.0805 17.4534C65.968 17.851 65.8254 18.2186 65.6529 18.5562C65.4878 18.8939 65.2815 19.224 65.0339 19.5466C64.7939 19.8617 64.5125 20.1768 64.1899 20.4919C63.8748 20.8145 63.511 21.1521 63.0983 21.5047L62.2768 20.5706C62.8245 20.113 63.2859 19.6929 63.661 19.3102C64.0361 18.9276 64.3362 18.5187 64.5613 18.0836C64.7939 17.641 64.9664 17.1383 65.079 16.5756C65.1915 16.0129 65.259 15.3227 65.2815 14.505H62.727V13.3121H65.3153C65.3228 13.102 65.3265 12.8807 65.3265 12.6481C65.334 12.408 65.3415 12.1867 65.349 11.9842C65.3566 11.7816 65.3603 11.609 65.3603 11.4665C65.3678 11.3164 65.3716 11.2227 65.3716 11.1852L66.5307 11.2302C66.5232 11.4477 66.5157 11.7478 66.5082 12.1305C66.5082 12.5131 66.5007 12.907 66.4857 13.3121H69.6817V19.4903C69.6817 19.6553 69.7117 19.7679 69.7717 19.8279C69.8392 19.8879 69.9593 19.9254 70.1318 19.9404C70.3269 19.9629 70.5294 19.9629 70.7395 19.9404C70.852 19.9329 70.9383 19.9179 70.9983 19.8954C71.0659 19.8729 71.1184 19.8429 71.1559 19.8054C71.2009 19.7679 71.2309 19.7191 71.2459 19.6591C71.2684 19.5991 71.2872 19.5278 71.3022 19.4453C71.3322 19.2727 71.3585 19.0627 71.381 18.8151C71.411 18.56 71.4297 18.2899 71.4372 18.0048L72.4951 18.3424ZM74.8513 14.775C75.1364 14.5575 75.459 14.2799 75.8191 13.9423C76.1792 13.5972 76.5243 13.2446 76.8544 12.8844H74.0185V11.8266H82.9538V12.8844H78.2949C78.1148 13.087 77.931 13.2896 77.7434 13.4921C77.5559 13.6947 77.3721 13.886 77.192 14.0661C77.012 14.2386 76.8394 14.3999 76.6744 14.55C76.5093 14.7 76.3668 14.8276 76.2467 14.9326L80.5793 14.7863C80.3993 14.5912 80.2155 14.4037 80.0279 14.2236C79.8479 14.0361 79.6641 13.8523 79.4765 13.6722L80.2417 12.9745C81.202 13.8072 82.0798 14.6738 82.8751 15.574L82.1436 16.5193C82.0386 16.3993 81.9335 16.2793 81.8285 16.1592C81.7235 16.0392 81.6184 15.9192 81.5134 15.7991C81.3333 15.7991 81.0745 15.8066 80.7369 15.8216C80.4068 15.8291 80.0317 15.8404 79.6115 15.8554C79.1989 15.8629 78.76 15.8779 78.2949 15.9004C77.8297 15.9154 77.3683 15.9342 76.9107 15.9567C76.453 15.9717 76.0179 15.9904 75.6053 16.0129C75.1926 16.0354 74.8363 16.058 74.5362 16.0805L74.2773 15.0451C74.4349 15.0076 74.5549 14.9626 74.6375 14.9101C74.72 14.8576 74.7913 14.8126 74.8513 14.775ZM83.4152 19.9967V21.0208H73.5459V19.9967H77.9348V18.4775H74.4799V17.4421H77.9348V16.0917L79.0601 16.1367V17.4421H82.4924V18.4775H79.0601V19.9967H83.4152ZM85.6477 13.5484V12.3555H93.4576V13.5484H85.6477ZM84.6236 20.5144V19.344H94.4817V20.5144H84.6236ZM105.514 16.1142H101.182V21.3246H100V16.1142H95.7576V14.9326H100V11.1852L101.182 11.2302V14.9326H105.514V16.1142ZM107.544 13.1545V11.9954H115.872V13.1545H107.544ZM108.028 16.6544V15.5515H115.399V16.6544H108.028ZM106.847 20.6382V19.524H116.581V20.6382H106.847ZM125.059 16.9357V20.008C125.059 20.263 125.033 20.4693 124.98 20.6269C124.935 20.7844 124.856 20.9082 124.744 20.9983C124.639 21.0958 124.496 21.1671 124.316 21.2121C124.144 21.2571 123.926 21.2946 123.664 21.3246L123.067 21.3921L122.696 20.3005L123.326 20.233C123.454 20.218 123.559 20.203 123.641 20.188C123.724 20.1655 123.787 20.1355 123.832 20.098C123.877 20.0605 123.907 20.008 123.922 19.9404C123.945 19.8654 123.956 19.7641 123.956 19.6366V16.9357H121.458L120.952 17.5209C120.846 17.3484 120.73 17.1721 120.603 16.992C120.475 16.8119 120.348 16.6394 120.22 16.4743V21.3246H119.185V16.7669C119.035 17.112 118.877 17.4496 118.712 17.7797C118.554 18.1023 118.389 18.4062 118.217 18.6913L117.463 17.9035C117.605 17.671 117.752 17.4121 117.902 17.127C118.052 16.8344 118.198 16.5306 118.341 16.2155C118.491 15.8929 118.63 15.5665 118.757 15.2364C118.892 14.8988 119.012 14.5725 119.117 14.2574H118.048V13.177H119.185V11.1852L120.22 11.2302V13.177H121.312V14.2574H120.22V15.5515L120.49 15.2589C120.633 15.409 120.79 15.6003 120.963 15.8329C121.143 16.058 121.308 16.2755 121.458 16.4856L121.469 15.8891C121.529 15.7916 121.597 15.6641 121.672 15.5065C121.754 15.3415 121.837 15.1614 121.919 14.9664C122.009 14.7638 122.099 14.5462 122.189 14.3136C122.279 14.0811 122.369 13.8448 122.459 13.6047H121.447V12.5468H122.831C122.928 12.2467 123.015 11.9729 123.09 11.7253C123.172 11.4702 123.232 11.2564 123.27 11.0839L124.294 11.3315C124.256 11.474 124.204 11.6503 124.136 11.8604C124.069 12.0704 123.994 12.2993 123.911 12.5468H127.411V13.6047H123.54C123.45 13.8523 123.36 14.0961 123.27 14.3362C123.187 14.5762 123.105 14.7976 123.022 15.0001C122.94 15.2027 122.865 15.3827 122.797 15.5403C122.73 15.6903 122.673 15.8066 122.628 15.8891H123.956V14.1111L125.059 14.1561V15.8891H127.299V16.9357H125.059ZM123.202 17.9486C122.94 18.4887 122.643 19.0326 122.313 19.5803C121.983 20.1205 121.657 20.6081 121.334 21.0433L120.456 20.3456C120.621 20.143 120.786 19.9254 120.952 19.6929C121.117 19.4528 121.278 19.2052 121.435 18.9501C121.593 18.695 121.739 18.4362 121.874 18.1736C122.017 17.911 122.144 17.6522 122.257 17.3971L123.202 17.9486ZM126.274 17.4084C126.402 17.5884 126.545 17.8023 126.702 18.0498C126.867 18.2899 127.028 18.5375 127.186 18.7926C127.351 19.0476 127.509 19.3027 127.659 19.5578C127.816 19.8054 127.951 20.0305 128.064 20.233L127.152 20.9307C127.04 20.7132 126.905 20.4731 126.747 20.2105C126.597 19.9404 126.439 19.6703 126.274 19.4003C126.117 19.1302 125.959 18.8751 125.802 18.635C125.652 18.3874 125.52 18.1811 125.408 18.0161L126.274 17.4084Z" fill="#123871"/>
<path d="M55.8031 30.8345C56.0647 31.6195 56.4937 32.2889 57.0901 32.8427C57.6864 33.3903 58.4441 33.865 59.3629 34.2666L58.8518 35.2615C58.4015 35.0181 57.9907 34.7717 57.6195 34.5222C57.2544 34.2788 56.9258 34.0232 56.6337 33.7554C56.3416 33.4877 56.083 33.2078 55.8578 32.9157C55.6388 32.6175 55.4532 32.298 55.301 31.9573C55.0333 32.5293 54.6164 33.0952 54.0505 33.655C53.4846 34.2149 52.7178 34.7473 51.7503 35.2524L51.2026 34.3122C52.1945 33.8376 52.9825 33.3173 53.5667 32.7514C54.1509 32.1794 54.5191 31.5404 54.6712 30.8345H51.4856V29.9309H54.7442V28.2148H51.9693V27.3294H58.5323V28.2148H55.7209V29.9309H59.0161V30.8345H55.8031ZM65.409 28.2422H64.3593V27.5576H65.409V26.8365L66.1849 26.873V27.5576H67.7366V28.8081H68.2204V29.5201H67.7366V30.7341H66.1849V31.3366H67.837V32.0029H66.1849V32.5049H68.0744V33.1713H66.1849V33.9015H65.409V33.1713H63.9759V32.5049H65.409V32.0029H64.3137V31.3366H65.409V30.7341H64.3593V30.0678H65.409V29.5201H64.0946V28.8081H65.409V28.2422ZM65.5459 34.0658C66.0145 34.0841 66.48 34.0901 66.9425 34.0841C67.4111 34.078 67.8796 34.0658 68.3482 34.0475L68.2022 34.7595C67.7458 34.7778 67.2894 34.7899 66.833 34.796C66.3827 34.8021 65.9293 34.796 65.4729 34.7778C64.98 34.7595 64.5388 34.6926 64.1494 34.577C63.766 34.4613 63.4191 34.2514 63.1088 33.9471C62.8958 34.3001 62.625 34.6926 62.2964 35.1246L61.767 34.6865V35.0151H60.982V30.5242C60.8968 30.6946 60.8086 30.8619 60.7173 31.0262C60.626 31.1905 60.5347 31.3518 60.4434 31.51L59.8593 30.798C59.9992 30.5607 60.1422 30.2868 60.2883 29.9765C60.4404 29.6662 60.5865 29.3406 60.7264 28.9998C60.8664 28.653 60.9942 28.3 61.1098 27.941C61.2315 27.5759 61.3289 27.2229 61.4019 26.8821L62.2234 27.0464C62.1625 27.3264 62.0926 27.6002 62.0134 27.868C61.9404 28.1357 61.8583 28.4004 61.767 28.6621V34.4035C62.1017 33.9897 62.3725 33.6064 62.5794 33.2534C62.3055 32.7788 62.0743 32.1459 61.8857 31.3548L62.6068 31.1266C62.6615 31.3518 62.7193 31.5678 62.7802 31.7747C62.841 31.9816 62.9141 32.1763 62.9993 32.3589C63.1696 31.8721 63.2761 31.3061 63.3187 30.6611H62.0134V29.9126L63.2548 28.1692H62.1869V27.4207H64.1768V28.1783L62.9627 29.9126H64.0855V30.6976C64.055 30.9654 64.0216 31.2149 63.9851 31.4461C63.9486 31.6712 63.906 31.8842 63.8573 32.085C63.8147 32.2859 63.763 32.4775 63.7021 32.6601C63.6473 32.8427 63.5804 33.0191 63.5013 33.1895C63.7264 33.4512 64.0033 33.6581 64.3319 33.8102C64.6605 33.9623 65.0652 34.0475 65.5459 34.0658ZM66.1849 28.2422V28.8081H66.9699V28.2422H66.1849ZM66.9699 29.5201H66.1849V30.0678H66.9699V29.5201ZM70.5423 29.5657H69.6387V27.7493H72.8791C72.8365 27.6093 72.7939 27.4755 72.7513 27.3477C72.7087 27.2138 72.6691 27.0951 72.6326 26.9917L73.6093 26.8548C73.6519 26.9765 73.6975 27.1134 73.7462 27.2655C73.801 27.4176 73.8557 27.5789 73.9105 27.7493H76.8406V29.0455H75.946V28.5343H70.5423V29.5657ZM71.8659 29.0363C71.7807 29.2797 71.6803 29.5201 71.5646 29.7574C71.4551 29.9948 71.3334 30.229 71.1995 30.4603V35.0972H70.305V31.7838C70.1589 31.9786 70.0099 32.1611 69.8577 32.3315C69.7117 32.5019 69.5626 32.6662 69.4105 32.8244L69.0453 31.8934C69.2279 31.7047 69.4165 31.4887 69.6113 31.2453C69.806 31.0019 69.9946 30.7432 70.1772 30.4694C70.3598 30.1956 70.5271 29.9126 70.6792 29.6205C70.8375 29.3284 70.9652 29.0424 71.0626 28.7625L71.8659 29.0363ZM74.7594 30.0495C74.729 30.1712 74.6955 30.2929 74.659 30.4146C74.6286 30.5363 74.5951 30.655 74.5586 30.7706H76.5028V35.0242H75.6266V34.65H72.9886V35.0516H72.1123V30.7706H73.6093C73.6458 30.6489 73.6793 30.5303 73.7097 30.4146C73.7462 30.2929 73.7797 30.1712 73.8101 30.0495H71.8202V29.2828H77.0596V30.0495H74.7594ZM75.6266 31.51H72.9886V32.3406H75.6266V31.51ZM75.6266 33.9106V33.0709H72.9886V33.9106H75.6266ZM82.7041 29.6935V30.4785H85.7984V31.2635H82.7041V32.0303H85.123V35.079H84.2102V34.7139H80.2396V35.079H79.3268V32.0303H81.773V31.2635H78.6513V30.4785H81.773V29.6935H80.1209V29.2371C79.6097 29.5353 79.0651 29.8061 78.487 30.0495L78.1219 29.155C78.9556 28.8446 79.6767 28.4917 80.2852 28.0962C80.8937 27.6945 81.4171 27.232 81.8552 26.7087H82.6311C83.051 27.226 83.5804 27.6854 84.2193 28.087C84.8583 28.4826 85.5611 28.8203 86.3279 29.1002L85.9445 29.9856C85.6707 29.87 85.3999 29.7483 85.1321 29.6205C84.8644 29.4866 84.6027 29.3497 84.3471 29.2098V29.6935H82.7041ZM82.2386 27.5302C82.0438 27.7736 81.8126 28.011 81.5448 28.2422C81.2771 28.4734 80.9789 28.6956 80.6503 28.9085H83.8542C83.5195 28.6956 83.2153 28.4734 82.9414 28.2422C82.6676 28.0049 82.4333 27.7676 82.2386 27.5302ZM84.2102 32.8335H80.2396V33.9197H84.2102V32.8335Z" fill="#3A5A8A"/>
<defs>
<linearGradient id="paint0_linear_674_33996" x1="125.59" y1="-0.181216" x2="32.6643" y2="65.5502" gradientUnits="userSpaceOnUse">
<stop offset="0.5" stop-color="#809AF5"/>
<stop offset="0.5" stop-color="#3867E2"/>
</linearGradient>
</defs>
</svg>
