<svg width="111" height="53" viewBox="0 0 111 53" fill="none" xmlns="http://www.w3.org/2000/svg">
<path d="M37.9925 39.5544H12.3832C11.1782 39.5544 10.6853 42.0858 11.7406 42.6674C17.5551 45.8722 22.6667 50.2645 24.525 51.9372C24.9424 52.3129 25.5857 52.3022 25.9914 51.9139C27.7764 50.2055 32.6861 45.7588 38.6012 42.5257C39.6526 41.951 39.1907 39.5544 37.9925 39.5544Z" fill="#4573E7"/>
<rect width="110.104" height="45.4013" rx="22.7007" fill="url(#paint0_linear_674_33994)"/>
<rect x="4.86823" y="4.86816" width="100.368" height="35.6649" rx="17.8325" fill="#D6DFF5"/>
<path d="M39.6574 13.6079L34.9197 18.3456M39.6574 13.6079C39.6574 13.6079 40.4488 11.7771 40.0218 11.4213C39.6832 11.139 38.506 11.3045 38.0336 11.385C37.903 11.4073 37.7835 11.4686 37.6858 11.558L33.4584 15.4301C31.3163 17.5722 29.9563 19.2648 30.4539 21.6187C30.5027 21.8493 30.421 22.1154 30.2544 22.282V22.282C30.0009 22.5355 29.6121 22.5134 29.3586 22.26L18.2338 11.1351C17.7853 10.6867 17.0243 10.9905 17.0223 11.6247C16.9928 20.9232 20.4718 23.3999 24.8474 24.1386C25.0002 24.1644 25.1428 24.236 25.2524 24.3456C25.5745 24.6677 25.8197 24.913 26.0277 25.1215C26.3103 25.405 26.3103 25.8618 26.0267 26.1444C24.7413 27.4251 21.6832 30.4614 20.4582 31.6775C20.1707 31.963 20.1726 32.4267 20.4607 32.7116L22.7053 34.9312C22.9892 35.2119 23.446 35.212 23.7301 34.9315L29.3445 29.3852C29.614 29.119 30.0425 29.1036 30.3304 29.3498L36.5662 34.6814C36.8681 34.9396 37.3212 34.9084 37.5849 34.6114L39.5287 32.4219C39.7995 32.1168 39.7673 31.6489 39.4572 31.3839L33.2379 26.0689C32.9642 25.835 32.9247 25.4415 33.1785 25.1862V25.1862C33.3361 25.0277 33.5912 24.9476 33.811 24.9877C36.2718 25.4366 38.9229 23.3987 39.6538 22.3544L43.8372 17.8262C43.9616 17.6915 44.0306 17.5149 44.0306 17.3316V16.2905C44.0306 15.8401 43.6262 15.4975 43.1819 15.5715L41.844 15.7945M39.6574 13.6079L41.2464 13.3809C41.7274 13.3122 42.1397 13.7245 42.071 14.2055L41.844 15.7945M41.844 15.7945L37.1063 20.5323" stroke="#4573E7" stroke-width="1.89508" stroke-linecap="round"/>
<path d="M61.1698 14.6625H51.4805V13.5259H55.9594C55.9294 13.3683 55.8919 13.192 55.8469 12.997C55.8019 12.7944 55.7569 12.5993 55.7118 12.4118C55.6668 12.2242 55.6218 12.0479 55.5768 11.8829C55.5393 11.7178 55.5055 11.5903 55.4755 11.5002L56.6571 11.3652C56.6871 11.4627 56.7247 11.6015 56.7697 11.7816C56.8147 11.9541 56.8597 12.1417 56.9047 12.3443C56.9572 12.5468 57.006 12.7531 57.051 12.9632C57.1035 13.1733 57.1485 13.3608 57.1861 13.5259H61.1698V14.6625ZM58.1989 15.6078C58.4314 15.9454 58.6865 16.328 58.9641 16.7557C59.2492 17.1833 59.5268 17.6184 59.7969 18.0611C60.0745 18.5037 60.3333 18.9351 60.5734 19.3552C60.821 19.7679 61.0273 20.128 61.1923 20.4356L60.1795 21.3246C60.0069 20.9795 59.7931 20.5819 59.538 20.1317C59.2905 19.6816 59.0279 19.2239 58.7503 18.7588C58.4727 18.2936 58.1951 17.8398 57.9175 17.3971C57.6399 16.947 57.3886 16.5568 57.1635 16.2267L58.1989 15.6078ZM51.4017 20.6381C51.6793 20.308 51.9569 19.9442 52.2345 19.5465C52.5121 19.1489 52.7784 18.7363 53.0335 18.3086C53.2886 17.881 53.5286 17.4459 53.7537 17.0032C53.9788 16.5606 54.1739 16.1255 54.3389 15.6978L55.4868 16.1367C55.2842 16.6244 55.0591 17.1083 54.8116 17.5884C54.5715 18.0611 54.3164 18.5225 54.0463 18.9726C53.7762 19.4228 53.5024 19.8504 53.2248 20.2555C52.9472 20.6681 52.6771 21.047 52.4145 21.3921L51.4017 20.6381ZM70.6383 19.0739C70.6683 18.9013 70.6908 18.7213 70.7058 18.5337C70.7283 18.3387 70.7433 18.1811 70.7508 18.0611L71.8874 18.4437C71.8799 18.6087 71.8612 18.8113 71.8312 19.0514C71.8012 19.2915 71.7711 19.4978 71.7411 19.6703C71.6961 19.9479 71.6324 20.173 71.5498 20.3455C71.4748 20.5181 71.3698 20.6569 71.2347 20.7619C71.0997 20.867 70.9271 20.942 70.7171 20.987C70.507 21.032 70.2519 21.062 69.9518 21.077C69.1491 21.122 68.3576 21.122 67.5773 21.077C67.2397 21.0545 66.9546 21.0133 66.722 20.9532C66.4895 20.9007 66.2982 20.8107 66.1481 20.6832C66.0056 20.5556 65.9005 20.3831 65.833 20.1655C65.773 19.9404 65.743 19.6591 65.743 19.3215V15.9567L62.6032 16.4743L62.4232 15.349L65.743 14.7975V11.2414L66.9246 11.2864V14.6062L72.2588 13.7284L72.3938 14.8538L66.9246 15.7541V19.1189C66.9246 19.2765 66.9321 19.404 66.9471 19.5015C66.9621 19.5991 66.9959 19.6778 67.0484 19.7379C67.1009 19.7904 67.1759 19.8279 67.2735 19.8504C67.3785 19.8729 67.521 19.8917 67.7011 19.9067C68.3688 19.9667 69.0365 19.9667 69.7042 19.9067C69.8843 19.8917 70.0306 19.8729 70.1431 19.8504C70.2557 19.8279 70.3419 19.7904 70.402 19.7379C70.4695 19.6778 70.5182 19.5953 70.5483 19.4903C70.5783 19.3852 70.6083 19.2464 70.6383 19.0739ZM83.1115 15.2702C82.8639 15.1652 82.6163 15.0526 82.3687 14.9326C82.1211 14.8125 81.8773 14.685 81.6372 14.55V18.0948L81.9073 17.9035L82.4137 18.68C82.1737 18.8376 81.9073 19.0026 81.6147 19.1752C81.3221 19.3477 81.0258 19.509 80.7257 19.6591C81.1233 19.8091 81.4909 19.9517 81.8285 20.0867C82.1662 20.2143 82.4512 20.3305 82.6838 20.4356L82.425 21.4484C82.2224 21.3509 81.9673 21.2346 81.6597 21.0995C81.3597 20.972 81.0295 20.8332 80.6694 20.6832C80.3168 20.5406 79.9455 20.3943 79.5553 20.2443C79.1727 20.1017 78.8013 19.9629 78.4412 19.8279L78.4637 20.6606C78.3662 20.6756 78.2049 20.7094 77.9798 20.7619C77.7548 20.8144 77.5109 20.8707 77.2483 20.9307C76.9858 20.9983 76.7269 21.062 76.4719 21.122C76.2168 21.1896 76.0142 21.2458 75.8642 21.2908C75.7141 21.3284 75.5641 21.3734 75.414 21.4259C75.264 21.4784 75.1177 21.5347 74.9751 21.5947L74.5925 20.6156C74.7576 20.4881 74.8588 20.3831 74.8964 20.3005C74.9414 20.218 74.9639 20.1355 74.9639 20.053V14.685C74.7538 14.7975 74.54 14.9063 74.3224 15.0114C74.1049 15.1164 73.8873 15.2214 73.6697 15.3265L73.2533 14.2686C74.2737 13.841 75.1852 13.3571 75.9879 12.8169C76.7907 12.2692 77.4434 11.6841 77.9461 11.0614H78.8689C79.364 11.669 80.0092 12.243 80.8045 12.7831C81.5997 13.3233 82.5 13.7997 83.5053 14.2124L83.1115 15.2702ZM81.2771 14.3474C80.6769 14.0023 80.1293 13.6422 79.6341 13.2671C79.1389 12.8844 78.7338 12.5093 78.4187 12.1417C78.1036 12.5018 77.6985 12.8694 77.2033 13.2445C76.7157 13.6197 76.1643 13.9873 75.5491 14.3474H78.0248L77.6985 13.2445L78.6325 13.0645C78.6926 13.237 78.7563 13.4396 78.8238 13.6722C78.8989 13.9048 78.9664 14.1298 79.0264 14.3474H81.2771ZM76.0667 15.2364V15.9454H80.5231V15.2364H76.0667ZM76.0667 17.4984H80.5231V16.8007H76.0667V17.4984ZM76.0667 20.1992C76.1793 20.1692 76.3181 20.1355 76.4831 20.098C76.6482 20.053 76.8207 20.0079 77.0008 19.9629C77.1883 19.9179 77.3721 19.8729 77.5522 19.8279C77.7398 19.7829 77.9123 19.7379 78.0699 19.6928C77.7698 19.5878 77.4922 19.494 77.2371 19.4115C76.9895 19.329 76.7757 19.2615 76.5956 19.2089L76.9332 18.3987H76.0667V20.1992ZM79.6003 19.2427C79.8479 19.1227 80.103 18.9914 80.3656 18.8488C80.6357 18.7063 80.8983 18.5562 81.1533 18.3987H77.0683C77.3609 18.4812 77.7323 18.5975 78.1824 18.7475C78.6325 18.8976 79.1052 19.0626 79.6003 19.2427ZM86.1654 15.529H85.0963V13.0532H87.0207C86.8331 12.8357 86.6418 12.6256 86.4467 12.423C86.2592 12.2205 86.0904 12.0479 85.9403 11.9054L86.7056 11.1739C86.7956 11.2639 86.8931 11.3652 86.9982 11.4777C87.1107 11.5903 87.2232 11.7103 87.3358 11.8378C87.4483 11.9579 87.5608 12.0817 87.6734 12.2092C87.7859 12.3368 87.8909 12.4568 87.9885 12.5693L87.5833 13.0532H89.0351V11.1851L90.1266 11.2302V13.0532H91.5221L91.0719 12.6706C91.162 12.5806 91.267 12.4718 91.387 12.3443C91.5146 12.2092 91.6384 12.0742 91.7584 11.9391C91.886 11.7966 92.0022 11.6615 92.1073 11.534C92.2198 11.399 92.3098 11.2864 92.3774 11.1964L93.1876 11.8266C93.0526 11.9992 92.8875 12.198 92.6925 12.423C92.5049 12.6481 92.3211 12.8582 92.141 13.0532H94.0541V15.529H92.9851V14.0886H86.1654V15.529ZM94.3017 20.278V21.2233H84.815V20.278H88.99V19.3102H85.794V18.3424H88.99V17.5209H86.3004V14.8538H92.8388V17.5209H90.0816V18.3424H93.3339V19.3102H90.0816V20.278H94.3017ZM87.3695 16.6094H91.7247V15.7653H87.3695V16.6094Z" fill="#123871"/>
<path d="M59.0344 30.1226C58.8336 30.0374 58.6328 29.9461 58.4319 29.8487C58.2311 29.7514 58.0334 29.6479 57.8386 29.5384V32.4137L58.0577 32.2585L58.4685 32.8883C58.2737 33.0161 58.0577 33.15 57.8204 33.29C57.5831 33.4299 57.3427 33.5607 57.0993 33.6825C57.4218 33.8042 57.72 33.9198 57.9938 34.0293C58.2676 34.1328 58.4989 34.2271 58.6875 34.3123L58.4776 35.1338C58.3133 35.0547 58.1064 34.9604 57.8569 34.8508C57.6135 34.7474 57.3457 34.6348 57.0536 34.5131C56.7676 34.3975 56.4664 34.2788 56.15 34.1571C55.8396 34.0415 55.5384 33.9289 55.2463 33.8194L55.2646 34.4948C55.1855 34.507 55.0546 34.5344 54.8721 34.577C54.6895 34.6196 54.4917 34.6652 54.2788 34.7139C54.0658 34.7687 53.8558 34.8204 53.6489 34.8691C53.442 34.9238 53.2777 34.9695 53.156 35.006C53.0343 35.0364 52.9126 35.0729 52.7909 35.1155C52.6692 35.1581 52.5505 35.2038 52.4349 35.2525L52.1246 34.4583C52.2585 34.3549 52.3406 34.2697 52.371 34.2027C52.4075 34.1358 52.4258 34.0689 52.4258 34.0019V29.6479C52.2554 29.7392 52.082 29.8274 51.9055 29.9126C51.729 29.9978 51.5526 30.083 51.3761 30.1682L51.0384 29.3102C51.866 28.9633 52.6053 28.5708 53.2564 28.1327C53.9076 27.6885 54.437 27.2138 54.8447 26.7087H55.5932C55.9948 27.2017 56.5181 27.6672 57.1632 28.1053C57.8082 28.5435 58.5384 28.9299 59.3539 29.2646L59.0344 30.1226ZM57.5465 29.3741C57.0597 29.0942 56.6155 28.8021 56.2139 28.4978C55.8122 28.1875 55.4836 27.8832 55.2281 27.585C54.9725 27.8771 54.6439 28.1753 54.2422 28.4796C53.8467 28.7838 53.3994 29.082 52.9004 29.3741H54.9086L54.6439 28.4796L55.4015 28.3335C55.4502 28.4735 55.5019 28.6378 55.5567 28.8264C55.6175 29.0151 55.6723 29.1976 55.721 29.3741H57.5465ZM53.3203 30.0952V30.6703H56.935V30.0952H53.3203ZM53.3203 31.9299H56.935V31.364H53.3203V31.9299ZM53.3203 34.1206C53.4116 34.0963 53.5242 34.0689 53.6581 34.0384C53.7919 34.0019 53.9319 33.9654 54.0779 33.9289C54.2301 33.8924 54.3792 33.8559 54.5252 33.8194C54.6773 33.7829 54.8173 33.7463 54.9451 33.7098C54.7017 33.6246 54.4765 33.5486 54.2696 33.4816C54.0688 33.4147 53.8954 33.3599 53.7493 33.3173L54.0232 32.6601H53.3203V34.1206ZM56.1865 33.3447C56.3873 33.2474 56.5942 33.1409 56.8072 33.0252C57.0263 32.9096 57.2392 32.7879 57.4461 32.6601H54.1327C54.37 32.7271 54.6713 32.8214 55.0364 32.9431C55.4015 33.0648 55.7849 33.1987 56.1865 33.3447ZM61.5115 30.3325H60.6443V28.3244H62.2052C62.0531 28.1479 61.8979 27.9775 61.7397 27.8132C61.5875 27.6489 61.4506 27.509 61.3289 27.3933L61.9496 26.8C62.0226 26.873 62.1017 26.9552 62.1869 27.0465C62.2782 27.1378 62.3695 27.2351 62.4608 27.3386C62.5521 27.4359 62.6433 27.5363 62.7346 27.6398C62.8259 27.7432 62.9111 27.8406 62.9902 27.9319L62.6616 28.3244H63.8391V26.8092L64.7245 26.8457V28.3244H65.8563L65.4912 28.014C65.5643 27.941 65.6494 27.8528 65.7468 27.7493C65.8503 27.6398 65.9507 27.5303 66.048 27.4207C66.1515 27.3051 66.2458 27.1956 66.331 27.0921C66.4223 26.9826 66.4953 26.8913 66.5501 26.8183L67.2073 27.3294C67.0977 27.4694 66.9639 27.6307 66.8056 27.8132C66.6535 27.9958 66.5044 28.1662 66.3584 28.3244H67.9101V30.3325H67.043V29.1641H61.5115V30.3325ZM68.1109 34.1845V34.9512H60.4161V34.1845H63.8026V33.3995H61.2103V32.6145H63.8026V31.9482H61.621V29.7848H66.9243V31.9482H64.688V32.6145H67.3259V33.3995H64.688V34.1845H68.1109ZM62.4882 31.2088H66.0206V30.5242H62.4882V31.2088Z" fill="#3A5A8A"/>
<defs>
<linearGradient id="paint0_linear_674_33994" x1="96.6287" y1="-0.181216" x2="13.8708" y2="44.8587" gradientUnits="userSpaceOnUse">
<stop offset="0.5" stop-color="#809AF5"/>
<stop offset="0.5" stop-color="#3867E2"/>
</linearGradient>
</defs>
</svg>
