<svg width="111" height="53" viewBox="0 0 111 53" fill="none" xmlns="http://www.w3.org/2000/svg">
<path d="M37.9925 39.5544H12.3832C11.1782 39.5544 10.6853 42.0858 11.7406 42.6674C17.5551 45.8722 22.6667 50.2645 24.525 51.9372C24.9424 52.3129 25.5857 52.3022 25.9914 51.9139C27.7764 50.2055 32.6861 45.7588 38.6012 42.5257C39.6526 41.951 39.1907 39.5544 37.9925 39.5544Z" fill="#4573E7"/>
<rect width="110.104" height="45.4013" rx="22.7007" fill="url(#paint0_linear_674_33995)"/>
<rect x="4.86819" y="4.86821" width="100.368" height="35.6649" rx="17.8325" fill="#D6DFF5"/>
<path d="M39.6573 13.6079L34.9196 18.3457M39.6573 13.6079C39.6573 13.6079 40.4487 11.7771 40.0218 11.4213C39.6831 11.1391 38.506 11.3046 38.0336 11.3851C37.9029 11.4074 37.7835 11.4686 37.6858 11.5581L33.4583 15.4301C31.3162 17.5722 29.9562 19.2648 30.4539 21.6188C30.5026 21.8494 30.4209 22.1154 30.2543 22.2821V22.2821C30.0009 22.5355 29.612 22.5135 29.3586 22.2601L18.2337 11.1352C17.7853 10.6867 17.0242 10.9906 17.0222 11.6248C16.9927 20.9232 20.4717 23.4 24.8473 24.1386C25.0002 24.1644 25.1427 24.236 25.2523 24.3457C25.5744 24.6678 25.8197 24.9131 26.0276 25.1216C26.3103 25.405 26.3102 25.8619 26.0267 26.1444C24.7412 27.4251 21.6832 30.4614 20.4582 31.6776C20.1706 31.963 20.1726 32.4268 20.4607 32.7117L22.7053 34.9313C22.9891 35.212 23.446 35.2121 23.73 34.9315L29.3444 29.3853C29.6139 29.1191 30.0424 29.1036 30.3303 29.3498L36.5661 34.6815C36.8681 34.9396 37.3211 34.9085 37.5848 34.6114L39.5286 32.4219C39.7995 32.1168 39.7672 31.6489 39.4571 31.3839L33.2379 26.069C32.9642 25.835 32.9247 25.4416 33.1785 25.1863V25.1863C33.336 25.0278 33.5912 24.9476 33.811 24.9877C36.2717 25.4366 38.9228 23.3987 39.6538 22.3545L43.8371 17.8262C43.9615 17.6916 44.0306 17.515 44.0306 17.3316V16.2906C44.0306 15.8402 43.6262 15.4975 43.1819 15.5716L41.8439 15.7946M39.6573 13.6079L41.2463 13.3809C41.7274 13.3122 42.1397 13.7245 42.071 14.2056L41.8439 15.7946M41.8439 15.7946L37.1062 20.5323" stroke="#4573E7" stroke-width="1.89508" stroke-linecap="round"/>
<path d="M61.4173 18.3424C61.4023 18.6875 61.3836 18.9914 61.3611 19.254C61.3386 19.509 61.3123 19.7304 61.2823 19.9179C61.2448 20.128 61.196 20.3043 61.136 20.4468C61.0835 20.5894 61.0047 20.7057 60.8997 20.7957C60.7946 20.8932 60.6596 20.9645 60.4945 21.0095C60.3295 21.0545 60.1232 21.0845 59.8756 21.0995C59.493 21.1221 59.1179 21.1221 58.7502 21.0995C58.5402 21.092 58.3526 21.062 58.1876 21.0095C58.03 20.9645 57.895 20.8895 57.7824 20.7844C57.6699 20.6794 57.5836 20.5369 57.5236 20.3568C57.4711 20.1843 57.4448 19.9629 57.4448 19.6929V14.505H55.3742C55.3517 15.1051 55.3104 15.6453 55.2504 16.1255C55.1979 16.6056 55.1153 17.0483 55.0028 17.4534C54.8903 17.851 54.7477 18.2186 54.5752 18.5562C54.4101 18.8939 54.2038 19.224 53.9562 19.5466C53.7161 19.8617 53.4348 20.1768 53.1122 20.4919C52.7971 20.8145 52.4332 21.1521 52.0206 21.5047L51.1991 20.5706C51.7468 20.113 52.2082 19.6929 52.5833 19.3102C52.9584 18.9276 53.2585 18.5187 53.4836 18.0836C53.7161 17.641 53.8887 17.1383 54.0012 16.5756C54.1138 16.0129 54.1813 15.3227 54.2038 14.505H51.6492V13.3121H54.2376C54.2451 13.102 54.2488 12.8807 54.2488 12.6481C54.2563 12.408 54.2638 12.1867 54.2713 11.9842C54.2788 11.7816 54.2826 11.609 54.2826 11.4665C54.2901 11.3164 54.2938 11.2227 54.2938 11.1852L55.4529 11.2302C55.4454 11.4477 55.4379 11.7478 55.4304 12.1305C55.4304 12.5131 55.4229 12.907 55.4079 13.3121H58.6039V19.4903C58.6039 19.6553 58.634 19.7679 58.694 19.8279C58.7615 19.8879 58.8815 19.9254 59.0541 19.9404C59.2491 19.9629 59.4517 19.9629 59.6618 19.9404C59.7743 19.9329 59.8606 19.9179 59.9206 19.8954C59.9881 19.8729 60.0406 19.8429 60.0782 19.8054C60.1232 19.7679 60.1532 19.7191 60.1682 19.6591C60.1907 19.5991 60.2095 19.5278 60.2245 19.4453C60.2545 19.2727 60.2807 19.0627 60.3032 18.8151C60.3332 18.56 60.352 18.2899 60.3595 18.0048L61.4173 18.3424ZM72.2812 16.1142H67.9486V21.3246H66.767V16.1142H62.5244V14.9326H66.767V11.1852L67.9486 11.2302V14.9326H72.2812V16.1142ZM83.1114 15.2702C82.8638 15.1652 82.6162 15.0526 82.3687 14.9326C82.1211 14.8126 81.8773 14.685 81.6372 14.55V18.0948L81.9073 17.9035L82.4137 18.68C82.1736 18.8376 81.9073 19.0026 81.6147 19.1752C81.3221 19.3477 81.0257 19.509 80.7256 19.6591C81.1233 19.8091 81.4909 19.9517 81.8285 20.0867C82.1661 20.2143 82.4512 20.3306 82.6838 20.4356L82.4249 21.4484C82.2224 21.3509 81.9673 21.2346 81.6597 21.0995C81.3596 20.972 81.0295 20.8332 80.6694 20.6832C80.3168 20.5406 79.9454 20.3943 79.5553 20.2443C79.1726 20.1017 78.8013 19.9629 78.4412 19.8279L78.4637 20.6607C78.3661 20.6757 78.2048 20.7094 77.9798 20.7619C77.7547 20.8145 77.5109 20.8707 77.2483 20.9307C76.9857 20.9983 76.7269 21.062 76.4718 21.1221C76.2167 21.1896 76.0141 21.2458 75.8641 21.2909C75.7141 21.3284 75.564 21.3734 75.414 21.4259C75.2639 21.4784 75.1176 21.5347 74.9751 21.5947L74.5924 20.6156C74.7575 20.4881 74.8588 20.3831 74.8963 20.3005C74.9413 20.218 74.9638 20.1355 74.9638 20.053V14.685C74.7537 14.7976 74.5399 14.9063 74.3224 15.0114C74.1048 15.1164 73.8872 15.2214 73.6697 15.3265L73.2533 14.2686C74.2736 13.841 75.1851 13.3571 75.9879 12.8169C76.7906 12.2693 77.4433 11.6841 77.946 11.0614H78.8688C79.364 11.6691 80.0092 12.243 80.8044 12.7832C81.5997 13.3233 82.5 13.7997 83.5053 14.2124L83.1114 15.2702ZM81.2771 14.3474C80.6769 14.0023 80.1292 13.6422 79.634 13.2671C79.1389 12.8844 78.7338 12.5093 78.4187 12.1417C78.1036 12.5018 77.6984 12.8694 77.2033 13.2446C76.7156 13.6197 76.1642 13.9873 75.549 14.3474H78.0248L77.6984 13.2446L78.6325 13.0645C78.6925 13.2371 78.7563 13.4396 78.8238 13.6722C78.8988 13.9048 78.9663 14.1298 79.0264 14.3474H81.2771ZM76.0667 15.2364V15.9454H80.5231V15.2364H76.0667ZM76.0667 17.4984H80.5231V16.8007H76.0667V17.4984ZM76.0667 20.1993C76.1792 20.1693 76.318 20.1355 76.483 20.098C76.6481 20.053 76.8207 20.008 77.0007 19.9629C77.1883 19.9179 77.3721 19.8729 77.5521 19.8279C77.7397 19.7829 77.9122 19.7379 78.0698 19.6929C77.7697 19.5878 77.4921 19.494 77.237 19.4115C76.9895 19.329 76.7756 19.2615 76.5956 19.2089L76.9332 18.3987H76.0667V20.1993ZM79.6003 19.2427C79.8479 19.1227 80.1029 18.9914 80.3655 18.8488C80.6356 18.7063 80.8982 18.5562 81.1533 18.3987H77.0682C77.3608 18.4812 77.7322 18.5975 78.1823 18.7476C78.6325 18.8976 79.1051 19.0627 79.6003 19.2427ZM86.1653 15.529H85.0962V13.0532H87.0206C86.833 12.8357 86.6417 12.6256 86.4467 12.423C86.2591 12.2205 86.0903 12.0479 85.9403 11.9054L86.7055 11.1739C86.7955 11.2639 86.8931 11.3652 86.9981 11.4778C87.1106 11.5903 87.2232 11.7103 87.3357 11.8379C87.4482 11.9579 87.5608 12.0817 87.6733 12.2092C87.7858 12.3368 87.8909 12.4568 87.9884 12.5693L87.5833 13.0532H89.035V11.1852L90.1266 11.2302V13.0532H91.522L91.0719 12.6706C91.1619 12.5806 91.2669 12.4718 91.387 12.3443C91.5145 12.2092 91.6383 12.0742 91.7584 11.9391C91.8859 11.7966 92.0022 11.6616 92.1072 11.534C92.2197 11.399 92.3098 11.2864 92.3773 11.1964L93.1876 11.8266C93.0525 11.9992 92.8875 12.198 92.6924 12.423C92.5048 12.6481 92.321 12.8582 92.141 13.0532H94.0541V15.529H92.985V14.0886H86.1653V15.529ZM94.3017 20.278V21.2233H84.8149V20.278H88.99V19.3102H85.794V18.3424H88.99V17.5209H86.3004V14.8538H92.8387V17.5209H90.0816V18.3424H93.3339V19.3102H90.0816V20.278H94.3017ZM87.3695 16.6094H91.7246V15.7654H87.3695V16.6094Z" fill="#123871"/>
<path d="M59.0343 30.1225C58.8335 30.0373 58.6327 29.9461 58.4319 29.8487C58.2311 29.7513 58.0333 29.6479 57.8386 29.5384V32.4136L58.0576 32.2585L58.4684 32.8883C58.2737 33.0161 58.0576 33.15 57.8203 33.2899C57.583 33.4299 57.3426 33.5607 57.0992 33.6824C57.4217 33.8041 57.7199 33.9197 57.9937 34.0293C58.2676 34.1327 58.4988 34.227 58.6875 34.3122L58.4775 35.1338C58.3132 35.0546 58.1063 34.9603 57.8568 34.8508C57.6134 34.7473 57.3457 34.6348 57.0536 34.5131C56.7676 34.3974 56.4663 34.2788 56.1499 34.1571C55.8396 34.0414 55.5383 33.9289 55.2463 33.8193L55.2645 34.4948C55.1854 34.507 55.0546 34.5344 54.872 34.5769C54.6895 34.6195 54.4917 34.6652 54.2787 34.7139C54.0657 34.7686 53.8558 34.8204 53.6489 34.869C53.442 34.9238 53.2777 34.9694 53.156 35.006C53.0343 35.0364 52.9126 35.0729 52.7909 35.1155C52.6691 35.1581 52.5505 35.2037 52.4349 35.2524L52.1245 34.4583C52.2584 34.3548 52.3405 34.2696 52.371 34.2027C52.4075 34.1358 52.4257 34.0688 52.4257 34.0019V29.6479C52.2553 29.7392 52.0819 29.8274 51.9054 29.9126C51.729 29.9978 51.5525 30.083 51.376 30.1682L51.0383 29.3102C51.8659 28.9633 52.6053 28.5708 53.2564 28.1327C53.9075 27.6884 54.4369 27.2138 54.8446 26.7087H55.5931C55.9947 27.2016 56.5181 27.6671 57.1631 28.1053C57.8081 28.5434 58.5384 28.9298 59.3538 29.2645L59.0343 30.1225ZM57.5465 29.3741C57.0597 29.0941 56.6154 28.802 56.2138 28.4978C55.8122 28.1874 55.4836 27.8832 55.228 27.585C54.9724 27.8771 54.6438 28.1753 54.2422 28.4795C53.8466 28.7838 53.3994 29.082 52.9004 29.3741H54.9085L54.6438 28.4795L55.4014 28.3335C55.4501 28.4734 55.5018 28.6377 55.5566 28.8264C55.6175 29.015 55.6722 29.1976 55.7209 29.3741H57.5465ZM53.3203 30.0952V30.6702H56.9349V30.0952H53.3203ZM53.3203 31.9299H56.9349V31.3639H53.3203V31.9299ZM53.3203 34.1206C53.4115 34.0962 53.5241 34.0688 53.658 34.0384C53.7919 34.0019 53.9318 33.9654 54.0779 33.9289C54.23 33.8924 54.3791 33.8558 54.5252 33.8193C54.6773 33.7828 54.8172 33.7463 54.945 33.7098C54.7016 33.6246 54.4765 33.5485 54.2696 33.4816C54.0688 33.4147 53.8953 33.3599 53.7493 33.3173L54.0231 32.6601H53.3203V34.1206ZM56.1864 33.3447C56.3872 33.2473 56.5941 33.1408 56.8071 33.0252C57.0262 32.9096 57.2392 32.7879 57.4461 32.6601H54.1327C54.37 32.727 54.6712 32.8214 55.0363 32.9431C55.4014 33.0648 55.7848 33.1986 56.1864 33.3447ZM61.5114 30.3325H60.6443V28.3243H62.2051C62.053 28.1479 61.8978 27.9775 61.7396 27.8132C61.5875 27.6489 61.4506 27.5089 61.3289 27.3933L61.9495 26.8C62.0226 26.873 62.1017 26.9552 62.1869 27.0464C62.2782 27.1377 62.3694 27.2351 62.4607 27.3385C62.552 27.4359 62.6433 27.5363 62.7345 27.6398C62.8258 27.7432 62.911 27.8406 62.9901 27.9318L62.6615 28.3243H63.839V26.8091L64.7244 26.8456V28.3243H65.8563L65.4912 28.014C65.5642 27.941 65.6494 27.8527 65.7468 27.7493C65.8502 27.6398 65.9506 27.5302 66.048 27.4207C66.1514 27.3051 66.2457 27.1955 66.3309 27.0921C66.4222 26.9825 66.4952 26.8913 66.55 26.8182L67.2072 27.3294C67.0977 27.4694 66.9638 27.6306 66.8056 27.8132C66.6535 27.9957 66.5044 28.1661 66.3583 28.3243H67.9101V30.3325H67.0429V29.1641H61.5114V30.3325ZM68.1109 34.1845V34.9512H60.4161V34.1845H63.8025V33.3995H61.2102V32.6145H63.8025V31.9481H61.6209V29.7848H66.9242V31.9481H64.6879V32.6145H67.3259V33.3995H64.6879V34.1845H68.1109ZM62.4881 31.2088H66.0206V30.5242H62.4881V31.2088Z" fill="#3A5A8A"/>
<defs>
<linearGradient id="paint0_linear_674_33995" x1="96.6287" y1="-0.181216" x2="13.8708" y2="44.8587" gradientUnits="userSpaceOnUse">
<stop offset="0.5" stop-color="#809AF5"/>
<stop offset="0.5" stop-color="#3867E2"/>
</linearGradient>
</defs>
</svg>
