<svg width="111" height="53" viewBox="0 0 111 53" fill="none" xmlns="http://www.w3.org/2000/svg">
<path d="M37.9925 39.5544H12.3832C11.1782 39.5544 10.6853 42.0858 11.7406 42.6674C17.5551 45.8722 22.6667 50.2645 24.525 51.9372C24.9424 52.3129 25.5857 52.3022 25.9914 51.9139C27.7764 50.2055 32.6861 45.7588 38.6012 42.5257C39.6526 41.951 39.1907 39.5544 37.9925 39.5544Z" fill="#4573E7"/>
<rect width="110.104" height="45.4013" rx="22.7007" fill="url(#paint0_linear_674_33993)"/>
<rect x="4.86823" y="4.86823" width="100.368" height="35.6649" rx="17.8325" fill="#D6DFF5"/>
<path d="M39.6574 13.608L34.9197 18.3457M39.6574 13.608C39.6574 13.608 40.4488 11.7771 40.0218 11.4213C39.6832 11.1391 38.506 11.3046 38.0336 11.3851C37.903 11.4074 37.7835 11.4686 37.6858 11.5581L33.4584 15.4302C31.3163 17.5723 29.9563 19.2648 30.4539 21.6188C30.5027 21.8494 30.421 22.1154 30.2544 22.2821V22.2821C30.0009 22.5355 29.6121 22.5135 29.3586 22.2601L18.2338 11.1352C17.7853 10.6867 17.0243 10.9906 17.0223 11.6248C16.9928 20.9232 20.4718 23.4 24.8474 24.1386C25.0002 24.1644 25.1428 24.2361 25.2524 24.3457C25.5745 24.6678 25.8197 24.9131 26.0277 25.1216C26.3103 25.405 26.3103 25.8619 26.0267 26.1444C24.7413 27.4252 21.6832 30.4615 20.4582 31.6776C20.1707 31.9631 20.1726 32.4268 20.4607 32.7117L22.7053 34.9313C22.9892 35.212 23.446 35.2121 23.7301 34.9315L29.3445 29.3853C29.614 29.1191 30.0425 29.1037 30.3304 29.3498L36.5662 34.6815C36.8681 34.9397 37.3212 34.9085 37.5849 34.6114L39.5287 32.4219C39.7995 32.1169 39.7673 31.6489 39.4572 31.3839L33.2379 26.069C32.9642 25.8351 32.9247 25.4416 33.1785 25.1863V25.1863C33.3361 25.0278 33.5912 24.9477 33.811 24.9878C36.2718 25.4366 38.9229 23.3987 39.6538 22.3545L43.8372 17.8262C43.9616 17.6916 44.0306 17.515 44.0306 17.3316V16.2906C44.0306 15.8402 43.6262 15.4976 43.1819 15.5716L41.844 15.7946M39.6574 13.608L41.2464 13.381C41.7274 13.3122 42.1397 13.7246 42.071 14.2056L41.844 15.7946M41.844 15.7946L37.1063 20.5323" stroke="#4573E7" stroke-width="1.89508" stroke-linecap="round"/>
<path d="M52.1557 13.1546V11.9955H60.4833V13.1546H52.1557ZM52.6396 16.6544V15.5516H60.0107V16.6544H52.6396ZM51.458 20.6382V19.5241H61.1923V20.6382H51.458ZM71.7411 11.9842V21.2797H70.627V20.5594H64.1337V21.2797H63.0309V11.9842H71.7411ZM70.627 19.4791V17.8248H69.4904C68.9728 17.8248 68.5864 17.7235 68.3313 17.521C68.0762 17.3109 67.9487 16.9283 67.9487 16.3731V13.0871H66.7671V14.4262C66.7671 14.9364 66.737 15.3715 66.677 15.7316C66.617 16.0918 66.5157 16.4219 66.3732 16.722C66.2306 17.0146 66.0393 17.2921 65.7993 17.5547C65.5667 17.8173 65.2778 18.1024 64.9327 18.41L64.145 17.6335C64.4676 17.3709 64.7264 17.1308 64.9215 16.9133C65.124 16.6957 65.2778 16.4706 65.3829 16.2381C65.4954 15.998 65.5667 15.7354 65.5967 15.4503C65.6342 15.1577 65.653 14.8051 65.653 14.3925V13.0871H64.1337V19.4791H70.627ZM70.627 13.0871H69.029V15.9342C69.029 16.2418 69.0815 16.4444 69.1866 16.5419C69.2916 16.6394 69.5017 16.6882 69.8168 16.6882H70.627V13.0871ZM83.1115 15.2702C82.8639 15.1652 82.6163 15.0527 82.3687 14.9326C82.1211 14.8126 81.8773 14.6851 81.6372 14.55V18.0949L81.9073 17.9036L82.4137 18.6801C82.1737 18.8376 81.9073 19.0027 81.6147 19.1752C81.3221 19.3478 81.0258 19.5091 80.7257 19.6591C81.1233 19.8092 81.4909 19.9517 81.8285 20.0868C82.1662 20.2143 82.4512 20.3306 82.6838 20.4356L82.425 21.4485C82.2224 21.3509 81.9673 21.2346 81.6597 21.0996C81.3597 20.9721 81.0295 20.8333 80.6694 20.6832C80.3168 20.5407 79.9455 20.3944 79.5553 20.2443C79.1727 20.1018 78.8013 19.963 78.4412 19.8279L78.4637 20.6607C78.3662 20.6757 78.2049 20.7095 77.9798 20.762C77.7548 20.8145 77.5109 20.8708 77.2483 20.9308C76.9858 20.9983 76.7269 21.0621 76.4719 21.1221C76.2168 21.1896 76.0142 21.2459 75.8642 21.2909C75.7141 21.3284 75.5641 21.3734 75.414 21.4259C75.264 21.4785 75.1177 21.5347 74.9751 21.5948L74.5925 20.6157C74.7576 20.4882 74.8588 20.3831 74.8964 20.3006C74.9414 20.2181 74.9639 20.1355 74.9639 20.053V14.6851C74.7538 14.7976 74.54 14.9064 74.3224 15.0114C74.1049 15.1164 73.8873 15.2215 73.6697 15.3265L73.2533 14.2687C74.2737 13.841 75.1852 13.3571 75.9879 12.817C76.7907 12.2693 77.4434 11.6841 77.9461 11.0614H78.8689C79.364 11.6691 80.0092 12.243 80.8045 12.7832C81.5997 13.3234 82.5 13.7998 83.5053 14.2124L83.1115 15.2702ZM81.2771 14.3475C80.6769 14.0023 80.1293 13.6422 79.6341 13.2671C79.1389 12.8845 78.7338 12.5094 78.4187 12.1418C78.1036 12.5019 77.6985 12.8695 77.2033 13.2446C76.7157 13.6197 76.1643 13.9873 75.5491 14.3475H78.0248L77.6985 13.2446L78.6325 13.0645C78.6926 13.2371 78.7563 13.4397 78.8238 13.6722C78.8989 13.9048 78.9664 14.1299 79.0264 14.3475H81.2771ZM76.0667 15.2365V15.9455H80.5231V15.2365H76.0667ZM76.0667 17.4985H80.5231V16.8007H76.0667V17.4985ZM76.0667 20.1993C76.1793 20.1693 76.3181 20.1355 76.4831 20.098C76.6482 20.053 76.8207 20.008 77.0008 19.963C77.1883 19.918 77.3721 19.873 77.5522 19.8279C77.7398 19.7829 77.9123 19.7379 78.0699 19.6929C77.7698 19.5879 77.4922 19.4941 77.2371 19.4116C76.9895 19.329 76.7757 19.2615 76.5956 19.209L76.9332 18.3987H76.0667V20.1993ZM79.6003 19.2428C79.8479 19.1227 80.103 18.9914 80.3656 18.8489C80.6357 18.7063 80.8983 18.5563 81.1533 18.3987H77.0683C77.3609 18.4813 77.7323 18.5976 78.1824 18.7476C78.6325 18.8976 79.1052 19.0627 79.6003 19.2428ZM86.1654 15.5291H85.0963V13.0533H87.0207C86.8331 12.8357 86.6418 12.6257 86.4467 12.4231C86.2592 12.2205 86.0904 12.048 85.9403 11.9054L86.7056 11.1739C86.7956 11.264 86.8931 11.3653 86.9982 11.4778C87.1107 11.5903 87.2232 11.7104 87.3358 11.8379C87.4483 11.9579 87.5608 12.0817 87.6734 12.2093C87.7859 12.3368 87.8909 12.4569 87.9885 12.5694L87.5833 13.0533H89.0351V11.1852L90.1266 11.2302V13.0533H91.5221L91.0719 12.6707C91.162 12.5806 91.267 12.4719 91.387 12.3443C91.5146 12.2093 91.6384 12.0742 91.7584 11.9392C91.886 11.7966 92.0022 11.6616 92.1073 11.5341C92.2198 11.399 92.3098 11.2865 92.3774 11.1965L93.1876 11.8267C93.0526 11.9992 92.8875 12.198 92.6925 12.4231C92.5049 12.6482 92.3211 12.8582 92.141 13.0533H94.0541V15.5291H92.9851V14.0886H86.1654V15.5291ZM94.3017 20.2781V21.2234H84.815V20.2781H88.99V19.3103H85.794V18.3425H88.99V17.521H86.3004V14.8539H92.8388V17.521H90.0816V18.3425H93.3339V19.3103H90.0816V20.2781H94.3017ZM87.3695 16.6094H91.7247V15.7654H87.3695V16.6094Z" fill="#123871"/>
<path d="M59.0344 30.1226C58.8336 30.0374 58.6328 29.9461 58.4319 29.8487C58.2311 29.7514 58.0334 29.6479 57.8386 29.5384V32.4137L58.0577 32.2585L58.4685 32.8883C58.2737 33.0161 58.0577 33.15 57.8204 33.29C57.5831 33.4299 57.3427 33.5607 57.0993 33.6825C57.4218 33.8042 57.72 33.9198 57.9938 34.0293C58.2676 34.1328 58.4989 34.2271 58.6875 34.3123L58.4776 35.1338C58.3133 35.0547 58.1064 34.9604 57.8569 34.8508C57.6135 34.7474 57.3457 34.6348 57.0536 34.5131C56.7676 34.3975 56.4664 34.2788 56.15 34.1571C55.8396 34.0415 55.5384 33.9289 55.2463 33.8194L55.2646 34.4948C55.1855 34.507 55.0546 34.5344 54.8721 34.577C54.6895 34.6196 54.4917 34.6652 54.2788 34.7139C54.0658 34.7687 53.8558 34.8204 53.6489 34.8691C53.442 34.9238 53.2777 34.9695 53.156 35.006C53.0343 35.0364 52.9126 35.0729 52.7909 35.1155C52.6692 35.1581 52.5505 35.2038 52.4349 35.2525L52.1246 34.4583C52.2585 34.3549 52.3406 34.2697 52.371 34.2027C52.4075 34.1358 52.4258 34.0689 52.4258 34.0019V29.6479C52.2554 29.7392 52.082 29.8274 51.9055 29.9126C51.729 29.9978 51.5526 30.083 51.3761 30.1682L51.0384 29.3102C51.866 28.9633 52.6053 28.5708 53.2564 28.1327C53.9076 27.6885 54.437 27.2138 54.8447 26.7087H55.5932C55.9948 27.2017 56.5181 27.6672 57.1632 28.1053C57.8082 28.5435 58.5384 28.9299 59.3539 29.2646L59.0344 30.1226ZM57.5465 29.3741C57.0597 29.0942 56.6155 28.8021 56.2139 28.4978C55.8122 28.1875 55.4836 27.8832 55.2281 27.585C54.9725 27.8771 54.6439 28.1753 54.2422 28.4796C53.8467 28.7838 53.3994 29.082 52.9004 29.3741H54.9086L54.6439 28.4796L55.4015 28.3335C55.4502 28.4735 55.5019 28.6378 55.5567 28.8264C55.6175 29.0151 55.6723 29.1976 55.721 29.3741H57.5465ZM53.3203 30.0952V30.6703H56.935V30.0952H53.3203ZM53.3203 31.9299H56.935V31.364H53.3203V31.9299ZM53.3203 34.1206C53.4116 34.0963 53.5242 34.0689 53.6581 34.0384C53.7919 34.0019 53.9319 33.9654 54.0779 33.9289C54.2301 33.8924 54.3792 33.8559 54.5252 33.8194C54.6773 33.7829 54.8173 33.7463 54.9451 33.7098C54.7017 33.6246 54.4765 33.5486 54.2696 33.4816C54.0688 33.4147 53.8954 33.3599 53.7493 33.3173L54.0232 32.6601H53.3203V34.1206ZM56.1865 33.3447C56.3873 33.2474 56.5942 33.1409 56.8072 33.0252C57.0263 32.9096 57.2392 32.7879 57.4461 32.6601H54.1327C54.37 32.7271 54.6713 32.8214 55.0364 32.9431C55.4015 33.0648 55.7849 33.1987 56.1865 33.3447ZM61.5115 30.3325H60.6443V28.3244H62.2052C62.0531 28.1479 61.8979 27.9775 61.7397 27.8132C61.5875 27.6489 61.4506 27.509 61.3289 27.3933L61.9496 26.8C62.0226 26.873 62.1017 26.9552 62.1869 27.0465C62.2782 27.1378 62.3695 27.2351 62.4608 27.3386C62.5521 27.4359 62.6433 27.5363 62.7346 27.6398C62.8259 27.7432 62.9111 27.8406 62.9902 27.9319L62.6616 28.3244H63.8391V26.8092L64.7245 26.8457V28.3244H65.8563L65.4912 28.014C65.5643 27.941 65.6494 27.8528 65.7468 27.7493C65.8503 27.6398 65.9507 27.5303 66.048 27.4207C66.1515 27.3051 66.2458 27.1956 66.331 27.0921C66.4223 26.9826 66.4953 26.8913 66.5501 26.8183L67.2073 27.3294C67.0977 27.4694 66.9639 27.6307 66.8056 27.8132C66.6535 27.9958 66.5044 28.1662 66.3584 28.3244H67.9101V30.3325H67.043V29.1641H61.5115V30.3325ZM68.1109 34.1845V34.9512H60.4161V34.1845H63.8026V33.3995H61.2103V32.6145H63.8026V31.9482H61.621V29.7848H66.9243V31.9482H64.688V32.6145H67.3259V33.3995H64.688V34.1845H68.1109ZM62.4882 31.2088H66.0206V30.5242H62.4882V31.2088Z" fill="#3A5A8A"/>
<defs>
<linearGradient id="paint0_linear_674_33993" x1="96.6287" y1="-0.181216" x2="13.8708" y2="44.8587" gradientUnits="userSpaceOnUse">
<stop offset="0.5" stop-color="#809AF5"/>
<stop offset="0.5" stop-color="#3867E2"/>
</linearGradient>
</defs>
</svg>
