<svg width="122" height="52" viewBox="0 0 122 52" fill="none" xmlns="http://www.w3.org/2000/svg">
<path d="M35.7327 38H10.1234C8.91846 38 8.42552 40.5313 9.48079 41.1129C15.2953 44.3178 20.407 48.71 22.2653 50.3828C22.6827 50.7585 23.3259 50.7478 23.7316 50.3595C25.5166 48.651 30.4263 44.2043 36.3415 40.9712C37.3929 40.3966 36.9309 38 35.7327 38Z" fill="#4573E7"/>
<rect width="121.104" height="45.4013" rx="22.7007" fill="url(#paint0_linear_674_34004)"/>
<rect x="4.86823" y="4.86823" width="111.368" height="35.6649" rx="17.8325" fill="#D6DFF5"/>
<path d="M29.1745 23.2523V17.7268C29.1745 16.6211 29.5417 16.3764 30.5236 16.3764H39.9765C41.3903 16.3764 44.0292 18.2796 44.0292 21.8386C44.0292 22.5757 43.4159 23.189 42.6788 23.189H29.1745V23.2523ZM24.5085 23.2523C22.6658 23.2523 21.1325 21.719 21.1325 19.8157C21.1325 17.9139 22.6067 16.3806 24.5085 16.3806C26.3513 16.3806 27.8846 17.9139 27.8846 19.8157C27.8241 21.7176 26.3513 23.2523 24.5085 23.2523ZM44.0292 26.0151V31.172C44.0292 31.9091 43.4159 32.5224 42.6788 32.5224C42.3217 32.5195 41.9801 32.3762 41.7277 32.1236C41.4753 31.8709 41.3324 31.5291 41.3298 31.172V28.7173C41.3272 28.36 41.1841 28.018 40.9314 27.7653C40.6787 27.5126 40.3367 27.3695 39.9794 27.3669H21.0706C20.7132 27.3695 20.3712 27.5126 20.1185 27.7653C19.8658 28.018 19.7227 28.36 19.7201 28.7173V31.172C19.7201 31.9091 19.1082 32.5224 18.3725 32.5224C18.0152 32.5199 17.6732 32.3768 17.4205 32.1241C17.1678 31.8714 17.0247 31.5294 17.0221 31.172V14.2297C17.0221 13.6769 17.2669 12.8793 18.3725 12.8793C18.3725 12.8793 19.7215 12.8202 19.7215 14.2297V23.2523C19.7215 23.9894 20.3349 24.6027 21.072 24.6027H42.6788C43.2302 24.6027 44.0306 24.7251 44.0306 26.0151H44.0292Z" fill="#2566E5"/>
<path d="M61.4174 18.3425C61.4024 18.6876 61.3836 18.9914 61.3611 19.254C61.3386 19.5091 61.3124 19.7304 61.2824 19.918C61.2448 20.128 61.1961 20.3043 61.1361 20.4469C61.0835 20.5894 61.0048 20.7057 60.8997 20.7957C60.7947 20.8933 60.6597 20.9646 60.4946 21.0096C60.3296 21.0546 60.1232 21.0846 59.8757 21.0996C59.493 21.1221 59.1179 21.1221 58.7503 21.0996C58.5402 21.0921 58.3527 21.0621 58.1876 21.0096C58.0301 20.9646 57.895 20.8895 57.7825 20.7845C57.67 20.6795 57.5837 20.5369 57.5237 20.3569C57.4711 20.1843 57.4449 19.963 57.4449 19.6929V14.505H55.3742C55.3517 15.1052 55.3105 15.6454 55.2504 16.1255C55.1979 16.6057 55.1154 17.0483 55.0029 17.4534C54.8903 17.8511 54.7478 18.2187 54.5752 18.5563C54.4102 18.8939 54.2039 19.224 53.9563 19.5466C53.7162 19.8617 53.4349 20.1768 53.1123 20.4919C52.7972 20.8145 52.4333 21.1521 52.0207 21.5047L51.1992 20.5707C51.7468 20.113 52.2082 19.6929 52.5833 19.3103C52.9585 18.9277 53.2586 18.5188 53.4836 18.0836C53.7162 17.641 53.8888 17.1383 54.0013 16.5757C54.1138 16.013 54.1814 15.3228 54.2039 14.505H51.6493V13.3121H54.2376C54.2451 13.1021 54.2489 12.8807 54.2489 12.6482C54.2564 12.4081 54.2639 12.1868 54.2714 11.9842C54.2789 11.7816 54.2826 11.6091 54.2826 11.4665C54.2901 11.3165 54.2939 11.2227 54.2939 11.1852L55.453 11.2302C55.4455 11.4478 55.438 11.7479 55.4305 12.1305C55.4305 12.5131 55.423 12.907 55.408 13.3121H58.604V19.4903C58.604 19.6554 58.634 19.7679 58.694 19.8279C58.7616 19.888 58.8816 19.9255 59.0541 19.9405C59.2492 19.963 59.4518 19.963 59.6618 19.9405C59.7744 19.933 59.8607 19.918 59.9207 19.8955C59.9882 19.873 60.0407 19.8429 60.0782 19.8054C60.1232 19.7679 60.1532 19.7192 60.1682 19.6591C60.1908 19.5991 60.2095 19.5278 60.2245 19.4453C60.2545 19.2728 60.2808 19.0627 60.3033 18.8151C60.3333 18.56 60.3521 18.29 60.3596 18.0049L61.4174 18.3425ZM63.7736 14.7751C64.0587 14.5575 64.3813 14.2799 64.7414 13.9423C65.1015 13.5972 65.4466 13.2446 65.7767 12.8845H62.9408V11.8267H71.8762V12.8845H67.2172C67.0371 13.0871 66.8533 13.2896 66.6658 13.4922C66.4782 13.6947 66.2944 13.8861 66.1144 14.0661C65.9343 14.2387 65.7617 14.4 65.5967 14.55C65.4316 14.7001 65.2891 14.8276 65.1691 14.9326L69.5017 14.7863C69.3216 14.5913 69.1378 14.4037 68.9503 14.2237C68.7702 14.0361 68.5864 13.8523 68.3988 13.6722L69.1641 12.9745C70.1244 13.8073 71.0022 14.6738 71.7974 15.5741L71.0659 16.5194C70.9609 16.3994 70.8559 16.2793 70.7508 16.1593C70.6458 16.0392 70.5408 15.9192 70.4357 15.7992C70.2557 15.7992 69.9968 15.8067 69.6592 15.8217C69.3291 15.8292 68.954 15.8404 68.5339 15.8554C68.1212 15.8629 67.6823 15.8779 67.2172 15.9004C66.7521 15.9155 66.2907 15.9342 65.833 15.9567C65.3754 15.9717 64.9402 15.9905 64.5276 16.013C64.115 16.0355 63.7586 16.058 63.4585 16.0805L63.1997 15.0452C63.3572 15.0077 63.4773 14.9627 63.5598 14.9101C63.6423 14.8576 63.7136 14.8126 63.7736 14.7751ZM72.3376 19.9967V21.0208H62.4682V19.9967H66.8571V18.4775H63.4022V17.4422H66.8571V16.0918L67.9824 16.1368V17.4422H71.4148V18.4775H67.9824V19.9967H72.3376ZM83.359 16.1143H79.0264V21.3247H77.8448V16.1143H73.6022V14.9326H77.8448V11.1852L79.0264 11.2302V14.9326H83.359V16.1143ZM85.6477 13.5485V12.3556H93.4577V13.5485H85.6477ZM84.6237 20.5144V19.344H94.4818V20.5144H84.6237ZM102.904 16.9358V20.008C102.904 20.2631 102.877 20.4694 102.825 20.6269C102.78 20.7845 102.701 20.9083 102.589 20.9983C102.484 21.0958 102.341 21.1671 102.161 21.2121C101.988 21.2571 101.771 21.2947 101.508 21.3247L100.912 21.3922L100.54 20.3006L101.171 20.2331C101.298 20.2181 101.403 20.2031 101.486 20.1881C101.568 20.1655 101.632 20.1355 101.677 20.098C101.722 20.0605 101.752 20.008 101.767 19.9405C101.79 19.8655 101.801 19.7642 101.801 19.6366V16.9358H99.3025L98.7961 17.521C98.6911 17.3484 98.5748 17.1721 98.4473 16.992C98.3197 16.812 98.1922 16.6394 98.0646 16.4744V21.3247H97.0293V16.767C96.8793 17.1121 96.7217 17.4497 96.5567 17.7798C96.3991 18.1024 96.2341 18.4062 96.0615 18.6913L95.3075 17.9036C95.4501 17.671 95.5963 17.4122 95.7464 17.1271C95.8964 16.8345 96.0427 16.5306 96.1853 16.2155C96.3353 15.8929 96.4741 15.5666 96.6017 15.2365C96.7367 14.8989 96.8567 14.5725 96.9618 14.2574H95.8927V13.1771H97.0293V11.1852L98.0646 11.2302V13.1771H99.1562V14.2574H98.0646V15.5516L98.3347 15.259C98.4773 15.409 98.6348 15.6004 98.8074 15.8329C98.9874 16.058 99.1525 16.2756 99.3025 16.4856L99.3138 15.8892C99.3738 15.7917 99.4413 15.6641 99.5163 15.5066C99.5989 15.3415 99.6814 15.1615 99.7639 14.9664C99.8539 14.7638 99.944 14.5463 100.034 14.3137C100.124 14.0811 100.214 13.8448 100.304 13.6047H99.2913V12.5469H100.675C100.773 12.2468 100.859 11.973 100.934 11.7254C101.017 11.4703 101.077 11.2565 101.114 11.0839L102.138 11.3315C102.101 11.474 102.048 11.6504 101.981 11.8604C101.913 12.0705 101.838 12.2993 101.756 12.5469H105.256V13.6047H101.384C101.294 13.8523 101.204 14.0961 101.114 14.3362C101.032 14.5763 100.949 14.7976 100.867 15.0002C100.784 15.2027 100.709 15.3828 100.642 15.5403C100.574 15.6904 100.518 15.8067 100.473 15.8892H101.801V14.1111L102.904 14.1561V15.8892H105.143V16.9358H102.904ZM101.047 17.9486C100.784 18.4888 100.488 19.0327 100.158 19.5804C99.8277 20.1205 99.5013 20.6082 99.1787 21.0433L98.301 20.3456C98.466 20.143 98.6311 19.9255 98.7961 19.6929C98.9612 19.4528 99.1225 19.2052 99.28 18.9502C99.4376 18.6951 99.5839 18.4363 99.7189 18.1737C99.8614 17.9111 99.989 17.6523 100.102 17.3972L101.047 17.9486ZM104.119 17.4084C104.247 17.5885 104.389 17.8023 104.547 18.0499C104.712 18.29 104.873 18.5375 105.031 18.7926C105.196 19.0477 105.353 19.3028 105.503 19.5579C105.661 19.8054 105.796 20.0305 105.908 20.2331L104.997 20.9308C104.884 20.7132 104.749 20.4731 104.592 20.2106C104.442 19.9405 104.284 19.6704 104.119 19.4003C103.961 19.1302 103.804 18.8751 103.646 18.6351C103.496 18.3875 103.365 18.1812 103.253 18.0161L104.119 17.4084Z" fill="#123871"/>
<path d="M57.5465 29.6023C57.8204 29.7362 58.1186 29.8609 58.4411 29.9765C58.7697 30.0861 59.1257 30.1865 59.509 30.2778L59.2261 31.0901C58.8792 30.9867 58.5567 30.8832 58.2585 30.7798C57.9603 30.6763 57.6804 30.5638 57.4188 30.4421L57.7656 31.0627C57.3336 31.3548 56.8711 31.6226 56.3782 31.866C55.8853 32.1033 55.3863 32.3102 54.8812 32.4867L54.5435 31.7382C55.0364 31.58 55.5262 31.3853 56.0131 31.154C56.506 30.9228 56.9532 30.6763 57.3549 30.4147C57.2575 30.366 57.1632 30.3173 57.0719 30.2686C56.9806 30.2199 56.8924 30.1713 56.8072 30.1226C56.4847 30.3173 56.1226 30.5029 55.721 30.6794C55.3254 30.8498 54.8782 31.0141 54.3792 31.1723L54.1966 30.7524V33.5364H53.4572V28.0688L54.1966 28.1053V28.8903C54.5252 28.58 54.8295 28.2301 55.1094 27.8406C55.3893 27.4511 55.6145 27.0708 55.7849 26.6996L56.5516 27.01C56.5212 27.083 56.4877 27.156 56.4512 27.229C56.4147 27.296 56.3782 27.3629 56.3417 27.4298H58.8062V28.151C58.648 28.4187 58.4654 28.6743 58.2585 28.9177C58.0577 29.155 57.8204 29.3832 57.5465 29.6023ZM53.5577 27.01C53.4603 27.369 53.3538 27.7189 53.2382 28.0597C53.1286 28.4004 53.0039 28.7351 52.8639 29.0637V35.0699H52.0698V30.7068C51.9846 30.8528 51.8994 31.0019 51.8142 31.154C51.729 31.3001 51.6378 31.4461 51.5404 31.5922L50.9106 30.9623C51.0688 30.7189 51.2361 30.4329 51.4126 30.1043C51.5952 29.7696 51.7686 29.4167 51.9329 29.0455C52.1033 28.6743 52.2615 28.297 52.4075 27.9136C52.5536 27.5242 52.6692 27.156 52.7544 26.8092L53.5577 27.01ZM55.8944 28.1692C55.8822 28.1814 55.8731 28.1935 55.867 28.2057C55.867 28.2179 55.8609 28.2301 55.8488 28.2422C55.9765 28.4187 56.1195 28.583 56.2778 28.7351C56.436 28.8812 56.6155 29.0242 56.8163 29.1641C57.0232 29.0181 57.2058 28.8629 57.364 28.6986C57.5283 28.5343 57.6743 28.3579 57.8021 28.1692H55.8944ZM54.1966 30.3416C54.58 30.2199 54.9238 30.1013 55.2281 29.9857C55.5384 29.864 55.8214 29.7392 56.077 29.6114C55.9431 29.5019 55.8183 29.3863 55.7027 29.2646C55.5871 29.1428 55.4745 29.012 55.365 28.8721C55.1277 29.152 54.8538 29.4289 54.5435 29.7027L54.1966 29.228V30.3416ZM58.4776 31.9664C57.9786 32.3498 57.4005 32.6966 56.7433 33.007C56.0922 33.3173 55.4137 33.582 54.7078 33.8011L54.3883 33.0983C55.082 32.8853 55.7392 32.6327 56.3599 32.3407C56.9806 32.0425 57.5496 31.7169 58.0668 31.364L58.4776 31.9664ZM53.9958 34.4401C54.9268 34.2088 55.797 33.9137 56.6064 33.5547C57.4218 33.1956 58.152 32.7788 58.7971 32.3041L59.2169 32.9157C58.5902 33.4269 57.866 33.8589 57.0445 34.2119C56.2291 34.5709 55.3254 34.8782 54.3335 35.1338L53.9958 34.4401ZM63.3188 30.4968H62.4243V26.873L63.3188 26.9096V30.4968ZM66.3401 29.438C66.8269 29.6692 67.4598 29.8487 68.2387 29.9765L67.974 30.7889C67.4446 30.6733 66.9852 30.5485 66.5957 30.4147C66.2062 30.2808 65.8533 30.1165 65.5369 29.9218C65.2752 30.0556 64.9922 30.1834 64.688 30.3051C64.3837 30.4268 64.0551 30.5394 63.7022 30.6429L63.337 29.8305C63.8969 29.6844 64.3898 29.5262 64.8158 29.3558C64.6576 29.2098 64.5024 29.0485 64.3502 28.8721C64.2042 28.6895 64.0551 28.4887 63.903 28.2696L64.3594 27.9593H63.62V27.1834H67.7367V27.941C67.4081 28.5069 66.9426 29.0059 66.3401 29.438ZM61.6393 30.3782H60.7812V27.2108L61.6393 27.2473V30.3782ZM64.6332 27.9593C64.7853 28.1601 64.9375 28.3457 65.0896 28.5161C65.2478 28.6804 65.4152 28.8325 65.5916 28.9725C65.8229 28.8325 66.0298 28.6804 66.2123 28.5161C66.401 28.3518 66.5744 28.1662 66.7326 27.9593H64.6332ZM66.2306 33.4816V31.6652H62.3056V33.4999H61.3563V30.8072H67.1981V33.4816H66.2306ZM64.7793 31.9116C64.7671 32.0333 64.7458 32.1703 64.7154 32.3224C64.691 32.4745 64.6606 32.6114 64.6241 32.7332C64.545 33.0374 64.4172 33.3113 64.2407 33.5547C64.0642 33.7981 63.8239 34.0171 63.5196 34.2119C63.2153 34.4127 62.8411 34.5922 62.3969 34.7504C61.9527 34.9147 61.4232 35.0669 60.8086 35.2068L60.5165 34.3032C61.0338 34.2058 61.481 34.1023 61.8583 33.9928C62.2417 33.8833 62.5642 33.7616 62.8259 33.6277C63.0876 33.4877 63.2914 33.3326 63.4375 33.1622C63.5835 32.9918 63.6839 32.797 63.7387 32.578C63.7691 32.4745 63.7934 32.3528 63.8117 32.2129C63.836 32.0729 63.8543 31.9512 63.8665 31.8477L64.7793 31.9116ZM64.9801 33.1804C65.4547 33.3386 65.9476 33.5212 66.4588 33.7281C66.9699 33.935 67.475 34.148 67.974 34.367L67.7002 35.2798C67.475 35.1581 67.2347 35.0334 66.9791 34.9056C66.7235 34.7778 66.4618 34.6531 66.1941 34.5313C65.9324 34.4157 65.6677 34.3062 65.4 34.2027C65.1322 34.0993 64.8736 34.005 64.6241 33.9198L64.9801 33.1804ZM70.5424 29.5658H69.6387V27.7493H72.8791C72.8365 27.6094 72.7939 27.4755 72.7513 27.3477C72.7087 27.2138 72.6692 27.0952 72.6327 26.9917L73.6093 26.8548C73.6519 26.9765 73.6976 27.1134 73.7463 27.2655C73.801 27.4177 73.8558 27.5789 73.9106 27.7493H76.8406V29.0455H75.9461V28.5343H70.5424V29.5658ZM71.8659 29.0364C71.7807 29.2798 71.6803 29.5201 71.5647 29.7575C71.4552 29.9948 71.3335 30.2291 71.1996 30.4603V35.0973H70.3051V31.7839C70.159 31.9786 70.0099 32.1611 69.8578 32.3315C69.7117 32.5019 69.5627 32.6662 69.4105 32.8244L69.0454 31.8934C69.228 31.7047 69.4166 31.4887 69.6113 31.2453C69.8061 31.0019 69.9947 30.7433 70.1773 30.4694C70.3598 30.1956 70.5272 29.9126 70.6793 29.6205C70.8375 29.3285 70.9653 29.0424 71.0627 28.7625L71.8659 29.0364ZM74.7595 30.0496C74.729 30.1713 74.6956 30.293 74.6591 30.4147C74.6286 30.5364 74.5952 30.655 74.5586 30.7707H76.5029V35.0243H75.6266V34.65H72.9887V35.0516H72.1124V30.7707H73.6093C73.6459 30.649 73.6793 30.5303 73.7098 30.4147C73.7463 30.293 73.7797 30.1713 73.8102 30.0496H71.8203V29.2828H77.0597V30.0496H74.7595ZM75.6266 31.51H72.9887V32.3407H75.6266V31.51ZM75.6266 33.9107V33.0709H72.9887V33.9107H75.6266ZM82.7042 29.6936V30.4786H85.7985V31.2636H82.7042V32.0303H85.123V35.079H84.2103V34.7139H80.2396V35.079H79.3268V32.0303H81.7731V31.2636H78.6514V30.4786H81.7731V29.6936H80.121V29.2372C79.6098 29.5353 79.0652 29.8061 78.4871 30.0496L78.122 29.155C78.9556 28.8447 79.6767 28.4917 80.2853 28.0962C80.8938 27.6946 81.4171 27.2321 81.8553 26.7087H82.6311C83.051 27.226 83.5804 27.6854 84.2194 28.0871C84.8583 28.4826 85.5612 28.8203 86.3279 29.1003L85.9446 29.9857C85.6707 29.87 85.3999 29.7483 85.1322 29.6205C84.8644 29.4867 84.6028 29.3497 84.3472 29.2098V29.6936H82.7042ZM82.2386 27.5303C82.0439 27.7737 81.8127 28.011 81.5449 28.2422C81.2772 28.4735 80.979 28.6956 80.6504 28.9086H83.8543C83.5196 28.6956 83.2153 28.4735 82.9415 28.2422C82.6676 28.0049 82.4334 27.7676 82.2386 27.5303ZM84.2103 32.8336H80.2396V33.9198H84.2103V32.8336Z" fill="#3A5A8A"/>
<defs>
<linearGradient id="paint0_linear_674_34004" x1="106.282" y1="-0.181216" x2="19.4207" y2="51.8151" gradientUnits="userSpaceOnUse">
<stop offset="0.5" stop-color="#809AF5"/>
<stop offset="0.5" stop-color="#3867E2"/>
</linearGradient>
</defs>
</svg>
