<svg width="119" height="53" viewBox="0 0 119 53" fill="none" xmlns="http://www.w3.org/2000/svg">
<path d="M37.9925 39.5544H12.3832C11.1782 39.5544 10.6853 42.0858 11.7406 42.6674C17.5551 45.8722 22.6667 50.2645 24.525 51.9372C24.9424 52.3129 25.5857 52.3022 25.9914 51.9139C27.7764 50.2055 32.6861 45.7588 38.6012 42.5257C39.6526 41.951 39.1907 39.5544 37.9925 39.5544Z" fill="#4573E7"/>
<rect width="118.069" height="45.4013" rx="22.7007" fill="url(#paint0_linear_730_42852)"/>
<rect x="4.86819" y="4.86821" width="108.333" height="35.6649" rx="17.8325" fill="#D6DFF5"/>
<path d="M29.8651 23.5568H34.1462C34.6191 23.5568 35.0024 23.9401 35.0024 24.413C35.0024 24.8857 34.6189 25.2692 34.1462 25.2692H29.8651V29.5503C29.8651 30.0232 29.4818 30.4065 29.0089 30.4065C28.5362 30.4065 28.1528 30.0232 28.1528 29.5503V25.2692H23.8717C23.3987 25.2692 23.0155 24.8859 23.0155 24.413C23.0155 23.9401 23.3987 23.5568 23.8717 23.5568H28.1528V21.8445H24.7278C24.2551 21.8445 23.8717 21.4612 23.8717 20.9883C23.8717 20.5156 24.2549 20.1322 24.7278 20.1322H26.9421L24.8753 18.0651C24.766 17.9596 24.6868 17.8268 24.6457 17.6805C24.6046 17.5342 24.6032 17.3796 24.6417 17.2326C24.6802 17.0856 24.7571 16.9515 24.8646 16.844C24.9721 16.7365 25.1062 16.6596 25.2532 16.6211C25.5526 16.5429 25.8708 16.6321 26.0857 16.8545L29.0087 19.7775L31.9319 16.8545C32.0375 16.7452 32.1703 16.666 32.3167 16.625C32.463 16.584 32.6176 16.5826 32.7647 16.6211C32.9117 16.6596 33.0458 16.7365 33.1533 16.844C33.2608 16.9514 33.3377 17.0856 33.3762 17.2326C33.4147 17.3796 33.4134 17.5342 33.3724 17.6805C33.3313 17.8268 33.2521 17.9596 33.1428 18.0651L31.076 20.1322H33.29C33.7629 20.1322 34.1462 20.5154 34.1462 20.9883C34.1462 21.4612 33.7629 21.8445 33.29 21.8445H29.8651V23.5568ZM29.0089 34.6876C22.3887 34.6876 17.022 29.3209 17.022 22.7007C17.022 16.0805 22.3887 10.7138 29.0089 10.7138C35.6291 10.7138 40.9958 16.0805 40.9958 22.7007C40.9958 29.3209 35.6291 34.6876 29.0089 34.6876ZM29.0089 32.975C34.683 32.975 39.2835 28.3745 39.2835 22.7004C39.2835 17.0266 34.683 12.4259 29.0089 12.4259C23.3351 12.4259 18.7344 17.0263 18.7344 22.7004C18.7344 28.3745 23.3348 32.975 29.0089 32.975Z" fill="#2566E5"/>
<path d="M53.9374 16.148C54.26 17.1158 54.7889 17.941 55.5242 18.6238C56.2594 19.299 57.1934 19.8842 58.3263 20.3793L57.6961 21.606C57.1409 21.3059 56.6345 21.002 56.1769 20.6944C55.7267 20.3943 55.3216 20.0792 54.9615 19.7491C54.6014 19.419 54.2825 19.0739 54.0049 18.7138C53.7349 18.3462 53.506 17.9523 53.3185 17.5322C52.9884 18.2374 52.4745 18.9351 51.7767 19.6253C51.079 20.3156 50.1337 20.972 48.9408 21.5947L48.2656 20.4356C49.4885 19.8504 50.4601 19.2089 51.1803 18.5112C51.9005 17.806 52.3544 17.0183 52.542 16.148H48.6145V15.0339H52.632V12.9182H49.2109V11.8266H57.3022V12.9182H53.8361V15.0339H57.8987V16.148H53.9374ZM65.7804 12.952H64.4862V12.108H65.7804V11.2189L66.7369 11.2639V12.108H68.65V13.6497H69.2465V14.5275H68.65V16.0242H66.7369V16.7669H68.7738V17.5884H66.7369V18.2074H69.0664V19.0289H66.7369V19.9292H65.7804V19.0289H64.0136V18.2074H65.7804V17.5884H64.43V16.7669H65.7804V16.0242H64.4862V15.2027H65.7804V14.5275H64.1599V13.6497H65.7804V12.952ZM65.9492 20.1317C66.5269 20.1542 67.1008 20.1618 67.671 20.1542C68.2487 20.1467 68.8264 20.1317 69.404 20.1092L69.224 20.987C68.6613 21.0095 68.0986 21.0245 67.5359 21.032C66.9808 21.0395 66.4218 21.032 65.8592 21.0095C65.2515 20.987 64.7075 20.9045 64.2274 20.7619C63.7547 20.6194 63.3271 20.3606 62.9445 19.9854C62.6819 20.4206 62.348 20.9045 61.9429 21.4372L61.2902 20.897V21.3021H60.3224V15.7654C60.2174 15.9754 60.1086 16.1817 59.9961 16.3843C59.8835 16.5869 59.771 16.7857 59.6584 16.9807L58.9382 16.103C59.1108 15.8104 59.2871 15.4728 59.4671 15.0901C59.6547 14.7075 59.8348 14.3061 60.0073 13.886C60.1799 13.4584 60.3374 13.0232 60.48 12.5806C60.63 12.1305 60.75 11.6953 60.8401 11.2752L61.8529 11.4778C61.7779 11.8229 61.6916 12.1605 61.5941 12.4906C61.504 12.8207 61.4028 13.147 61.2902 13.4696V20.5481C61.7028 20.038 62.0367 19.5653 62.2918 19.1302C61.9542 18.545 61.6691 17.7647 61.4365 16.7894L62.3255 16.5081C62.3931 16.7857 62.4643 17.052 62.5394 17.3071C62.6144 17.5622 62.7044 17.8023 62.8094 18.0273C63.0195 17.4271 63.1508 16.7294 63.2033 15.9342H61.5941V15.0114L63.1245 12.8619H61.8079V11.9391H64.2612V12.8732L62.7644 15.0114H64.1486V15.9792C64.1111 16.3093 64.0698 16.6169 64.0248 16.902C63.9798 17.1796 63.9273 17.4421 63.8673 17.6897C63.8148 17.9373 63.751 18.1736 63.676 18.3987C63.6084 18.6238 63.5259 18.8413 63.4284 19.0514C63.706 19.374 64.0473 19.6291 64.4525 19.8166C64.8576 20.0042 65.3565 20.1092 65.9492 20.1317ZM66.7369 12.952V13.6497H67.7047V12.952H66.7369ZM67.7047 14.5275H66.7369V15.2027H67.7047V14.5275ZM77.961 13.177C77.9084 13.3496 77.8484 13.5372 77.7809 13.7397C77.7134 13.9348 77.6459 14.1298 77.5783 14.3249H79.6265V20.008C79.6265 20.263 79.604 20.4693 79.559 20.6269C79.514 20.7844 79.4352 20.9082 79.3226 20.9983C79.2101 21.0883 79.0638 21.1521 78.8838 21.1896C78.7037 21.2346 78.4786 21.2684 78.2085 21.2909L77.4996 21.3584L77.1732 20.4018L77.961 20.3231C78.096 20.308 78.2048 20.2893 78.2873 20.2668C78.3698 20.2518 78.4336 20.2218 78.4786 20.1768C78.5236 20.1317 78.5537 20.0717 78.5687 19.9967C78.5837 19.9217 78.5912 19.8204 78.5912 19.6929V15.2815H72.3454V17.127C72.5105 16.9995 72.6868 16.857 72.8744 16.6994C73.0619 16.5419 73.242 16.3843 73.4145 16.2268C73.5946 16.0692 73.7634 15.9117 73.9209 15.7541C74.0785 15.5966 74.2135 15.454 74.3261 15.3265L75.0238 16.0017C74.8887 16.1517 74.7274 16.3168 74.5399 16.4968C74.3523 16.6694 74.1535 16.8495 73.9434 17.037H77.0832C76.8806 16.8419 76.6743 16.6544 76.4642 16.4743C76.2542 16.2943 76.0741 16.1442 75.9241 16.0242L76.6218 15.3377C76.7643 15.4503 76.9294 15.5891 77.1169 15.7541C77.312 15.9117 77.5033 16.073 77.6909 16.238C77.8784 16.4031 78.051 16.5606 78.2085 16.7107C78.3736 16.8607 78.5011 16.9807 78.5912 17.0708L78.0285 17.9598C77.961 17.8923 77.8784 17.8098 77.7809 17.7122C77.6909 17.6147 77.5896 17.5134 77.4771 17.4084V20.1655H73.3808V17.5097L72.8181 17.9711L72.3454 17.3634V21.2346H71.3101V14.3249H73.302L73.0319 13.177H70.6687V12.1642H74.9563C74.9112 12.0142 74.8625 11.8641 74.81 11.7141C74.7574 11.564 74.7124 11.429 74.6749 11.3089L75.834 11.1514C75.8866 11.2939 75.9391 11.4515 75.9916 11.624C76.0441 11.7966 76.1004 11.9767 76.1604 12.1642H80.2229V13.177H77.961ZM76.3967 14.3249C76.4567 14.1599 76.5243 13.976 76.5993 13.7735C76.6743 13.5709 76.7418 13.3721 76.8018 13.177H74.1573C74.2023 13.3571 74.2473 13.5522 74.2923 13.7622C74.3448 13.9648 74.3898 14.1523 74.4273 14.3249H76.3967ZM74.3486 19.2089H76.5093V17.9936H74.3486V19.2089ZM91.447 19.7829V20.9082H81.6113V19.7829H84.7511V17.5209L83.7495 18.1511C83.6295 17.806 83.4907 17.4271 83.3331 17.0145C83.1756 16.6019 83.0105 16.1892 82.838 15.7766C82.6729 15.3565 82.5079 14.9551 82.3428 14.5725C82.1778 14.1899 82.0277 13.8598 81.8927 13.5822L82.9618 13.0758C83.0818 13.3158 83.2206 13.6122 83.3781 13.9648C83.5432 14.3099 83.7083 14.6775 83.8733 15.0676C84.0384 15.4578 84.1959 15.8441 84.346 16.2268C84.5035 16.6094 84.6385 16.9545 84.7511 17.2621V11.2752L85.944 11.3202V19.7829H87.1256V11.2752L88.296 11.3202V17.3859C88.4685 17.0633 88.6411 16.7182 88.8136 16.3505C88.9862 15.9754 89.1512 15.6003 89.3088 15.2252C89.4738 14.8501 89.6239 14.4862 89.7589 14.1336C89.9015 13.7735 90.0253 13.4396 90.1303 13.132L91.2219 13.6272C91.1169 13.9348 90.9818 14.2874 90.8168 14.685C90.6592 15.0826 90.4867 15.4915 90.2991 15.9117C90.119 16.3243 89.9315 16.7294 89.7364 17.127C89.5489 17.5247 89.3725 17.8773 89.2075 18.1849L88.296 17.6897V19.7829H91.447ZM96.8866 13.5259H95.57V12.5356H96.8866V11.1514L97.9557 11.1964V12.5356H99.2274V13.5259H97.9557V14.7976H99.3287V15.8329H95.3899V14.7976H96.8866V13.5259ZM95.5475 11.8266C95.3899 12.0817 95.2099 12.348 95.0073 12.6256C94.8122 12.8957 94.6059 13.1658 94.3884 13.4359C94.1708 13.706 93.9457 13.9648 93.7131 14.2124C93.4881 14.4599 93.2668 14.6775 93.0492 14.8651L92.554 13.8973C92.7191 13.7397 92.8954 13.5559 93.0829 13.3458C93.278 13.1283 93.4693 12.8995 93.6569 12.6594C93.8519 12.4118 94.0357 12.1642 94.2083 11.9166C94.3884 11.6691 94.5459 11.4327 94.6809 11.2077L95.5475 11.8266ZM102.266 12.997H99.5875V11.9391H102.266V12.997ZM95.6375 14.3249C95.5175 14.565 95.3824 14.8126 95.2324 15.0676C95.0898 15.3152 94.9323 15.5703 94.7597 15.8329V21.3809H93.7244V17.2846C93.5894 17.4571 93.4543 17.6222 93.3193 17.7797C93.1917 17.9373 93.0642 18.0873 92.9366 18.2299L92.3627 17.2508C92.5503 17.0408 92.7566 16.7857 92.9817 16.4856C93.2142 16.1855 93.4431 15.8741 93.6681 15.5515C93.8932 15.2289 94.1033 14.9101 94.2983 14.595C94.5009 14.2724 94.6584 13.9873 94.771 13.7397L95.6375 14.3249ZM102.525 15.7091H101.624V20.188C101.624 20.4356 101.602 20.6344 101.557 20.7844C101.519 20.9345 101.448 21.0508 101.343 21.1333C101.238 21.2233 101.099 21.2909 100.927 21.3359C100.754 21.3809 100.537 21.4184 100.274 21.4484L99.8013 21.5047L99.4412 20.4693L99.9364 20.4243C100.191 20.4018 100.356 20.3531 100.432 20.278C100.507 20.203 100.544 20.0455 100.544 19.8054V15.7091H99.5537V14.6625H102.525V15.7091ZM99.61 20.0642C98.8748 20.1618 98.147 20.2443 97.4268 20.3118C96.7066 20.3868 95.9751 20.4431 95.2324 20.4806L95.1311 19.4678C95.4237 19.4528 95.7163 19.4378 96.0089 19.4228C96.3015 19.4003 96.5941 19.3778 96.8866 19.3552V18.1174H95.525V17.1045H96.8866V16.103L97.9557 16.148V17.1045H99.2949V18.1174H97.9557V19.2652C98.2258 19.2352 98.4922 19.2089 98.7547 19.1864C99.0248 19.1564 99.2949 19.1227 99.565 19.0852L99.61 20.0642Z" fill="#123871"/>
<path d="M54.2835 28.4248C54.2409 28.5647 54.1922 28.7168 54.1375 28.8811C54.0827 29.0394 54.0279 29.1976 53.9732 29.3558H55.6345V33.9654C55.6345 34.1723 55.6162 34.3396 55.5797 34.4674C55.5432 34.5952 55.4793 34.6956 55.388 34.7686C55.2967 34.8417 55.1781 34.8934 55.032 34.9238C54.886 34.9603 54.7034 34.9877 54.4843 35.006L53.9093 35.0607L53.6446 34.2849L54.2835 34.221C54.3931 34.2088 54.4813 34.1936 54.5482 34.1753C54.6152 34.1632 54.6669 34.1388 54.7034 34.1023C54.7399 34.0658 54.7643 34.0171 54.7764 33.9563C54.7886 33.8954 54.7947 33.8132 54.7947 33.7098V30.1317H49.7287V31.6286C49.8626 31.5252 50.0056 31.4096 50.1577 31.2818C50.3098 31.154 50.4559 31.0262 50.5959 30.8984C50.7419 30.7706 50.8788 30.6428 51.0066 30.515C51.1344 30.3872 51.2439 30.2716 51.3352 30.1682L51.9011 30.7159C51.7916 30.8376 51.6608 30.9714 51.5086 31.1175C51.3565 31.2574 51.1953 31.4035 51.0249 31.5556H53.5715C53.4072 31.3974 53.2399 31.2453 53.0695 31.0992C52.8991 30.9532 52.7531 30.8315 52.6314 30.7341L53.1973 30.1773C53.3129 30.2686 53.4468 30.3812 53.5989 30.515C53.7572 30.6428 53.9123 30.7737 54.0645 30.9075C54.2166 31.0414 54.3565 31.1692 54.4843 31.2909C54.6182 31.4126 54.7217 31.51 54.7947 31.583L54.3383 32.3041C54.2835 32.2493 54.2166 32.1824 54.1375 32.1033C54.0645 32.0242 53.9823 31.942 53.891 31.8568V34.0932H50.5685V31.939L50.1121 32.3132L49.7287 31.8203V34.9603H48.8889V29.3558H50.5046L50.2855 28.4248H48.3687V27.6032H51.8464C51.8099 27.4815 51.7703 27.3598 51.7277 27.2381C51.6851 27.1164 51.6486 27.0069 51.6182 26.9095L52.5584 26.7817C52.601 26.8974 52.6435 27.0251 52.6861 27.1651C52.7287 27.3051 52.7744 27.4511 52.8231 27.6032H56.1182V28.4248H54.2835ZM53.0147 29.3558C53.0634 29.2219 53.1182 29.0728 53.1791 28.9085C53.2399 28.7442 53.2947 28.583 53.3434 28.4248H51.1983C51.2348 28.5708 51.2713 28.729 51.3078 28.8994C51.3504 29.0637 51.3869 29.2158 51.4174 29.3558H53.0147ZM51.3535 33.3173H53.106V32.3315H51.3535V33.3173ZM65.2222 33.7828V34.6956H57.2444V33.7828H59.7911V31.9481L58.9787 32.4593C58.8813 32.1794 58.7687 31.8721 58.641 31.5374C58.5132 31.2027 58.3793 30.868 58.2393 30.5333C58.1054 30.1925 57.9716 29.867 57.8377 29.5566C57.7038 29.2463 57.5821 28.9785 57.4726 28.7534L58.3397 28.3426C58.4371 28.5373 58.5497 28.7777 58.6775 29.0637C58.8113 29.3436 58.9452 29.6418 59.0791 29.9582C59.213 30.2747 59.3408 30.5881 59.4625 30.8984C59.5903 31.2088 59.6998 31.4887 59.7911 31.7382V26.8821L60.7586 26.9186V33.7828H61.7171V26.8821L62.6664 26.9186V31.8386C62.8063 31.5769 62.9463 31.297 63.0862 30.9988C63.2262 30.6946 63.3601 30.3903 63.4879 30.086C63.6217 29.7818 63.7434 29.4866 63.853 29.2006C63.9686 28.9085 64.069 28.6377 64.1542 28.3882L65.0396 28.7899C64.9544 29.0394 64.8449 29.3254 64.711 29.6479C64.5832 29.9704 64.4432 30.3021 64.2911 30.6428C64.1451 30.9775 63.9929 31.3061 63.8347 31.6286C63.6826 31.9512 63.5396 32.2372 63.4057 32.4867L62.6664 32.085V33.7828H65.2222ZM69.6344 28.7077H68.5664V27.9045H69.6344V26.7817L70.5015 26.8182V27.9045H71.533V28.7077H70.5015V29.7392H71.6151V30.5789H68.4203V29.7392H69.6344V28.7077ZM68.5481 27.3294C68.4203 27.5363 68.2743 27.7523 68.11 27.9775C67.9518 28.1966 67.7844 28.4156 67.608 28.6347C67.4315 28.8538 67.2489 29.0637 67.0603 29.2645C66.8777 29.4653 66.6982 29.6418 66.5217 29.7939L66.1201 29.0089C66.254 28.8811 66.397 28.7321 66.5491 28.5617C66.7073 28.3852 66.8625 28.1996 67.0147 28.0049C67.1729 27.8041 67.322 27.6032 67.4619 27.4024C67.608 27.2016 67.7358 27.0099 67.8453 26.8274L68.5481 27.3294ZM73.9975 28.2787H71.825V27.4207H73.9975V28.2787ZM68.6212 29.3558C68.5238 29.5505 68.4143 29.7513 68.2926 29.9582C68.1769 30.1591 68.0491 30.3659 67.9092 30.5789V35.079H67.0694V31.7564C66.9599 31.8964 66.8503 32.0303 66.7408 32.1581C66.6374 32.2858 66.5339 32.4076 66.4305 32.5232L65.9649 31.729C66.1171 31.5587 66.2844 31.3518 66.467 31.1084C66.6556 30.8649 66.8412 30.6124 67.0238 30.3507C67.2063 30.0891 67.3767 29.8304 67.5349 29.5749C67.6992 29.3132 67.827 29.082 67.9183 28.8811L68.6212 29.3558ZM74.2074 30.4785H73.4772V34.1114C73.4772 34.3122 73.4589 34.4735 73.4224 34.5952C73.392 34.7169 73.3342 34.8112 73.249 34.8782C73.1638 34.9512 73.0512 35.006 72.9113 35.0425C72.7713 35.079 72.5948 35.1094 72.3819 35.1338L71.9985 35.1794L71.7064 34.3396L72.108 34.3031C72.3149 34.2849 72.4488 34.2453 72.5096 34.1845C72.5705 34.1236 72.6009 33.9958 72.6009 33.8011V30.4785H71.7977V29.6296H74.2074V30.4785ZM71.8433 34.011C71.2469 34.0901 70.6567 34.1571 70.0725 34.2118C69.4883 34.2727 68.895 34.3183 68.2926 34.3488L68.2104 33.5272C68.4477 33.5151 68.6851 33.5029 68.9224 33.4907C69.1597 33.4725 69.397 33.4542 69.6344 33.436V32.4319H68.5299V31.6104H69.6344V30.798L70.5015 30.8345V31.6104H71.5877V32.4319H70.5015V33.3629C70.7206 33.3386 70.9366 33.3173 71.1496 33.299C71.3687 33.2747 71.5877 33.2473 71.8068 33.2169L71.8433 34.011Z" fill="#3A5A8A"/>
<defs>
<linearGradient id="paint0_linear_730_42852" x1="103.619" y1="-0.181216" x2="17.8138" y2="49.8955" gradientUnits="userSpaceOnUse">
<stop offset="0.5" stop-color="#809AF5"/>
<stop offset="0.5" stop-color="#3867E2"/>
</linearGradient>
</defs>
</svg>
