<svg width="108" height="62" viewBox="0 0 108 62" fill="none" xmlns="http://www.w3.org/2000/svg">
<path d="M41.7327 48H16.1234C14.9185 48 14.4255 50.5313 15.4808 51.1129C21.2953 54.3178 26.407 58.71 28.2653 60.3828C28.6827 60.7585 29.3259 60.7478 29.7316 60.3595C31.5166 58.651 36.4263 54.2043 42.3415 50.9712C43.3929 50.3966 42.9309 48 41.7327 48Z" fill="#4573E7"/>
<rect width="107.489" height="53.6492" rx="26.8246" fill="url(#paint0_linear_674_33987)"/>
<rect x="4.86823" y="4.86823" width="97.7521" height="43.9128" rx="21.9564" fill="#D6DFF5"/>
<g clip-path="url(#clip0_674_33987)">
<path d="M23.1424 32.6616C23.1424 32.2748 23.296 31.9039 23.5695 31.6304C23.843 31.3569 24.214 31.2032 24.6007 31.2032H30.4341C30.8208 31.2032 31.1918 31.3569 31.4653 31.6304C31.7387 31.9039 31.8924 32.2748 31.8924 32.6616V39.9532C31.8924 40.34 31.7387 40.711 31.4653 40.9844C31.1918 41.2579 30.8208 41.4116 30.4341 41.4116H24.6007C24.214 41.4116 23.843 41.2579 23.5695 40.9844C23.296 40.711 23.1424 40.34 23.1424 39.9532V32.6616ZM26.0591 34.1199V38.4949H28.9757V34.1199H26.0591Z" fill="#5578F6"/>
<path d="M17.3091 15.1616C17.3091 14.7748 17.4628 14.4039 17.7363 14.1304C18.0098 13.8569 18.3807 13.7032 18.7675 13.7032H36.2675C36.6543 13.7032 37.0252 13.8569 37.2987 14.1304C37.5722 14.4039 37.7258 14.7748 37.7258 15.1616V39.9532C37.7258 40.34 37.5722 40.711 37.2987 40.9844C37.0252 41.2579 36.6543 41.4116 36.2675 41.4116H18.7675C18.3807 41.4116 18.0098 41.2579 17.7363 40.9844C17.4628 40.711 17.3091 40.34 17.3091 39.9532V15.1616ZM20.2258 16.6199V38.4949H34.8091V16.6199H20.2258Z" fill="#5578F6"/>
<path d="M23.1424 22.4532H31.8924V25.3699H23.1424V22.4532Z" fill="#5578F6"/>
<path d="M28.9758 19.5366V28.2866H26.0591V19.5366H28.9758ZM34.8091 23.9116C34.8091 23.5248 34.9628 23.1539 35.2363 22.8804C35.5098 22.6069 35.8807 22.4533 36.2675 22.4533H42.1008C42.4876 22.4533 42.8585 22.6069 43.132 22.8804C43.4055 23.1539 43.5591 23.5248 43.5591 23.9116V39.9533C43.5591 40.3401 43.4055 40.711 43.132 40.9845C42.8585 41.258 42.4876 41.4116 42.1008 41.4116H36.2675C35.8807 41.4116 35.5098 41.258 35.2363 40.9845C34.9628 40.711 34.8091 40.3401 34.8091 39.9533V23.9116ZM37.7258 25.37V38.495H40.6425V25.37H37.7258Z" fill="#5578F6"/>
</g>
<path d="M62.4374 16.3152H55.6384V15.0022H58.2774C58.208 14.7509 58.1344 14.4996 58.0564 14.2482C57.9784 13.9882 57.9134 13.7802 57.8614 13.6242L59.1094 13.4422C59.17 13.6156 59.2437 13.8496 59.3304 14.1442C59.4257 14.4302 59.5167 14.7162 59.6034 15.0022H62.4374V16.3152ZM62.2034 25.4022C61.5274 25.0729 60.9077 24.7176 60.3444 24.3362C59.781 23.9636 59.2654 23.5432 58.7974 23.0752C58.338 23.5432 57.8224 23.9722 57.2504 24.3622C56.6784 24.7609 56.0327 25.1422 55.3134 25.5062L54.6374 24.2712C55.3394 23.9419 55.9634 23.6039 56.5094 23.2572C57.0554 22.9019 57.5364 22.5249 57.9524 22.1262C57.3977 21.4156 56.9427 20.6269 56.5874 19.7602C56.466 19.9076 56.3447 20.0506 56.2234 20.1892C56.1107 20.3192 55.9937 20.4449 55.8724 20.5662L55.3264 19.9942L55.0534 20.3062C54.958 20.1502 54.8367 19.9812 54.6894 19.7992C54.5507 19.6086 54.4034 19.4266 54.2474 19.2532V25.1942H52.9864V19.7472C52.7697 20.2412 52.54 20.7136 52.2974 21.1642C52.0547 21.6149 51.8164 22.0222 51.5824 22.3862L50.8414 21.1642C51.006 20.9042 51.1794 20.6139 51.3614 20.2932C51.552 19.9639 51.7384 19.6216 51.9204 19.2662C52.1024 18.9022 52.2757 18.5339 52.4404 18.1612C52.6137 17.7886 52.7697 17.4202 52.9084 17.0562H51.4914V15.7952H52.9864V13.4942L54.2474 13.5462V15.7952H55.4824V17.0562H54.2474V17.9272L54.4164 17.7322C54.5897 17.8882 54.7804 18.0832 54.9884 18.3172C55.205 18.5426 55.4044 18.7679 55.5864 18.9932C55.9157 18.5859 56.232 18.1526 56.5354 17.6932C56.8387 17.2339 57.103 16.7962 57.3284 16.3802L58.4204 17.0952C58.2384 17.4246 58.0347 17.7582 57.8094 18.0962C57.5927 18.4256 57.3674 18.7506 57.1334 19.0712L57.5624 18.8892C57.7357 19.3312 57.9177 19.7429 58.1084 20.1242C58.3077 20.4969 58.5287 20.8479 58.7714 21.1772C59.0227 20.8392 59.2437 20.4796 59.4344 20.0982C59.6337 19.7169 59.807 19.3096 59.9544 18.8762L61.1114 19.3702C60.9554 19.1709 60.7907 18.9672 60.6174 18.7592C60.4527 18.5426 60.2837 18.3389 60.1104 18.1482C59.9457 17.9489 59.7854 17.7669 59.6294 17.6022C59.482 17.4289 59.352 17.2816 59.2394 17.1602L60.1364 16.3672C60.3097 16.5406 60.5134 16.7572 60.7474 17.0172C60.9814 17.2772 61.2154 17.5502 61.4494 17.8362C61.692 18.1222 61.9217 18.4039 62.1384 18.6812C62.3637 18.9499 62.5457 19.1796 62.6844 19.3702L61.8134 20.3322C61.64 20.0636 61.406 19.7429 61.1114 19.3702C60.7387 20.4016 60.249 21.3202 59.6424 22.1262C60.0584 22.5162 60.5307 22.8716 61.0594 23.1922C61.588 23.5042 62.2034 23.8119 62.9054 24.1152L62.2034 25.4022ZM75.4552 23.5822V24.7652H65.0552V13.9232H75.2992V15.1712H68.8382L69.7222 15.5482C69.6182 15.8256 69.5012 16.0986 69.3712 16.3672H74.4802V17.4592H71.5292L71.4642 18.8242H75.0652V19.9812H71.3862C71.3689 20.0506 71.3516 20.1156 71.3342 20.1762C71.3256 20.2282 71.3126 20.2889 71.2952 20.3582C71.5466 20.4882 71.8326 20.6399 72.1532 20.8132C72.4739 20.9866 72.7946 21.1642 73.1152 21.3462C73.4446 21.5282 73.7566 21.7102 74.0512 21.8922C74.3546 22.0656 74.6146 22.2216 74.8312 22.3602L74.2722 23.5432C74.0296 23.3786 73.7609 23.2052 73.4662 23.0232C73.1716 22.8326 72.8682 22.6462 72.5562 22.4642C72.2529 22.2736 71.9496 22.0916 71.6462 21.9182C71.3516 21.7362 71.0742 21.5716 70.8142 21.4242C70.5109 21.8662 70.0906 22.2606 69.5532 22.6072C69.0159 22.9452 68.3269 23.2702 67.4862 23.5822H75.4552ZM66.2772 23.5822H67.2262L66.6282 22.4902C67.1569 22.3256 67.6162 22.1566 68.0062 21.9832C68.3962 21.8012 68.7256 21.6106 68.9942 21.4112C69.2716 21.2032 69.4926 20.9822 69.6572 20.7482C69.8306 20.5142 69.9606 20.2586 70.0472 19.9812H66.6412V18.8242H70.2032C70.2206 18.6682 70.2292 18.4646 70.2292 18.2132C70.2379 17.9532 70.2422 17.7019 70.2422 17.4592H68.7732C68.4699 17.9359 68.1362 18.3909 67.7722 18.8242L66.7842 18.1222C66.9662 17.9142 67.1439 17.6889 67.3172 17.4462C67.4992 17.1949 67.6682 16.9436 67.8242 16.6922C67.9889 16.4322 68.1362 16.1722 68.2662 15.9122C68.4049 15.6522 68.5176 15.4052 68.6042 15.1712H66.2772V23.5822ZM81.9081 17.4462H81.0631V14.7162H83.8191C83.7671 14.5169 83.7108 14.3132 83.6501 14.1052C83.5981 13.8886 83.5461 13.6892 83.4941 13.5072L84.7551 13.2992C84.8158 13.4726 84.8808 13.6936 84.9501 13.9622C85.0194 14.2309 85.0844 14.4822 85.1451 14.7162H87.9011V17.4462H87.0561V18.4082H81.9081V17.4462ZM81.0241 20.9562C81.0241 21.3116 80.9981 21.6019 80.9461 21.8272C80.9028 22.0526 80.8204 22.2346 80.6991 22.3732C80.5864 22.5119 80.4261 22.6202 80.2181 22.6982C80.0188 22.7676 79.7674 22.8326 79.4641 22.8932L79.1391 22.9582L78.6581 21.6972L78.9961 21.6452C79.1694 21.6192 79.3081 21.5889 79.4121 21.5542C79.5248 21.5109 79.6114 21.4502 79.6721 21.3722C79.7414 21.2942 79.7848 21.1902 79.8021 21.0602C79.8281 20.9302 79.8411 20.7656 79.8411 20.5662C79.8411 20.2109 79.7761 19.8469 79.6461 19.4742C79.5248 19.0929 79.2951 18.6552 78.9571 18.1612C79.1304 17.6672 79.2864 17.1732 79.4251 16.6792C79.5638 16.1766 79.6894 15.6782 79.8021 15.1842H78.5151V25.0772H77.3971V13.9622H80.9461V15.1712C80.8248 15.6306 80.6948 16.0899 80.5561 16.5492C80.4261 16.9999 80.2744 17.4549 80.1011 17.9142C80.4304 18.4776 80.6644 18.9976 80.8031 19.4742C80.9504 19.9509 81.0241 20.4449 81.0241 20.9562ZM82.2591 15.8862V17.2382H86.7181V15.8862H82.2591ZM88.4601 22.5422C88.4514 22.7329 88.4384 22.9019 88.4211 23.0492C88.4038 23.1966 88.3864 23.3742 88.3691 23.5822C88.3344 23.8596 88.2824 24.0892 88.2131 24.2712C88.1524 24.4532 88.0614 24.5962 87.9401 24.7002C87.8274 24.8042 87.6844 24.8779 87.5111 24.9212C87.3378 24.9646 87.1298 24.9862 86.8871 24.9862H86.0161C85.7648 24.9862 85.5524 24.9646 85.3791 24.9212C85.2144 24.8779 85.0801 24.8042 84.9761 24.7002C84.8808 24.5962 84.8114 24.4532 84.7681 24.2712C84.7248 24.0892 84.7031 23.8596 84.7031 23.5822V20.8912H83.5851V21.0342C83.5678 21.5716 83.5158 22.0396 83.4291 22.4382C83.3424 22.8282 83.1994 23.1879 83.0001 23.5172C82.8094 23.8466 82.5494 24.1586 82.2201 24.4532C81.8908 24.7479 81.4748 25.0642 80.9721 25.4022L80.1011 24.4532C80.5691 24.1759 80.9461 23.9202 81.2321 23.6862C81.5268 23.4522 81.7564 23.2052 81.9211 22.9452C82.0944 22.6852 82.2114 22.3949 82.2721 22.0742C82.3328 21.7536 82.3718 21.3722 82.3891 20.9302V20.8912H81.1541V19.7212H87.9401V20.8912H85.8991V23.2442C85.8991 23.4609 85.9338 23.5996 86.0031 23.6602C86.0724 23.7122 86.1981 23.7382 86.3801 23.7382H86.8481C87.0474 23.7382 87.1731 23.6992 87.2251 23.6212C87.2858 23.5346 87.3291 23.3786 87.3551 23.1532C87.3898 22.8066 87.4158 22.4816 87.4331 22.1782L88.4601 22.5422Z" fill="#123871"/>
<path d="M60.8064 40.627V41.397H52.1274V32.52H60.6854V33.29H52.9194V40.627H60.8064ZM57.2534 37.393C57.2387 37.4737 57.2204 37.5543 57.1984 37.635C57.1837 37.7083 57.1654 37.7853 57.1434 37.866C57.356 37.9687 57.6017 38.0933 57.8804 38.24C58.159 38.3793 58.4414 38.5297 58.7274 38.691C59.0134 38.845 59.2884 39.0027 59.5524 39.164C59.8237 39.3253 60.0584 39.472 60.2564 39.604L59.8714 40.374C59.666 40.22 59.4314 40.0587 59.1674 39.89C58.9107 39.7213 58.643 39.5527 58.3644 39.384C58.093 39.2153 57.8217 39.0577 57.5504 38.911C57.2864 38.7643 57.0444 38.636 56.8244 38.526C56.5677 38.922 56.1937 39.274 55.7024 39.582C55.2184 39.8827 54.5767 40.1723 53.7774 40.451L53.3704 39.747C53.8617 39.593 54.2834 39.4317 54.6354 39.263C54.9874 39.0943 55.2844 38.9183 55.5264 38.735C55.7684 38.5443 55.959 38.339 56.0984 38.119C56.245 37.899 56.3514 37.657 56.4174 37.393H53.3264V36.656H56.5164V36.612C56.5164 36.5607 56.5164 36.48 56.5164 36.37C56.5237 36.2527 56.5274 36.128 56.5274 35.996C56.5347 35.864 56.5384 35.732 56.5384 35.6C56.5457 35.468 56.5494 35.3507 56.5494 35.248H55.0534C54.914 35.4607 54.771 35.6697 54.6244 35.875C54.4777 36.073 54.3237 36.26 54.1624 36.436L53.5574 35.996C53.7187 35.8127 53.8764 35.6147 54.0304 35.402C54.1917 35.182 54.342 34.9583 54.4814 34.731C54.6207 34.5037 54.7454 34.2763 54.8554 34.049C54.9727 33.8217 55.0717 33.6053 55.1524 33.4L55.8344 33.697C55.7757 33.8363 55.717 33.9757 55.6584 34.115C55.5997 34.247 55.5337 34.3863 55.4604 34.533H60.0144V35.248H57.3524C57.3524 35.3507 57.3487 35.4717 57.3414 35.611C57.3414 35.7503 57.3377 35.8897 57.3304 36.029C57.3304 36.161 57.3267 36.2857 57.3194 36.403C57.3194 36.513 57.3194 36.5937 57.3194 36.645V36.656H60.6194V37.393H57.2534ZM66.3655 35.171H65.6175V33.092H68.0595C68.0008 32.894 67.9348 32.6923 67.8615 32.487C67.7955 32.2743 67.7368 32.1057 67.6855 31.981L68.4995 31.827C68.5582 31.9663 68.6278 32.1607 68.7085 32.41C68.7892 32.6593 68.8588 32.8867 68.9175 33.092H71.3595V35.193H70.6005V33.829H66.3655V35.171ZM65.4305 38.273C65.4305 38.559 65.4085 38.801 65.3645 38.999C65.3205 39.1897 65.2472 39.3473 65.1445 39.472C65.0492 39.5967 64.9208 39.692 64.7595 39.758C64.5982 39.8167 64.4002 39.8607 64.1655 39.89L63.7695 39.934L63.4725 39.131L64.0225 39.076C64.1618 39.0613 64.2718 39.0393 64.3525 39.01C64.4405 38.9807 64.5065 38.9293 64.5505 38.856C64.5945 38.7827 64.6238 38.6873 64.6385 38.57C64.6532 38.4527 64.6605 38.2987 64.6605 38.108C64.6605 37.778 64.5945 37.4407 64.4625 37.096C64.3305 36.7513 64.1105 36.37 63.8025 35.952C63.9712 35.5193 64.1215 35.0793 64.2535 34.632C64.3928 34.1847 64.5102 33.73 64.6055 33.268H63.2855V41.87H62.5375V32.509H65.3205V33.29C65.2178 33.7153 65.1042 34.1407 64.9795 34.566C64.8548 34.984 64.7118 35.3947 64.5505 35.798C64.8585 36.26 65.0822 36.6853 65.2215 37.074C65.3608 37.4627 65.4305 37.8623 65.4305 38.273ZM66.4425 36.018V35.303H70.5015V36.018H66.4425ZM71.8215 39.868C71.8068 40.0293 71.7922 40.1797 71.7775 40.319C71.7628 40.4583 71.7372 40.6197 71.7005 40.803C71.6418 41.1477 71.5392 41.3677 71.3925 41.463C71.2458 41.5583 71.0478 41.6133 70.7985 41.628C70.7472 41.628 70.6738 41.628 70.5785 41.628C70.4905 41.6353 70.3915 41.639 70.2815 41.639C70.1788 41.639 70.0688 41.639 69.9515 41.639C69.8415 41.639 69.7388 41.639 69.6435 41.639C69.3135 41.6243 69.0898 41.54 68.9725 41.386C68.8552 41.232 68.7965 40.9937 68.7965 40.671V38.064H67.7185C67.7185 38.482 67.6745 38.867 67.5865 39.219C67.5058 39.5637 67.3702 39.8937 67.1795 40.209C66.9888 40.517 66.7358 40.814 66.4205 41.1C66.1125 41.386 65.7275 41.6757 65.2655 41.969L64.7375 41.331C65.1848 41.1037 65.5515 40.869 65.8375 40.627C66.1308 40.3777 66.3582 40.121 66.5195 39.857C66.6882 39.5857 66.8055 39.3033 66.8715 39.01C66.9375 38.7093 66.9705 38.394 66.9705 38.064H65.6615V37.316H71.4585V38.064H69.5885V40.462C69.5885 40.5793 69.6105 40.6747 69.6545 40.748C69.6985 40.8213 69.7718 40.8653 69.8745 40.88C69.9845 40.8947 70.0982 40.902 70.2155 40.902C70.3402 40.902 70.4978 40.8947 70.6885 40.88C70.8058 40.8653 70.8828 40.8323 70.9195 40.781C70.9635 40.7297 70.9965 40.6343 71.0185 40.495C71.0552 40.3043 71.0772 40.143 71.0845 40.011C71.0992 39.8717 71.1102 39.7213 71.1175 39.56L71.8215 39.868Z" fill="#3A5A8A"/>
<defs>
<linearGradient id="paint0_linear_674_33987" x1="94.3334" y1="-0.214136" x2="7.22208" y2="38.9536" gradientUnits="userSpaceOnUse">
<stop offset="0.5" stop-color="#809AF5"/>
<stop offset="0.5" stop-color="#3867E2"/>
</linearGradient>
<clipPath id="clip0_674_33987">
<rect width="26" height="27" fill="white" transform="translate(17.8682 13.3246)"/>
</clipPath>
</defs>
</svg>
