<svg width="144" height="54" viewBox="0 0 144 54" fill="none" xmlns="http://www.w3.org/2000/svg">
<path d="M38.7327 40H13.1234C11.9185 40 11.4255 42.5313 12.4808 43.1129C18.2953 46.3178 23.407 50.71 25.2653 52.3828C25.6827 52.7585 26.3259 52.7478 26.7316 52.3595C28.5166 50.651 33.4263 46.2043 39.3415 42.9712C40.3929 42.3966 39.9309 40 38.7327 40Z" fill="#4573E7"/>
<rect width="143.104" height="45.4013" rx="22.7007" fill="url(#paint0_linear_674_34005)"/>
<rect x="4.86819" y="4.86819" width="133.368" height="35.6649" rx="17.8325" fill="#D6DFF5"/>
<path d="M29.1745 23.2523V17.7268C29.1745 16.6211 29.5416 16.3763 30.5235 16.3763H39.9765C41.3902 16.3763 44.0292 18.2796 44.0292 21.8385C44.0292 22.5757 43.4159 23.189 42.6788 23.189H29.1745V23.2523ZM24.5085 23.2523C22.6657 23.2523 21.1324 21.719 21.1324 19.8157C21.1324 17.9139 22.6066 16.3806 24.5085 16.3806C26.3512 16.3806 27.8845 17.9139 27.8845 19.8157C27.824 21.7176 26.3512 23.2523 24.5085 23.2523ZM44.0292 26.015V31.172C44.0292 31.9091 43.4159 32.5224 42.6788 32.5224C42.3216 32.5195 41.98 32.3762 41.7276 32.1235C41.4752 31.8709 41.3323 31.5291 41.3297 31.172V28.7173C41.3272 28.3599 41.184 28.0179 40.9313 27.7652C40.6787 27.5125 40.3367 27.3694 39.9793 27.3669H21.0705C20.7131 27.3694 20.3712 27.5125 20.1185 27.7652C19.8658 28.0179 19.7227 28.3599 19.7201 28.7173V31.172C19.7201 31.9091 19.1082 32.5224 18.3725 32.5224C18.0151 32.5198 17.6731 32.3767 17.4204 32.124C17.1677 31.8713 17.0246 31.5293 17.022 31.172V14.2297C17.022 13.6769 17.2668 12.8793 18.3725 12.8793C18.3725 12.8793 19.7215 12.8202 19.7215 14.2297V23.2523C19.7215 23.9894 20.3348 24.6027 21.0719 24.6027H42.6788C43.2302 24.6027 44.0306 24.7251 44.0306 26.015H44.0292Z" fill="#2566E5"/>
<path d="M52.4145 13.5484V12.3555H60.2245V13.5484H52.4145ZM51.3904 20.5143V19.344H61.2485V20.5143H51.3904ZM72.2812 16.1142H67.9486V21.3246H66.767V16.1142H62.5244V14.9326H66.767V11.1851L67.9486 11.2302V14.9326H72.2812V16.1142ZM82.6838 21.3359C82.0536 20.6081 81.5246 19.9142 81.097 19.2539C80.6694 18.5937 80.3205 17.8885 80.0504 17.1383C79.7803 16.388 79.5778 15.5478 79.4427 14.6175C79.3077 13.6872 79.2177 12.5881 79.1726 11.3202L80.3655 11.3652C80.3805 12.1379 80.418 12.8432 80.4781 13.4809C80.5381 14.1111 80.6244 14.6925 80.7369 15.2252C80.8494 15.7578 80.992 16.2492 81.1645 16.6994C81.3371 17.1495 81.5396 17.5847 81.7722 18.0048C82.0123 18.4174 82.2899 18.8226 82.605 19.2202C82.9201 19.6178 83.2764 20.0267 83.6741 20.4468L82.6838 21.3359ZM77.6084 11.5903C77.5709 12.4305 77.5184 13.1808 77.4509 13.841C77.3833 14.5012 77.2933 15.1089 77.1808 15.6641C77.0757 16.2117 76.9407 16.7181 76.7756 17.1833C76.6106 17.6484 76.408 18.1023 76.1679 18.545C75.9354 18.9876 75.6615 19.434 75.3464 19.8841C75.0313 20.3268 74.6712 20.8032 74.2661 21.3134L73.2533 20.4918C73.6359 20.0417 73.9773 19.6178 74.2773 19.2202C74.5774 18.8151 74.8363 18.4099 75.0538 18.0048C75.2789 17.5922 75.4702 17.1683 75.6278 16.7332C75.7928 16.298 75.9279 15.8254 76.0329 15.3152C76.1379 14.7975 76.2205 14.2311 76.2805 13.6159C76.348 13.0007 76.3968 12.3105 76.4268 11.5453L77.6084 11.5903ZM85.929 14.775C86.2141 14.5575 86.5367 14.2799 86.8968 13.9423C87.2569 13.5972 87.602 13.2445 87.9321 12.8844H85.0962V11.8266H94.0316V12.8844H89.3726C89.1925 13.087 89.0087 13.2896 88.8212 13.4921C88.6336 13.6947 88.4498 13.886 88.2697 14.0661C88.0897 14.2386 87.9171 14.3999 87.7521 14.55C87.587 14.7 87.4445 14.8275 87.3244 14.9326L91.6571 14.7863C91.477 14.5912 91.2932 14.4037 91.1056 14.2236C90.9256 14.036 90.7418 13.8522 90.5542 13.6722L91.3195 12.9745C92.2798 13.8072 93.1575 14.6737 93.9528 15.574L93.2213 16.5193C93.1163 16.3993 93.0112 16.2793 92.9062 16.1592C92.8012 16.0392 92.6961 15.9191 92.5911 15.7991C92.4111 15.7991 92.1522 15.8066 91.8146 15.8216C91.4845 15.8291 91.1094 15.8404 90.6893 15.8554C90.2766 15.8629 89.8377 15.8779 89.3726 15.9004C88.9074 15.9154 88.4461 15.9341 87.9884 15.9567C87.5308 15.9717 87.0956 15.9904 86.683 16.0129C86.2704 16.0354 85.914 16.0579 85.6139 16.0804L85.3551 15.0451C85.5126 15.0076 85.6327 14.9626 85.7152 14.9101C85.7977 14.8576 85.869 14.8125 85.929 14.775ZM94.493 19.9967V21.0208H84.6236V19.9967H89.0125V18.4775H85.5576V17.4421H89.0125V16.0917L90.1378 16.1367V17.4421H93.5702V18.4775H90.1378V19.9967H94.493ZM96.4666 13.1545V11.9954H104.794V13.1545H96.4666ZM96.9505 16.6544V15.5515H104.322V16.6544H96.9505ZM95.7688 20.6381V19.524H105.503V20.6381H95.7688ZM116.592 16.1142H112.26V21.3246H111.078V16.1142H106.835V14.9326H111.078V11.1851L112.26 11.2302V14.9326H116.592V16.1142ZM125.059 16.9357V20.0079C125.059 20.263 125.033 20.4693 124.98 20.6269C124.935 20.7844 124.856 20.9082 124.744 20.9983C124.639 21.0958 124.496 21.1671 124.316 21.2121C124.144 21.2571 123.926 21.2946 123.664 21.3246L123.067 21.3921L122.696 20.3005L123.326 20.233C123.454 20.218 123.559 20.203 123.641 20.188C123.724 20.1655 123.787 20.1355 123.832 20.098C123.877 20.0605 123.907 20.0079 123.922 19.9404C123.945 19.8654 123.956 19.7641 123.956 19.6366V16.9357H121.458L120.952 17.5209C120.846 17.3483 120.73 17.172 120.603 16.992C120.475 16.8119 120.348 16.6394 120.22 16.4743V21.3246H119.185V16.7669C119.035 17.112 118.877 17.4496 118.712 17.7797C118.554 18.1023 118.389 18.4062 118.217 18.6913L117.463 17.9035C117.605 17.6709 117.752 17.4121 117.902 17.127C118.052 16.8344 118.198 16.5306 118.341 16.2155C118.491 15.8929 118.63 15.5665 118.757 15.2364C118.892 14.8988 119.012 14.5725 119.117 14.2574H118.048V13.177H119.185V11.1851L120.22 11.2302V13.177H121.312V14.2574H120.22V15.5515L120.49 15.2589C120.633 15.409 120.79 15.6003 120.963 15.8329C121.143 16.0579 121.308 16.2755 121.458 16.4856L121.469 15.8891C121.529 15.7916 121.597 15.6641 121.672 15.5065C121.754 15.3415 121.837 15.1614 121.919 14.9663C122.009 14.7638 122.099 14.5462 122.189 14.3136C122.279 14.0811 122.369 13.8447 122.459 13.6047H121.447V12.5468H122.831C122.928 12.2467 123.015 11.9729 123.09 11.7253C123.172 11.4702 123.232 11.2564 123.27 11.0839L124.294 11.3314C124.256 11.474 124.204 11.6503 124.136 11.8604C124.069 12.0704 123.994 12.2992 123.911 12.5468H127.411V13.6047H123.54C123.45 13.8522 123.36 14.0961 123.27 14.3361C123.187 14.5762 123.105 14.7975 123.022 15.0001C122.94 15.2027 122.865 15.3827 122.797 15.5403C122.73 15.6903 122.673 15.8066 122.628 15.8891H123.956V14.1111L125.059 14.1561V15.8891H127.299V16.9357H125.059ZM123.202 17.9485C122.94 18.4887 122.643 19.0326 122.313 19.5803C121.983 20.1205 121.657 20.6081 121.334 21.0433L120.456 20.3455C120.621 20.143 120.786 19.9254 120.952 19.6928C121.117 19.4528 121.278 19.2052 121.435 18.9501C121.593 18.695 121.739 18.4362 121.874 18.1736C122.017 17.911 122.144 17.6522 122.257 17.3971L123.202 17.9485ZM126.274 17.4084C126.402 17.5884 126.545 17.8022 126.702 18.0498C126.867 18.2899 127.028 18.5375 127.186 18.7926C127.351 19.0476 127.509 19.3027 127.659 19.5578C127.816 19.8054 127.951 20.0304 128.064 20.233L127.152 20.9307C127.04 20.7132 126.905 20.4731 126.747 20.2105C126.597 19.9404 126.439 19.6703 126.274 19.4002C126.117 19.1302 125.959 18.8751 125.802 18.635C125.652 18.3874 125.52 18.1811 125.408 18.0161L126.274 17.4084Z" fill="#123871"/>
<path d="M51.9785 34.2301V31.583C51.8263 31.8264 51.6651 32.0515 51.4947 32.2584L51.0109 31.5556C51.1874 31.3183 51.3547 31.0627 51.5129 30.7889C51.6772 30.5089 51.8263 30.2229 51.9602 29.9308C52.1002 29.6327 52.2219 29.3345 52.3253 29.0363C52.4288 28.7381 52.514 28.446 52.5809 28.16H51.4673V27.3111H54.5252V28.16H53.4115C53.2898 28.7199 53.1134 29.2797 52.8821 29.8396H54.2787V34.2301H51.9785ZM59.3264 31.4643H58.2037V35.079H57.4004V31.4643H56.1499C56.1377 31.9207 56.1104 32.3163 56.0678 32.6509C56.0252 32.9795 55.9552 33.2808 55.8578 33.5546C55.7665 33.8284 55.6357 34.0931 55.4653 34.3487C55.301 34.6104 55.0911 34.8964 54.8355 35.2068L54.1327 34.6682C54.3761 34.3883 54.5708 34.1388 54.7168 33.9197C54.869 33.6946 54.9876 33.4664 55.0728 33.2351C55.1641 32.9978 55.225 32.7422 55.2554 32.4684C55.2919 32.1885 55.3162 31.8538 55.3284 31.4643H54.4704V30.5972H55.3375V30.588V28.1691H54.7533V27.3203H59.08V28.1691H58.2037V30.5972H59.3264V31.4643ZM57.4004 30.5972V28.1691H56.159V30.5059V30.5972H57.4004ZM53.4754 30.6976H52.7909V33.3812H53.4754V30.6976ZM61.5753 29.5018H60.6899V27.7401H63.8208C63.7721 27.5819 63.7234 27.4298 63.6747 27.2837C63.626 27.1377 63.5834 27.016 63.5469 26.9186L64.4871 26.8C64.5297 26.9034 64.5814 27.0434 64.6423 27.2198C64.7031 27.3902 64.764 27.5637 64.8248 27.7401H67.8279V29.5018H66.9151V28.5616H61.5753V29.5018ZM63.7204 29.6114C63.5256 29.7391 63.3096 29.87 63.0723 30.0039C62.841 30.1377 62.6007 30.2716 62.3512 30.4055C62.1078 30.5394 61.8583 30.6732 61.6027 30.8071C61.3532 30.9349 61.1098 31.0536 60.8725 31.1631L60.5165 30.3964C60.7538 30.2868 60.9972 30.1682 61.2467 30.0404C61.5023 29.9126 61.7518 29.7817 61.9952 29.6479C62.2386 29.514 62.4729 29.3801 62.698 29.2462C62.9232 29.1124 63.1301 28.9846 63.3187 28.8629L63.7204 29.6114ZM65.1352 28.872C65.3238 28.9694 65.552 29.0911 65.8198 29.2371C66.0875 29.3832 66.3553 29.5353 66.623 29.6935C66.8969 29.8456 67.1524 29.9947 67.3898 30.1408C67.6332 30.2807 67.8249 30.3964 67.9648 30.4876L67.5906 31.2909C67.4263 31.1753 67.2194 31.0383 66.9699 30.8801C66.7204 30.7219 66.4587 30.5637 66.1849 30.4055C65.9171 30.2412 65.6524 30.089 65.3908 29.9491C65.1352 29.8091 64.9222 29.6996 64.7518 29.6205L65.1352 28.872ZM68.3756 33.0891C68.3756 33.1378 68.3725 33.2047 68.3665 33.2899C68.3604 33.3751 68.3512 33.4664 68.3391 33.5637C68.333 33.655 68.3239 33.7493 68.3117 33.8467C68.2995 33.938 68.2873 34.014 68.2752 34.0749C68.2448 34.2514 68.2082 34.3974 68.1656 34.513C68.123 34.6287 68.0592 34.7199 67.974 34.7869C67.8948 34.8599 67.7914 34.9116 67.6636 34.942C67.5358 34.9725 67.3685 34.9877 67.1616 34.9877H66.3218C65.9749 34.9877 65.7255 34.9147 65.5733 34.7686C65.4212 34.6226 65.3451 34.3548 65.3451 33.9654V32.1124H63.8299C63.7812 32.4897 63.6899 32.8244 63.5561 33.1165C63.4222 33.4086 63.2305 33.6763 62.981 33.9197C62.7376 34.157 62.4333 34.3792 62.0682 34.5861C61.7031 34.799 61.268 35.0151 60.7629 35.2341L60.2335 34.4035C60.7021 34.2209 61.0976 34.0475 61.4201 33.8832C61.7426 33.7128 62.0074 33.5394 62.2143 33.3629C62.4272 33.1864 62.5885 32.9978 62.698 32.797C62.8076 32.5962 62.8836 32.368 62.9262 32.1124H61.0641V31.2635H62.9901C63.0023 31.087 63.0084 30.9075 63.0084 30.725C63.0145 30.5363 63.0175 30.3872 63.0175 30.2777L63.8938 30.3142C63.8999 30.4359 63.8999 30.5789 63.8938 30.7432C63.8938 30.9075 63.8907 31.0809 63.8847 31.2635H66.2397V33.7645C66.2397 33.9045 66.264 33.9988 66.3127 34.0475C66.3614 34.0962 66.4435 34.1205 66.5591 34.1205H67.0612C67.2255 34.1205 67.332 34.0962 67.3806 34.0475C67.4354 33.9988 67.475 33.8984 67.4993 33.7463C67.5054 33.6976 67.5115 33.6337 67.5176 33.5546C67.5297 33.4694 67.5358 33.3812 67.5358 33.2899C67.5419 33.1986 67.5449 33.1104 67.5449 33.0252C67.551 32.94 67.5541 32.87 67.5541 32.8152L68.3756 33.0891ZM77.2422 33.8284V34.7321H69.4287V33.8284H72.9521V31.9025H70.2959V31.017H72.9521V29.4014H71.0444C70.9105 29.6996 70.7675 29.9856 70.6153 30.2594C70.4632 30.5333 70.2928 30.8132 70.1042 31.0992L69.2918 30.5972C69.6752 30.0617 69.9916 29.517 70.2411 28.9633C70.4906 28.4034 70.6975 27.7919 70.8618 27.1286L71.7655 27.3476C71.7046 27.5606 71.6437 27.7645 71.5829 27.9592C71.5281 28.1478 71.4673 28.3304 71.4003 28.5069H72.9521V26.8091L73.8923 26.8456V28.5069H76.8132V29.4014H73.8923V31.017H76.512V31.9025H73.8923V33.8284H77.2422ZM83.5439 26.8182C83.7082 27.2807 83.8846 27.6975 84.0733 28.0687C84.2619 28.4339 84.4719 28.7716 84.7031 29.0819C84.9404 29.3923 85.199 29.6783 85.479 29.94C85.765 30.2016 86.0875 30.4572 86.4465 30.7067L85.8532 31.5191C85.4942 31.2392 85.1595 30.9501 84.8491 30.6519C84.5449 30.3538 84.2619 30.0312 84.0003 29.6844C83.7386 29.3375 83.4982 28.9541 83.2791 28.5343C83.0662 28.1144 82.8714 27.6428 82.695 27.1194L83.5439 26.8182ZM81.773 27.2472C81.4262 28.1053 80.982 28.8872 80.4404 29.5931C79.8988 30.299 79.2872 30.9471 78.6057 31.5373L78.0215 30.7615C78.6726 30.2138 79.2416 29.6266 79.7284 28.9998C80.2213 28.3669 80.6108 27.6823 80.8968 26.946L81.773 27.2472ZM83.553 31.4369C83.7051 31.6499 83.8694 31.8903 84.0459 32.158C84.2284 32.4258 84.408 32.6996 84.5844 32.9795C84.767 33.2534 84.9404 33.5272 85.1047 33.8011C85.269 34.0749 85.412 34.3244 85.5337 34.5495L84.7944 35.1885C84.7396 35.079 84.6757 34.9573 84.6027 34.8234C84.5358 34.6956 84.4597 34.5617 84.3745 34.4218C84.2041 34.4278 83.982 34.437 83.7082 34.4491C83.4343 34.4674 83.1361 34.4856 82.8136 34.5039C82.4911 34.5222 82.1534 34.5404 81.8004 34.5587C81.4475 34.583 81.1067 34.6074 80.7781 34.6317C80.4556 34.656 80.1544 34.6804 79.8744 34.7047C79.6006 34.7351 79.3755 34.7625 79.199 34.7869L78.9069 33.8832C78.9982 33.865 79.0742 33.8467 79.1351 33.8284C79.202 33.8041 79.2568 33.7798 79.2994 33.7554C79.3481 33.725 79.3907 33.6915 79.4272 33.655C79.4637 33.6185 79.5032 33.5759 79.5458 33.5272C79.7041 33.3386 79.8744 33.1073 80.057 32.8335C80.2456 32.5536 80.4312 32.2493 80.6138 31.9207C80.8024 31.586 80.988 31.2392 81.1706 30.8801C81.3532 30.5211 81.5175 30.1651 81.6635 29.8122L82.5672 30.1864C82.4211 30.515 82.2599 30.8527 82.0834 31.1996C81.913 31.5404 81.7365 31.872 81.554 32.1945C81.3714 32.511 81.1919 32.8092 81.0154 33.0891C80.839 33.3629 80.6747 33.5972 80.5225 33.7919L83.8816 33.5911C83.6869 33.2747 83.4921 32.9704 83.2974 32.6783C83.1088 32.3862 82.9445 32.1428 82.8045 31.9481L83.553 31.4369ZM94.8841 27.5758V29.3101H94.09V28.2969H88.2025V29.3101H87.4175V27.5758H90.7492C90.7127 27.4602 90.6762 27.3476 90.6397 27.2381C90.6031 27.1225 90.5666 27.0129 90.5301 26.9095L91.4338 26.7817C91.4825 26.9034 91.5281 27.0282 91.5707 27.156C91.6133 27.2837 91.6589 27.4237 91.7076 27.5758H94.8841ZM91.5798 31.939H94.5555V33.9745C94.5555 34.157 94.5403 34.3122 94.5099 34.44C94.4795 34.5739 94.4247 34.6804 94.3456 34.7595C94.2726 34.8447 94.1661 34.9086 94.0261 34.9512C93.8861 34.9938 93.7066 35.0242 93.4876 35.0424L92.8942 35.0881L92.6387 34.3579L93.232 34.3213C93.4206 34.3092 93.5423 34.2605 93.5971 34.1753C93.6519 34.0901 93.6792 33.9623 93.6792 33.7919V32.6144H91.5798V33.3264L92.3192 33.2716C92.2766 33.2047 92.237 33.1438 92.2005 33.0891C92.164 33.0282 92.1275 32.9735 92.091 32.9248L92.6478 32.6236C92.7026 32.6966 92.7664 32.7879 92.8395 32.8974C92.9125 33.0008 92.9855 33.1134 93.0585 33.2351C93.1376 33.3507 93.2107 33.4694 93.2776 33.5911C93.3506 33.7067 93.4115 33.8132 93.4602 33.9106L92.9034 34.2757C92.8729 34.227 92.8425 34.1783 92.8121 34.1297C92.7877 34.0749 92.7604 34.0201 92.7299 33.9654C92.1823 34.008 91.595 34.0445 90.9683 34.0749C90.3476 34.1053 89.6995 34.1327 89.024 34.157L88.9875 33.4542L90.7492 33.372V32.6144H88.5767V34.9968H87.7187V31.939H90.7492V31.51H88.4672V28.7625H93.8435V31.51H91.5798V31.939ZM89.2887 29.3832V29.8487H90.7492V29.3832H89.2887ZM93.0312 29.3832H91.5798V29.8487H93.0312V29.3832ZM90.7492 30.9075V30.4511H89.2887V30.9075H90.7492ZM93.0312 30.9075V30.4511H91.5798V30.9075H93.0312Z" fill="#3A5A8A"/>
<defs>
<linearGradient id="paint0_linear_674_34005" x1="125.59" y1="-0.181216" x2="32.6643" y2="65.5502" gradientUnits="userSpaceOnUse">
<stop offset="0.5" stop-color="#809AF5"/>
<stop offset="0.5" stop-color="#3867E2"/>
</linearGradient>
</defs>
</svg>
